M48
; DRILL file KiCad 10.0.3 date 2026-07-12T19:23:47
; FORMAT={-:-/ absolute / metric / decimal}
; #@! TF.CreationDate,2026-07-12T19:23:47-04:00
; #@! TF.GenerationSoftware,Kicad,Pcbnew,10.0.3
; #@! TF.FileFunction,Plated,1,2,PTH
FMAT,2
METRIC
; #@! TA.AperFunction,Plated,PTH,ViaDrill
T1C0.400
; #@! TA.AperFunction,Plated,PTH,ComponentDrill
T2C0.800
; #@! TA.AperFunction,Plated,PTH,ComponentDrill
T3C1.000
; #@! TA.AperFunction,Plated,PTH,ComponentDrill
T4C1.016
; #@! TA.AperFunction,Plated,PTH,ComponentDrill
T5C1.100
%
G90
G05
T1
X175.133Y-44.958
X175.5Y-62.09
X176.5Y-80.75
X176.75Y-101.6
X193.25Y-74.25
X193.25Y-95.031
X193.875Y-115.895
X209.0Y-46.5
X209.0Y-47.5
X210.25Y-46.5
X210.25Y-47.5
X211.5Y-46.5
X211.5Y-47.5
X212.75Y-46.5
X212.75Y-47.5
X214.0Y-46.5
X214.0Y-47.5
X215.25Y-46.5
X215.25Y-47.5
T2
X168.148Y-46.286
X168.148Y-49.786
X179.08Y-61.22
X179.08Y-63.76
X179.08Y-66.3
X179.08Y-68.84
X179.08Y-71.38
X179.08Y-73.92
X179.08Y-76.46
X179.295Y-82.001
X179.295Y-84.541
X179.295Y-87.081
X179.295Y-89.621
X179.295Y-92.161
X179.295Y-94.701
X179.295Y-97.241
X179.455Y-102.865
X179.455Y-105.405
X179.455Y-107.945
X179.455Y-110.485
X179.455Y-113.025
X179.455Y-115.565
X179.455Y-118.105
X186.7Y-61.22
X186.7Y-63.76
X186.7Y-66.3
X186.7Y-68.84
X186.7Y-71.38
X186.7Y-73.92
X186.7Y-76.46
X186.915Y-82.001
X186.915Y-84.541
X186.915Y-87.081
X186.915Y-89.621
X186.915Y-92.161
X186.915Y-94.701
X186.915Y-97.241
X187.075Y-102.865
X187.075Y-105.405
X187.075Y-107.945
X187.075Y-110.485
X187.075Y-113.025
X187.075Y-115.565
X187.075Y-118.105
T3
X160.02Y-46.487
X160.02Y-49.027
X167.386Y-67.051
X167.386Y-69.591
X167.386Y-89.276
X167.386Y-91.816
X167.386Y-108.707
X167.386Y-111.247
T4
X187.75Y-47.577
X187.75Y-53.089
X200.75Y-47.577
X200.75Y-53.089
T5
X196.0Y-62.42
X196.0Y-72.58
X196.215Y-83.201
X196.215Y-93.361
X196.375Y-104.065
X196.375Y-114.225
X206.46Y-62.17
X206.62Y-73.21
X206.675Y-82.951
X206.835Y-93.991
X206.835Y-103.815
X206.995Y-114.855
X209.0Y-62.17
X209.16Y-73.21
X209.215Y-82.951
X209.375Y-93.991
X209.375Y-103.815
X209.535Y-114.855
X211.54Y-62.17
X211.7Y-73.21
X211.755Y-82.951
X211.915Y-93.991
X211.915Y-103.815
X212.075Y-114.855
X222.25Y-47.96
X222.25Y-50.5
X224.75Y-86.21
X224.75Y-88.75
X224.75Y-91.29
M30
