%TF.GenerationSoftware,KiCad,Pcbnew,10.0.3*%
%TF.CreationDate,2026-07-12T19:23:39-04:00*%
%TF.ProjectId,PWM_6_step_SVPWM_IR2110,50574d5f-365f-4737-9465-705f53565057,rev?*%
%TF.SameCoordinates,Original*%
%TF.FileFunction,Copper,L2,Bot*%
%TF.FilePolarity,Positive*%
%FSLAX46Y46*%
G04 Gerber Fmt 4.6, Leading zero omitted, Abs format (unit mm)*
G04 Created by KiCad (PCBNEW 10.0.3) date 2026-07-12 19:23:39*
%MOMM*%
%LPD*%
G01*
G04 APERTURE LIST*
G04 Aperture macros list*
%AMRoundRect*
0 Rectangle with rounded corners*
0 $1 Rounding radius*
0 $2 $3 $4 $5 $6 $7 $8 $9 X,Y pos of 4 corners*
0 Add a 4 corners polygon primitive as box body*
4,1,4,$2,$3,$4,$5,$6,$7,$8,$9,$2,$3,0*
0 Add four circle primitives for the rounded corners*
1,1,$1+$1,$2,$3*
1,1,$1+$1,$4,$5*
1,1,$1+$1,$6,$7*
1,1,$1+$1,$8,$9*
0 Add four rect primitives between the rounded corners*
20,1,$1+$1,$2,$3,$4,$5,0*
20,1,$1+$1,$4,$5,$6,$7,0*
20,1,$1+$1,$6,$7,$8,$9,0*
20,1,$1+$1,$8,$9,$2,$3,0*%
G04 Aperture macros list end*
%TA.AperFunction,EtchedComponent*%
%ADD10C,0.000000*%
%TD*%
%TA.AperFunction,ComponentPad*%
%ADD11R,1.905000X2.000000*%
%TD*%
%TA.AperFunction,ComponentPad*%
%ADD12O,1.905000X2.000000*%
%TD*%
%TA.AperFunction,ComponentPad*%
%ADD13RoundRect,0.250000X0.550000X0.550000X-0.550000X0.550000X-0.550000X-0.550000X0.550000X-0.550000X0*%
%TD*%
%TA.AperFunction,ComponentPad*%
%ADD14C,1.600000*%
%TD*%
%TA.AperFunction,ComponentPad*%
%ADD15RoundRect,0.249999X-0.850001X0.850001X-0.850001X-0.850001X0.850001X-0.850001X0.850001X0.850001X0*%
%TD*%
%TA.AperFunction,ComponentPad*%
%ADD16C,2.200000*%
%TD*%
%TA.AperFunction,ComponentPad*%
%ADD17R,1.700000X1.700000*%
%TD*%
%TA.AperFunction,ComponentPad*%
%ADD18C,1.700000*%
%TD*%
%TA.AperFunction,ComponentPad*%
%ADD19RoundRect,0.250001X-0.799999X0.799999X-0.799999X-0.799999X0.799999X-0.799999X0.799999X0.799999X0*%
%TD*%
%TA.AperFunction,ComponentPad*%
%ADD20C,2.100000*%
%TD*%
%TA.AperFunction,ComponentPad*%
%ADD21R,1.524000X1.524000*%
%TD*%
%TA.AperFunction,ComponentPad*%
%ADD22C,1.524000*%
%TD*%
%TA.AperFunction,ComponentPad*%
%ADD23RoundRect,0.250000X0.550000X-0.550000X0.550000X0.550000X-0.550000X0.550000X-0.550000X-0.550000X0*%
%TD*%
%TA.AperFunction,SMDPad,CuDef*%
%ADD24C,2.000000*%
%TD*%
%TA.AperFunction,ViaPad*%
%ADD25C,0.800000*%
%TD*%
%TA.AperFunction,Conductor*%
%ADD26C,0.500000*%
%TD*%
G04 APERTURE END LIST*
D10*
%TA.AperFunction,EtchedComponent*%
%TO.C,NT1*%
G36*
X186500000Y-45750000D02*
G01*
X179500000Y-45750000D01*
X179500000Y-43750000D01*
X186500000Y-43750000D01*
X186500000Y-45750000D01*
G37*
%TD.AperFunction*%
%TD*%
D11*
%TO.P,Q1,1,G_1*%
%TO.N,Net-(Q1-G)*%
X206620000Y-73210000D03*
D12*
%TO.P,Q1,2,D_2*%
%TO.N,/PHASE_A*%
X209160000Y-73210000D03*
%TO.P,Q1,3,S_3*%
%TO.N,GNDPWR*%
X211700000Y-73210000D03*
%TD*%
D13*
%TO.P,U3,1,LO_1*%
%TO.N,Net-(U3-LO)*%
X187075000Y-118105367D03*
D14*
%TO.P,U3,2,COM_2*%
%TO.N,GNDPWR*%
X187075000Y-115565367D03*
%TO.P,U3,3,VCC_3*%
%TO.N,+12V*%
X187075000Y-113025367D03*
%TO.P,U3,4,NC_4*%
%TO.N,unconnected-(U3-NC-Pad4)*%
X187075000Y-110485367D03*
%TO.P,U3,5,VS_5*%
%TO.N,/PHASE_C*%
X187075000Y-107945367D03*
%TO.P,U3,6,VB_6*%
%TO.N,Net-(D3-K)*%
X187075000Y-105405367D03*
%TO.P,U3,7,HO_7*%
%TO.N,Net-(U3-HO)*%
X187075000Y-102865367D03*
%TO.P,U3,8,NC_8*%
%TO.N,unconnected-(U3-NC-Pad8)*%
X179455000Y-102865367D03*
%TO.P,U3,9,VDD_9*%
%TO.N,+3.3V*%
X179455000Y-105405367D03*
%TO.P,U3,10,HIN_10*%
%TO.N,/PWMC*%
X179455000Y-107945367D03*
%TO.P,U3,11,SD_11*%
%TO.N,GNDD*%
X179455000Y-110485367D03*
%TO.P,U3,12,LIN_12*%
%TO.N,/PWMC_N*%
X179455000Y-113025367D03*
%TO.P,U3,13,VSS_13*%
%TO.N,GNDD*%
X179455000Y-115565367D03*
%TO.P,U3,14,NC_14*%
%TO.N,unconnected-(U3-NC-Pad14)*%
X179455000Y-118105367D03*
%TD*%
D15*
%TO.P,D2,1,K_1*%
%TO.N,Net-(D2-K)*%
X196215000Y-83201077D03*
D16*
%TO.P,D2,2,A_2*%
%TO.N,+12V*%
X196215000Y-93361077D03*
%TD*%
D11*
%TO.P,Q4,1,G_1*%
%TO.N,Net-(Q4-G)*%
X206835000Y-93991077D03*
D12*
%TO.P,Q4,2,D_2*%
%TO.N,/PHASE_B*%
X209375000Y-93991077D03*
%TO.P,Q4,3,S_3*%
%TO.N,GNDPWR*%
X211915000Y-93991077D03*
%TD*%
D17*
%TO.P,J8,1,Pin_1_1*%
%TO.N,/PWMC*%
X167386000Y-108707000D03*
D18*
%TO.P,J8,2,Pin_2_2*%
%TO.N,/PWMC_N*%
X167386000Y-111247000D03*
%TD*%
D15*
%TO.P,D1,1,K_1*%
%TO.N,Net-(D1-K)*%
X196000000Y-62420000D03*
D16*
%TO.P,D1,2,A_2*%
%TO.N,+12V*%
X196000000Y-72580000D03*
%TD*%
D11*
%TO.P,Q6,1,G_1*%
%TO.N,Net-(Q6-G)*%
X206995000Y-114855367D03*
D12*
%TO.P,Q6,2,D_2*%
%TO.N,/PHASE_C*%
X209535000Y-114855367D03*
%TO.P,Q6,3,S_3*%
%TO.N,GNDPWR*%
X212075000Y-114855367D03*
%TD*%
D19*
%TO.P,J3,1,Pin_1_1*%
%TO.N,GNDPWR*%
X222250000Y-47960000D03*
D20*
%TO.P,J3,2,Pin_2_2*%
%TO.N,+12V*%
X222250000Y-50500000D03*
%TD*%
D19*
%TO.P,J5,1,Pin_1_1*%
%TO.N,/PHASE_A*%
X224750000Y-86210000D03*
D20*
%TO.P,J5,2,Pin_2_2*%
%TO.N,/PHASE_B*%
X224750000Y-88750000D03*
%TO.P,J5,3,Pin_3_3*%
%TO.N,/PHASE_C*%
X224750000Y-91290000D03*
%TD*%
D21*
%TO.P,C13,1*%
%TO.N,+12V*%
X187750000Y-53089150D03*
D22*
%TO.P,C13,2*%
%TO.N,GNDPWR*%
X187750000Y-47577350D03*
%TD*%
D17*
%TO.P,J4,1,Pin_1_1*%
%TO.N,/PWMB*%
X167386000Y-89276000D03*
D18*
%TO.P,J4,2,Pin_2_2*%
%TO.N,/PWMB_N*%
X167386000Y-91816000D03*
%TD*%
D21*
%TO.P,C12,1*%
%TO.N,+12V*%
X200750000Y-53089150D03*
D22*
%TO.P,C12,2*%
%TO.N,GNDPWR*%
X200750000Y-47577350D03*
%TD*%
D11*
%TO.P,Q2,1,G_1*%
%TO.N,Net-(Q2-G)*%
X206460000Y-62170000D03*
D12*
%TO.P,Q2,2,D_2*%
%TO.N,+12V*%
X209000000Y-62170000D03*
%TO.P,Q2,3,S_3*%
%TO.N,/PHASE_A*%
X211540000Y-62170000D03*
%TD*%
D17*
%TO.P,J9,1,Pin_1_1*%
%TO.N,/PWMA*%
X167386000Y-67051000D03*
D18*
%TO.P,J9,2,Pin_2_2*%
%TO.N,/PWMA_N*%
X167386000Y-69591000D03*
%TD*%
D11*
%TO.P,Q3,1,G_1*%
%TO.N,Net-(Q3-G)*%
X206675000Y-82951077D03*
D12*
%TO.P,Q3,2,D_2*%
%TO.N,+12V*%
X209215000Y-82951077D03*
%TO.P,Q3,3,S_3*%
%TO.N,/PHASE_B*%
X211755000Y-82951077D03*
%TD*%
D23*
%TO.P,C18,1*%
%TO.N,+3.3V*%
X168148000Y-49785651D03*
D14*
%TO.P,C18,2*%
%TO.N,GNDD*%
X168148000Y-46285651D03*
%TD*%
D13*
%TO.P,U1,1,LO_1*%
%TO.N,Net-(U1-LO)*%
X186700000Y-76460000D03*
D14*
%TO.P,U1,2,COM_2*%
%TO.N,GNDPWR*%
X186700000Y-73920000D03*
%TO.P,U1,3,VCC_3*%
%TO.N,+12V*%
X186700000Y-71380000D03*
%TO.P,U1,4,NC_4*%
%TO.N,unconnected-(U1-NC-Pad4)*%
X186700000Y-68840000D03*
%TO.P,U1,5,VS_5*%
%TO.N,/PHASE_A*%
X186700000Y-66300000D03*
%TO.P,U1,6,VB_6*%
%TO.N,Net-(D1-K)*%
X186700000Y-63760000D03*
%TO.P,U1,7,HO_7*%
%TO.N,Net-(U1-HO)*%
X186700000Y-61220000D03*
%TO.P,U1,8,NC_8*%
%TO.N,unconnected-(U1-NC-Pad8)*%
X179080000Y-61220000D03*
%TO.P,U1,9,VDD_9*%
%TO.N,+3.3V*%
X179080000Y-63760000D03*
%TO.P,U1,10,HIN_10*%
%TO.N,/PWMA*%
X179080000Y-66300000D03*
%TO.P,U1,11,SD_11*%
%TO.N,GNDD*%
X179080000Y-68840000D03*
%TO.P,U1,12,LIN_12*%
%TO.N,/PWMA_N*%
X179080000Y-71380000D03*
%TO.P,U1,13,VSS_13*%
%TO.N,GNDD*%
X179080000Y-73920000D03*
%TO.P,U1,14,NC_14*%
%TO.N,unconnected-(U1-NC-Pad14)*%
X179080000Y-76460000D03*
%TD*%
D17*
%TO.P,J10,1,Pin_1_1*%
%TO.N,+3.3V*%
X160020000Y-49027000D03*
D18*
%TO.P,J10,2,Pin_2_2*%
%TO.N,GNDD*%
X160020000Y-46487000D03*
%TD*%
D13*
%TO.P,U2,1,LO_1*%
%TO.N,Net-(U2-LO)*%
X186915000Y-97241077D03*
D14*
%TO.P,U2,2,COM_2*%
%TO.N,GNDPWR*%
X186915000Y-94701077D03*
%TO.P,U2,3,VCC_3*%
%TO.N,+12V*%
X186915000Y-92161077D03*
%TO.P,U2,4,NC_4*%
%TO.N,unconnected-(U2-NC-Pad4)*%
X186915000Y-89621077D03*
%TO.P,U2,5,VS_5*%
%TO.N,/PHASE_B*%
X186915000Y-87081077D03*
%TO.P,U2,6,VB_6*%
%TO.N,Net-(D2-K)*%
X186915000Y-84541077D03*
%TO.P,U2,7,HO_7*%
%TO.N,Net-(U2-HO)*%
X186915000Y-82001077D03*
%TO.P,U2,8,NC_8*%
%TO.N,unconnected-(U2-NC-Pad8)*%
X179295000Y-82001077D03*
%TO.P,U2,9,VDD_9*%
%TO.N,+3.3V*%
X179295000Y-84541077D03*
%TO.P,U2,10,HIN_10*%
%TO.N,/PWMB*%
X179295000Y-87081077D03*
%TO.P,U2,11,SD_11*%
%TO.N,GNDD*%
X179295000Y-89621077D03*
%TO.P,U2,12,LIN_12*%
%TO.N,/PWMB_N*%
X179295000Y-92161077D03*
%TO.P,U2,13,VSS_13*%
%TO.N,GNDD*%
X179295000Y-94701077D03*
%TO.P,U2,14,NC_14*%
%TO.N,unconnected-(U2-NC-Pad14)*%
X179295000Y-97241077D03*
%TD*%
D15*
%TO.P,D3,1,K_1*%
%TO.N,Net-(D3-K)*%
X196375000Y-104065367D03*
D16*
%TO.P,D3,2,A_2*%
%TO.N,+12V*%
X196375000Y-114225367D03*
%TD*%
D11*
%TO.P,Q5,1,G_1*%
%TO.N,Net-(Q5-G)*%
X206835000Y-103815367D03*
D12*
%TO.P,Q5,2,D_2*%
%TO.N,+12V*%
X209375000Y-103815367D03*
%TO.P,Q5,3,S_3*%
%TO.N,/PHASE_C*%
X211915000Y-103815367D03*
%TD*%
D24*
%TO.P,NT1,1,1_1*%
%TO.N,GNDD*%
X179500000Y-44750000D03*
%TO.P,NT1,2,2_2*%
%TO.N,GNDPWR*%
X186500000Y-44750000D03*
%TD*%
D25*
%TO.N,GNDPWR*%
X211500000Y-47500000D03*
X210250000Y-47500000D03*
X214000000Y-46500000D03*
X193875000Y-115895367D03*
X211500000Y-46500000D03*
X210250000Y-46500000D03*
X214000000Y-47500000D03*
X193250000Y-95031077D03*
X215250000Y-46500000D03*
X209000000Y-46500000D03*
X212750000Y-46500000D03*
X209000000Y-47500000D03*
X215250000Y-47500000D03*
X193250000Y-74250000D03*
X212750000Y-47500000D03*
%TO.N,GNDD*%
X176750000Y-101599633D03*
X175500000Y-62090000D03*
X176500000Y-80750000D03*
X175133000Y-44958000D03*
%TD*%
%TO.N,/PWMC_N*%
D26*
X179455000Y-113025367D02*
X179455000Y-112455000D01*
%TD*%
%TA.AperFunction,Conductor*%
%TO.N,GNDD*%
G36*
X180880172Y-41529074D02*
G01*
X180900822Y-41545710D01*
X181827674Y-42472407D01*
X181861164Y-42533728D01*
X181864000Y-42560096D01*
X181864000Y-122696501D01*
X181844315Y-122763540D01*
X181827794Y-122784069D01*
X180838753Y-123775664D01*
X180777473Y-123809228D01*
X180751105Y-123812096D01*
X157711847Y-123839180D01*
X157644784Y-123819574D01*
X157598967Y-123766824D01*
X157587703Y-123715556D01*
X157540049Y-107808345D01*
X166027500Y-107808345D01*
X166027500Y-109605654D01*
X166034011Y-109666202D01*
X166034011Y-109666204D01*
X166068789Y-109759444D01*
X166085111Y-109803204D01*
X166172739Y-109920261D01*
X166289796Y-110007889D01*
X166410626Y-110052956D01*
X166466557Y-110094827D01*
X166490974Y-110160291D01*
X166476122Y-110228564D01*
X166454972Y-110256818D01*
X166349793Y-110361997D01*
X166224106Y-110534990D01*
X166127027Y-110725516D01*
X166127026Y-110725519D01*
X166060951Y-110928882D01*
X166027500Y-111140084D01*
X166027500Y-111353915D01*
X166060951Y-111565117D01*
X166127026Y-111768480D01*
X166127027Y-111768483D01*
X166197218Y-111906238D01*
X166224106Y-111959009D01*
X166349794Y-112132004D01*
X166500996Y-112283206D01*
X166673991Y-112408894D01*
X166767438Y-112456507D01*
X166864516Y-112505972D01*
X166864519Y-112505973D01*
X166966200Y-112539010D01*
X167067884Y-112572049D01*
X167279084Y-112605500D01*
X167279085Y-112605500D01*
X167492915Y-112605500D01*
X167492916Y-112605500D01*
X167704116Y-112572049D01*
X167907483Y-112505972D01*
X168098009Y-112408894D01*
X168271004Y-112283206D01*
X168422206Y-112132004D01*
X168547894Y-111959009D01*
X168644972Y-111768483D01*
X168711049Y-111565116D01*
X168744500Y-111353916D01*
X168744500Y-111140084D01*
X168711049Y-110928884D01*
X168678010Y-110827200D01*
X168644973Y-110725519D01*
X168644972Y-110725516D01*
X168574742Y-110587684D01*
X168547894Y-110534991D01*
X168511840Y-110485367D01*
X168486923Y-110451071D01*
X168486921Y-110451069D01*
X168422206Y-110361996D01*
X168317028Y-110256818D01*
X168283543Y-110195495D01*
X168288527Y-110125803D01*
X168330399Y-110069870D01*
X168361367Y-110052959D01*
X168482204Y-110007889D01*
X168599261Y-109920261D01*
X168686889Y-109803204D01*
X168737989Y-109666201D01*
X168741591Y-109632692D01*
X168744499Y-109605654D01*
X168744500Y-109605637D01*
X168744500Y-107808362D01*
X168744499Y-107808345D01*
X168741157Y-107777270D01*
X168737989Y-107747799D01*
X168686889Y-107610796D01*
X168599261Y-107493739D01*
X168482204Y-107406111D01*
X168345203Y-107355011D01*
X168284654Y-107348500D01*
X168284638Y-107348500D01*
X166487362Y-107348500D01*
X166487345Y-107348500D01*
X166426797Y-107355011D01*
X166426795Y-107355011D01*
X166289795Y-107406111D01*
X166172739Y-107493739D01*
X166085111Y-107610795D01*
X166034011Y-107747795D01*
X166034011Y-107747797D01*
X166027500Y-107808345D01*
X157540049Y-107808345D01*
X157524933Y-102762386D01*
X178146500Y-102762386D01*
X178146500Y-102968347D01*
X178178719Y-103171775D01*
X178242367Y-103367661D01*
X178335873Y-103551173D01*
X178456926Y-103717790D01*
X178456930Y-103717795D01*
X178602571Y-103863436D01*
X178602576Y-103863440D01*
X178769195Y-103984495D01*
X178848459Y-104024883D01*
X178899254Y-104072857D01*
X178916049Y-104140678D01*
X178893511Y-104206813D01*
X178848459Y-104245851D01*
X178769195Y-104286238D01*
X178602576Y-104407293D01*
X178602571Y-104407297D01*
X178456930Y-104552938D01*
X178456926Y-104552943D01*
X178335873Y-104719560D01*
X178242367Y-104903072D01*
X178178719Y-105098958D01*
X178146500Y-105302386D01*
X178146500Y-105508347D01*
X178178719Y-105711775D01*
X178242367Y-105907661D01*
X178335873Y-106091173D01*
X178456926Y-106257790D01*
X178456930Y-106257795D01*
X178602571Y-106403436D01*
X178602576Y-106403440D01*
X178769195Y-106524495D01*
X178848459Y-106564883D01*
X178899254Y-106612857D01*
X178916049Y-106680678D01*
X178893511Y-106746813D01*
X178848459Y-106785851D01*
X178769195Y-106826238D01*
X178602576Y-106947293D01*
X178602571Y-106947297D01*
X178456930Y-107092938D01*
X178456926Y-107092943D01*
X178335873Y-107259560D01*
X178242367Y-107443072D01*
X178178719Y-107638958D01*
X178146500Y-107842386D01*
X178146500Y-108048347D01*
X178178719Y-108251775D01*
X178242367Y-108447661D01*
X178335873Y-108631173D01*
X178456926Y-108797790D01*
X178456930Y-108797795D01*
X178602571Y-108943436D01*
X178602576Y-108943440D01*
X178747908Y-109049028D01*
X178769197Y-109064496D01*
X178857819Y-109109651D01*
X178908615Y-109157626D01*
X178925410Y-109225447D01*
X178902873Y-109291581D01*
X178857820Y-109330620D01*
X178773648Y-109373508D01*
X178773645Y-109373510D01*
X178729077Y-109405890D01*
X178729077Y-109405891D01*
X179408554Y-110085367D01*
X179402339Y-110085367D01*
X179300606Y-110112626D01*
X179209394Y-110165287D01*
X179134920Y-110239761D01*
X179082259Y-110330973D01*
X179055000Y-110432706D01*
X179055000Y-110438920D01*
X178375524Y-109759444D01*
X178375523Y-109759444D01*
X178343143Y-109804011D01*
X178250244Y-109986335D01*
X178187009Y-110180949D01*
X178155000Y-110383049D01*
X178155000Y-110587684D01*
X178187009Y-110789784D01*
X178250244Y-110984398D01*
X178343141Y-111166717D01*
X178343147Y-111166726D01*
X178375523Y-111211288D01*
X178375524Y-111211289D01*
X179055000Y-110531813D01*
X179055000Y-110538028D01*
X179082259Y-110639761D01*
X179134920Y-110730973D01*
X179209394Y-110805447D01*
X179300606Y-110858108D01*
X179402339Y-110885367D01*
X179408553Y-110885367D01*
X178729076Y-111564841D01*
X178773652Y-111597228D01*
X178857818Y-111640112D01*
X178908614Y-111688086D01*
X178925410Y-111755907D01*
X178902873Y-111822042D01*
X178857820Y-111861081D01*
X178769195Y-111906238D01*
X178602576Y-112027293D01*
X178602571Y-112027297D01*
X178456930Y-112172938D01*
X178456926Y-112172943D01*
X178335873Y-112339560D01*
X178242367Y-112523072D01*
X178178719Y-112718958D01*
X178146500Y-112922386D01*
X178146500Y-113128347D01*
X178178719Y-113331775D01*
X178242367Y-113527661D01*
X178335873Y-113711173D01*
X178456926Y-113877790D01*
X178456930Y-113877795D01*
X178602571Y-114023436D01*
X178602576Y-114023440D01*
X178747908Y-114129028D01*
X178769197Y-114144496D01*
X178857819Y-114189651D01*
X178908615Y-114237626D01*
X178925410Y-114305447D01*
X178902873Y-114371581D01*
X178857820Y-114410620D01*
X178773648Y-114453508D01*
X178773645Y-114453510D01*
X178729077Y-114485890D01*
X178729077Y-114485891D01*
X179408554Y-115165367D01*
X179402339Y-115165367D01*
X179300606Y-115192626D01*
X179209394Y-115245287D01*
X179134920Y-115319761D01*
X179082259Y-115410973D01*
X179055000Y-115512706D01*
X179055000Y-115518920D01*
X178375524Y-114839444D01*
X178375523Y-114839444D01*
X178343143Y-114884011D01*
X178250244Y-115066335D01*
X178187009Y-115260949D01*
X178155000Y-115463049D01*
X178155000Y-115667684D01*
X178187009Y-115869784D01*
X178250244Y-116064398D01*
X178343141Y-116246717D01*
X178343147Y-116246726D01*
X178375523Y-116291288D01*
X178375524Y-116291289D01*
X179055000Y-115611813D01*
X179055000Y-115618028D01*
X179082259Y-115719761D01*
X179134920Y-115810973D01*
X179209394Y-115885447D01*
X179300606Y-115938108D01*
X179402339Y-115965367D01*
X179408553Y-115965367D01*
X178729076Y-116644841D01*
X178773652Y-116677228D01*
X178857818Y-116720112D01*
X178908614Y-116768086D01*
X178925410Y-116835907D01*
X178902873Y-116902042D01*
X178857820Y-116941081D01*
X178769195Y-116986238D01*
X178602576Y-117107293D01*
X178602571Y-117107297D01*
X178456930Y-117252938D01*
X178456926Y-117252943D01*
X178335873Y-117419560D01*
X178242367Y-117603072D01*
X178178719Y-117798958D01*
X178146500Y-118002386D01*
X178146500Y-118208347D01*
X178178719Y-118411775D01*
X178242367Y-118607661D01*
X178335873Y-118791173D01*
X178456926Y-118957790D01*
X178456930Y-118957795D01*
X178602571Y-119103436D01*
X178602576Y-119103440D01*
X178747908Y-119209028D01*
X178769197Y-119224496D01*
X178886128Y-119284076D01*
X178952705Y-119317999D01*
X178952707Y-119317999D01*
X178952710Y-119318001D01*
X179057707Y-119352116D01*
X179148591Y-119381647D01*
X179250305Y-119397757D01*
X179352019Y-119413867D01*
X179352020Y-119413867D01*
X179557980Y-119413867D01*
X179557981Y-119413867D01*
X179761408Y-119381647D01*
X179957290Y-119318001D01*
X180140803Y-119224496D01*
X180307430Y-119103435D01*
X180453068Y-118957797D01*
X180574129Y-118791170D01*
X180667634Y-118607657D01*
X180731280Y-118411775D01*
X180763500Y-118208348D01*
X180763500Y-118002386D01*
X180731280Y-117798959D01*
X180667634Y-117603077D01*
X180667632Y-117603074D01*
X180667632Y-117603072D01*
X180633709Y-117536495D01*
X180574129Y-117419564D01*
X180558661Y-117398275D01*
X180453073Y-117252943D01*
X180453069Y-117252938D01*
X180307428Y-117107297D01*
X180307423Y-117107293D01*
X180140806Y-116986240D01*
X180140805Y-116986239D01*
X180140803Y-116986238D01*
X180052180Y-116941082D01*
X180001384Y-116893107D01*
X179984589Y-116825286D01*
X180007127Y-116759151D01*
X180052181Y-116720112D01*
X180136346Y-116677228D01*
X180136347Y-116677228D01*
X180180921Y-116644841D01*
X179501447Y-115965367D01*
X179507661Y-115965367D01*
X179609394Y-115938108D01*
X179700606Y-115885447D01*
X179775080Y-115810973D01*
X179827741Y-115719761D01*
X179855000Y-115618028D01*
X179855000Y-115611814D01*
X180534474Y-116291288D01*
X180566859Y-116246716D01*
X180659755Y-116064398D01*
X180722990Y-115869784D01*
X180755000Y-115667684D01*
X180755000Y-115463049D01*
X180722990Y-115260949D01*
X180659755Y-115066335D01*
X180566859Y-114884017D01*
X180534474Y-114839444D01*
X180534474Y-114839443D01*
X179855000Y-115518918D01*
X179855000Y-115512706D01*
X179827741Y-115410973D01*
X179775080Y-115319761D01*
X179700606Y-115245287D01*
X179609394Y-115192626D01*
X179507661Y-115165367D01*
X179501446Y-115165367D01*
X180180922Y-114485891D01*
X180180921Y-114485890D01*
X180136359Y-114453514D01*
X180136350Y-114453508D01*
X180052180Y-114410621D01*
X180001384Y-114362646D01*
X179984589Y-114294825D01*
X180007127Y-114228690D01*
X180052179Y-114189651D01*
X180140803Y-114144496D01*
X180307430Y-114023435D01*
X180453068Y-113877797D01*
X180574129Y-113711170D01*
X180667634Y-113527657D01*
X180731280Y-113331775D01*
X180763500Y-113128348D01*
X180763500Y-112922386D01*
X180731280Y-112718959D01*
X180667634Y-112523077D01*
X180667632Y-112523074D01*
X180667632Y-112523072D01*
X180633709Y-112456495D01*
X180574129Y-112339564D01*
X180533181Y-112283203D01*
X180453073Y-112172943D01*
X180453069Y-112172938D01*
X180307428Y-112027297D01*
X180307423Y-112027293D01*
X180140806Y-111906240D01*
X180140805Y-111906239D01*
X180140803Y-111906238D01*
X180052180Y-111861082D01*
X180001384Y-111813107D01*
X179984589Y-111745286D01*
X180007127Y-111679151D01*
X180052181Y-111640112D01*
X180136346Y-111597228D01*
X180136347Y-111597228D01*
X180180921Y-111564841D01*
X179501447Y-110885367D01*
X179507661Y-110885367D01*
X179609394Y-110858108D01*
X179700606Y-110805447D01*
X179775080Y-110730973D01*
X179827741Y-110639761D01*
X179855000Y-110538028D01*
X179855000Y-110531814D01*
X180534474Y-111211288D01*
X180566859Y-111166716D01*
X180659755Y-110984398D01*
X180722990Y-110789784D01*
X180755000Y-110587684D01*
X180755000Y-110383049D01*
X180722990Y-110180949D01*
X180659755Y-109986335D01*
X180566859Y-109804017D01*
X180534474Y-109759444D01*
X180534474Y-109759443D01*
X179855000Y-110438918D01*
X179855000Y-110432706D01*
X179827741Y-110330973D01*
X179775080Y-110239761D01*
X179700606Y-110165287D01*
X179609394Y-110112626D01*
X179507661Y-110085367D01*
X179501446Y-110085367D01*
X180180922Y-109405891D01*
X180180921Y-109405890D01*
X180136359Y-109373514D01*
X180136350Y-109373508D01*
X180052180Y-109330621D01*
X180001384Y-109282646D01*
X179984589Y-109214825D01*
X180007127Y-109148690D01*
X180052179Y-109109651D01*
X180140803Y-109064496D01*
X180307430Y-108943435D01*
X180453068Y-108797797D01*
X180574129Y-108631170D01*
X180667634Y-108447657D01*
X180731280Y-108251775D01*
X180763500Y-108048348D01*
X180763500Y-107842386D01*
X180731280Y-107638959D01*
X180667634Y-107443077D01*
X180667632Y-107443074D01*
X180667632Y-107443072D01*
X180619444Y-107348500D01*
X180574129Y-107259564D01*
X180558661Y-107238275D01*
X180453073Y-107092943D01*
X180453069Y-107092938D01*
X180307428Y-106947297D01*
X180307423Y-106947293D01*
X180140806Y-106826240D01*
X180140805Y-106826239D01*
X180140803Y-106826238D01*
X180061540Y-106785851D01*
X180010745Y-106737877D01*
X179993950Y-106670056D01*
X180016487Y-106603921D01*
X180061541Y-106564882D01*
X180140803Y-106524496D01*
X180307430Y-106403435D01*
X180453068Y-106257797D01*
X180574129Y-106091170D01*
X180667634Y-105907657D01*
X180731280Y-105711775D01*
X180763500Y-105508348D01*
X180763500Y-105302386D01*
X180731280Y-105098959D01*
X180667634Y-104903077D01*
X180667632Y-104903074D01*
X180667632Y-104903072D01*
X180633709Y-104836495D01*
X180574129Y-104719564D01*
X180558661Y-104698275D01*
X180453073Y-104552943D01*
X180453069Y-104552938D01*
X180307428Y-104407297D01*
X180307423Y-104407293D01*
X180140806Y-104286240D01*
X180140805Y-104286239D01*
X180140803Y-104286238D01*
X180061540Y-104245851D01*
X180010745Y-104197877D01*
X179993950Y-104130056D01*
X180016487Y-104063921D01*
X180061541Y-104024882D01*
X180140803Y-103984496D01*
X180307430Y-103863435D01*
X180453068Y-103717797D01*
X180574129Y-103551170D01*
X180667634Y-103367657D01*
X180731280Y-103171775D01*
X180763500Y-102968348D01*
X180763500Y-102762386D01*
X180731280Y-102558959D01*
X180667634Y-102363077D01*
X180667632Y-102363074D01*
X180667632Y-102363072D01*
X180633709Y-102296495D01*
X180574129Y-102179564D01*
X180558661Y-102158275D01*
X180453073Y-102012943D01*
X180453069Y-102012938D01*
X180307428Y-101867297D01*
X180307423Y-101867293D01*
X180140806Y-101746240D01*
X180140805Y-101746239D01*
X180140803Y-101746238D01*
X180083496Y-101717038D01*
X179957294Y-101652734D01*
X179761408Y-101589086D01*
X179585794Y-101561272D01*
X179557981Y-101556867D01*
X179352019Y-101556867D01*
X179327550Y-101560742D01*
X179148591Y-101589086D01*
X178952705Y-101652734D01*
X178769193Y-101746240D01*
X178602576Y-101867293D01*
X178602571Y-101867297D01*
X178456930Y-102012938D01*
X178456926Y-102012943D01*
X178335873Y-102179560D01*
X178242367Y-102363072D01*
X178178719Y-102558958D01*
X178146500Y-102762386D01*
X157524933Y-102762386D01*
X157481839Y-88377345D01*
X166027500Y-88377345D01*
X166027500Y-90174654D01*
X166034011Y-90235202D01*
X166034011Y-90235204D01*
X166075710Y-90346999D01*
X166085111Y-90372204D01*
X166172739Y-90489261D01*
X166289796Y-90576889D01*
X166410626Y-90621956D01*
X166466557Y-90663827D01*
X166490974Y-90729291D01*
X166476122Y-90797564D01*
X166454972Y-90825818D01*
X166349793Y-90930997D01*
X166224106Y-91103990D01*
X166127027Y-91294516D01*
X166127026Y-91294519D01*
X166060951Y-91497882D01*
X166027500Y-91709084D01*
X166027500Y-91922915D01*
X166060951Y-92134117D01*
X166127026Y-92337480D01*
X166127027Y-92337483D01*
X166193267Y-92467485D01*
X166224106Y-92528009D01*
X166349794Y-92701004D01*
X166500996Y-92852206D01*
X166673991Y-92977894D01*
X166767438Y-93025507D01*
X166864516Y-93074972D01*
X166864519Y-93074973D01*
X166966200Y-93108010D01*
X167067884Y-93141049D01*
X167279084Y-93174500D01*
X167279085Y-93174500D01*
X167492915Y-93174500D01*
X167492916Y-93174500D01*
X167704116Y-93141049D01*
X167907483Y-93074972D01*
X168098009Y-92977894D01*
X168271004Y-92852206D01*
X168422206Y-92701004D01*
X168547894Y-92528009D01*
X168644972Y-92337483D01*
X168711049Y-92134116D01*
X168744500Y-91922916D01*
X168744500Y-91709084D01*
X168711049Y-91497884D01*
X168649565Y-91308653D01*
X168644973Y-91294519D01*
X168644972Y-91294516D01*
X168547893Y-91103990D01*
X168422206Y-90930996D01*
X168317028Y-90825818D01*
X168283543Y-90764495D01*
X168288527Y-90694803D01*
X168330399Y-90638870D01*
X168361367Y-90621959D01*
X168482204Y-90576889D01*
X168599261Y-90489261D01*
X168686889Y-90372204D01*
X168737989Y-90235201D01*
X168741591Y-90201692D01*
X168744499Y-90174654D01*
X168744500Y-90174637D01*
X168744500Y-88377362D01*
X168744499Y-88377345D01*
X168741157Y-88346270D01*
X168737989Y-88316799D01*
X168686889Y-88179796D01*
X168599261Y-88062739D01*
X168482204Y-87975111D01*
X168345203Y-87924011D01*
X168284654Y-87917500D01*
X168284638Y-87917500D01*
X166487362Y-87917500D01*
X166487345Y-87917500D01*
X166426797Y-87924011D01*
X166426795Y-87924011D01*
X166289795Y-87975111D01*
X166172739Y-88062739D01*
X166085111Y-88179795D01*
X166034011Y-88316795D01*
X166034011Y-88316797D01*
X166027500Y-88377345D01*
X157481839Y-88377345D01*
X157462429Y-81898096D01*
X177986500Y-81898096D01*
X177986500Y-82104057D01*
X178018719Y-82307485D01*
X178082367Y-82503371D01*
X178175873Y-82686883D01*
X178296926Y-82853500D01*
X178296930Y-82853505D01*
X178442571Y-82999146D01*
X178442576Y-82999150D01*
X178609195Y-83120205D01*
X178688459Y-83160593D01*
X178739254Y-83208567D01*
X178756049Y-83276388D01*
X178733511Y-83342523D01*
X178688459Y-83381561D01*
X178609195Y-83421948D01*
X178442576Y-83543003D01*
X178442571Y-83543007D01*
X178296930Y-83688648D01*
X178296926Y-83688653D01*
X178175873Y-83855270D01*
X178082367Y-84038782D01*
X178018719Y-84234668D01*
X177986500Y-84438096D01*
X177986500Y-84644057D01*
X178018719Y-84847485D01*
X178082367Y-85043371D01*
X178175873Y-85226883D01*
X178296926Y-85393500D01*
X178296930Y-85393505D01*
X178442571Y-85539146D01*
X178442576Y-85539150D01*
X178609195Y-85660205D01*
X178688459Y-85700593D01*
X178739254Y-85748567D01*
X178756049Y-85816388D01*
X178733511Y-85882523D01*
X178688459Y-85921561D01*
X178609195Y-85961948D01*
X178442576Y-86083003D01*
X178442571Y-86083007D01*
X178296930Y-86228648D01*
X178296926Y-86228653D01*
X178175873Y-86395270D01*
X178082367Y-86578782D01*
X178018719Y-86774668D01*
X177986500Y-86978096D01*
X177986500Y-87184057D01*
X178018719Y-87387485D01*
X178082367Y-87583371D01*
X178175873Y-87766883D01*
X178296926Y-87933500D01*
X178296930Y-87933505D01*
X178442571Y-88079146D01*
X178442576Y-88079150D01*
X178581105Y-88179796D01*
X178609197Y-88200206D01*
X178697819Y-88245361D01*
X178748615Y-88293336D01*
X178765410Y-88361157D01*
X178742873Y-88427291D01*
X178697820Y-88466330D01*
X178613648Y-88509218D01*
X178613645Y-88509220D01*
X178569077Y-88541600D01*
X178569077Y-88541601D01*
X179248554Y-89221077D01*
X179242339Y-89221077D01*
X179140606Y-89248336D01*
X179049394Y-89300997D01*
X178974920Y-89375471D01*
X178922259Y-89466683D01*
X178895000Y-89568416D01*
X178895000Y-89574630D01*
X178215524Y-88895154D01*
X178215523Y-88895154D01*
X178183143Y-88939721D01*
X178090244Y-89122045D01*
X178027009Y-89316659D01*
X177995000Y-89518759D01*
X177995000Y-89723394D01*
X178027009Y-89925494D01*
X178090244Y-90120108D01*
X178183141Y-90302427D01*
X178183147Y-90302436D01*
X178215523Y-90346998D01*
X178215524Y-90346999D01*
X178895000Y-89667523D01*
X178895000Y-89673738D01*
X178922259Y-89775471D01*
X178974920Y-89866683D01*
X179049394Y-89941157D01*
X179140606Y-89993818D01*
X179242339Y-90021077D01*
X179248553Y-90021077D01*
X178569076Y-90700551D01*
X178613652Y-90732938D01*
X178697818Y-90775822D01*
X178748614Y-90823796D01*
X178765410Y-90891617D01*
X178742873Y-90957752D01*
X178697820Y-90996791D01*
X178609195Y-91041948D01*
X178442576Y-91163003D01*
X178442571Y-91163007D01*
X178296930Y-91308648D01*
X178296926Y-91308653D01*
X178175873Y-91475270D01*
X178082367Y-91658782D01*
X178018719Y-91854668D01*
X177986500Y-92058096D01*
X177986500Y-92264057D01*
X178018719Y-92467485D01*
X178082367Y-92663371D01*
X178175873Y-92846883D01*
X178296926Y-93013500D01*
X178296930Y-93013505D01*
X178442571Y-93159146D01*
X178442576Y-93159150D01*
X178463704Y-93174500D01*
X178609197Y-93280206D01*
X178697819Y-93325361D01*
X178748615Y-93373336D01*
X178765410Y-93441157D01*
X178742873Y-93507291D01*
X178697820Y-93546330D01*
X178613648Y-93589218D01*
X178613645Y-93589220D01*
X178569077Y-93621600D01*
X178569077Y-93621601D01*
X179248554Y-94301077D01*
X179242339Y-94301077D01*
X179140606Y-94328336D01*
X179049394Y-94380997D01*
X178974920Y-94455471D01*
X178922259Y-94546683D01*
X178895000Y-94648416D01*
X178895000Y-94654630D01*
X178215524Y-93975154D01*
X178215523Y-93975154D01*
X178183143Y-94019721D01*
X178090244Y-94202045D01*
X178027009Y-94396659D01*
X177995000Y-94598759D01*
X177995000Y-94803394D01*
X178027009Y-95005494D01*
X178090244Y-95200108D01*
X178183141Y-95382427D01*
X178183147Y-95382436D01*
X178215523Y-95426998D01*
X178215524Y-95426999D01*
X178895000Y-94747523D01*
X178895000Y-94753738D01*
X178922259Y-94855471D01*
X178974920Y-94946683D01*
X179049394Y-95021157D01*
X179140606Y-95073818D01*
X179242339Y-95101077D01*
X179248553Y-95101077D01*
X178569076Y-95780551D01*
X178613652Y-95812938D01*
X178697818Y-95855822D01*
X178748614Y-95903796D01*
X178765410Y-95971617D01*
X178742873Y-96037752D01*
X178697820Y-96076791D01*
X178609195Y-96121948D01*
X178442576Y-96243003D01*
X178442571Y-96243007D01*
X178296930Y-96388648D01*
X178296926Y-96388653D01*
X178175873Y-96555270D01*
X178082367Y-96738782D01*
X178018719Y-96934668D01*
X177986500Y-97138096D01*
X177986500Y-97344057D01*
X178018719Y-97547485D01*
X178082367Y-97743371D01*
X178175873Y-97926883D01*
X178296926Y-98093500D01*
X178296930Y-98093505D01*
X178442571Y-98239146D01*
X178442576Y-98239150D01*
X178587908Y-98344738D01*
X178609197Y-98360206D01*
X178726128Y-98419786D01*
X178792705Y-98453709D01*
X178792707Y-98453709D01*
X178792710Y-98453711D01*
X178897707Y-98487826D01*
X178988591Y-98517357D01*
X179090305Y-98533467D01*
X179192019Y-98549577D01*
X179192020Y-98549577D01*
X179397980Y-98549577D01*
X179397981Y-98549577D01*
X179601408Y-98517357D01*
X179797290Y-98453711D01*
X179980803Y-98360206D01*
X180147430Y-98239145D01*
X180293068Y-98093507D01*
X180414129Y-97926880D01*
X180507634Y-97743367D01*
X180571280Y-97547485D01*
X180603500Y-97344058D01*
X180603500Y-97138096D01*
X180571280Y-96934669D01*
X180507634Y-96738787D01*
X180507632Y-96738784D01*
X180507632Y-96738782D01*
X180473709Y-96672205D01*
X180414129Y-96555274D01*
X180398661Y-96533985D01*
X180293073Y-96388653D01*
X180293069Y-96388648D01*
X180147428Y-96243007D01*
X180147423Y-96243003D01*
X179980806Y-96121950D01*
X179980805Y-96121949D01*
X179980803Y-96121948D01*
X179892180Y-96076792D01*
X179841384Y-96028817D01*
X179824589Y-95960996D01*
X179847127Y-95894861D01*
X179892181Y-95855822D01*
X179976346Y-95812938D01*
X179976347Y-95812938D01*
X180020921Y-95780551D01*
X179341447Y-95101077D01*
X179347661Y-95101077D01*
X179449394Y-95073818D01*
X179540606Y-95021157D01*
X179615080Y-94946683D01*
X179667741Y-94855471D01*
X179695000Y-94753738D01*
X179695000Y-94747524D01*
X180374474Y-95426998D01*
X180406859Y-95382426D01*
X180499755Y-95200108D01*
X180562990Y-95005494D01*
X180595000Y-94803394D01*
X180595000Y-94598759D01*
X180562990Y-94396659D01*
X180499755Y-94202045D01*
X180406859Y-94019727D01*
X180374474Y-93975154D01*
X180374474Y-93975153D01*
X179695000Y-94654628D01*
X179695000Y-94648416D01*
X179667741Y-94546683D01*
X179615080Y-94455471D01*
X179540606Y-94380997D01*
X179449394Y-94328336D01*
X179347661Y-94301077D01*
X179341446Y-94301077D01*
X180020922Y-93621601D01*
X180020921Y-93621600D01*
X179976359Y-93589224D01*
X179976350Y-93589218D01*
X179892180Y-93546331D01*
X179841384Y-93498356D01*
X179824589Y-93430535D01*
X179847127Y-93364400D01*
X179892179Y-93325361D01*
X179980803Y-93280206D01*
X180147430Y-93159145D01*
X180293068Y-93013507D01*
X180414129Y-92846880D01*
X180507634Y-92663367D01*
X180571280Y-92467485D01*
X180603500Y-92264058D01*
X180603500Y-92058096D01*
X180571280Y-91854669D01*
X180507634Y-91658787D01*
X180507632Y-91658784D01*
X180507632Y-91658782D01*
X180425648Y-91497882D01*
X180414129Y-91475274D01*
X180398661Y-91453985D01*
X180293073Y-91308653D01*
X180293069Y-91308648D01*
X180147428Y-91163007D01*
X180147423Y-91163003D01*
X179980806Y-91041950D01*
X179980805Y-91041949D01*
X179980803Y-91041948D01*
X179892180Y-90996792D01*
X179841384Y-90948817D01*
X179824589Y-90880996D01*
X179847127Y-90814861D01*
X179892181Y-90775822D01*
X179976346Y-90732938D01*
X179976347Y-90732938D01*
X180020921Y-90700551D01*
X179341447Y-90021077D01*
X179347661Y-90021077D01*
X179449394Y-89993818D01*
X179540606Y-89941157D01*
X179615080Y-89866683D01*
X179667741Y-89775471D01*
X179695000Y-89673738D01*
X179695000Y-89667524D01*
X180374474Y-90346998D01*
X180406859Y-90302426D01*
X180499755Y-90120108D01*
X180562990Y-89925494D01*
X180595000Y-89723394D01*
X180595000Y-89518759D01*
X180562990Y-89316659D01*
X180499755Y-89122045D01*
X180406859Y-88939727D01*
X180374474Y-88895154D01*
X180374474Y-88895153D01*
X179695000Y-89574628D01*
X179695000Y-89568416D01*
X179667741Y-89466683D01*
X179615080Y-89375471D01*
X179540606Y-89300997D01*
X179449394Y-89248336D01*
X179347661Y-89221077D01*
X179341446Y-89221077D01*
X180020922Y-88541601D01*
X180020921Y-88541600D01*
X179976359Y-88509224D01*
X179976350Y-88509218D01*
X179892180Y-88466331D01*
X179841384Y-88418356D01*
X179824589Y-88350535D01*
X179847127Y-88284400D01*
X179892179Y-88245361D01*
X179980803Y-88200206D01*
X180147430Y-88079145D01*
X180293068Y-87933507D01*
X180414129Y-87766880D01*
X180507634Y-87583367D01*
X180571280Y-87387485D01*
X180603500Y-87184058D01*
X180603500Y-86978096D01*
X180571280Y-86774669D01*
X180507634Y-86578787D01*
X180507632Y-86578784D01*
X180507632Y-86578782D01*
X180473709Y-86512205D01*
X180414129Y-86395274D01*
X180398661Y-86373985D01*
X180293073Y-86228653D01*
X180293069Y-86228648D01*
X180147428Y-86083007D01*
X180147423Y-86083003D01*
X179980806Y-85961950D01*
X179980805Y-85961949D01*
X179980803Y-85961948D01*
X179901540Y-85921561D01*
X179850745Y-85873587D01*
X179833950Y-85805766D01*
X179856487Y-85739631D01*
X179901541Y-85700592D01*
X179980803Y-85660206D01*
X180147430Y-85539145D01*
X180293068Y-85393507D01*
X180414129Y-85226880D01*
X180507634Y-85043367D01*
X180571280Y-84847485D01*
X180603500Y-84644058D01*
X180603500Y-84438096D01*
X180571280Y-84234669D01*
X180507634Y-84038787D01*
X180507632Y-84038784D01*
X180507632Y-84038782D01*
X180473709Y-83972205D01*
X180414129Y-83855274D01*
X180398661Y-83833985D01*
X180293073Y-83688653D01*
X180293069Y-83688648D01*
X180147428Y-83543007D01*
X180147423Y-83543003D01*
X179980806Y-83421950D01*
X179980805Y-83421949D01*
X179980803Y-83421948D01*
X179901540Y-83381561D01*
X179850745Y-83333587D01*
X179833950Y-83265766D01*
X179856487Y-83199631D01*
X179901541Y-83160592D01*
X179980803Y-83120206D01*
X180147430Y-82999145D01*
X180293068Y-82853507D01*
X180414129Y-82686880D01*
X180507634Y-82503367D01*
X180571280Y-82307485D01*
X180603500Y-82104058D01*
X180603500Y-81898096D01*
X180571280Y-81694669D01*
X180507634Y-81498787D01*
X180507632Y-81498784D01*
X180507632Y-81498782D01*
X180473709Y-81432205D01*
X180414129Y-81315274D01*
X180398661Y-81293985D01*
X180293073Y-81148653D01*
X180293069Y-81148648D01*
X180147428Y-81003007D01*
X180147423Y-81003003D01*
X179980806Y-80881950D01*
X179980805Y-80881949D01*
X179980803Y-80881948D01*
X179923496Y-80852748D01*
X179797294Y-80788444D01*
X179601408Y-80724796D01*
X179425794Y-80696982D01*
X179397981Y-80692577D01*
X179192019Y-80692577D01*
X179167550Y-80696452D01*
X178988591Y-80724796D01*
X178792705Y-80788444D01*
X178609193Y-80881950D01*
X178442576Y-81003003D01*
X178442571Y-81003007D01*
X178296930Y-81148648D01*
X178296926Y-81148653D01*
X178175873Y-81315270D01*
X178082367Y-81498782D01*
X178018719Y-81694668D01*
X177986500Y-81898096D01*
X157462429Y-81898096D01*
X157415258Y-66152345D01*
X166027500Y-66152345D01*
X166027500Y-67949654D01*
X166034011Y-68010202D01*
X166034011Y-68010204D01*
X166072755Y-68114077D01*
X166085111Y-68147204D01*
X166172739Y-68264261D01*
X166289796Y-68351889D01*
X166410626Y-68396956D01*
X166466557Y-68438827D01*
X166490974Y-68504291D01*
X166476122Y-68572564D01*
X166454972Y-68600818D01*
X166349793Y-68705997D01*
X166224106Y-68878990D01*
X166127027Y-69069516D01*
X166127026Y-69069519D01*
X166060951Y-69272882D01*
X166027500Y-69484084D01*
X166027500Y-69697915D01*
X166060951Y-69909117D01*
X166127026Y-70112480D01*
X166127027Y-70112483D01*
X166224106Y-70303009D01*
X166349794Y-70476004D01*
X166500996Y-70627206D01*
X166673991Y-70752894D01*
X166767438Y-70800507D01*
X166864516Y-70849972D01*
X166864519Y-70849973D01*
X166949887Y-70877710D01*
X167067884Y-70916049D01*
X167279084Y-70949500D01*
X167279085Y-70949500D01*
X167492915Y-70949500D01*
X167492916Y-70949500D01*
X167704116Y-70916049D01*
X167907483Y-70849972D01*
X168098009Y-70752894D01*
X168271004Y-70627206D01*
X168422206Y-70476004D01*
X168547894Y-70303009D01*
X168644972Y-70112483D01*
X168711049Y-69909116D01*
X168744500Y-69697916D01*
X168744500Y-69484084D01*
X168711049Y-69272884D01*
X168644972Y-69069517D01*
X168644972Y-69069516D01*
X168547893Y-68878990D01*
X168519566Y-68840001D01*
X168422206Y-68705996D01*
X168317028Y-68600818D01*
X168283543Y-68539495D01*
X168288527Y-68469803D01*
X168330399Y-68413870D01*
X168361367Y-68396959D01*
X168482204Y-68351889D01*
X168599261Y-68264261D01*
X168686889Y-68147204D01*
X168737989Y-68010201D01*
X168741591Y-67976692D01*
X168744499Y-67949654D01*
X168744500Y-67949637D01*
X168744500Y-66152362D01*
X168744499Y-66152345D01*
X168741157Y-66121270D01*
X168737989Y-66091799D01*
X168686889Y-65954796D01*
X168599261Y-65837739D01*
X168482204Y-65750111D01*
X168345203Y-65699011D01*
X168284654Y-65692500D01*
X168284638Y-65692500D01*
X166487362Y-65692500D01*
X166487345Y-65692500D01*
X166426797Y-65699011D01*
X166426795Y-65699011D01*
X166289795Y-65750111D01*
X166172739Y-65837739D01*
X166085111Y-65954795D01*
X166034011Y-66091795D01*
X166034011Y-66091797D01*
X166027500Y-66152345D01*
X157415258Y-66152345D01*
X157400173Y-61117019D01*
X177771500Y-61117019D01*
X177771500Y-61322980D01*
X177803719Y-61526408D01*
X177867367Y-61722294D01*
X177960873Y-61905806D01*
X178081926Y-62072423D01*
X178081930Y-62072428D01*
X178227571Y-62218069D01*
X178227576Y-62218073D01*
X178394195Y-62339128D01*
X178473459Y-62379516D01*
X178524254Y-62427490D01*
X178541049Y-62495311D01*
X178518511Y-62561446D01*
X178473459Y-62600484D01*
X178394195Y-62640871D01*
X178227576Y-62761926D01*
X178227571Y-62761930D01*
X178081930Y-62907571D01*
X178081926Y-62907576D01*
X177960873Y-63074193D01*
X177867367Y-63257705D01*
X177803719Y-63453591D01*
X177771500Y-63657019D01*
X177771500Y-63862980D01*
X177803719Y-64066408D01*
X177867367Y-64262294D01*
X177960873Y-64445806D01*
X178081926Y-64612423D01*
X178081930Y-64612428D01*
X178227571Y-64758069D01*
X178227576Y-64758073D01*
X178394195Y-64879128D01*
X178473459Y-64919516D01*
X178524254Y-64967490D01*
X178541049Y-65035311D01*
X178518511Y-65101446D01*
X178473459Y-65140484D01*
X178394195Y-65180871D01*
X178227576Y-65301926D01*
X178227571Y-65301930D01*
X178081930Y-65447571D01*
X178081926Y-65447576D01*
X177960873Y-65614193D01*
X177867367Y-65797705D01*
X177803719Y-65993591D01*
X177771500Y-66197019D01*
X177771500Y-66402980D01*
X177803719Y-66606408D01*
X177867367Y-66802294D01*
X177960873Y-66985806D01*
X178081926Y-67152423D01*
X178081930Y-67152428D01*
X178227571Y-67298069D01*
X178227576Y-67298073D01*
X178372908Y-67403661D01*
X178394197Y-67419129D01*
X178482819Y-67464284D01*
X178533615Y-67512259D01*
X178550410Y-67580080D01*
X178527873Y-67646214D01*
X178482820Y-67685253D01*
X178398648Y-67728141D01*
X178398645Y-67728143D01*
X178354077Y-67760523D01*
X178354077Y-67760524D01*
X179033554Y-68440000D01*
X179027339Y-68440000D01*
X178925606Y-68467259D01*
X178834394Y-68519920D01*
X178759920Y-68594394D01*
X178707259Y-68685606D01*
X178680000Y-68787339D01*
X178680000Y-68793553D01*
X178000524Y-68114077D01*
X178000523Y-68114077D01*
X177968143Y-68158644D01*
X177875244Y-68340968D01*
X177812009Y-68535582D01*
X177780000Y-68737682D01*
X177780000Y-68942317D01*
X177812009Y-69144417D01*
X177875244Y-69339031D01*
X177968141Y-69521350D01*
X177968147Y-69521359D01*
X178000523Y-69565921D01*
X178000524Y-69565922D01*
X178680000Y-68886446D01*
X178680000Y-68892661D01*
X178707259Y-68994394D01*
X178759920Y-69085606D01*
X178834394Y-69160080D01*
X178925606Y-69212741D01*
X179027339Y-69240000D01*
X179033553Y-69240000D01*
X178354076Y-69919474D01*
X178398652Y-69951861D01*
X178482818Y-69994745D01*
X178533614Y-70042719D01*
X178550410Y-70110540D01*
X178527873Y-70176675D01*
X178482820Y-70215714D01*
X178394195Y-70260871D01*
X178227576Y-70381926D01*
X178227571Y-70381930D01*
X178081930Y-70527571D01*
X178081926Y-70527576D01*
X177960873Y-70694193D01*
X177867367Y-70877705D01*
X177803719Y-71073591D01*
X177771500Y-71277019D01*
X177771500Y-71482980D01*
X177803719Y-71686408D01*
X177867367Y-71882294D01*
X177960873Y-72065806D01*
X178081926Y-72232423D01*
X178081930Y-72232428D01*
X178227571Y-72378069D01*
X178227576Y-72378073D01*
X178372908Y-72483661D01*
X178394197Y-72499129D01*
X178482819Y-72544284D01*
X178533615Y-72592259D01*
X178550410Y-72660080D01*
X178527873Y-72726214D01*
X178482820Y-72765253D01*
X178398648Y-72808141D01*
X178398645Y-72808143D01*
X178354077Y-72840523D01*
X178354077Y-72840524D01*
X179033554Y-73520000D01*
X179027339Y-73520000D01*
X178925606Y-73547259D01*
X178834394Y-73599920D01*
X178759920Y-73674394D01*
X178707259Y-73765606D01*
X178680000Y-73867339D01*
X178680000Y-73873553D01*
X178000524Y-73194077D01*
X178000523Y-73194077D01*
X177968143Y-73238644D01*
X177875244Y-73420968D01*
X177812009Y-73615582D01*
X177780000Y-73817682D01*
X177780000Y-74022317D01*
X177812009Y-74224417D01*
X177875244Y-74419031D01*
X177968141Y-74601350D01*
X177968147Y-74601359D01*
X178000523Y-74645921D01*
X178000524Y-74645922D01*
X178680000Y-73966446D01*
X178680000Y-73972661D01*
X178707259Y-74074394D01*
X178759920Y-74165606D01*
X178834394Y-74240080D01*
X178925606Y-74292741D01*
X179027339Y-74320000D01*
X179033553Y-74320000D01*
X178354076Y-74999474D01*
X178398652Y-75031861D01*
X178482818Y-75074745D01*
X178533614Y-75122719D01*
X178550410Y-75190540D01*
X178527873Y-75256675D01*
X178482820Y-75295714D01*
X178394195Y-75340871D01*
X178227576Y-75461926D01*
X178227571Y-75461930D01*
X178081930Y-75607571D01*
X178081926Y-75607576D01*
X177960873Y-75774193D01*
X177867367Y-75957705D01*
X177803719Y-76153591D01*
X177771500Y-76357019D01*
X177771500Y-76562980D01*
X177803719Y-76766408D01*
X177867367Y-76962294D01*
X177960873Y-77145806D01*
X178081926Y-77312423D01*
X178081930Y-77312428D01*
X178227571Y-77458069D01*
X178227576Y-77458073D01*
X178372908Y-77563661D01*
X178394197Y-77579129D01*
X178511128Y-77638709D01*
X178577705Y-77672632D01*
X178577707Y-77672632D01*
X178577710Y-77672634D01*
X178682707Y-77706749D01*
X178773591Y-77736280D01*
X178875305Y-77752390D01*
X178977019Y-77768500D01*
X178977020Y-77768500D01*
X179182980Y-77768500D01*
X179182981Y-77768500D01*
X179386408Y-77736280D01*
X179582290Y-77672634D01*
X179765803Y-77579129D01*
X179932430Y-77458068D01*
X180078068Y-77312430D01*
X180199129Y-77145803D01*
X180292634Y-76962290D01*
X180356280Y-76766408D01*
X180388500Y-76562981D01*
X180388500Y-76357019D01*
X180356280Y-76153592D01*
X180292634Y-75957710D01*
X180292632Y-75957707D01*
X180292632Y-75957705D01*
X180258709Y-75891128D01*
X180199129Y-75774197D01*
X180183661Y-75752908D01*
X180078073Y-75607576D01*
X180078069Y-75607571D01*
X179932428Y-75461930D01*
X179932423Y-75461926D01*
X179765806Y-75340873D01*
X179765805Y-75340872D01*
X179765803Y-75340871D01*
X179677180Y-75295715D01*
X179626384Y-75247740D01*
X179609589Y-75179919D01*
X179632127Y-75113784D01*
X179677181Y-75074745D01*
X179761346Y-75031861D01*
X179761347Y-75031861D01*
X179805921Y-74999474D01*
X179126447Y-74320000D01*
X179132661Y-74320000D01*
X179234394Y-74292741D01*
X179325606Y-74240080D01*
X179400080Y-74165606D01*
X179452741Y-74074394D01*
X179480000Y-73972661D01*
X179480000Y-73966448D01*
X180159474Y-74645922D01*
X180159474Y-74645921D01*
X180191859Y-74601349D01*
X180284755Y-74419031D01*
X180347990Y-74224417D01*
X180380000Y-74022317D01*
X180380000Y-73817682D01*
X180347990Y-73615582D01*
X180284755Y-73420968D01*
X180191859Y-73238650D01*
X180159474Y-73194077D01*
X180159474Y-73194076D01*
X179480000Y-73873551D01*
X179480000Y-73867339D01*
X179452741Y-73765606D01*
X179400080Y-73674394D01*
X179325606Y-73599920D01*
X179234394Y-73547259D01*
X179132661Y-73520000D01*
X179126446Y-73520000D01*
X179805922Y-72840524D01*
X179805921Y-72840523D01*
X179761359Y-72808147D01*
X179761350Y-72808141D01*
X179677180Y-72765254D01*
X179626384Y-72717279D01*
X179609589Y-72649458D01*
X179632127Y-72583323D01*
X179677179Y-72544284D01*
X179765803Y-72499129D01*
X179932430Y-72378068D01*
X180078068Y-72232430D01*
X180199129Y-72065803D01*
X180292634Y-71882290D01*
X180356280Y-71686408D01*
X180388500Y-71482981D01*
X180388500Y-71277019D01*
X180356280Y-71073592D01*
X180292634Y-70877710D01*
X180292632Y-70877707D01*
X180292632Y-70877705D01*
X180258709Y-70811128D01*
X180199129Y-70694197D01*
X180183661Y-70672908D01*
X180078073Y-70527576D01*
X180078069Y-70527571D01*
X179932428Y-70381930D01*
X179932423Y-70381926D01*
X179765806Y-70260873D01*
X179765805Y-70260872D01*
X179765803Y-70260871D01*
X179677180Y-70215715D01*
X179626384Y-70167740D01*
X179609589Y-70099919D01*
X179632127Y-70033784D01*
X179677181Y-69994745D01*
X179761346Y-69951861D01*
X179761347Y-69951861D01*
X179805921Y-69919474D01*
X179126447Y-69240000D01*
X179132661Y-69240000D01*
X179234394Y-69212741D01*
X179325606Y-69160080D01*
X179400080Y-69085606D01*
X179452741Y-68994394D01*
X179480000Y-68892661D01*
X179480000Y-68886448D01*
X180159474Y-69565922D01*
X180159474Y-69565921D01*
X180191859Y-69521349D01*
X180284755Y-69339031D01*
X180347990Y-69144417D01*
X180380000Y-68942317D01*
X180380000Y-68737682D01*
X180347990Y-68535582D01*
X180284755Y-68340968D01*
X180191859Y-68158650D01*
X180159474Y-68114077D01*
X180159474Y-68114076D01*
X179480000Y-68793551D01*
X179480000Y-68787339D01*
X179452741Y-68685606D01*
X179400080Y-68594394D01*
X179325606Y-68519920D01*
X179234394Y-68467259D01*
X179132661Y-68440000D01*
X179126446Y-68440000D01*
X179805922Y-67760524D01*
X179805921Y-67760523D01*
X179761359Y-67728147D01*
X179761350Y-67728141D01*
X179677180Y-67685254D01*
X179626384Y-67637279D01*
X179609589Y-67569458D01*
X179632127Y-67503323D01*
X179677179Y-67464284D01*
X179765803Y-67419129D01*
X179932430Y-67298068D01*
X180078068Y-67152430D01*
X180199129Y-66985803D01*
X180292634Y-66802290D01*
X180356280Y-66606408D01*
X180388500Y-66402981D01*
X180388500Y-66197019D01*
X180356280Y-65993592D01*
X180343674Y-65954796D01*
X180292632Y-65797705D01*
X180242344Y-65699011D01*
X180199129Y-65614197D01*
X180183661Y-65592908D01*
X180078073Y-65447576D01*
X180078069Y-65447571D01*
X179932428Y-65301930D01*
X179932423Y-65301926D01*
X179765806Y-65180873D01*
X179765805Y-65180872D01*
X179765803Y-65180871D01*
X179686540Y-65140484D01*
X179635745Y-65092510D01*
X179618950Y-65024689D01*
X179641487Y-64958554D01*
X179686541Y-64919515D01*
X179765803Y-64879129D01*
X179932430Y-64758068D01*
X180078068Y-64612430D01*
X180199129Y-64445803D01*
X180292634Y-64262290D01*
X180356280Y-64066408D01*
X180388500Y-63862981D01*
X180388500Y-63657019D01*
X180356280Y-63453592D01*
X180292634Y-63257710D01*
X180292632Y-63257707D01*
X180292632Y-63257705D01*
X180258709Y-63191128D01*
X180199129Y-63074197D01*
X180183661Y-63052908D01*
X180078073Y-62907576D01*
X180078069Y-62907571D01*
X179932428Y-62761930D01*
X179932423Y-62761926D01*
X179765806Y-62640873D01*
X179765805Y-62640872D01*
X179765803Y-62640871D01*
X179686540Y-62600484D01*
X179635745Y-62552510D01*
X179618950Y-62484689D01*
X179641487Y-62418554D01*
X179686541Y-62379515D01*
X179765803Y-62339129D01*
X179932430Y-62218068D01*
X180078068Y-62072430D01*
X180199129Y-61905803D01*
X180292634Y-61722290D01*
X180356280Y-61526408D01*
X180388500Y-61322981D01*
X180388500Y-61117019D01*
X180356280Y-60913592D01*
X180292634Y-60717710D01*
X180292632Y-60717707D01*
X180292632Y-60717705D01*
X180258709Y-60651128D01*
X180199129Y-60534197D01*
X180183661Y-60512908D01*
X180078073Y-60367576D01*
X180078069Y-60367571D01*
X179932428Y-60221930D01*
X179932423Y-60221926D01*
X179765806Y-60100873D01*
X179765805Y-60100872D01*
X179765803Y-60100871D01*
X179708496Y-60071671D01*
X179582294Y-60007367D01*
X179386408Y-59943719D01*
X179210794Y-59915905D01*
X179182981Y-59911500D01*
X178977019Y-59911500D01*
X178952550Y-59915375D01*
X178773591Y-59943719D01*
X178577705Y-60007367D01*
X178394193Y-60100873D01*
X178227576Y-60221926D01*
X178227571Y-60221930D01*
X178081930Y-60367571D01*
X178081926Y-60367576D01*
X177960873Y-60534193D01*
X177867367Y-60717705D01*
X177803719Y-60913591D01*
X177771500Y-61117019D01*
X157400173Y-61117019D01*
X157361262Y-48128345D01*
X158661500Y-48128345D01*
X158661500Y-49925654D01*
X158668011Y-49986202D01*
X158668011Y-49986204D01*
X158719111Y-50123204D01*
X158806739Y-50240261D01*
X158923796Y-50327889D01*
X159060799Y-50378989D01*
X159088050Y-50381918D01*
X159121345Y-50385499D01*
X159121362Y-50385500D01*
X160918638Y-50385500D01*
X160918654Y-50385499D01*
X160945692Y-50382591D01*
X160979201Y-50378989D01*
X161116204Y-50327889D01*
X161233261Y-50240261D01*
X161320889Y-50123204D01*
X161371989Y-49986201D01*
X161375591Y-49952692D01*
X161378499Y-49925654D01*
X161378500Y-49925637D01*
X161378500Y-49185098D01*
X166839500Y-49185098D01*
X166839500Y-50386188D01*
X166839501Y-50386204D01*
X166850113Y-50490077D01*
X166905885Y-50658389D01*
X166998970Y-50809303D01*
X167124348Y-50934681D01*
X167275262Y-51027766D01*
X167443574Y-51083538D01*
X167547455Y-51094151D01*
X168748544Y-51094150D01*
X168852426Y-51083538D01*
X169020738Y-51027766D01*
X169171652Y-50934681D01*
X169297030Y-50809303D01*
X169390115Y-50658389D01*
X169445887Y-50490077D01*
X169456500Y-50386196D01*
X169456499Y-49185107D01*
X169445887Y-49081225D01*
X169390115Y-48912913D01*
X169297030Y-48761999D01*
X169171652Y-48636621D01*
X169020738Y-48543536D01*
X169020735Y-48543535D01*
X168852427Y-48487764D01*
X168748545Y-48477151D01*
X167547462Y-48477151D01*
X167547446Y-48477152D01*
X167443572Y-48487764D01*
X167275264Y-48543535D01*
X167275259Y-48543537D01*
X167124346Y-48636622D01*
X166998971Y-48761997D01*
X166905886Y-48912910D01*
X166905884Y-48912915D01*
X166850113Y-49081223D01*
X166839500Y-49185098D01*
X161378500Y-49185098D01*
X161378500Y-48128362D01*
X161378499Y-48128345D01*
X161375157Y-48097270D01*
X161371989Y-48067799D01*
X161320889Y-47930796D01*
X161233261Y-47813739D01*
X161116204Y-47726111D01*
X160979203Y-47675011D01*
X160918654Y-47668500D01*
X160918638Y-47668500D01*
X160899309Y-47668500D01*
X160832270Y-47648815D01*
X160811628Y-47632181D01*
X160149408Y-46969962D01*
X160212993Y-46952925D01*
X160327007Y-46887099D01*
X160420099Y-46794007D01*
X160485925Y-46679993D01*
X160502962Y-46616409D01*
X161135270Y-47248717D01*
X161135270Y-47248716D01*
X161137986Y-47244980D01*
X161174622Y-47194554D01*
X161271095Y-47005217D01*
X161336757Y-46803130D01*
X161336757Y-46803127D01*
X161370000Y-46593246D01*
X161370000Y-46380753D01*
X161341033Y-46197865D01*
X161341033Y-46197864D01*
X161338731Y-46183333D01*
X166848000Y-46183333D01*
X166848000Y-46387968D01*
X166880009Y-46590068D01*
X166943244Y-46784682D01*
X167036141Y-46967001D01*
X167036147Y-46967010D01*
X167068523Y-47011572D01*
X167068524Y-47011573D01*
X167748000Y-46332097D01*
X167748000Y-46338312D01*
X167775259Y-46440045D01*
X167827920Y-46531257D01*
X167902394Y-46605731D01*
X167993606Y-46658392D01*
X168095339Y-46685651D01*
X168101553Y-46685651D01*
X167422076Y-47365125D01*
X167466650Y-47397510D01*
X167648968Y-47490406D01*
X167843582Y-47553641D01*
X168045683Y-47585651D01*
X168250317Y-47585651D01*
X168452417Y-47553641D01*
X168647031Y-47490406D01*
X168829349Y-47397510D01*
X168873921Y-47365125D01*
X168194447Y-46685651D01*
X168200661Y-46685651D01*
X168302394Y-46658392D01*
X168393606Y-46605731D01*
X168468080Y-46531257D01*
X168520741Y-46440045D01*
X168548000Y-46338312D01*
X168548000Y-46332099D01*
X169227474Y-47011573D01*
X169227474Y-47011572D01*
X169259859Y-46967000D01*
X169352755Y-46784682D01*
X169415990Y-46590068D01*
X169448000Y-46387968D01*
X169448000Y-46183333D01*
X169415990Y-45981233D01*
X169352755Y-45786619D01*
X169259859Y-45604301D01*
X169227474Y-45559728D01*
X169227474Y-45559727D01*
X168548000Y-46239202D01*
X168548000Y-46232990D01*
X168520741Y-46131257D01*
X168468080Y-46040045D01*
X168393606Y-45965571D01*
X168302394Y-45912910D01*
X168200661Y-45885651D01*
X168194446Y-45885651D01*
X168873922Y-45206175D01*
X168873921Y-45206174D01*
X168829359Y-45173798D01*
X168829350Y-45173792D01*
X168647031Y-45080895D01*
X168452417Y-45017660D01*
X168250317Y-44985651D01*
X168045683Y-44985651D01*
X167843582Y-45017660D01*
X167648968Y-45080895D01*
X167466644Y-45173794D01*
X167422077Y-45206174D01*
X167422077Y-45206175D01*
X168101554Y-45885651D01*
X168095339Y-45885651D01*
X167993606Y-45912910D01*
X167902394Y-45965571D01*
X167827920Y-46040045D01*
X167775259Y-46131257D01*
X167748000Y-46232990D01*
X167748000Y-46239204D01*
X167068524Y-45559728D01*
X167068523Y-45559728D01*
X167036143Y-45604295D01*
X166943244Y-45786619D01*
X166880009Y-45981233D01*
X166848000Y-46183333D01*
X161338731Y-46183333D01*
X161336758Y-46170874D01*
X161336757Y-46170869D01*
X161271095Y-45968782D01*
X161174624Y-45779449D01*
X161135270Y-45725282D01*
X161135269Y-45725282D01*
X160502962Y-46357590D01*
X160485925Y-46294007D01*
X160420099Y-46179993D01*
X160327007Y-46086901D01*
X160212993Y-46021075D01*
X160149409Y-46004037D01*
X160781716Y-45371728D01*
X160781716Y-45371727D01*
X160756975Y-45353752D01*
X160727554Y-45332377D01*
X160727552Y-45332376D01*
X160538217Y-45235904D01*
X160336129Y-45170242D01*
X160126246Y-45137000D01*
X159913754Y-45137000D01*
X159703872Y-45170242D01*
X159703869Y-45170242D01*
X159501782Y-45235904D01*
X159312439Y-45332380D01*
X159258282Y-45371727D01*
X159258282Y-45371728D01*
X159890591Y-46004037D01*
X159827007Y-46021075D01*
X159712993Y-46086901D01*
X159619901Y-46179993D01*
X159554075Y-46294007D01*
X159537037Y-46357591D01*
X158904728Y-45725282D01*
X158904727Y-45725282D01*
X158865380Y-45779439D01*
X158768904Y-45968782D01*
X158703242Y-46170869D01*
X158703242Y-46170872D01*
X158670000Y-46380753D01*
X158670000Y-46593246D01*
X158703242Y-46803127D01*
X158703242Y-46803130D01*
X158768904Y-47005217D01*
X158865375Y-47194550D01*
X158904728Y-47248716D01*
X159537037Y-46616408D01*
X159554075Y-46679993D01*
X159619901Y-46794007D01*
X159712993Y-46887099D01*
X159827007Y-46952925D01*
X159890591Y-46969962D01*
X159228371Y-47632181D01*
X159167048Y-47665666D01*
X159140690Y-47668500D01*
X159121345Y-47668500D01*
X159060797Y-47675011D01*
X159060795Y-47675011D01*
X158923795Y-47726111D01*
X158806739Y-47813739D01*
X158719111Y-47930795D01*
X158668011Y-48067795D01*
X158668011Y-48067797D01*
X158661500Y-48128345D01*
X157361262Y-48128345D01*
X157341818Y-41637679D01*
X157361301Y-41570583D01*
X157413968Y-41524670D01*
X157465795Y-41513310D01*
X180813133Y-41509402D01*
X180880172Y-41529074D01*
G37*
%TD.AperFunction*%
%TD*%
%TA.AperFunction,Conductor*%
%TO.N,GNDPWR*%
G36*
X232942522Y-41520359D02*
G01*
X232988286Y-41573156D01*
X232999500Y-41624686D01*
X232999500Y-123626820D01*
X232979815Y-123693859D01*
X232927011Y-123739614D01*
X232875646Y-123750820D01*
X184999545Y-123807101D01*
X184932482Y-123787495D01*
X184911848Y-123770912D01*
X184767328Y-123626820D01*
X183924205Y-122786195D01*
X183890630Y-122724924D01*
X183887758Y-122698762D01*
X183828600Y-102762386D01*
X185766500Y-102762386D01*
X185766500Y-102968347D01*
X185798719Y-103171775D01*
X185862367Y-103367661D01*
X185955873Y-103551173D01*
X186076926Y-103717790D01*
X186076930Y-103717795D01*
X186222571Y-103863436D01*
X186222576Y-103863440D01*
X186389195Y-103984495D01*
X186468459Y-104024883D01*
X186519254Y-104072857D01*
X186536049Y-104140678D01*
X186513511Y-104206813D01*
X186468459Y-104245851D01*
X186389195Y-104286238D01*
X186222576Y-104407293D01*
X186222571Y-104407297D01*
X186076930Y-104552938D01*
X186076926Y-104552943D01*
X185955873Y-104719560D01*
X185862367Y-104903072D01*
X185798719Y-105098958D01*
X185772222Y-105266256D01*
X185766500Y-105302386D01*
X185766500Y-105508348D01*
X185770905Y-105536161D01*
X185798719Y-105711775D01*
X185862367Y-105907661D01*
X185955873Y-106091173D01*
X186076926Y-106257790D01*
X186076930Y-106257795D01*
X186222571Y-106403436D01*
X186222576Y-106403440D01*
X186389195Y-106524495D01*
X186468459Y-106564883D01*
X186519254Y-106612857D01*
X186536049Y-106680678D01*
X186513511Y-106746813D01*
X186468459Y-106785851D01*
X186389195Y-106826238D01*
X186222576Y-106947293D01*
X186222571Y-106947297D01*
X186076930Y-107092938D01*
X186076926Y-107092943D01*
X185955873Y-107259560D01*
X185862367Y-107443072D01*
X185798719Y-107638958D01*
X185766500Y-107842386D01*
X185766500Y-108048347D01*
X185798719Y-108251775D01*
X185862367Y-108447661D01*
X185955873Y-108631173D01*
X186076926Y-108797790D01*
X186076930Y-108797795D01*
X186222571Y-108943436D01*
X186222576Y-108943440D01*
X186389195Y-109064495D01*
X186468459Y-109104883D01*
X186519254Y-109152857D01*
X186536049Y-109220678D01*
X186513511Y-109286813D01*
X186468459Y-109325851D01*
X186389195Y-109366238D01*
X186222576Y-109487293D01*
X186222571Y-109487297D01*
X186076930Y-109632938D01*
X186076926Y-109632943D01*
X185955873Y-109799560D01*
X185862367Y-109983072D01*
X185798719Y-110178958D01*
X185766500Y-110382386D01*
X185766500Y-110588347D01*
X185798719Y-110791775D01*
X185862367Y-110987661D01*
X185955873Y-111171173D01*
X186076926Y-111337790D01*
X186076930Y-111337795D01*
X186222571Y-111483436D01*
X186222576Y-111483440D01*
X186389195Y-111604495D01*
X186468459Y-111644883D01*
X186519254Y-111692857D01*
X186536049Y-111760678D01*
X186513511Y-111826813D01*
X186468459Y-111865851D01*
X186389195Y-111906238D01*
X186222576Y-112027293D01*
X186222571Y-112027297D01*
X186076930Y-112172938D01*
X186076926Y-112172943D01*
X185955873Y-112339560D01*
X185862367Y-112523072D01*
X185798719Y-112718958D01*
X185766500Y-112922386D01*
X185766500Y-113128347D01*
X185798719Y-113331775D01*
X185862367Y-113527661D01*
X185913619Y-113628247D01*
X185950161Y-113699964D01*
X185955873Y-113711173D01*
X186076926Y-113877790D01*
X186076930Y-113877795D01*
X186222571Y-114023436D01*
X186222576Y-114023440D01*
X186254440Y-114046590D01*
X186389197Y-114144496D01*
X186477819Y-114189651D01*
X186528615Y-114237626D01*
X186545410Y-114305447D01*
X186522873Y-114371581D01*
X186477820Y-114410620D01*
X186393648Y-114453508D01*
X186393645Y-114453510D01*
X186349077Y-114485890D01*
X186349077Y-114485891D01*
X187028554Y-115165367D01*
X187022339Y-115165367D01*
X186920606Y-115192626D01*
X186829394Y-115245287D01*
X186754920Y-115319761D01*
X186702259Y-115410973D01*
X186675000Y-115512706D01*
X186675000Y-115518920D01*
X185995524Y-114839444D01*
X185995523Y-114839444D01*
X185963143Y-114884011D01*
X185870244Y-115066335D01*
X185807009Y-115260949D01*
X185775000Y-115463049D01*
X185775000Y-115667684D01*
X185807009Y-115869784D01*
X185870244Y-116064398D01*
X185963141Y-116246717D01*
X185963147Y-116246726D01*
X185995523Y-116291288D01*
X185995524Y-116291289D01*
X186675000Y-115611813D01*
X186675000Y-115618028D01*
X186702259Y-115719761D01*
X186754920Y-115810973D01*
X186829394Y-115885447D01*
X186920606Y-115938108D01*
X187022339Y-115965367D01*
X187028553Y-115965367D01*
X186349076Y-116644841D01*
X186350826Y-116667073D01*
X186356733Y-116674732D01*
X186362714Y-116744345D01*
X186330110Y-116806141D01*
X186280188Y-116837430D01*
X186202262Y-116863252D01*
X186202259Y-116863253D01*
X186051346Y-116956338D01*
X185925971Y-117081713D01*
X185832886Y-117232626D01*
X185832884Y-117232631D01*
X185777113Y-117400939D01*
X185766500Y-117504814D01*
X185766500Y-118705904D01*
X185766501Y-118705920D01*
X185777113Y-118809793D01*
X185832885Y-118978105D01*
X185925970Y-119129019D01*
X186051348Y-119254397D01*
X186202262Y-119347482D01*
X186370574Y-119403254D01*
X186474455Y-119413867D01*
X187675544Y-119413866D01*
X187779426Y-119403254D01*
X187947738Y-119347482D01*
X188098652Y-119254397D01*
X188224030Y-119129019D01*
X188317115Y-118978105D01*
X188372887Y-118809793D01*
X188383500Y-118705912D01*
X188383499Y-117504823D01*
X188372887Y-117400941D01*
X188317115Y-117232629D01*
X188224030Y-117081715D01*
X188098652Y-116956337D01*
X187947738Y-116863252D01*
X187869811Y-116837430D01*
X187812366Y-116797657D01*
X187785543Y-116733142D01*
X187797858Y-116664366D01*
X187799541Y-116662377D01*
X187800921Y-116644841D01*
X187121447Y-115965367D01*
X187127661Y-115965367D01*
X187229394Y-115938108D01*
X187320606Y-115885447D01*
X187395080Y-115810973D01*
X187447741Y-115719761D01*
X187475000Y-115618028D01*
X187475000Y-115611815D01*
X188154474Y-116291289D01*
X188154474Y-116291288D01*
X188186859Y-116246716D01*
X188279755Y-116064398D01*
X188342990Y-115869784D01*
X188375000Y-115667684D01*
X188375000Y-115463049D01*
X188342990Y-115260949D01*
X188279755Y-115066335D01*
X188186859Y-114884017D01*
X188154474Y-114839444D01*
X188154474Y-114839443D01*
X187475000Y-115518918D01*
X187475000Y-115512706D01*
X187447741Y-115410973D01*
X187395080Y-115319761D01*
X187320606Y-115245287D01*
X187229394Y-115192626D01*
X187127661Y-115165367D01*
X187121446Y-115165367D01*
X187800922Y-114485891D01*
X187800921Y-114485890D01*
X187756359Y-114453514D01*
X187756350Y-114453508D01*
X187672180Y-114410621D01*
X187621384Y-114362646D01*
X187604589Y-114294825D01*
X187627127Y-114228690D01*
X187672179Y-114189651D01*
X187760803Y-114144496D01*
X187823741Y-114098769D01*
X194766500Y-114098769D01*
X194766500Y-114351964D01*
X194784522Y-114465749D01*
X194806106Y-114602025D01*
X194884344Y-114842817D01*
X194999287Y-115068405D01*
X195148105Y-115273235D01*
X195327132Y-115452262D01*
X195531962Y-115601080D01*
X195757550Y-115716023D01*
X195998342Y-115794261D01*
X196127176Y-115814666D01*
X196248403Y-115833867D01*
X196248408Y-115833867D01*
X196501597Y-115833867D01*
X196612108Y-115816363D01*
X196751658Y-115794261D01*
X196992450Y-115716023D01*
X197218038Y-115601080D01*
X197422868Y-115452262D01*
X197601895Y-115273235D01*
X197750713Y-115068405D01*
X197865656Y-114842817D01*
X197943894Y-114602025D01*
X197965996Y-114462475D01*
X197983500Y-114351964D01*
X197983500Y-114098769D01*
X197945941Y-113861633D01*
X197943894Y-113848709D01*
X197930248Y-113806712D01*
X205534000Y-113806712D01*
X205534000Y-115904021D01*
X205540511Y-115964569D01*
X205540511Y-115964571D01*
X205577746Y-116064398D01*
X205591611Y-116101571D01*
X205679239Y-116218628D01*
X205796296Y-116306256D01*
X205933299Y-116357356D01*
X205960550Y-116360285D01*
X205993845Y-116363866D01*
X205993862Y-116363867D01*
X207996138Y-116363867D01*
X207996154Y-116363866D01*
X208023192Y-116360958D01*
X208056701Y-116357356D01*
X208193704Y-116306256D01*
X208310761Y-116218628D01*
X208398389Y-116101571D01*
X208405507Y-116082486D01*
X208447377Y-116026554D01*
X208512842Y-116002137D01*
X208581115Y-116016989D01*
X208594566Y-116025498D01*
X208769269Y-116152427D01*
X208866078Y-116201753D01*
X208974166Y-116256827D01*
X208974168Y-116256827D01*
X208974171Y-116256829D01*
X209080224Y-116291288D01*
X209192881Y-116327893D01*
X209420012Y-116363867D01*
X209420017Y-116363867D01*
X209649988Y-116363867D01*
X209877118Y-116327893D01*
X209943712Y-116306255D01*
X210095829Y-116256829D01*
X210300731Y-116152427D01*
X210486778Y-116017256D01*
X210649389Y-115854645D01*
X210709937Y-115771307D01*
X210765264Y-115728643D01*
X210834877Y-115722664D01*
X210896672Y-115755269D01*
X210910571Y-115771308D01*
X210967097Y-115849108D01*
X210967097Y-115849109D01*
X211128757Y-116010769D01*
X211313723Y-116145155D01*
X211517429Y-116248949D01*
X211734871Y-116319601D01*
X211825000Y-116333876D01*
X211825000Y-115346114D01*
X211862708Y-115367885D01*
X212002591Y-115405367D01*
X212147409Y-115405367D01*
X212287292Y-115367885D01*
X212325000Y-115346114D01*
X212325000Y-116333875D01*
X212415128Y-116319601D01*
X212632570Y-116248949D01*
X212836276Y-116145155D01*
X213021242Y-116010769D01*
X213182902Y-115849109D01*
X213317288Y-115664143D01*
X213421082Y-115460437D01*
X213491734Y-115242995D01*
X213513532Y-115105367D01*
X212565748Y-115105367D01*
X212587518Y-115067659D01*
X212625000Y-114927776D01*
X212625000Y-114782958D01*
X212587518Y-114643075D01*
X212565748Y-114605367D01*
X213513532Y-114605367D01*
X213491734Y-114467738D01*
X213421082Y-114250296D01*
X213317288Y-114046590D01*
X213182902Y-113861624D01*
X213021242Y-113699964D01*
X212836276Y-113565578D01*
X212632568Y-113461784D01*
X212415124Y-113391132D01*
X212325000Y-113376857D01*
X212325000Y-114364619D01*
X212287292Y-114342849D01*
X212147409Y-114305367D01*
X212002591Y-114305367D01*
X211862708Y-114342849D01*
X211825000Y-114364619D01*
X211825000Y-113376857D01*
X211824999Y-113376857D01*
X211734875Y-113391132D01*
X211517431Y-113461784D01*
X211313723Y-113565578D01*
X211128757Y-113699964D01*
X210967097Y-113861624D01*
X210967090Y-113861633D01*
X210910570Y-113939425D01*
X210855240Y-113982091D01*
X210785627Y-113988069D01*
X210723832Y-113955463D01*
X210709935Y-113939424D01*
X210665155Y-113877790D01*
X210649389Y-113856089D01*
X210486778Y-113693478D01*
X210300731Y-113558307D01*
X210095833Y-113453906D01*
X209877118Y-113382840D01*
X209649988Y-113346867D01*
X209649983Y-113346867D01*
X209420017Y-113346867D01*
X209420012Y-113346867D01*
X209192881Y-113382840D01*
X208974166Y-113453906D01*
X208769265Y-113558309D01*
X208594573Y-113685230D01*
X208528767Y-113708710D01*
X208460713Y-113692884D01*
X208412018Y-113642779D01*
X208405507Y-113628247D01*
X208398389Y-113609163D01*
X208310761Y-113492106D01*
X208193704Y-113404478D01*
X208056703Y-113353378D01*
X207996154Y-113346867D01*
X207996138Y-113346867D01*
X205993862Y-113346867D01*
X205993845Y-113346867D01*
X205933297Y-113353378D01*
X205933295Y-113353378D01*
X205796295Y-113404478D01*
X205679239Y-113492106D01*
X205591611Y-113609162D01*
X205540511Y-113746162D01*
X205540511Y-113746164D01*
X205534000Y-113806712D01*
X197930248Y-113806712D01*
X197865656Y-113607917D01*
X197750713Y-113382329D01*
X197601895Y-113177499D01*
X197422868Y-112998472D01*
X197218038Y-112849654D01*
X196992450Y-112734711D01*
X196751658Y-112656473D01*
X196501597Y-112616867D01*
X196501592Y-112616867D01*
X196248408Y-112616867D01*
X196248403Y-112616867D01*
X195998341Y-112656473D01*
X195757547Y-112734712D01*
X195531961Y-112849654D01*
X195431855Y-112922386D01*
X195327132Y-112998472D01*
X195327130Y-112998474D01*
X195327129Y-112998474D01*
X195148107Y-113177496D01*
X195148107Y-113177497D01*
X195148105Y-113177499D01*
X195084193Y-113265465D01*
X194999287Y-113382328D01*
X194884345Y-113607914D01*
X194806106Y-113848708D01*
X194766500Y-114098769D01*
X187823741Y-114098769D01*
X187927430Y-114023435D01*
X188073068Y-113877797D01*
X188194129Y-113711170D01*
X188287634Y-113527657D01*
X188351280Y-113331775D01*
X188383500Y-113128348D01*
X188383500Y-112922386D01*
X188351280Y-112718959D01*
X188287634Y-112523077D01*
X188287632Y-112523074D01*
X188287632Y-112523072D01*
X188253709Y-112456495D01*
X188194129Y-112339564D01*
X188178661Y-112318275D01*
X188073073Y-112172943D01*
X188073069Y-112172938D01*
X187927428Y-112027297D01*
X187927423Y-112027293D01*
X187760806Y-111906240D01*
X187760805Y-111906239D01*
X187760803Y-111906238D01*
X187681540Y-111865851D01*
X187630745Y-111817877D01*
X187613950Y-111750056D01*
X187636487Y-111683921D01*
X187681541Y-111644882D01*
X187760803Y-111604496D01*
X187927430Y-111483435D01*
X188073068Y-111337797D01*
X188194129Y-111171170D01*
X188287634Y-110987657D01*
X188351280Y-110791775D01*
X188383500Y-110588348D01*
X188383500Y-110382386D01*
X188351280Y-110178959D01*
X188287634Y-109983077D01*
X188287632Y-109983074D01*
X188287632Y-109983072D01*
X188253709Y-109916495D01*
X188194129Y-109799564D01*
X188178661Y-109778275D01*
X188073073Y-109632943D01*
X188073069Y-109632938D01*
X187927428Y-109487297D01*
X187927423Y-109487293D01*
X187760806Y-109366240D01*
X187760805Y-109366239D01*
X187760803Y-109366238D01*
X187681540Y-109325851D01*
X187630745Y-109277877D01*
X187613950Y-109210056D01*
X187636487Y-109143921D01*
X187681541Y-109104882D01*
X187760803Y-109064496D01*
X187927430Y-108943435D01*
X188073068Y-108797797D01*
X188194129Y-108631170D01*
X188287634Y-108447657D01*
X188351280Y-108251775D01*
X188383500Y-108048348D01*
X188383500Y-107842386D01*
X188351280Y-107638959D01*
X188287634Y-107443077D01*
X188287632Y-107443074D01*
X188287632Y-107443072D01*
X188253709Y-107376495D01*
X188194129Y-107259564D01*
X188178661Y-107238275D01*
X188073073Y-107092943D01*
X188073069Y-107092938D01*
X187927428Y-106947297D01*
X187927423Y-106947293D01*
X187760806Y-106826240D01*
X187760805Y-106826239D01*
X187760803Y-106826238D01*
X187681540Y-106785851D01*
X187630745Y-106737877D01*
X187613950Y-106670056D01*
X187636487Y-106603921D01*
X187681541Y-106564882D01*
X187760803Y-106524496D01*
X187927430Y-106403435D01*
X188073068Y-106257797D01*
X188194129Y-106091170D01*
X188287634Y-105907657D01*
X188351280Y-105711775D01*
X188383500Y-105508348D01*
X188383500Y-105302386D01*
X188373319Y-105238106D01*
X188351280Y-105098958D01*
X188287632Y-104903072D01*
X188242575Y-104814645D01*
X188194129Y-104719564D01*
X188128039Y-104628598D01*
X188073073Y-104552943D01*
X188073069Y-104552938D01*
X187927428Y-104407297D01*
X187927423Y-104407293D01*
X187760806Y-104286240D01*
X187760805Y-104286239D01*
X187760803Y-104286238D01*
X187681540Y-104245851D01*
X187630745Y-104197877D01*
X187613950Y-104130056D01*
X187636487Y-104063921D01*
X187681541Y-104024882D01*
X187760803Y-103984496D01*
X187927430Y-103863435D01*
X188073068Y-103717797D01*
X188194129Y-103551170D01*
X188287634Y-103367657D01*
X188351280Y-103171775D01*
X188352383Y-103164813D01*
X194766500Y-103164813D01*
X194766500Y-104965920D01*
X194777113Y-105069795D01*
X194832884Y-105238103D01*
X194832889Y-105238114D01*
X194925967Y-105389015D01*
X194925970Y-105389019D01*
X195051347Y-105514396D01*
X195051351Y-105514399D01*
X195202252Y-105607477D01*
X195202255Y-105607478D01*
X195202261Y-105607482D01*
X195370573Y-105663254D01*
X195474454Y-105673867D01*
X195474459Y-105673867D01*
X197275541Y-105673867D01*
X197275546Y-105673867D01*
X197379427Y-105663254D01*
X197547739Y-105607482D01*
X197698652Y-105514397D01*
X197824030Y-105389019D01*
X197917115Y-105238106D01*
X197972887Y-105069794D01*
X197983500Y-104965913D01*
X197983500Y-103164821D01*
X197972887Y-103060940D01*
X197917115Y-102892628D01*
X197839448Y-102766712D01*
X205374000Y-102766712D01*
X205374000Y-104864021D01*
X205380511Y-104924569D01*
X205380511Y-104924571D01*
X205424493Y-105042488D01*
X205431611Y-105061571D01*
X205519239Y-105178628D01*
X205636296Y-105266256D01*
X205773299Y-105317356D01*
X205800550Y-105320285D01*
X205833845Y-105323866D01*
X205833862Y-105323867D01*
X207836138Y-105323867D01*
X207836154Y-105323866D01*
X207863192Y-105320958D01*
X207896701Y-105317356D01*
X208033704Y-105266256D01*
X208150761Y-105178628D01*
X208238389Y-105061571D01*
X208245507Y-105042486D01*
X208287377Y-104986554D01*
X208352842Y-104962137D01*
X208421115Y-104976989D01*
X208434566Y-104985498D01*
X208609269Y-105112427D01*
X208706078Y-105161753D01*
X208814166Y-105216827D01*
X208814168Y-105216827D01*
X208814171Y-105216829D01*
X208931404Y-105254920D01*
X209032881Y-105287893D01*
X209260012Y-105323867D01*
X209260017Y-105323867D01*
X209489988Y-105323867D01*
X209717118Y-105287893D01*
X209783712Y-105266255D01*
X209935829Y-105216829D01*
X210140731Y-105112427D01*
X210326778Y-104977256D01*
X210489389Y-104814645D01*
X210544683Y-104738539D01*
X210600012Y-104695875D01*
X210669625Y-104689896D01*
X210731420Y-104722502D01*
X210745314Y-104738536D01*
X210800611Y-104814645D01*
X210963222Y-104977256D01*
X211149269Y-105112427D01*
X211246078Y-105161753D01*
X211354166Y-105216827D01*
X211354168Y-105216827D01*
X211354171Y-105216829D01*
X211471404Y-105254920D01*
X211572881Y-105287893D01*
X211800012Y-105323867D01*
X211800017Y-105323867D01*
X212029988Y-105323867D01*
X212257118Y-105287893D01*
X212323712Y-105266255D01*
X212475829Y-105216829D01*
X212680731Y-105112427D01*
X212866778Y-104977256D01*
X213029389Y-104814645D01*
X213164560Y-104628598D01*
X213268962Y-104423696D01*
X213340026Y-104204985D01*
X213341152Y-104197877D01*
X213376000Y-103977855D01*
X213376000Y-103652878D01*
X213340026Y-103425748D01*
X213268960Y-103207033D01*
X213164559Y-103002135D01*
X213029389Y-102816089D01*
X212866778Y-102653478D01*
X212680731Y-102518307D01*
X212475833Y-102413906D01*
X212257118Y-102342840D01*
X212029988Y-102306867D01*
X212029983Y-102306867D01*
X211800017Y-102306867D01*
X211800012Y-102306867D01*
X211572881Y-102342840D01*
X211354166Y-102413906D01*
X211149268Y-102518307D01*
X210963219Y-102653480D01*
X210800612Y-102816087D01*
X210745318Y-102892193D01*
X210689987Y-102934858D01*
X210620374Y-102940837D01*
X210558579Y-102908231D01*
X210544682Y-102892193D01*
X210528259Y-102869589D01*
X210489389Y-102816089D01*
X210326778Y-102653478D01*
X210140731Y-102518307D01*
X209935833Y-102413906D01*
X209717118Y-102342840D01*
X209489988Y-102306867D01*
X209489983Y-102306867D01*
X209260017Y-102306867D01*
X209260012Y-102306867D01*
X209032881Y-102342840D01*
X208814166Y-102413906D01*
X208609265Y-102518309D01*
X208434573Y-102645230D01*
X208368767Y-102668710D01*
X208300713Y-102652884D01*
X208252018Y-102602779D01*
X208245507Y-102588247D01*
X208238389Y-102569163D01*
X208150761Y-102452106D01*
X208033704Y-102364478D01*
X207975694Y-102342841D01*
X207896703Y-102313378D01*
X207836154Y-102306867D01*
X207836138Y-102306867D01*
X205833862Y-102306867D01*
X205833845Y-102306867D01*
X205773297Y-102313378D01*
X205773295Y-102313378D01*
X205636295Y-102364478D01*
X205519239Y-102452106D01*
X205431611Y-102569162D01*
X205380511Y-102706162D01*
X205380511Y-102706164D01*
X205374000Y-102766712D01*
X197839448Y-102766712D01*
X197824030Y-102741715D01*
X197698652Y-102616337D01*
X197698648Y-102616334D01*
X197547747Y-102523256D01*
X197547741Y-102523253D01*
X197547739Y-102523252D01*
X197532816Y-102518307D01*
X197379428Y-102467480D01*
X197275553Y-102456867D01*
X197275546Y-102456867D01*
X195474454Y-102456867D01*
X195474446Y-102456867D01*
X195370571Y-102467480D01*
X195202263Y-102523251D01*
X195202252Y-102523256D01*
X195051351Y-102616334D01*
X195051347Y-102616337D01*
X194925970Y-102741714D01*
X194925967Y-102741718D01*
X194832889Y-102892619D01*
X194832884Y-102892630D01*
X194777113Y-103060938D01*
X194766500Y-103164813D01*
X188352383Y-103164813D01*
X188383500Y-102968348D01*
X188383500Y-102762386D01*
X188366251Y-102653480D01*
X188351280Y-102558958D01*
X188287632Y-102363072D01*
X188253709Y-102296495D01*
X188194129Y-102179564D01*
X188178661Y-102158275D01*
X188073073Y-102012943D01*
X188073069Y-102012938D01*
X187927428Y-101867297D01*
X187927423Y-101867293D01*
X187760806Y-101746240D01*
X187760805Y-101746239D01*
X187760803Y-101746238D01*
X187703496Y-101717038D01*
X187577294Y-101652734D01*
X187381408Y-101589086D01*
X187205794Y-101561272D01*
X187177981Y-101556867D01*
X186972019Y-101556867D01*
X186947550Y-101560742D01*
X186768591Y-101589086D01*
X186572705Y-101652734D01*
X186389193Y-101746240D01*
X186222576Y-101867293D01*
X186222571Y-101867297D01*
X186076930Y-102012938D01*
X186076926Y-102012943D01*
X185955873Y-102179560D01*
X185862367Y-102363072D01*
X185798719Y-102558958D01*
X185766500Y-102762386D01*
X183828600Y-102762386D01*
X183766688Y-81898096D01*
X185606500Y-81898096D01*
X185606500Y-82104057D01*
X185638719Y-82307485D01*
X185702367Y-82503371D01*
X185795873Y-82686883D01*
X185916926Y-82853500D01*
X185916930Y-82853505D01*
X186062571Y-82999146D01*
X186062576Y-82999150D01*
X186229195Y-83120205D01*
X186308459Y-83160593D01*
X186359254Y-83208567D01*
X186376049Y-83276388D01*
X186353511Y-83342523D01*
X186308459Y-83381561D01*
X186229195Y-83421948D01*
X186062576Y-83543003D01*
X186062571Y-83543007D01*
X185916930Y-83688648D01*
X185916926Y-83688653D01*
X185795873Y-83855270D01*
X185702367Y-84038782D01*
X185638719Y-84234668D01*
X185612222Y-84401966D01*
X185606500Y-84438096D01*
X185606500Y-84644058D01*
X185607679Y-84651500D01*
X185638719Y-84847485D01*
X185702367Y-85043371D01*
X185766671Y-85169573D01*
X185795870Y-85226879D01*
X185795873Y-85226883D01*
X185916926Y-85393500D01*
X185916930Y-85393505D01*
X186062571Y-85539146D01*
X186062576Y-85539150D01*
X186229195Y-85660205D01*
X186308459Y-85700593D01*
X186359254Y-85748567D01*
X186376049Y-85816388D01*
X186353511Y-85882523D01*
X186308459Y-85921561D01*
X186229195Y-85961948D01*
X186062576Y-86083003D01*
X186062571Y-86083007D01*
X185916930Y-86228648D01*
X185916926Y-86228653D01*
X185795873Y-86395270D01*
X185702367Y-86578782D01*
X185638719Y-86774668D01*
X185606500Y-86978096D01*
X185606500Y-87184057D01*
X185638719Y-87387485D01*
X185702367Y-87583371D01*
X185756373Y-87689362D01*
X185779477Y-87734706D01*
X185795873Y-87766883D01*
X185916926Y-87933500D01*
X185916930Y-87933505D01*
X186062571Y-88079146D01*
X186062576Y-88079150D01*
X186229195Y-88200205D01*
X186308459Y-88240593D01*
X186359254Y-88288567D01*
X186376049Y-88356388D01*
X186353511Y-88422523D01*
X186308459Y-88461561D01*
X186229195Y-88501948D01*
X186062576Y-88623003D01*
X186062571Y-88623007D01*
X185916930Y-88768648D01*
X185916926Y-88768653D01*
X185795873Y-88935270D01*
X185702367Y-89118782D01*
X185638719Y-89314668D01*
X185606500Y-89518096D01*
X185606500Y-89724057D01*
X185638719Y-89927485D01*
X185702367Y-90123371D01*
X185766671Y-90249573D01*
X185779477Y-90274706D01*
X185795873Y-90306883D01*
X185916926Y-90473500D01*
X185916930Y-90473505D01*
X186062571Y-90619146D01*
X186062576Y-90619150D01*
X186229195Y-90740205D01*
X186308459Y-90780593D01*
X186359254Y-90828567D01*
X186376049Y-90896388D01*
X186353511Y-90962523D01*
X186308459Y-91001561D01*
X186229195Y-91041948D01*
X186062576Y-91163003D01*
X186062571Y-91163007D01*
X185916930Y-91308648D01*
X185916926Y-91308653D01*
X185795873Y-91475270D01*
X185702367Y-91658782D01*
X185638719Y-91854668D01*
X185606500Y-92058096D01*
X185606500Y-92264057D01*
X185638719Y-92467485D01*
X185702367Y-92663371D01*
X185753619Y-92763957D01*
X185790161Y-92835674D01*
X185795873Y-92846883D01*
X185916926Y-93013500D01*
X185916930Y-93013505D01*
X186062571Y-93159146D01*
X186062576Y-93159150D01*
X186094440Y-93182300D01*
X186229197Y-93280206D01*
X186317819Y-93325361D01*
X186368615Y-93373336D01*
X186385410Y-93441157D01*
X186362873Y-93507291D01*
X186317820Y-93546330D01*
X186233648Y-93589218D01*
X186233645Y-93589220D01*
X186189077Y-93621600D01*
X186189077Y-93621601D01*
X186868554Y-94301077D01*
X186862339Y-94301077D01*
X186760606Y-94328336D01*
X186669394Y-94380997D01*
X186594920Y-94455471D01*
X186542259Y-94546683D01*
X186515000Y-94648416D01*
X186515000Y-94654630D01*
X185835524Y-93975154D01*
X185835523Y-93975154D01*
X185803143Y-94019721D01*
X185710244Y-94202045D01*
X185647009Y-94396659D01*
X185615000Y-94598759D01*
X185615000Y-94803394D01*
X185647009Y-95005494D01*
X185710244Y-95200108D01*
X185803141Y-95382427D01*
X185803147Y-95382436D01*
X185835523Y-95426998D01*
X185835524Y-95426999D01*
X186515000Y-94747523D01*
X186515000Y-94753738D01*
X186542259Y-94855471D01*
X186594920Y-94946683D01*
X186669394Y-95021157D01*
X186760606Y-95073818D01*
X186862339Y-95101077D01*
X186868553Y-95101077D01*
X186189076Y-95780551D01*
X186190826Y-95802783D01*
X186196733Y-95810442D01*
X186202714Y-95880055D01*
X186170110Y-95941851D01*
X186120188Y-95973140D01*
X186042262Y-95998962D01*
X186042259Y-95998963D01*
X185891346Y-96092048D01*
X185765971Y-96217423D01*
X185672886Y-96368336D01*
X185672884Y-96368341D01*
X185617113Y-96536649D01*
X185606500Y-96640524D01*
X185606500Y-97841614D01*
X185606501Y-97841630D01*
X185617113Y-97945503D01*
X185672885Y-98113815D01*
X185765970Y-98264729D01*
X185891348Y-98390107D01*
X186042262Y-98483192D01*
X186210574Y-98538964D01*
X186314455Y-98549577D01*
X187515544Y-98549576D01*
X187619426Y-98538964D01*
X187787738Y-98483192D01*
X187938652Y-98390107D01*
X188064030Y-98264729D01*
X188157115Y-98113815D01*
X188212887Y-97945503D01*
X188223500Y-97841622D01*
X188223499Y-96640533D01*
X188212887Y-96536651D01*
X188157115Y-96368339D01*
X188064030Y-96217425D01*
X187938652Y-96092047D01*
X187787738Y-95998962D01*
X187709811Y-95973140D01*
X187652366Y-95933367D01*
X187625543Y-95868852D01*
X187637858Y-95800076D01*
X187639541Y-95798087D01*
X187640921Y-95780551D01*
X186961447Y-95101077D01*
X186967661Y-95101077D01*
X187069394Y-95073818D01*
X187160606Y-95021157D01*
X187235080Y-94946683D01*
X187287741Y-94855471D01*
X187315000Y-94753738D01*
X187315000Y-94747525D01*
X187994474Y-95426999D01*
X187994474Y-95426998D01*
X188026859Y-95382426D01*
X188119755Y-95200108D01*
X188182990Y-95005494D01*
X188215000Y-94803394D01*
X188215000Y-94598759D01*
X188182990Y-94396659D01*
X188119755Y-94202045D01*
X188026859Y-94019727D01*
X187994474Y-93975154D01*
X187994474Y-93975153D01*
X187315000Y-94654628D01*
X187315000Y-94648416D01*
X187287741Y-94546683D01*
X187235080Y-94455471D01*
X187160606Y-94380997D01*
X187069394Y-94328336D01*
X186967661Y-94301077D01*
X186961446Y-94301077D01*
X187640922Y-93621601D01*
X187640921Y-93621600D01*
X187596359Y-93589224D01*
X187596350Y-93589218D01*
X187512180Y-93546331D01*
X187461384Y-93498356D01*
X187444589Y-93430535D01*
X187467127Y-93364400D01*
X187512179Y-93325361D01*
X187600803Y-93280206D01*
X187663741Y-93234479D01*
X194606500Y-93234479D01*
X194606500Y-93487674D01*
X194624522Y-93601459D01*
X194646106Y-93737735D01*
X194724344Y-93978527D01*
X194839287Y-94204115D01*
X194988105Y-94408945D01*
X195167132Y-94587972D01*
X195371962Y-94736790D01*
X195597550Y-94851733D01*
X195838342Y-94929971D01*
X195967176Y-94950376D01*
X196088403Y-94969577D01*
X196088408Y-94969577D01*
X196341597Y-94969577D01*
X196452108Y-94952073D01*
X196591658Y-94929971D01*
X196832450Y-94851733D01*
X197058038Y-94736790D01*
X197262868Y-94587972D01*
X197441895Y-94408945D01*
X197590713Y-94204115D01*
X197705656Y-93978527D01*
X197783894Y-93737735D01*
X197805996Y-93598185D01*
X197823500Y-93487674D01*
X197823500Y-93234479D01*
X197785941Y-92997343D01*
X197783894Y-92984419D01*
X197770248Y-92942422D01*
X205374000Y-92942422D01*
X205374000Y-95039731D01*
X205380511Y-95100279D01*
X205380511Y-95100281D01*
X205417746Y-95200108D01*
X205431611Y-95237281D01*
X205519239Y-95354338D01*
X205636296Y-95441966D01*
X205773299Y-95493066D01*
X205800550Y-95495995D01*
X205833845Y-95499576D01*
X205833862Y-95499577D01*
X207836138Y-95499577D01*
X207836154Y-95499576D01*
X207863192Y-95496668D01*
X207896701Y-95493066D01*
X208033704Y-95441966D01*
X208150761Y-95354338D01*
X208238389Y-95237281D01*
X208245507Y-95218196D01*
X208287377Y-95162264D01*
X208352842Y-95137847D01*
X208421115Y-95152699D01*
X208434566Y-95161208D01*
X208609269Y-95288137D01*
X208706078Y-95337463D01*
X208814166Y-95392537D01*
X208814168Y-95392537D01*
X208814171Y-95392539D01*
X208920224Y-95426998D01*
X209032881Y-95463603D01*
X209260012Y-95499577D01*
X209260017Y-95499577D01*
X209489988Y-95499577D01*
X209717118Y-95463603D01*
X209783712Y-95441965D01*
X209935829Y-95392539D01*
X210140731Y-95288137D01*
X210326778Y-95152966D01*
X210489389Y-94990355D01*
X210549937Y-94907017D01*
X210605264Y-94864353D01*
X210674877Y-94858374D01*
X210736672Y-94890979D01*
X210750571Y-94907018D01*
X210807097Y-94984818D01*
X210807097Y-94984819D01*
X210968757Y-95146479D01*
X211153723Y-95280865D01*
X211357429Y-95384659D01*
X211574871Y-95455311D01*
X211665000Y-95469586D01*
X211665000Y-94481824D01*
X211702708Y-94503595D01*
X211842591Y-94541077D01*
X211987409Y-94541077D01*
X212127292Y-94503595D01*
X212165000Y-94481824D01*
X212165000Y-95469585D01*
X212255128Y-95455311D01*
X212472570Y-95384659D01*
X212676276Y-95280865D01*
X212861242Y-95146479D01*
X213022902Y-94984819D01*
X213157288Y-94799853D01*
X213261082Y-94596147D01*
X213331734Y-94378705D01*
X213353532Y-94241077D01*
X212405748Y-94241077D01*
X212427518Y-94203369D01*
X212465000Y-94063486D01*
X212465000Y-93918668D01*
X212427518Y-93778785D01*
X212405748Y-93741077D01*
X213353532Y-93741077D01*
X213331734Y-93603448D01*
X213261082Y-93386006D01*
X213157288Y-93182300D01*
X213022902Y-92997334D01*
X212861242Y-92835674D01*
X212676276Y-92701288D01*
X212472568Y-92597494D01*
X212255124Y-92526842D01*
X212165000Y-92512567D01*
X212165000Y-93500329D01*
X212127292Y-93478559D01*
X211987409Y-93441077D01*
X211842591Y-93441077D01*
X211702708Y-93478559D01*
X211665000Y-93500329D01*
X211665000Y-92512567D01*
X211664999Y-92512567D01*
X211574875Y-92526842D01*
X211357431Y-92597494D01*
X211153723Y-92701288D01*
X210968757Y-92835674D01*
X210807097Y-92997334D01*
X210807090Y-92997343D01*
X210750570Y-93075135D01*
X210695240Y-93117801D01*
X210625627Y-93123779D01*
X210563832Y-93091173D01*
X210549935Y-93075134D01*
X210505155Y-93013500D01*
X210489389Y-92991799D01*
X210326778Y-92829188D01*
X210140731Y-92694017D01*
X209935833Y-92589616D01*
X209717118Y-92518550D01*
X209489988Y-92482577D01*
X209489983Y-92482577D01*
X209260017Y-92482577D01*
X209260012Y-92482577D01*
X209032881Y-92518550D01*
X208814166Y-92589616D01*
X208609265Y-92694019D01*
X208434573Y-92820940D01*
X208368767Y-92844420D01*
X208300713Y-92828594D01*
X208252018Y-92778489D01*
X208245507Y-92763957D01*
X208238389Y-92744873D01*
X208150761Y-92627816D01*
X208033704Y-92540188D01*
X207896703Y-92489088D01*
X207836154Y-92482577D01*
X207836138Y-92482577D01*
X205833862Y-92482577D01*
X205833845Y-92482577D01*
X205773297Y-92489088D01*
X205773295Y-92489088D01*
X205636295Y-92540188D01*
X205519239Y-92627816D01*
X205431611Y-92744872D01*
X205380511Y-92881872D01*
X205380511Y-92881874D01*
X205374000Y-92942422D01*
X197770248Y-92942422D01*
X197705656Y-92743627D01*
X197590713Y-92518039D01*
X197441895Y-92313209D01*
X197262868Y-92134182D01*
X197058038Y-91985364D01*
X196832450Y-91870421D01*
X196591658Y-91792183D01*
X196341597Y-91752577D01*
X196341592Y-91752577D01*
X196088408Y-91752577D01*
X196088403Y-91752577D01*
X195838341Y-91792183D01*
X195597547Y-91870422D01*
X195371961Y-91985364D01*
X195271855Y-92058096D01*
X195167132Y-92134182D01*
X195167130Y-92134184D01*
X195167129Y-92134184D01*
X194988107Y-92313206D01*
X194988107Y-92313207D01*
X194988105Y-92313209D01*
X194924193Y-92401175D01*
X194839287Y-92518038D01*
X194724345Y-92743624D01*
X194646106Y-92984418D01*
X194606500Y-93234479D01*
X187663741Y-93234479D01*
X187767430Y-93159145D01*
X187913068Y-93013507D01*
X188034129Y-92846880D01*
X188127634Y-92663367D01*
X188191280Y-92467485D01*
X188223500Y-92264058D01*
X188223500Y-92058096D01*
X188191280Y-91854669D01*
X188127634Y-91658787D01*
X188127632Y-91658784D01*
X188127632Y-91658782D01*
X188093709Y-91592205D01*
X188034129Y-91475274D01*
X187988635Y-91412656D01*
X187913073Y-91308653D01*
X187913069Y-91308648D01*
X187767428Y-91163007D01*
X187767423Y-91163003D01*
X187600806Y-91041950D01*
X187600805Y-91041949D01*
X187600803Y-91041948D01*
X187521540Y-91001561D01*
X187470745Y-90953587D01*
X187453950Y-90885766D01*
X187476487Y-90819631D01*
X187521541Y-90780592D01*
X187600803Y-90740206D01*
X187767430Y-90619145D01*
X187913068Y-90473507D01*
X188034129Y-90306880D01*
X188127634Y-90123367D01*
X188191280Y-89927485D01*
X188223500Y-89724058D01*
X188223500Y-89518096D01*
X188191280Y-89314669D01*
X188127634Y-89118787D01*
X188127632Y-89118784D01*
X188127632Y-89118782D01*
X188093709Y-89052205D01*
X188034129Y-88935274D01*
X187988635Y-88872656D01*
X187913073Y-88768653D01*
X187913069Y-88768648D01*
X187767428Y-88623007D01*
X187767423Y-88623003D01*
X187600806Y-88501950D01*
X187600805Y-88501949D01*
X187600803Y-88501948D01*
X187521540Y-88461561D01*
X187470745Y-88413587D01*
X187453950Y-88345766D01*
X187476487Y-88279631D01*
X187521541Y-88240592D01*
X187600803Y-88200206D01*
X187767430Y-88079145D01*
X187913068Y-87933507D01*
X188034129Y-87766880D01*
X188127634Y-87583367D01*
X188191280Y-87387485D01*
X188223500Y-87184058D01*
X188223500Y-86978096D01*
X188191280Y-86774669D01*
X188127634Y-86578787D01*
X188127632Y-86578784D01*
X188127632Y-86578782D01*
X188093709Y-86512205D01*
X188034129Y-86395274D01*
X188018661Y-86373985D01*
X187913073Y-86228653D01*
X187913069Y-86228648D01*
X187767428Y-86083007D01*
X187767423Y-86083003D01*
X187600806Y-85961950D01*
X187600805Y-85961949D01*
X187600803Y-85961948D01*
X187521540Y-85921561D01*
X187470745Y-85873587D01*
X187453950Y-85805766D01*
X187476487Y-85739631D01*
X187521541Y-85700592D01*
X187600803Y-85660206D01*
X187767430Y-85539145D01*
X187913068Y-85393507D01*
X187937813Y-85359448D01*
X223191500Y-85359448D01*
X223191500Y-87060551D01*
X223202113Y-87164428D01*
X223257883Y-87332735D01*
X223257884Y-87332738D01*
X223350967Y-87483647D01*
X223350970Y-87483651D01*
X223476349Y-87609030D01*
X223484185Y-87613863D01*
X223530909Y-87665809D01*
X223542133Y-87734771D01*
X223519407Y-87792288D01*
X223417051Y-87933167D01*
X223305683Y-88151741D01*
X223229875Y-88385053D01*
X223192187Y-88623003D01*
X223191500Y-88627343D01*
X223191500Y-88872657D01*
X223229876Y-89114950D01*
X223305682Y-89348256D01*
X223417051Y-89566832D01*
X223561243Y-89765294D01*
X223561245Y-89765296D01*
X223728268Y-89932319D01*
X223761753Y-89993642D01*
X223756769Y-90063334D01*
X223728268Y-90107681D01*
X223561245Y-90274703D01*
X223561245Y-90274704D01*
X223561243Y-90274706D01*
X223537867Y-90306880D01*
X223417051Y-90473167D01*
X223305683Y-90691741D01*
X223229875Y-90925053D01*
X223192187Y-91163003D01*
X223191500Y-91167343D01*
X223191500Y-91412657D01*
X223229876Y-91654950D01*
X223305682Y-91888256D01*
X223417051Y-92106832D01*
X223561243Y-92305294D01*
X223734706Y-92478757D01*
X223933168Y-92622949D01*
X224151744Y-92734318D01*
X224385050Y-92810124D01*
X224627343Y-92848500D01*
X224627344Y-92848500D01*
X224872656Y-92848500D01*
X224872657Y-92848500D01*
X225114950Y-92810124D01*
X225348256Y-92734318D01*
X225566832Y-92622949D01*
X225765294Y-92478757D01*
X225938757Y-92305294D01*
X226082949Y-92106832D01*
X226194318Y-91888256D01*
X226270124Y-91654950D01*
X226308500Y-91412657D01*
X226308500Y-91167343D01*
X226270124Y-90925050D01*
X226194318Y-90691744D01*
X226082949Y-90473168D01*
X225938757Y-90274706D01*
X225771732Y-90107681D01*
X225738247Y-90046358D01*
X225743231Y-89976666D01*
X225771732Y-89932319D01*
X225776566Y-89927485D01*
X225938757Y-89765294D01*
X226082949Y-89566832D01*
X226194318Y-89348256D01*
X226270124Y-89114950D01*
X226308500Y-88872657D01*
X226308500Y-88627343D01*
X226270124Y-88385050D01*
X226194318Y-88151744D01*
X226082949Y-87933168D01*
X225980590Y-87792285D01*
X225957112Y-87726482D01*
X225972937Y-87658428D01*
X226015816Y-87613862D01*
X226023651Y-87609030D01*
X226149030Y-87483651D01*
X226242115Y-87332738D01*
X226297887Y-87164425D01*
X226308500Y-87060544D01*
X226308500Y-85359456D01*
X226297887Y-85255575D01*
X226288379Y-85226880D01*
X226242116Y-85087264D01*
X226242115Y-85087261D01*
X226149032Y-84936352D01*
X226149029Y-84936348D01*
X226023651Y-84810970D01*
X226023647Y-84810967D01*
X225872738Y-84717884D01*
X225872735Y-84717883D01*
X225704428Y-84662113D01*
X225600551Y-84651500D01*
X225600544Y-84651500D01*
X223899456Y-84651500D01*
X223899448Y-84651500D01*
X223795571Y-84662113D01*
X223627264Y-84717883D01*
X223627261Y-84717884D01*
X223476352Y-84810967D01*
X223476348Y-84810970D01*
X223350970Y-84936348D01*
X223350967Y-84936352D01*
X223257884Y-85087261D01*
X223257883Y-85087264D01*
X223202113Y-85255571D01*
X223191500Y-85359448D01*
X187937813Y-85359448D01*
X188034129Y-85226880D01*
X188127634Y-85043367D01*
X188191280Y-84847485D01*
X188223500Y-84644058D01*
X188223500Y-84438096D01*
X188213319Y-84373816D01*
X188191280Y-84234668D01*
X188127632Y-84038782D01*
X188082575Y-83950355D01*
X188034129Y-83855274D01*
X187968039Y-83764308D01*
X187913073Y-83688653D01*
X187913069Y-83688648D01*
X187767428Y-83543007D01*
X187767423Y-83543003D01*
X187600806Y-83421950D01*
X187600805Y-83421949D01*
X187600803Y-83421948D01*
X187521540Y-83381561D01*
X187470745Y-83333587D01*
X187453950Y-83265766D01*
X187476487Y-83199631D01*
X187521541Y-83160592D01*
X187600803Y-83120206D01*
X187767430Y-82999145D01*
X187913068Y-82853507D01*
X188034129Y-82686880D01*
X188127634Y-82503367D01*
X188191280Y-82307485D01*
X188192383Y-82300523D01*
X194606500Y-82300523D01*
X194606500Y-84101630D01*
X194617113Y-84205505D01*
X194672884Y-84373813D01*
X194672889Y-84373824D01*
X194765967Y-84524725D01*
X194765970Y-84524729D01*
X194891347Y-84650106D01*
X194891351Y-84650109D01*
X195042252Y-84743187D01*
X195042255Y-84743188D01*
X195042261Y-84743192D01*
X195210573Y-84798964D01*
X195314454Y-84809577D01*
X195314459Y-84809577D01*
X197115541Y-84809577D01*
X197115546Y-84809577D01*
X197219427Y-84798964D01*
X197387739Y-84743192D01*
X197538652Y-84650107D01*
X197664030Y-84524729D01*
X197757115Y-84373816D01*
X197812887Y-84205504D01*
X197823500Y-84101623D01*
X197823500Y-82300531D01*
X197812887Y-82196650D01*
X197757115Y-82028338D01*
X197679448Y-81902422D01*
X205214000Y-81902422D01*
X205214000Y-83999731D01*
X205220511Y-84060279D01*
X205220511Y-84060281D01*
X205264493Y-84178198D01*
X205271611Y-84197281D01*
X205359239Y-84314338D01*
X205476296Y-84401966D01*
X205613299Y-84453066D01*
X205640550Y-84455995D01*
X205673845Y-84459576D01*
X205673862Y-84459577D01*
X207676138Y-84459577D01*
X207676154Y-84459576D01*
X207703192Y-84456668D01*
X207736701Y-84453066D01*
X207873704Y-84401966D01*
X207990761Y-84314338D01*
X208078389Y-84197281D01*
X208085507Y-84178196D01*
X208127377Y-84122264D01*
X208192842Y-84097847D01*
X208261115Y-84112699D01*
X208274566Y-84121208D01*
X208449269Y-84248137D01*
X208546078Y-84297463D01*
X208654166Y-84352537D01*
X208654168Y-84352537D01*
X208654171Y-84352539D01*
X208771404Y-84390630D01*
X208872881Y-84423603D01*
X209100012Y-84459577D01*
X209100017Y-84459577D01*
X209329988Y-84459577D01*
X209557118Y-84423603D01*
X209623712Y-84401965D01*
X209775829Y-84352539D01*
X209980731Y-84248137D01*
X210166778Y-84112966D01*
X210329389Y-83950355D01*
X210384683Y-83874249D01*
X210440012Y-83831585D01*
X210509625Y-83825606D01*
X210571420Y-83858212D01*
X210585314Y-83874246D01*
X210640611Y-83950355D01*
X210803222Y-84112966D01*
X210989269Y-84248137D01*
X211086078Y-84297463D01*
X211194166Y-84352537D01*
X211194168Y-84352537D01*
X211194171Y-84352539D01*
X211311404Y-84390630D01*
X211412881Y-84423603D01*
X211640012Y-84459577D01*
X211640017Y-84459577D01*
X211869988Y-84459577D01*
X212097118Y-84423603D01*
X212163712Y-84401965D01*
X212315829Y-84352539D01*
X212520731Y-84248137D01*
X212706778Y-84112966D01*
X212869389Y-83950355D01*
X213004560Y-83764308D01*
X213108962Y-83559406D01*
X213180026Y-83340695D01*
X213181152Y-83333587D01*
X213216000Y-83113565D01*
X213216000Y-82788588D01*
X213180026Y-82561458D01*
X213108960Y-82342743D01*
X213004559Y-82137845D01*
X212869389Y-81951799D01*
X212706778Y-81789188D01*
X212520731Y-81654017D01*
X212315833Y-81549616D01*
X212097118Y-81478550D01*
X211869988Y-81442577D01*
X211869983Y-81442577D01*
X211640017Y-81442577D01*
X211640012Y-81442577D01*
X211412881Y-81478550D01*
X211194166Y-81549616D01*
X210989268Y-81654017D01*
X210803219Y-81789190D01*
X210640612Y-81951797D01*
X210585318Y-82027903D01*
X210529987Y-82070568D01*
X210460374Y-82076547D01*
X210398579Y-82043941D01*
X210384682Y-82027903D01*
X210368259Y-82005299D01*
X210329389Y-81951799D01*
X210166778Y-81789188D01*
X209980731Y-81654017D01*
X209775833Y-81549616D01*
X209557118Y-81478550D01*
X209329988Y-81442577D01*
X209329983Y-81442577D01*
X209100017Y-81442577D01*
X209100012Y-81442577D01*
X208872881Y-81478550D01*
X208654166Y-81549616D01*
X208449265Y-81654019D01*
X208274573Y-81780940D01*
X208208767Y-81804420D01*
X208140713Y-81788594D01*
X208092018Y-81738489D01*
X208085507Y-81723957D01*
X208078389Y-81704873D01*
X207990761Y-81587816D01*
X207873704Y-81500188D01*
X207815694Y-81478551D01*
X207736703Y-81449088D01*
X207676154Y-81442577D01*
X207676138Y-81442577D01*
X205673862Y-81442577D01*
X205673845Y-81442577D01*
X205613297Y-81449088D01*
X205613295Y-81449088D01*
X205476295Y-81500188D01*
X205359239Y-81587816D01*
X205271611Y-81704872D01*
X205220511Y-81841872D01*
X205220511Y-81841874D01*
X205214000Y-81902422D01*
X197679448Y-81902422D01*
X197664030Y-81877425D01*
X197538652Y-81752047D01*
X197538648Y-81752044D01*
X197387747Y-81658966D01*
X197387741Y-81658963D01*
X197387739Y-81658962D01*
X197372816Y-81654017D01*
X197219428Y-81603190D01*
X197115553Y-81592577D01*
X197115546Y-81592577D01*
X195314454Y-81592577D01*
X195314446Y-81592577D01*
X195210571Y-81603190D01*
X195042263Y-81658961D01*
X195042252Y-81658966D01*
X194891351Y-81752044D01*
X194891347Y-81752047D01*
X194765970Y-81877424D01*
X194765967Y-81877428D01*
X194672889Y-82028329D01*
X194672884Y-82028340D01*
X194617113Y-82196648D01*
X194606500Y-82300523D01*
X188192383Y-82300523D01*
X188223500Y-82104058D01*
X188223500Y-81898096D01*
X188206251Y-81789190D01*
X188191280Y-81694668D01*
X188127632Y-81498782D01*
X188093709Y-81432205D01*
X188034129Y-81315274D01*
X188018661Y-81293985D01*
X187913073Y-81148653D01*
X187913069Y-81148648D01*
X187767428Y-81003007D01*
X187767423Y-81003003D01*
X187600806Y-80881950D01*
X187600805Y-80881949D01*
X187600803Y-80881948D01*
X187543496Y-80852748D01*
X187417294Y-80788444D01*
X187221408Y-80724796D01*
X187045794Y-80696982D01*
X187017981Y-80692577D01*
X186812019Y-80692577D01*
X186787550Y-80696452D01*
X186608591Y-80724796D01*
X186412705Y-80788444D01*
X186229193Y-80881950D01*
X186062576Y-81003003D01*
X186062571Y-81003007D01*
X185916930Y-81148648D01*
X185916926Y-81148653D01*
X185795873Y-81315270D01*
X185702367Y-81498782D01*
X185638719Y-81694668D01*
X185606500Y-81898096D01*
X183766688Y-81898096D01*
X183705023Y-61117019D01*
X185391500Y-61117019D01*
X185391500Y-61322980D01*
X185423719Y-61526408D01*
X185487367Y-61722294D01*
X185580873Y-61905806D01*
X185701926Y-62072423D01*
X185701930Y-62072428D01*
X185847571Y-62218069D01*
X185847576Y-62218073D01*
X186014195Y-62339128D01*
X186093459Y-62379516D01*
X186144254Y-62427490D01*
X186161049Y-62495311D01*
X186138511Y-62561446D01*
X186093459Y-62600484D01*
X186014195Y-62640871D01*
X185847576Y-62761926D01*
X185847571Y-62761930D01*
X185701930Y-62907571D01*
X185701926Y-62907576D01*
X185580873Y-63074193D01*
X185487367Y-63257705D01*
X185423719Y-63453591D01*
X185397222Y-63620889D01*
X185391500Y-63657019D01*
X185391500Y-63862981D01*
X185395905Y-63890794D01*
X185423719Y-64066408D01*
X185487367Y-64262294D01*
X185580873Y-64445806D01*
X185701926Y-64612423D01*
X185701930Y-64612428D01*
X185847571Y-64758069D01*
X185847576Y-64758073D01*
X186014195Y-64879128D01*
X186093459Y-64919516D01*
X186144254Y-64967490D01*
X186161049Y-65035311D01*
X186138511Y-65101446D01*
X186093459Y-65140484D01*
X186014195Y-65180871D01*
X185847576Y-65301926D01*
X185847571Y-65301930D01*
X185701930Y-65447571D01*
X185701926Y-65447576D01*
X185580873Y-65614193D01*
X185487367Y-65797705D01*
X185423719Y-65993591D01*
X185391500Y-66197019D01*
X185391500Y-66402980D01*
X185423719Y-66606408D01*
X185487367Y-66802294D01*
X185580873Y-66985806D01*
X185701926Y-67152423D01*
X185701930Y-67152428D01*
X185847571Y-67298069D01*
X185847576Y-67298073D01*
X186014195Y-67419128D01*
X186093459Y-67459516D01*
X186144254Y-67507490D01*
X186161049Y-67575311D01*
X186138511Y-67641446D01*
X186093459Y-67680484D01*
X186014195Y-67720871D01*
X185847576Y-67841926D01*
X185847571Y-67841930D01*
X185701930Y-67987571D01*
X185701926Y-67987576D01*
X185580873Y-68154193D01*
X185487367Y-68337705D01*
X185423719Y-68533591D01*
X185391500Y-68737019D01*
X185391500Y-68942980D01*
X185423719Y-69146408D01*
X185487367Y-69342294D01*
X185580873Y-69525806D01*
X185701926Y-69692423D01*
X185701930Y-69692428D01*
X185847571Y-69838069D01*
X185847576Y-69838073D01*
X186014195Y-69959128D01*
X186093459Y-69999516D01*
X186144254Y-70047490D01*
X186161049Y-70115311D01*
X186138511Y-70181446D01*
X186093459Y-70220484D01*
X186014195Y-70260871D01*
X185847576Y-70381926D01*
X185847571Y-70381930D01*
X185701930Y-70527571D01*
X185701926Y-70527576D01*
X185580873Y-70694193D01*
X185487367Y-70877705D01*
X185423719Y-71073591D01*
X185391500Y-71277019D01*
X185391500Y-71482980D01*
X185423719Y-71686408D01*
X185487367Y-71882294D01*
X185538619Y-71982880D01*
X185575161Y-72054597D01*
X185580873Y-72065806D01*
X185701926Y-72232423D01*
X185701930Y-72232428D01*
X185847571Y-72378069D01*
X185847576Y-72378073D01*
X185879440Y-72401223D01*
X186014197Y-72499129D01*
X186102819Y-72544284D01*
X186153615Y-72592259D01*
X186170410Y-72660080D01*
X186147873Y-72726214D01*
X186102820Y-72765253D01*
X186018648Y-72808141D01*
X186018645Y-72808143D01*
X185974077Y-72840523D01*
X185974077Y-72840524D01*
X186653554Y-73520000D01*
X186647339Y-73520000D01*
X186545606Y-73547259D01*
X186454394Y-73599920D01*
X186379920Y-73674394D01*
X186327259Y-73765606D01*
X186300000Y-73867339D01*
X186300000Y-73873553D01*
X185620524Y-73194077D01*
X185620523Y-73194077D01*
X185588143Y-73238644D01*
X185495244Y-73420968D01*
X185432009Y-73615582D01*
X185400000Y-73817682D01*
X185400000Y-74022317D01*
X185432009Y-74224417D01*
X185495244Y-74419031D01*
X185588141Y-74601350D01*
X185588147Y-74601359D01*
X185620523Y-74645921D01*
X185620524Y-74645922D01*
X186300000Y-73966446D01*
X186300000Y-73972661D01*
X186327259Y-74074394D01*
X186379920Y-74165606D01*
X186454394Y-74240080D01*
X186545606Y-74292741D01*
X186647339Y-74320000D01*
X186653553Y-74320000D01*
X185974076Y-74999474D01*
X185975826Y-75021706D01*
X185981733Y-75029365D01*
X185987714Y-75098978D01*
X185955110Y-75160774D01*
X185905188Y-75192063D01*
X185827262Y-75217885D01*
X185827259Y-75217886D01*
X185676346Y-75310971D01*
X185550971Y-75436346D01*
X185457886Y-75587259D01*
X185457884Y-75587264D01*
X185402113Y-75755572D01*
X185391500Y-75859447D01*
X185391500Y-77060537D01*
X185391501Y-77060553D01*
X185402113Y-77164426D01*
X185457885Y-77332738D01*
X185550970Y-77483652D01*
X185676348Y-77609030D01*
X185827262Y-77702115D01*
X185995574Y-77757887D01*
X186099455Y-77768500D01*
X187300544Y-77768499D01*
X187404426Y-77757887D01*
X187572738Y-77702115D01*
X187723652Y-77609030D01*
X187849030Y-77483652D01*
X187942115Y-77332738D01*
X187997887Y-77164426D01*
X188008500Y-77060545D01*
X188008499Y-75859456D01*
X187997887Y-75755574D01*
X187942115Y-75587262D01*
X187849030Y-75436348D01*
X187723652Y-75310970D01*
X187572738Y-75217885D01*
X187494811Y-75192063D01*
X187437366Y-75152290D01*
X187410543Y-75087775D01*
X187422858Y-75018999D01*
X187424541Y-75017010D01*
X187425921Y-74999474D01*
X186746447Y-74320000D01*
X186752661Y-74320000D01*
X186854394Y-74292741D01*
X186945606Y-74240080D01*
X187020080Y-74165606D01*
X187072741Y-74074394D01*
X187100000Y-73972661D01*
X187100000Y-73966448D01*
X187779474Y-74645922D01*
X187779474Y-74645921D01*
X187811859Y-74601349D01*
X187904755Y-74419031D01*
X187967990Y-74224417D01*
X188000000Y-74022317D01*
X188000000Y-73817682D01*
X187967990Y-73615582D01*
X187904755Y-73420968D01*
X187811859Y-73238650D01*
X187779474Y-73194077D01*
X187779474Y-73194076D01*
X187100000Y-73873551D01*
X187100000Y-73867339D01*
X187072741Y-73765606D01*
X187020080Y-73674394D01*
X186945606Y-73599920D01*
X186854394Y-73547259D01*
X186752661Y-73520000D01*
X186746446Y-73520000D01*
X187425922Y-72840524D01*
X187425921Y-72840523D01*
X187381359Y-72808147D01*
X187381350Y-72808141D01*
X187297180Y-72765254D01*
X187246384Y-72717279D01*
X187229589Y-72649458D01*
X187252127Y-72583323D01*
X187297179Y-72544284D01*
X187385803Y-72499129D01*
X187448741Y-72453402D01*
X194391500Y-72453402D01*
X194391500Y-72706597D01*
X194409522Y-72820382D01*
X194431106Y-72956658D01*
X194509344Y-73197450D01*
X194624287Y-73423038D01*
X194773105Y-73627868D01*
X194952132Y-73806895D01*
X195156962Y-73955713D01*
X195382550Y-74070656D01*
X195623342Y-74148894D01*
X195752176Y-74169299D01*
X195873403Y-74188500D01*
X195873408Y-74188500D01*
X196126597Y-74188500D01*
X196237108Y-74170996D01*
X196376658Y-74148894D01*
X196617450Y-74070656D01*
X196843038Y-73955713D01*
X197047868Y-73806895D01*
X197226895Y-73627868D01*
X197375713Y-73423038D01*
X197490656Y-73197450D01*
X197568894Y-72956658D01*
X197590996Y-72817108D01*
X197608500Y-72706597D01*
X197608500Y-72453402D01*
X197570941Y-72216266D01*
X197568894Y-72203342D01*
X197555248Y-72161345D01*
X205159000Y-72161345D01*
X205159000Y-74258654D01*
X205165511Y-74319202D01*
X205165511Y-74319204D01*
X205202746Y-74419031D01*
X205216611Y-74456204D01*
X205304239Y-74573261D01*
X205421296Y-74660889D01*
X205558299Y-74711989D01*
X205585550Y-74714918D01*
X205618845Y-74718499D01*
X205618862Y-74718500D01*
X207621138Y-74718500D01*
X207621154Y-74718499D01*
X207648192Y-74715591D01*
X207681701Y-74711989D01*
X207818704Y-74660889D01*
X207935761Y-74573261D01*
X208023389Y-74456204D01*
X208030507Y-74437119D01*
X208072377Y-74381187D01*
X208137842Y-74356770D01*
X208206115Y-74371622D01*
X208219566Y-74380131D01*
X208394269Y-74507060D01*
X208491078Y-74556386D01*
X208599166Y-74611460D01*
X208599168Y-74611460D01*
X208599171Y-74611462D01*
X208705224Y-74645921D01*
X208817881Y-74682526D01*
X209045012Y-74718500D01*
X209045017Y-74718500D01*
X209274988Y-74718500D01*
X209502118Y-74682526D01*
X209568712Y-74660888D01*
X209720829Y-74611462D01*
X209925731Y-74507060D01*
X210111778Y-74371889D01*
X210274389Y-74209278D01*
X210334937Y-74125940D01*
X210390264Y-74083276D01*
X210459877Y-74077297D01*
X210521672Y-74109902D01*
X210535571Y-74125941D01*
X210592097Y-74203741D01*
X210592097Y-74203742D01*
X210753757Y-74365402D01*
X210938723Y-74499788D01*
X211142429Y-74603582D01*
X211359871Y-74674234D01*
X211450000Y-74688509D01*
X211450000Y-73700747D01*
X211487708Y-73722518D01*
X211627591Y-73760000D01*
X211772409Y-73760000D01*
X211912292Y-73722518D01*
X211950000Y-73700747D01*
X211950000Y-74688508D01*
X212040128Y-74674234D01*
X212257570Y-74603582D01*
X212461276Y-74499788D01*
X212646242Y-74365402D01*
X212807902Y-74203742D01*
X212942288Y-74018776D01*
X213046082Y-73815070D01*
X213116734Y-73597628D01*
X213138532Y-73460000D01*
X212190748Y-73460000D01*
X212212518Y-73422292D01*
X212250000Y-73282409D01*
X212250000Y-73137591D01*
X212212518Y-72997708D01*
X212190748Y-72960000D01*
X213138532Y-72960000D01*
X213116734Y-72822371D01*
X213046082Y-72604929D01*
X212942288Y-72401223D01*
X212807902Y-72216257D01*
X212646242Y-72054597D01*
X212461276Y-71920211D01*
X212257568Y-71816417D01*
X212040124Y-71745765D01*
X211950000Y-71731490D01*
X211950000Y-72719252D01*
X211912292Y-72697482D01*
X211772409Y-72660000D01*
X211627591Y-72660000D01*
X211487708Y-72697482D01*
X211450000Y-72719252D01*
X211450000Y-71731490D01*
X211449999Y-71731490D01*
X211359875Y-71745765D01*
X211142431Y-71816417D01*
X210938723Y-71920211D01*
X210753757Y-72054597D01*
X210592097Y-72216257D01*
X210592090Y-72216266D01*
X210535570Y-72294058D01*
X210480240Y-72336724D01*
X210410627Y-72342702D01*
X210348832Y-72310096D01*
X210334935Y-72294057D01*
X210290155Y-72232423D01*
X210274389Y-72210722D01*
X210111778Y-72048111D01*
X209925731Y-71912940D01*
X209720833Y-71808539D01*
X209502118Y-71737473D01*
X209274988Y-71701500D01*
X209274983Y-71701500D01*
X209045017Y-71701500D01*
X209045012Y-71701500D01*
X208817881Y-71737473D01*
X208599166Y-71808539D01*
X208394265Y-71912942D01*
X208219573Y-72039863D01*
X208153767Y-72063343D01*
X208085713Y-72047517D01*
X208037018Y-71997412D01*
X208030507Y-71982880D01*
X208023389Y-71963796D01*
X207935761Y-71846739D01*
X207818704Y-71759111D01*
X207681703Y-71708011D01*
X207621154Y-71701500D01*
X207621138Y-71701500D01*
X205618862Y-71701500D01*
X205618845Y-71701500D01*
X205558297Y-71708011D01*
X205558295Y-71708011D01*
X205421295Y-71759111D01*
X205304239Y-71846739D01*
X205216611Y-71963795D01*
X205165511Y-72100795D01*
X205165511Y-72100797D01*
X205159000Y-72161345D01*
X197555248Y-72161345D01*
X197490656Y-71962550D01*
X197375713Y-71736962D01*
X197226895Y-71532132D01*
X197047868Y-71353105D01*
X196843038Y-71204287D01*
X196617450Y-71089344D01*
X196376658Y-71011106D01*
X196126597Y-70971500D01*
X196126592Y-70971500D01*
X195873408Y-70971500D01*
X195873403Y-70971500D01*
X195623341Y-71011106D01*
X195382547Y-71089345D01*
X195156961Y-71204287D01*
X195056855Y-71277019D01*
X194952132Y-71353105D01*
X194952130Y-71353107D01*
X194952129Y-71353107D01*
X194773107Y-71532129D01*
X194773107Y-71532130D01*
X194773105Y-71532132D01*
X194709193Y-71620098D01*
X194624287Y-71736961D01*
X194509345Y-71962547D01*
X194431106Y-72203341D01*
X194391500Y-72453402D01*
X187448741Y-72453402D01*
X187552430Y-72378068D01*
X187698068Y-72232430D01*
X187819129Y-72065803D01*
X187912634Y-71882290D01*
X187976280Y-71686408D01*
X188008500Y-71482981D01*
X188008500Y-71277019D01*
X187976280Y-71073592D01*
X187912634Y-70877710D01*
X187912632Y-70877707D01*
X187912632Y-70877705D01*
X187878709Y-70811128D01*
X187819129Y-70694197D01*
X187803661Y-70672908D01*
X187698073Y-70527576D01*
X187698069Y-70527571D01*
X187552428Y-70381930D01*
X187552423Y-70381926D01*
X187385806Y-70260873D01*
X187385805Y-70260872D01*
X187385803Y-70260871D01*
X187306540Y-70220484D01*
X187255745Y-70172510D01*
X187238950Y-70104689D01*
X187261487Y-70038554D01*
X187306541Y-69999515D01*
X187385803Y-69959129D01*
X187552430Y-69838068D01*
X187698068Y-69692430D01*
X187819129Y-69525803D01*
X187912634Y-69342290D01*
X187976280Y-69146408D01*
X188008500Y-68942981D01*
X188008500Y-68737019D01*
X187976280Y-68533592D01*
X187912634Y-68337710D01*
X187912632Y-68337707D01*
X187912632Y-68337705D01*
X187878709Y-68271128D01*
X187819129Y-68154197D01*
X187803661Y-68132908D01*
X187698073Y-67987576D01*
X187698069Y-67987571D01*
X187552428Y-67841930D01*
X187552423Y-67841926D01*
X187385806Y-67720873D01*
X187385805Y-67720872D01*
X187385803Y-67720871D01*
X187306540Y-67680484D01*
X187255745Y-67632510D01*
X187238950Y-67564689D01*
X187261487Y-67498554D01*
X187306541Y-67459515D01*
X187385803Y-67419129D01*
X187552430Y-67298068D01*
X187698068Y-67152430D01*
X187819129Y-66985803D01*
X187912634Y-66802290D01*
X187976280Y-66606408D01*
X188008500Y-66402981D01*
X188008500Y-66197019D01*
X187976280Y-65993592D01*
X187912634Y-65797710D01*
X187912632Y-65797707D01*
X187912632Y-65797705D01*
X187878709Y-65731128D01*
X187819129Y-65614197D01*
X187803661Y-65592908D01*
X187698073Y-65447576D01*
X187698069Y-65447571D01*
X187552428Y-65301930D01*
X187552423Y-65301926D01*
X187385806Y-65180873D01*
X187385805Y-65180872D01*
X187385803Y-65180871D01*
X187306540Y-65140484D01*
X187255745Y-65092510D01*
X187238950Y-65024689D01*
X187261487Y-64958554D01*
X187306541Y-64919515D01*
X187385803Y-64879129D01*
X187552430Y-64758068D01*
X187698068Y-64612430D01*
X187819129Y-64445803D01*
X187912634Y-64262290D01*
X187976280Y-64066408D01*
X188008500Y-63862981D01*
X188008500Y-63657019D01*
X187998319Y-63592739D01*
X187976280Y-63453591D01*
X187912632Y-63257705D01*
X187867575Y-63169278D01*
X187819129Y-63074197D01*
X187753039Y-62983231D01*
X187698073Y-62907576D01*
X187698069Y-62907571D01*
X187552428Y-62761930D01*
X187552423Y-62761926D01*
X187385806Y-62640873D01*
X187385805Y-62640872D01*
X187385803Y-62640871D01*
X187306540Y-62600484D01*
X187255745Y-62552510D01*
X187238950Y-62484689D01*
X187261487Y-62418554D01*
X187306541Y-62379515D01*
X187385803Y-62339129D01*
X187552430Y-62218068D01*
X187698068Y-62072430D01*
X187819129Y-61905803D01*
X187912634Y-61722290D01*
X187976280Y-61526408D01*
X187977383Y-61519446D01*
X194391500Y-61519446D01*
X194391500Y-63320553D01*
X194402113Y-63424428D01*
X194457884Y-63592736D01*
X194457889Y-63592747D01*
X194550967Y-63743648D01*
X194550970Y-63743652D01*
X194676347Y-63869029D01*
X194676351Y-63869032D01*
X194827252Y-63962110D01*
X194827255Y-63962111D01*
X194827261Y-63962115D01*
X194995573Y-64017887D01*
X195099454Y-64028500D01*
X195099459Y-64028500D01*
X196900541Y-64028500D01*
X196900546Y-64028500D01*
X197004427Y-64017887D01*
X197172739Y-63962115D01*
X197323652Y-63869030D01*
X197449030Y-63743652D01*
X197542115Y-63592739D01*
X197597887Y-63424427D01*
X197608500Y-63320546D01*
X197608500Y-61519454D01*
X197597887Y-61415573D01*
X197542115Y-61247261D01*
X197464448Y-61121345D01*
X204999000Y-61121345D01*
X204999000Y-63218654D01*
X205005511Y-63279202D01*
X205005511Y-63279204D01*
X205049493Y-63397121D01*
X205056611Y-63416204D01*
X205144239Y-63533261D01*
X205261296Y-63620889D01*
X205398299Y-63671989D01*
X205425550Y-63674918D01*
X205458845Y-63678499D01*
X205458862Y-63678500D01*
X207461138Y-63678500D01*
X207461154Y-63678499D01*
X207488192Y-63675591D01*
X207521701Y-63671989D01*
X207658704Y-63620889D01*
X207775761Y-63533261D01*
X207863389Y-63416204D01*
X207870507Y-63397119D01*
X207912377Y-63341187D01*
X207977842Y-63316770D01*
X208046115Y-63331622D01*
X208059566Y-63340131D01*
X208234269Y-63467060D01*
X208331078Y-63516386D01*
X208439166Y-63571460D01*
X208439168Y-63571460D01*
X208439171Y-63571462D01*
X208556404Y-63609553D01*
X208657881Y-63642526D01*
X208885012Y-63678500D01*
X208885017Y-63678500D01*
X209114988Y-63678500D01*
X209342118Y-63642526D01*
X209408712Y-63620888D01*
X209560829Y-63571462D01*
X209765731Y-63467060D01*
X209951778Y-63331889D01*
X210114389Y-63169278D01*
X210169683Y-63093172D01*
X210225012Y-63050508D01*
X210294625Y-63044529D01*
X210356420Y-63077135D01*
X210370314Y-63093169D01*
X210425611Y-63169278D01*
X210588222Y-63331889D01*
X210774269Y-63467060D01*
X210871078Y-63516386D01*
X210979166Y-63571460D01*
X210979168Y-63571460D01*
X210979171Y-63571462D01*
X211096404Y-63609553D01*
X211197881Y-63642526D01*
X211425012Y-63678500D01*
X211425017Y-63678500D01*
X211654988Y-63678500D01*
X211882118Y-63642526D01*
X211948712Y-63620888D01*
X212100829Y-63571462D01*
X212305731Y-63467060D01*
X212491778Y-63331889D01*
X212654389Y-63169278D01*
X212789560Y-62983231D01*
X212893962Y-62778329D01*
X212965026Y-62559618D01*
X212966152Y-62552510D01*
X213001000Y-62332488D01*
X213001000Y-62007511D01*
X212965026Y-61780381D01*
X212893960Y-61561666D01*
X212789559Y-61356768D01*
X212654389Y-61170722D01*
X212491778Y-61008111D01*
X212305731Y-60872940D01*
X212100833Y-60768539D01*
X211882118Y-60697473D01*
X211654988Y-60661500D01*
X211654983Y-60661500D01*
X211425017Y-60661500D01*
X211425012Y-60661500D01*
X211197881Y-60697473D01*
X210979166Y-60768539D01*
X210774268Y-60872940D01*
X210588219Y-61008113D01*
X210425612Y-61170720D01*
X210370318Y-61246826D01*
X210314987Y-61289491D01*
X210245374Y-61295470D01*
X210183579Y-61262864D01*
X210169682Y-61246826D01*
X210153259Y-61224222D01*
X210114389Y-61170722D01*
X209951778Y-61008111D01*
X209765731Y-60872940D01*
X209560833Y-60768539D01*
X209342118Y-60697473D01*
X209114988Y-60661500D01*
X209114983Y-60661500D01*
X208885017Y-60661500D01*
X208885012Y-60661500D01*
X208657881Y-60697473D01*
X208439166Y-60768539D01*
X208234265Y-60872942D01*
X208059573Y-60999863D01*
X207993767Y-61023343D01*
X207925713Y-61007517D01*
X207877018Y-60957412D01*
X207870507Y-60942880D01*
X207863389Y-60923796D01*
X207775761Y-60806739D01*
X207658704Y-60719111D01*
X207600694Y-60697474D01*
X207521703Y-60668011D01*
X207461154Y-60661500D01*
X207461138Y-60661500D01*
X205458862Y-60661500D01*
X205458845Y-60661500D01*
X205398297Y-60668011D01*
X205398295Y-60668011D01*
X205261295Y-60719111D01*
X205144239Y-60806739D01*
X205056611Y-60923795D01*
X205005511Y-61060795D01*
X205005511Y-61060797D01*
X204999000Y-61121345D01*
X197464448Y-61121345D01*
X197449030Y-61096348D01*
X197323652Y-60970970D01*
X197323648Y-60970967D01*
X197172747Y-60877889D01*
X197172741Y-60877886D01*
X197172739Y-60877885D01*
X197157816Y-60872940D01*
X197004428Y-60822113D01*
X196900553Y-60811500D01*
X196900546Y-60811500D01*
X195099454Y-60811500D01*
X195099446Y-60811500D01*
X194995571Y-60822113D01*
X194827263Y-60877884D01*
X194827252Y-60877889D01*
X194676351Y-60970967D01*
X194676347Y-60970970D01*
X194550970Y-61096347D01*
X194550967Y-61096351D01*
X194457889Y-61247252D01*
X194457884Y-61247263D01*
X194402113Y-61415571D01*
X194391500Y-61519446D01*
X187977383Y-61519446D01*
X188008500Y-61322981D01*
X188008500Y-61117019D01*
X187991251Y-61008113D01*
X187976280Y-60913591D01*
X187912632Y-60717705D01*
X187878709Y-60651128D01*
X187819129Y-60534197D01*
X187803661Y-60512908D01*
X187698073Y-60367576D01*
X187698069Y-60367571D01*
X187552428Y-60221930D01*
X187552423Y-60221926D01*
X187385806Y-60100873D01*
X187385805Y-60100872D01*
X187385803Y-60100871D01*
X187328496Y-60071671D01*
X187202294Y-60007367D01*
X187006408Y-59943719D01*
X186830794Y-59915905D01*
X186802981Y-59911500D01*
X186597019Y-59911500D01*
X186572550Y-59915375D01*
X186393591Y-59943719D01*
X186197705Y-60007367D01*
X186014193Y-60100873D01*
X185847576Y-60221926D01*
X185847571Y-60221930D01*
X185701930Y-60367571D01*
X185701926Y-60367576D01*
X185580873Y-60534193D01*
X185487367Y-60717705D01*
X185423719Y-60913591D01*
X185391500Y-61117019D01*
X183705023Y-61117019D01*
X183678796Y-52278495D01*
X186479500Y-52278495D01*
X186479500Y-53899804D01*
X186486011Y-53960352D01*
X186486011Y-53960354D01*
X186537111Y-54097354D01*
X186624739Y-54214411D01*
X186741796Y-54302039D01*
X186878799Y-54353139D01*
X186906050Y-54356068D01*
X186939345Y-54359649D01*
X186939362Y-54359650D01*
X188560638Y-54359650D01*
X188560654Y-54359649D01*
X188587692Y-54356741D01*
X188621201Y-54353139D01*
X188758204Y-54302039D01*
X188875261Y-54214411D01*
X188962889Y-54097354D01*
X189013989Y-53960351D01*
X189017591Y-53926842D01*
X189020499Y-53899804D01*
X189020500Y-53899787D01*
X189020500Y-52278512D01*
X189020499Y-52278495D01*
X199479500Y-52278495D01*
X199479500Y-53899804D01*
X199486011Y-53960352D01*
X199486011Y-53960354D01*
X199537111Y-54097354D01*
X199624739Y-54214411D01*
X199741796Y-54302039D01*
X199878799Y-54353139D01*
X199906050Y-54356068D01*
X199939345Y-54359649D01*
X199939362Y-54359650D01*
X201560638Y-54359650D01*
X201560654Y-54359649D01*
X201587692Y-54356741D01*
X201621201Y-54353139D01*
X201758204Y-54302039D01*
X201875261Y-54214411D01*
X201962889Y-54097354D01*
X202013989Y-53960351D01*
X202017591Y-53926842D01*
X202020499Y-53899804D01*
X202020500Y-53899787D01*
X202020500Y-52278512D01*
X202020499Y-52278495D01*
X202017157Y-52247420D01*
X202013989Y-52217949D01*
X201962889Y-52080946D01*
X201875261Y-51963889D01*
X201758204Y-51876261D01*
X201621203Y-51825161D01*
X201560654Y-51818650D01*
X201560638Y-51818650D01*
X199939362Y-51818650D01*
X199939345Y-51818650D01*
X199878797Y-51825161D01*
X199878795Y-51825161D01*
X199741795Y-51876261D01*
X199624739Y-51963889D01*
X199537111Y-52080945D01*
X199486011Y-52217945D01*
X199486011Y-52217947D01*
X199479500Y-52278495D01*
X189020499Y-52278495D01*
X189017157Y-52247420D01*
X189013989Y-52217949D01*
X188962889Y-52080946D01*
X188875261Y-51963889D01*
X188758204Y-51876261D01*
X188621203Y-51825161D01*
X188560654Y-51818650D01*
X188560638Y-51818650D01*
X186939362Y-51818650D01*
X186939345Y-51818650D01*
X186878797Y-51825161D01*
X186878795Y-51825161D01*
X186741795Y-51876261D01*
X186624739Y-51963889D01*
X186537111Y-52080945D01*
X186486011Y-52217945D01*
X186486011Y-52217947D01*
X186479500Y-52278495D01*
X183678796Y-52278495D01*
X183673155Y-50377343D01*
X220691500Y-50377343D01*
X220691500Y-50622657D01*
X220729876Y-50864950D01*
X220805682Y-51098256D01*
X220917051Y-51316832D01*
X221061243Y-51515294D01*
X221234706Y-51688757D01*
X221433168Y-51832949D01*
X221651744Y-51944318D01*
X221885050Y-52020124D01*
X222127343Y-52058500D01*
X222127344Y-52058500D01*
X222372656Y-52058500D01*
X222372657Y-52058500D01*
X222614950Y-52020124D01*
X222848256Y-51944318D01*
X223066832Y-51832949D01*
X223265294Y-51688757D01*
X223438757Y-51515294D01*
X223582949Y-51316832D01*
X223694318Y-51098256D01*
X223770124Y-50864950D01*
X223808500Y-50622657D01*
X223808500Y-50377343D01*
X223770124Y-50135050D01*
X223694318Y-49901744D01*
X223582949Y-49683168D01*
X223475579Y-49535388D01*
X223452101Y-49469585D01*
X223467926Y-49401531D01*
X223510809Y-49356962D01*
X223518346Y-49352313D01*
X223642315Y-49228344D01*
X223734356Y-49079123D01*
X223734358Y-49079118D01*
X223789505Y-48912696D01*
X223789506Y-48912689D01*
X223799999Y-48809985D01*
X223800000Y-48809972D01*
X223800000Y-48210000D01*
X222740748Y-48210000D01*
X222762518Y-48172292D01*
X222800000Y-48032409D01*
X222800000Y-47887591D01*
X222762518Y-47747708D01*
X222740748Y-47710000D01*
X223800000Y-47710000D01*
X223800000Y-47110027D01*
X223799999Y-47110014D01*
X223789506Y-47007310D01*
X223789505Y-47007303D01*
X223734358Y-46840881D01*
X223734356Y-46840876D01*
X223642315Y-46691655D01*
X223518344Y-46567684D01*
X223369123Y-46475643D01*
X223369118Y-46475641D01*
X223202696Y-46420494D01*
X223202689Y-46420493D01*
X223099985Y-46410000D01*
X222500000Y-46410000D01*
X222500000Y-47469252D01*
X222462292Y-47447482D01*
X222322409Y-47410000D01*
X222177591Y-47410000D01*
X222037708Y-47447482D01*
X222000000Y-47469252D01*
X222000000Y-46410000D01*
X221400014Y-46410000D01*
X221297310Y-46420493D01*
X221297303Y-46420494D01*
X221130881Y-46475641D01*
X221130876Y-46475643D01*
X220981655Y-46567684D01*
X220857684Y-46691655D01*
X220765643Y-46840876D01*
X220765641Y-46840881D01*
X220710494Y-47007303D01*
X220710493Y-47007310D01*
X220700000Y-47110014D01*
X220700000Y-47710000D01*
X221759252Y-47710000D01*
X221737482Y-47747708D01*
X221700000Y-47887591D01*
X221700000Y-48032409D01*
X221737482Y-48172292D01*
X221759252Y-48210000D01*
X220700000Y-48210000D01*
X220700000Y-48809985D01*
X220710493Y-48912689D01*
X220710494Y-48912696D01*
X220765641Y-49079118D01*
X220765643Y-49079123D01*
X220857684Y-49228344D01*
X220981656Y-49352316D01*
X220981660Y-49352319D01*
X220989198Y-49356969D01*
X221035922Y-49408918D01*
X221047142Y-49477880D01*
X221024417Y-49535392D01*
X220917051Y-49683167D01*
X220805683Y-49901741D01*
X220729875Y-50135053D01*
X220691500Y-50377343D01*
X183673155Y-50377343D01*
X183664552Y-47478028D01*
X186488000Y-47478028D01*
X186488000Y-47676671D01*
X186519075Y-47872870D01*
X186519075Y-47872873D01*
X186580457Y-48061787D01*
X186670641Y-48238782D01*
X186697730Y-48276065D01*
X186697731Y-48276066D01*
X187260504Y-47713292D01*
X187276619Y-47773431D01*
X187343498Y-47889270D01*
X187438080Y-47983852D01*
X187553919Y-48050731D01*
X187614057Y-48066844D01*
X187051283Y-48629618D01*
X187051283Y-48629619D01*
X187088567Y-48656708D01*
X187265562Y-48746892D01*
X187454477Y-48808274D01*
X187650679Y-48839350D01*
X187849321Y-48839350D01*
X188045520Y-48808274D01*
X188045523Y-48808274D01*
X188234437Y-48746892D01*
X188411425Y-48656712D01*
X188448716Y-48629618D01*
X187885942Y-48066844D01*
X187946081Y-48050731D01*
X188061920Y-47983852D01*
X188156502Y-47889270D01*
X188223381Y-47773431D01*
X188239495Y-47713292D01*
X188802268Y-48276065D01*
X188829362Y-48238775D01*
X188919542Y-48061787D01*
X188980924Y-47872873D01*
X188980924Y-47872870D01*
X189012000Y-47676671D01*
X189012000Y-47478028D01*
X199488000Y-47478028D01*
X199488000Y-47676671D01*
X199519075Y-47872870D01*
X199519075Y-47872873D01*
X199580457Y-48061787D01*
X199670641Y-48238782D01*
X199697730Y-48276065D01*
X199697731Y-48276066D01*
X200260504Y-47713292D01*
X200276619Y-47773431D01*
X200343498Y-47889270D01*
X200438080Y-47983852D01*
X200553919Y-48050731D01*
X200614057Y-48066844D01*
X200051283Y-48629618D01*
X200051283Y-48629619D01*
X200088567Y-48656708D01*
X200265562Y-48746892D01*
X200454477Y-48808274D01*
X200650679Y-48839350D01*
X200849321Y-48839350D01*
X201045520Y-48808274D01*
X201045523Y-48808274D01*
X201234437Y-48746892D01*
X201411425Y-48656712D01*
X201448716Y-48629618D01*
X200885942Y-48066844D01*
X200946081Y-48050731D01*
X201061920Y-47983852D01*
X201156502Y-47889270D01*
X201223381Y-47773431D01*
X201239495Y-47713292D01*
X201802268Y-48276065D01*
X201829362Y-48238775D01*
X201919542Y-48061787D01*
X201980924Y-47872873D01*
X201980924Y-47872870D01*
X202012000Y-47676671D01*
X202012000Y-47478028D01*
X201980924Y-47281829D01*
X201980924Y-47281826D01*
X201936526Y-47145183D01*
X201919542Y-47092912D01*
X201829358Y-46915917D01*
X201802268Y-46878633D01*
X201239494Y-47441407D01*
X201223381Y-47381269D01*
X201156502Y-47265430D01*
X201061920Y-47170848D01*
X200946081Y-47103969D01*
X200885942Y-47087854D01*
X201448716Y-46525081D01*
X201448715Y-46525080D01*
X201411432Y-46497991D01*
X201234437Y-46407807D01*
X201045522Y-46346425D01*
X200849321Y-46315350D01*
X200650679Y-46315350D01*
X200454479Y-46346425D01*
X200454476Y-46346425D01*
X200265562Y-46407807D01*
X200088564Y-46497993D01*
X200051283Y-46525079D01*
X200051282Y-46525080D01*
X200614058Y-47087854D01*
X200553919Y-47103969D01*
X200438080Y-47170848D01*
X200343498Y-47265430D01*
X200276619Y-47381269D01*
X200260504Y-47441407D01*
X199697730Y-46878632D01*
X199697729Y-46878633D01*
X199670643Y-46915914D01*
X199580457Y-47092912D01*
X199519075Y-47281826D01*
X199519075Y-47281829D01*
X199488000Y-47478028D01*
X189012000Y-47478028D01*
X188980924Y-47281829D01*
X188980924Y-47281826D01*
X188919542Y-47092912D01*
X188829358Y-46915917D01*
X188802268Y-46878633D01*
X188239494Y-47441407D01*
X188223381Y-47381269D01*
X188156502Y-47265430D01*
X188061920Y-47170848D01*
X187946081Y-47103969D01*
X187885942Y-47087854D01*
X188448716Y-46525081D01*
X188448715Y-46525080D01*
X188411432Y-46497991D01*
X188234437Y-46407807D01*
X188045522Y-46346425D01*
X187849321Y-46315350D01*
X187650679Y-46315350D01*
X187454479Y-46346425D01*
X187454476Y-46346425D01*
X187265562Y-46407807D01*
X187088564Y-46497993D01*
X187051283Y-46525079D01*
X187051282Y-46525080D01*
X187614058Y-47087854D01*
X187553919Y-47103969D01*
X187438080Y-47170848D01*
X187343498Y-47265430D01*
X187276619Y-47381269D01*
X187260504Y-47441407D01*
X186697730Y-46878632D01*
X186697729Y-46878633D01*
X186670643Y-46915914D01*
X186580457Y-47092912D01*
X186519075Y-47281826D01*
X186519075Y-47281829D01*
X186488000Y-47478028D01*
X183664552Y-47478028D01*
X183649958Y-42559882D01*
X183669443Y-42492787D01*
X183686134Y-42471977D01*
X184610006Y-41545204D01*
X184671273Y-41511626D01*
X184697791Y-41508751D01*
X232875481Y-41500686D01*
X232942522Y-41520359D01*
G37*
%TD.AperFunction*%
%TD*%
M02*
