%TF.GenerationSoftware,KiCad,Pcbnew,10.0.3*%
%TF.CreationDate,2026-07-12T19:20:12-04:00*%
%TF.ProjectId,PWM_6_step_SVPWM_ADM3223,50574d5f-365f-4737-9465-705f53565057,rev?*%
%TF.SameCoordinates,Original*%
%TF.FileFunction,Soldermask,Bot*%
%TF.FilePolarity,Negative*%
%FSLAX46Y46*%
G04 Gerber Fmt 4.6, Leading zero omitted, Abs format (unit mm)*
G04 Created by KiCad (PCBNEW 10.0.3) date 2026-07-12 19:20:12*
%MOMM*%
%LPD*%
G01*
G04 APERTURE LIST*
G04 Aperture macros list*
%AMRoundRect*
0 Rectangle with rounded corners*
0 $1 Rounding radius*
0 $2 $3 $4 $5 $6 $7 $8 $9 X,Y pos of 4 corners*
0 Add a 4 corners polygon primitive as box body*
4,1,4,$2,$3,$4,$5,$6,$7,$8,$9,$2,$3,0*
0 Add four circle primitives for the rounded corners*
1,1,$1+$1,$2,$3*
1,1,$1+$1,$4,$5*
1,1,$1+$1,$6,$7*
1,1,$1+$1,$8,$9*
0 Add four rect primitives between the rounded corners*
20,1,$1+$1,$2,$3,$4,$5,0*
20,1,$1+$1,$4,$5,$6,$7,0*
20,1,$1+$1,$6,$7,$8,$9,0*
20,1,$1+$1,$8,$9,$2,$3,0*%
G04 Aperture macros list end*
%ADD10R,1.905000X2.000000*%
%ADD11O,1.905000X2.000000*%
%ADD12RoundRect,0.249999X-0.850001X0.850001X-0.850001X-0.850001X0.850001X-0.850001X0.850001X0.850001X0*%
%ADD13C,2.200000*%
%ADD14RoundRect,0.250001X0.799999X-0.799999X0.799999X0.799999X-0.799999X0.799999X-0.799999X-0.799999X0*%
%ADD15C,2.100000*%
%ADD16R,1.700000X1.700000*%
%ADD17C,1.700000*%
%ADD18R,1.524000X1.524000*%
%ADD19C,1.524000*%
%ADD20RoundRect,0.250000X-0.550000X-0.550000X0.550000X-0.550000X0.550000X0.550000X-0.550000X0.550000X0*%
%ADD21C,1.600000*%
G04 APERTURE END LIST*
D10*
%TO.C,Q2*%
X170970000Y-73380000D03*
D11*
X173510000Y-73380000D03*
X176050000Y-73380000D03*
%TD*%
D12*
%TO.C,D2*%
X164000000Y-80860000D03*
D13*
X164000000Y-88480000D03*
%TD*%
D10*
%TO.C,Q1*%
X170960000Y-65430000D03*
D11*
X173500000Y-65430000D03*
X176040000Y-65430000D03*
%TD*%
D14*
%TO.C,J6*%
X187700500Y-83820000D03*
D15*
X187700500Y-81280000D03*
%TD*%
D14*
%TO.C,J7*%
X187573500Y-67056000D03*
D15*
X187573500Y-64516000D03*
%TD*%
D16*
%TO.C,J10*%
X143529500Y-48006000D03*
D17*
X146069500Y-48006000D03*
%TD*%
D14*
%TO.C,J5*%
X187706000Y-99314000D03*
D15*
X187706000Y-96774000D03*
%TD*%
D10*
%TO.C,Q4*%
X170920000Y-89870000D03*
D11*
X173460000Y-89870000D03*
X176000000Y-89870000D03*
%TD*%
D10*
%TO.C,Q5*%
X170947500Y-97980000D03*
D11*
X173487500Y-97980000D03*
X176027500Y-97980000D03*
%TD*%
D12*
%TO.C,D3*%
X164037500Y-96920000D03*
D13*
X164037500Y-104540000D03*
%TD*%
D16*
%TO.C,J4*%
X142621000Y-82926000D03*
D17*
X142621000Y-85466000D03*
%TD*%
D14*
%TO.C,J3*%
X192024000Y-54102000D03*
D15*
X192024000Y-51562000D03*
%TD*%
D18*
%TO.C,C13*%
X164592000Y-49980850D03*
D19*
X164592000Y-55492650D03*
%TD*%
D10*
%TO.C,Q6*%
X170957500Y-105930000D03*
D11*
X173497500Y-105930000D03*
X176037500Y-105930000D03*
%TD*%
D18*
%TO.C,C12*%
X177927000Y-49987200D03*
D19*
X177927000Y-55499000D03*
%TD*%
D10*
%TO.C,Q3*%
X170910000Y-81920000D03*
D11*
X173450000Y-81920000D03*
X175990000Y-81920000D03*
%TD*%
D20*
%TO.C,C1*%
X143659849Y-57912000D03*
D21*
X147159849Y-57912000D03*
%TD*%
D16*
%TO.C,J9*%
X142494000Y-66543000D03*
D17*
X142494000Y-69083000D03*
%TD*%
D12*
%TO.C,D1*%
X164050000Y-64370000D03*
D13*
X164050000Y-71990000D03*
%TD*%
D16*
%TO.C,J8*%
X142875000Y-99182000D03*
D17*
X142875000Y-101722000D03*
%TD*%
M02*
