%TF.GenerationSoftware,KiCad,Pcbnew,10.0.3*%
%TF.CreationDate,2026-07-12T19:20:12-04:00*%
%TF.ProjectId,PWM_6_step_SVPWM_ADM3223,50574d5f-365f-4737-9465-705f53565057,rev?*%
%TF.SameCoordinates,Original*%
%TF.FileFunction,Paste,Top*%
%TF.FilePolarity,Positive*%
%FSLAX46Y46*%
G04 Gerber Fmt 4.6, Leading zero omitted, Abs format (unit mm)*
G04 Created by KiCad (PCBNEW 10.0.3) date 2026-07-12 19:20:12*
%MOMM*%
%LPD*%
G01*
G04 APERTURE LIST*
G04 Aperture macros list*
%AMRoundRect*
0 Rectangle with rounded corners*
0 $1 Rounding radius*
0 $2 $3 $4 $5 $6 $7 $8 $9 X,Y pos of 4 corners*
0 Add a 4 corners polygon primitive as box body*
4,1,4,$2,$3,$4,$5,$6,$7,$8,$9,$2,$3,0*
0 Add four circle primitives for the rounded corners*
1,1,$1+$1,$2,$3*
1,1,$1+$1,$4,$5*
1,1,$1+$1,$6,$7*
1,1,$1+$1,$8,$9*
0 Add four rect primitives between the rounded corners*
20,1,$1+$1,$2,$3,$4,$5,0*
20,1,$1+$1,$4,$5,$6,$7,0*
20,1,$1+$1,$6,$7,$8,$9,0*
20,1,$1+$1,$8,$9,$2,$3,0*%
G04 Aperture macros list end*
%ADD10RoundRect,0.250000X-0.312500X-0.625000X0.312500X-0.625000X0.312500X0.625000X-0.312500X0.625000X0*%
%ADD11RoundRect,0.225000X-0.250000X0.225000X-0.250000X-0.225000X0.250000X-0.225000X0.250000X0.225000X0*%
%ADD12RoundRect,0.225000X-0.225000X-0.250000X0.225000X-0.250000X0.225000X0.250000X-0.225000X0.250000X0*%
%ADD13RoundRect,0.250000X-0.650000X0.325000X-0.650000X-0.325000X0.650000X-0.325000X0.650000X0.325000X0*%
%ADD14RoundRect,0.250000X-0.325000X-0.650000X0.325000X-0.650000X0.325000X0.650000X-0.325000X0.650000X0*%
%ADD15R,2.184400X0.558800*%
G04 APERTURE END LIST*
D10*
%TO.C,R9*%
X166575000Y-100980000D03*
X169500000Y-100980000D03*
%TD*%
%TO.C,R5*%
X161287500Y-91920000D03*
X164212500Y-91920000D03*
%TD*%
D11*
%TO.C,C5*%
X148250000Y-86145000D03*
X148250000Y-87695000D03*
%TD*%
D12*
%TO.C,C37*%
X158262500Y-105480000D03*
X159812500Y-105480000D03*
%TD*%
D13*
%TO.C,C10*%
X156585500Y-51181000D03*
X156585500Y-54131000D03*
%TD*%
D12*
%TO.C,C35*%
X157962000Y-73533000D03*
X159512000Y-73533000D03*
%TD*%
D10*
%TO.C,R8*%
X161325000Y-107980000D03*
X164250000Y-107980000D03*
%TD*%
D14*
%TO.C,C2*%
X143354000Y-51562000D03*
X146304000Y-51562000D03*
%TD*%
D10*
%TO.C,R7*%
X158325000Y-96230000D03*
X161250000Y-96230000D03*
%TD*%
%TO.C,R3*%
X161337500Y-75430000D03*
X164262500Y-75430000D03*
%TD*%
D15*
%TO.C,U5*%
X150937800Y-67235000D03*
X150937800Y-68505000D03*
X150937800Y-69775000D03*
X150937800Y-71045000D03*
X150937800Y-72315000D03*
X150937800Y-73585000D03*
X150937800Y-74855000D03*
X150937800Y-76125000D03*
X155662200Y-76125000D03*
X155662200Y-74855000D03*
X155662200Y-73585000D03*
X155662200Y-72315000D03*
X155662200Y-71045000D03*
X155662200Y-69775000D03*
X155662200Y-68505000D03*
X155662200Y-67235000D03*
%TD*%
D12*
%TO.C,C33*%
X158250000Y-82920000D03*
X159800000Y-82920000D03*
%TD*%
D11*
%TO.C,C4*%
X148300000Y-69655000D03*
X148300000Y-71205000D03*
%TD*%
D12*
%TO.C,C34*%
X158287500Y-98980000D03*
X159837500Y-98980000D03*
%TD*%
D15*
%TO.C,U7*%
X150925300Y-99785000D03*
X150925300Y-101055000D03*
X150925300Y-102325000D03*
X150925300Y-103595000D03*
X150925300Y-104865000D03*
X150925300Y-106135000D03*
X150925300Y-107405000D03*
X150925300Y-108675000D03*
X155649700Y-108675000D03*
X155649700Y-107405000D03*
X155649700Y-106135000D03*
X155649700Y-104865000D03*
X155649700Y-103595000D03*
X155649700Y-102325000D03*
X155649700Y-101055000D03*
X155649700Y-99785000D03*
%TD*%
D11*
%TO.C,C9*%
X148287500Y-102205000D03*
X148287500Y-103755000D03*
%TD*%
D10*
%TO.C,R2*%
X166587500Y-68430000D03*
X169512500Y-68430000D03*
%TD*%
D13*
%TO.C,C11*%
X186449326Y-51122235D03*
X186449326Y-54072235D03*
%TD*%
D10*
%TO.C,R6*%
X166537500Y-84920000D03*
X169462500Y-84920000D03*
%TD*%
D12*
%TO.C,C36*%
X157975000Y-90000000D03*
X159525000Y-90000000D03*
%TD*%
D10*
%TO.C,R1*%
X158337500Y-63680000D03*
X161262500Y-63680000D03*
%TD*%
D15*
%TO.C,U6*%
X150887800Y-83725000D03*
X150887800Y-84995000D03*
X150887800Y-86265000D03*
X150887800Y-87535000D03*
X150887800Y-88805000D03*
X150887800Y-90075000D03*
X150887800Y-91345000D03*
X150887800Y-92615000D03*
X155612200Y-92615000D03*
X155612200Y-91345000D03*
X155612200Y-90075000D03*
X155612200Y-88805000D03*
X155612200Y-87535000D03*
X155612200Y-86265000D03*
X155612200Y-84995000D03*
X155612200Y-83725000D03*
%TD*%
D12*
%TO.C,C32*%
X158300000Y-66430000D03*
X159850000Y-66430000D03*
%TD*%
D10*
%TO.C,R4*%
X158287500Y-80170000D03*
X161212500Y-80170000D03*
%TD*%
M02*
