%TF.GenerationSoftware,KiCad,Pcbnew,10.0.3*%
%TF.CreationDate,2026-07-12T19:23:39-04:00*%
%TF.ProjectId,PWM_6_step_SVPWM_IR2110,50574d5f-365f-4737-9465-705f53565057,rev?*%
%TF.SameCoordinates,Original*%
%TF.FileFunction,Legend,Top*%
%TF.FilePolarity,Positive*%
%FSLAX46Y46*%
G04 Gerber Fmt 4.6, Leading zero omitted, Abs format (unit mm)*
G04 Created by KiCad (PCBNEW 10.0.3) date 2026-07-12 19:23:39*
%MOMM*%
%LPD*%
G01*
G04 APERTURE LIST*
%ADD10C,0.150000*%
%ADD11C,0.120000*%
%ADD12C,0.152400*%
G04 APERTURE END LIST*
D10*
X201033333Y-71834819D02*
X200700000Y-71358628D01*
X200461905Y-71834819D02*
X200461905Y-70834819D01*
X200461905Y-70834819D02*
X200842857Y-70834819D01*
X200842857Y-70834819D02*
X200938095Y-70882438D01*
X200938095Y-70882438D02*
X200985714Y-70930057D01*
X200985714Y-70930057D02*
X201033333Y-71025295D01*
X201033333Y-71025295D02*
X201033333Y-71168152D01*
X201033333Y-71168152D02*
X200985714Y-71263390D01*
X200985714Y-71263390D02*
X200938095Y-71311009D01*
X200938095Y-71311009D02*
X200842857Y-71358628D01*
X200842857Y-71358628D02*
X200461905Y-71358628D01*
X201414286Y-70930057D02*
X201461905Y-70882438D01*
X201461905Y-70882438D02*
X201557143Y-70834819D01*
X201557143Y-70834819D02*
X201795238Y-70834819D01*
X201795238Y-70834819D02*
X201890476Y-70882438D01*
X201890476Y-70882438D02*
X201938095Y-70930057D01*
X201938095Y-70930057D02*
X201985714Y-71025295D01*
X201985714Y-71025295D02*
X201985714Y-71120533D01*
X201985714Y-71120533D02*
X201938095Y-71263390D01*
X201938095Y-71263390D02*
X201366667Y-71834819D01*
X201366667Y-71834819D02*
X201985714Y-71834819D01*
X209064761Y-69660057D02*
X208969523Y-69612438D01*
X208969523Y-69612438D02*
X208874285Y-69517200D01*
X208874285Y-69517200D02*
X208731428Y-69374342D01*
X208731428Y-69374342D02*
X208636190Y-69326723D01*
X208636190Y-69326723D02*
X208540952Y-69326723D01*
X208588571Y-69564819D02*
X208493333Y-69517200D01*
X208493333Y-69517200D02*
X208398095Y-69421961D01*
X208398095Y-69421961D02*
X208350476Y-69231485D01*
X208350476Y-69231485D02*
X208350476Y-68898152D01*
X208350476Y-68898152D02*
X208398095Y-68707676D01*
X208398095Y-68707676D02*
X208493333Y-68612438D01*
X208493333Y-68612438D02*
X208588571Y-68564819D01*
X208588571Y-68564819D02*
X208779047Y-68564819D01*
X208779047Y-68564819D02*
X208874285Y-68612438D01*
X208874285Y-68612438D02*
X208969523Y-68707676D01*
X208969523Y-68707676D02*
X209017142Y-68898152D01*
X209017142Y-68898152D02*
X209017142Y-69231485D01*
X209017142Y-69231485D02*
X208969523Y-69421961D01*
X208969523Y-69421961D02*
X208874285Y-69517200D01*
X208874285Y-69517200D02*
X208779047Y-69564819D01*
X208779047Y-69564819D02*
X208588571Y-69564819D01*
X209969523Y-69564819D02*
X209398095Y-69564819D01*
X209683809Y-69564819D02*
X209683809Y-68564819D01*
X209683809Y-68564819D02*
X209588571Y-68707676D01*
X209588571Y-68707676D02*
X209493333Y-68802914D01*
X209493333Y-68802914D02*
X209398095Y-68850533D01*
X192484580Y-110910666D02*
X192532200Y-110958285D01*
X192532200Y-110958285D02*
X192579819Y-111101142D01*
X192579819Y-111101142D02*
X192579819Y-111196380D01*
X192579819Y-111196380D02*
X192532200Y-111339237D01*
X192532200Y-111339237D02*
X192436961Y-111434475D01*
X192436961Y-111434475D02*
X192341723Y-111482094D01*
X192341723Y-111482094D02*
X192151247Y-111529713D01*
X192151247Y-111529713D02*
X192008390Y-111529713D01*
X192008390Y-111529713D02*
X191817914Y-111482094D01*
X191817914Y-111482094D02*
X191722676Y-111434475D01*
X191722676Y-111434475D02*
X191627438Y-111339237D01*
X191627438Y-111339237D02*
X191579819Y-111196380D01*
X191579819Y-111196380D02*
X191579819Y-111101142D01*
X191579819Y-111101142D02*
X191627438Y-110958285D01*
X191627438Y-110958285D02*
X191675057Y-110910666D01*
X192579819Y-110434475D02*
X192579819Y-110243999D01*
X192579819Y-110243999D02*
X192532200Y-110148761D01*
X192532200Y-110148761D02*
X192484580Y-110101142D01*
X192484580Y-110101142D02*
X192341723Y-110005904D01*
X192341723Y-110005904D02*
X192151247Y-109958285D01*
X192151247Y-109958285D02*
X191770295Y-109958285D01*
X191770295Y-109958285D02*
X191675057Y-110005904D01*
X191675057Y-110005904D02*
X191627438Y-110053523D01*
X191627438Y-110053523D02*
X191579819Y-110148761D01*
X191579819Y-110148761D02*
X191579819Y-110339237D01*
X191579819Y-110339237D02*
X191627438Y-110434475D01*
X191627438Y-110434475D02*
X191675057Y-110482094D01*
X191675057Y-110482094D02*
X191770295Y-110529713D01*
X191770295Y-110529713D02*
X192008390Y-110529713D01*
X192008390Y-110529713D02*
X192103628Y-110482094D01*
X192103628Y-110482094D02*
X192151247Y-110434475D01*
X192151247Y-110434475D02*
X192198866Y-110339237D01*
X192198866Y-110339237D02*
X192198866Y-110148761D01*
X192198866Y-110148761D02*
X192151247Y-110053523D01*
X192151247Y-110053523D02*
X192103628Y-110005904D01*
X192103628Y-110005904D02*
X192008390Y-109958285D01*
X191959580Y-65126666D02*
X192007200Y-65174285D01*
X192007200Y-65174285D02*
X192054819Y-65317142D01*
X192054819Y-65317142D02*
X192054819Y-65412380D01*
X192054819Y-65412380D02*
X192007200Y-65555237D01*
X192007200Y-65555237D02*
X191911961Y-65650475D01*
X191911961Y-65650475D02*
X191816723Y-65698094D01*
X191816723Y-65698094D02*
X191626247Y-65745713D01*
X191626247Y-65745713D02*
X191483390Y-65745713D01*
X191483390Y-65745713D02*
X191292914Y-65698094D01*
X191292914Y-65698094D02*
X191197676Y-65650475D01*
X191197676Y-65650475D02*
X191102438Y-65555237D01*
X191102438Y-65555237D02*
X191054819Y-65412380D01*
X191054819Y-65412380D02*
X191054819Y-65317142D01*
X191054819Y-65317142D02*
X191102438Y-65174285D01*
X191102438Y-65174285D02*
X191150057Y-65126666D01*
X192054819Y-64174285D02*
X192054819Y-64745713D01*
X192054819Y-64459999D02*
X191054819Y-64459999D01*
X191054819Y-64459999D02*
X191197676Y-64555237D01*
X191197676Y-64555237D02*
X191292914Y-64650475D01*
X191292914Y-64650475D02*
X191340533Y-64745713D01*
X182503095Y-119890186D02*
X182503095Y-120699709D01*
X182503095Y-120699709D02*
X182550714Y-120794947D01*
X182550714Y-120794947D02*
X182598333Y-120842567D01*
X182598333Y-120842567D02*
X182693571Y-120890186D01*
X182693571Y-120890186D02*
X182884047Y-120890186D01*
X182884047Y-120890186D02*
X182979285Y-120842567D01*
X182979285Y-120842567D02*
X183026904Y-120794947D01*
X183026904Y-120794947D02*
X183074523Y-120699709D01*
X183074523Y-120699709D02*
X183074523Y-119890186D01*
X183455476Y-119890186D02*
X184074523Y-119890186D01*
X184074523Y-119890186D02*
X183741190Y-120271138D01*
X183741190Y-120271138D02*
X183884047Y-120271138D01*
X183884047Y-120271138D02*
X183979285Y-120318757D01*
X183979285Y-120318757D02*
X184026904Y-120366376D01*
X184026904Y-120366376D02*
X184074523Y-120461614D01*
X184074523Y-120461614D02*
X184074523Y-120699709D01*
X184074523Y-120699709D02*
X184026904Y-120794947D01*
X184026904Y-120794947D02*
X183979285Y-120842567D01*
X183979285Y-120842567D02*
X183884047Y-120890186D01*
X183884047Y-120890186D02*
X183598333Y-120890186D01*
X183598333Y-120890186D02*
X183503095Y-120842567D01*
X183503095Y-120842567D02*
X183455476Y-120794947D01*
X199139819Y-89019171D02*
X198139819Y-89019171D01*
X198139819Y-89019171D02*
X198139819Y-88781076D01*
X198139819Y-88781076D02*
X198187438Y-88638219D01*
X198187438Y-88638219D02*
X198282676Y-88542981D01*
X198282676Y-88542981D02*
X198377914Y-88495362D01*
X198377914Y-88495362D02*
X198568390Y-88447743D01*
X198568390Y-88447743D02*
X198711247Y-88447743D01*
X198711247Y-88447743D02*
X198901723Y-88495362D01*
X198901723Y-88495362D02*
X198996961Y-88542981D01*
X198996961Y-88542981D02*
X199092200Y-88638219D01*
X199092200Y-88638219D02*
X199139819Y-88781076D01*
X199139819Y-88781076D02*
X199139819Y-89019171D01*
X198235057Y-88066790D02*
X198187438Y-88019171D01*
X198187438Y-88019171D02*
X198139819Y-87923933D01*
X198139819Y-87923933D02*
X198139819Y-87685838D01*
X198139819Y-87685838D02*
X198187438Y-87590600D01*
X198187438Y-87590600D02*
X198235057Y-87542981D01*
X198235057Y-87542981D02*
X198330295Y-87495362D01*
X198330295Y-87495362D02*
X198425533Y-87495362D01*
X198425533Y-87495362D02*
X198568390Y-87542981D01*
X198568390Y-87542981D02*
X199139819Y-88114409D01*
X199139819Y-88114409D02*
X199139819Y-87495362D01*
X198769819Y-83462981D02*
X197769819Y-83462981D01*
X198769819Y-82891553D02*
X198198390Y-83320124D01*
X197769819Y-82891553D02*
X198341247Y-83462981D01*
X177109580Y-101367857D02*
X177157200Y-101415476D01*
X177157200Y-101415476D02*
X177204819Y-101558333D01*
X177204819Y-101558333D02*
X177204819Y-101653571D01*
X177204819Y-101653571D02*
X177157200Y-101796428D01*
X177157200Y-101796428D02*
X177061961Y-101891666D01*
X177061961Y-101891666D02*
X176966723Y-101939285D01*
X176966723Y-101939285D02*
X176776247Y-101986904D01*
X176776247Y-101986904D02*
X176633390Y-101986904D01*
X176633390Y-101986904D02*
X176442914Y-101939285D01*
X176442914Y-101939285D02*
X176347676Y-101891666D01*
X176347676Y-101891666D02*
X176252438Y-101796428D01*
X176252438Y-101796428D02*
X176204819Y-101653571D01*
X176204819Y-101653571D02*
X176204819Y-101558333D01*
X176204819Y-101558333D02*
X176252438Y-101415476D01*
X176252438Y-101415476D02*
X176300057Y-101367857D01*
X177204819Y-100415476D02*
X177204819Y-100986904D01*
X177204819Y-100701190D02*
X176204819Y-100701190D01*
X176204819Y-100701190D02*
X176347676Y-100796428D01*
X176347676Y-100796428D02*
X176442914Y-100891666D01*
X176442914Y-100891666D02*
X176490533Y-100986904D01*
X176204819Y-99558333D02*
X176204819Y-99748809D01*
X176204819Y-99748809D02*
X176252438Y-99844047D01*
X176252438Y-99844047D02*
X176300057Y-99891666D01*
X176300057Y-99891666D02*
X176442914Y-99986904D01*
X176442914Y-99986904D02*
X176633390Y-100034523D01*
X176633390Y-100034523D02*
X177014342Y-100034523D01*
X177014342Y-100034523D02*
X177109580Y-99986904D01*
X177109580Y-99986904D02*
X177157200Y-99939285D01*
X177157200Y-99939285D02*
X177204819Y-99844047D01*
X177204819Y-99844047D02*
X177204819Y-99653571D01*
X177204819Y-99653571D02*
X177157200Y-99558333D01*
X177157200Y-99558333D02*
X177109580Y-99510714D01*
X177109580Y-99510714D02*
X177014342Y-99463095D01*
X177014342Y-99463095D02*
X176776247Y-99463095D01*
X176776247Y-99463095D02*
X176681009Y-99510714D01*
X176681009Y-99510714D02*
X176633390Y-99558333D01*
X176633390Y-99558333D02*
X176585771Y-99653571D01*
X176585771Y-99653571D02*
X176585771Y-99844047D01*
X176585771Y-99844047D02*
X176633390Y-99939285D01*
X176633390Y-99939285D02*
X176681009Y-99986904D01*
X176681009Y-99986904D02*
X176776247Y-100034523D01*
X214227080Y-46917857D02*
X214274700Y-46965476D01*
X214274700Y-46965476D02*
X214322319Y-47108333D01*
X214322319Y-47108333D02*
X214322319Y-47203571D01*
X214322319Y-47203571D02*
X214274700Y-47346428D01*
X214274700Y-47346428D02*
X214179461Y-47441666D01*
X214179461Y-47441666D02*
X214084223Y-47489285D01*
X214084223Y-47489285D02*
X213893747Y-47536904D01*
X213893747Y-47536904D02*
X213750890Y-47536904D01*
X213750890Y-47536904D02*
X213560414Y-47489285D01*
X213560414Y-47489285D02*
X213465176Y-47441666D01*
X213465176Y-47441666D02*
X213369938Y-47346428D01*
X213369938Y-47346428D02*
X213322319Y-47203571D01*
X213322319Y-47203571D02*
X213322319Y-47108333D01*
X213322319Y-47108333D02*
X213369938Y-46965476D01*
X213369938Y-46965476D02*
X213417557Y-46917857D01*
X214322319Y-45965476D02*
X214322319Y-46536904D01*
X214322319Y-46251190D02*
X213322319Y-46251190D01*
X213322319Y-46251190D02*
X213465176Y-46346428D01*
X213465176Y-46346428D02*
X213560414Y-46441666D01*
X213560414Y-46441666D02*
X213608033Y-46536904D01*
X213322319Y-45346428D02*
X213322319Y-45251190D01*
X213322319Y-45251190D02*
X213369938Y-45155952D01*
X213369938Y-45155952D02*
X213417557Y-45108333D01*
X213417557Y-45108333D02*
X213512795Y-45060714D01*
X213512795Y-45060714D02*
X213703271Y-45013095D01*
X213703271Y-45013095D02*
X213941366Y-45013095D01*
X213941366Y-45013095D02*
X214131842Y-45060714D01*
X214131842Y-45060714D02*
X214227080Y-45108333D01*
X214227080Y-45108333D02*
X214274700Y-45155952D01*
X214274700Y-45155952D02*
X214322319Y-45251190D01*
X214322319Y-45251190D02*
X214322319Y-45346428D01*
X214322319Y-45346428D02*
X214274700Y-45441666D01*
X214274700Y-45441666D02*
X214227080Y-45489285D01*
X214227080Y-45489285D02*
X214131842Y-45536904D01*
X214131842Y-45536904D02*
X213941366Y-45584523D01*
X213941366Y-45584523D02*
X213703271Y-45584523D01*
X213703271Y-45584523D02*
X213512795Y-45536904D01*
X213512795Y-45536904D02*
X213417557Y-45489285D01*
X213417557Y-45489285D02*
X213369938Y-45441666D01*
X213369938Y-45441666D02*
X213322319Y-45346428D01*
X177109580Y-60642857D02*
X177157200Y-60690476D01*
X177157200Y-60690476D02*
X177204819Y-60833333D01*
X177204819Y-60833333D02*
X177204819Y-60928571D01*
X177204819Y-60928571D02*
X177157200Y-61071428D01*
X177157200Y-61071428D02*
X177061961Y-61166666D01*
X177061961Y-61166666D02*
X176966723Y-61214285D01*
X176966723Y-61214285D02*
X176776247Y-61261904D01*
X176776247Y-61261904D02*
X176633390Y-61261904D01*
X176633390Y-61261904D02*
X176442914Y-61214285D01*
X176442914Y-61214285D02*
X176347676Y-61166666D01*
X176347676Y-61166666D02*
X176252438Y-61071428D01*
X176252438Y-61071428D02*
X176204819Y-60928571D01*
X176204819Y-60928571D02*
X176204819Y-60833333D01*
X176204819Y-60833333D02*
X176252438Y-60690476D01*
X176252438Y-60690476D02*
X176300057Y-60642857D01*
X177204819Y-59690476D02*
X177204819Y-60261904D01*
X177204819Y-59976190D02*
X176204819Y-59976190D01*
X176204819Y-59976190D02*
X176347676Y-60071428D01*
X176347676Y-60071428D02*
X176442914Y-60166666D01*
X176442914Y-60166666D02*
X176490533Y-60261904D01*
X176538152Y-58833333D02*
X177204819Y-58833333D01*
X176157200Y-59071428D02*
X176871485Y-59309523D01*
X176871485Y-59309523D02*
X176871485Y-58690476D01*
X192324580Y-90197743D02*
X192372200Y-90245362D01*
X192372200Y-90245362D02*
X192419819Y-90388219D01*
X192419819Y-90388219D02*
X192419819Y-90483457D01*
X192419819Y-90483457D02*
X192372200Y-90626314D01*
X192372200Y-90626314D02*
X192276961Y-90721552D01*
X192276961Y-90721552D02*
X192181723Y-90769171D01*
X192181723Y-90769171D02*
X191991247Y-90816790D01*
X191991247Y-90816790D02*
X191848390Y-90816790D01*
X191848390Y-90816790D02*
X191657914Y-90769171D01*
X191657914Y-90769171D02*
X191562676Y-90721552D01*
X191562676Y-90721552D02*
X191467438Y-90626314D01*
X191467438Y-90626314D02*
X191419819Y-90483457D01*
X191419819Y-90483457D02*
X191419819Y-90388219D01*
X191419819Y-90388219D02*
X191467438Y-90245362D01*
X191467438Y-90245362D02*
X191515057Y-90197743D01*
X191419819Y-89340600D02*
X191419819Y-89531076D01*
X191419819Y-89531076D02*
X191467438Y-89626314D01*
X191467438Y-89626314D02*
X191515057Y-89673933D01*
X191515057Y-89673933D02*
X191657914Y-89769171D01*
X191657914Y-89769171D02*
X191848390Y-89816790D01*
X191848390Y-89816790D02*
X192229342Y-89816790D01*
X192229342Y-89816790D02*
X192324580Y-89769171D01*
X192324580Y-89769171D02*
X192372200Y-89721552D01*
X192372200Y-89721552D02*
X192419819Y-89626314D01*
X192419819Y-89626314D02*
X192419819Y-89435838D01*
X192419819Y-89435838D02*
X192372200Y-89340600D01*
X192372200Y-89340600D02*
X192324580Y-89292981D01*
X192324580Y-89292981D02*
X192229342Y-89245362D01*
X192229342Y-89245362D02*
X191991247Y-89245362D01*
X191991247Y-89245362D02*
X191896009Y-89292981D01*
X191896009Y-89292981D02*
X191848390Y-89340600D01*
X191848390Y-89340600D02*
X191800771Y-89435838D01*
X191800771Y-89435838D02*
X191800771Y-89626314D01*
X191800771Y-89626314D02*
X191848390Y-89721552D01*
X191848390Y-89721552D02*
X191896009Y-89769171D01*
X191896009Y-89769171D02*
X191991247Y-89816790D01*
X192334580Y-106772033D02*
X192382200Y-106819652D01*
X192382200Y-106819652D02*
X192429819Y-106962509D01*
X192429819Y-106962509D02*
X192429819Y-107057747D01*
X192429819Y-107057747D02*
X192382200Y-107200604D01*
X192382200Y-107200604D02*
X192286961Y-107295842D01*
X192286961Y-107295842D02*
X192191723Y-107343461D01*
X192191723Y-107343461D02*
X192001247Y-107391080D01*
X192001247Y-107391080D02*
X191858390Y-107391080D01*
X191858390Y-107391080D02*
X191667914Y-107343461D01*
X191667914Y-107343461D02*
X191572676Y-107295842D01*
X191572676Y-107295842D02*
X191477438Y-107200604D01*
X191477438Y-107200604D02*
X191429819Y-107057747D01*
X191429819Y-107057747D02*
X191429819Y-106962509D01*
X191429819Y-106962509D02*
X191477438Y-106819652D01*
X191477438Y-106819652D02*
X191525057Y-106772033D01*
X191429819Y-106438699D02*
X191429819Y-105772033D01*
X191429819Y-105772033D02*
X192429819Y-106200604D01*
X209279761Y-90441134D02*
X209184523Y-90393515D01*
X209184523Y-90393515D02*
X209089285Y-90298277D01*
X209089285Y-90298277D02*
X208946428Y-90155419D01*
X208946428Y-90155419D02*
X208851190Y-90107800D01*
X208851190Y-90107800D02*
X208755952Y-90107800D01*
X208803571Y-90345896D02*
X208708333Y-90298277D01*
X208708333Y-90298277D02*
X208613095Y-90203038D01*
X208613095Y-90203038D02*
X208565476Y-90012562D01*
X208565476Y-90012562D02*
X208565476Y-89679229D01*
X208565476Y-89679229D02*
X208613095Y-89488753D01*
X208613095Y-89488753D02*
X208708333Y-89393515D01*
X208708333Y-89393515D02*
X208803571Y-89345896D01*
X208803571Y-89345896D02*
X208994047Y-89345896D01*
X208994047Y-89345896D02*
X209089285Y-89393515D01*
X209089285Y-89393515D02*
X209184523Y-89488753D01*
X209184523Y-89488753D02*
X209232142Y-89679229D01*
X209232142Y-89679229D02*
X209232142Y-90012562D01*
X209232142Y-90012562D02*
X209184523Y-90203038D01*
X209184523Y-90203038D02*
X209089285Y-90298277D01*
X209089285Y-90298277D02*
X208994047Y-90345896D01*
X208994047Y-90345896D02*
X208803571Y-90345896D01*
X210089285Y-89679229D02*
X210089285Y-90345896D01*
X209851190Y-89298277D02*
X209613095Y-90012562D01*
X209613095Y-90012562D02*
X210232142Y-90012562D01*
X201248333Y-92615896D02*
X200915000Y-92139705D01*
X200676905Y-92615896D02*
X200676905Y-91615896D01*
X200676905Y-91615896D02*
X201057857Y-91615896D01*
X201057857Y-91615896D02*
X201153095Y-91663515D01*
X201153095Y-91663515D02*
X201200714Y-91711134D01*
X201200714Y-91711134D02*
X201248333Y-91806372D01*
X201248333Y-91806372D02*
X201248333Y-91949229D01*
X201248333Y-91949229D02*
X201200714Y-92044467D01*
X201200714Y-92044467D02*
X201153095Y-92092086D01*
X201153095Y-92092086D02*
X201057857Y-92139705D01*
X201057857Y-92139705D02*
X200676905Y-92139705D01*
X202105476Y-91949229D02*
X202105476Y-92615896D01*
X201867381Y-91568277D02*
X201629286Y-92282562D01*
X201629286Y-92282562D02*
X202248333Y-92282562D01*
X167052666Y-105781819D02*
X167052666Y-106496104D01*
X167052666Y-106496104D02*
X167005047Y-106638961D01*
X167005047Y-106638961D02*
X166909809Y-106734200D01*
X166909809Y-106734200D02*
X166766952Y-106781819D01*
X166766952Y-106781819D02*
X166671714Y-106781819D01*
X167671714Y-106210390D02*
X167576476Y-106162771D01*
X167576476Y-106162771D02*
X167528857Y-106115152D01*
X167528857Y-106115152D02*
X167481238Y-106019914D01*
X167481238Y-106019914D02*
X167481238Y-105972295D01*
X167481238Y-105972295D02*
X167528857Y-105877057D01*
X167528857Y-105877057D02*
X167576476Y-105829438D01*
X167576476Y-105829438D02*
X167671714Y-105781819D01*
X167671714Y-105781819D02*
X167862190Y-105781819D01*
X167862190Y-105781819D02*
X167957428Y-105829438D01*
X167957428Y-105829438D02*
X168005047Y-105877057D01*
X168005047Y-105877057D02*
X168052666Y-105972295D01*
X168052666Y-105972295D02*
X168052666Y-106019914D01*
X168052666Y-106019914D02*
X168005047Y-106115152D01*
X168005047Y-106115152D02*
X167957428Y-106162771D01*
X167957428Y-106162771D02*
X167862190Y-106210390D01*
X167862190Y-106210390D02*
X167671714Y-106210390D01*
X167671714Y-106210390D02*
X167576476Y-106258009D01*
X167576476Y-106258009D02*
X167528857Y-106305628D01*
X167528857Y-106305628D02*
X167481238Y-106400866D01*
X167481238Y-106400866D02*
X167481238Y-106591342D01*
X167481238Y-106591342D02*
X167528857Y-106686580D01*
X167528857Y-106686580D02*
X167576476Y-106734200D01*
X167576476Y-106734200D02*
X167671714Y-106781819D01*
X167671714Y-106781819D02*
X167862190Y-106781819D01*
X167862190Y-106781819D02*
X167957428Y-106734200D01*
X167957428Y-106734200D02*
X168005047Y-106686580D01*
X168005047Y-106686580D02*
X168052666Y-106591342D01*
X168052666Y-106591342D02*
X168052666Y-106400866D01*
X168052666Y-106400866D02*
X168005047Y-106305628D01*
X168005047Y-106305628D02*
X167957428Y-106258009D01*
X167957428Y-106258009D02*
X167862190Y-106210390D01*
X198924819Y-68238094D02*
X197924819Y-68238094D01*
X197924819Y-68238094D02*
X197924819Y-67999999D01*
X197924819Y-67999999D02*
X197972438Y-67857142D01*
X197972438Y-67857142D02*
X198067676Y-67761904D01*
X198067676Y-67761904D02*
X198162914Y-67714285D01*
X198162914Y-67714285D02*
X198353390Y-67666666D01*
X198353390Y-67666666D02*
X198496247Y-67666666D01*
X198496247Y-67666666D02*
X198686723Y-67714285D01*
X198686723Y-67714285D02*
X198781961Y-67761904D01*
X198781961Y-67761904D02*
X198877200Y-67857142D01*
X198877200Y-67857142D02*
X198924819Y-67999999D01*
X198924819Y-67999999D02*
X198924819Y-68238094D01*
X198924819Y-66714285D02*
X198924819Y-67285713D01*
X198924819Y-66999999D02*
X197924819Y-66999999D01*
X197924819Y-66999999D02*
X198067676Y-67095237D01*
X198067676Y-67095237D02*
X198162914Y-67190475D01*
X198162914Y-67190475D02*
X198210533Y-67285713D01*
X198554819Y-62681904D02*
X197554819Y-62681904D01*
X198554819Y-62110476D02*
X197983390Y-62539047D01*
X197554819Y-62110476D02*
X198126247Y-62681904D01*
X189609580Y-69431666D02*
X189657200Y-69479285D01*
X189657200Y-69479285D02*
X189704819Y-69622142D01*
X189704819Y-69622142D02*
X189704819Y-69717380D01*
X189704819Y-69717380D02*
X189657200Y-69860237D01*
X189657200Y-69860237D02*
X189561961Y-69955475D01*
X189561961Y-69955475D02*
X189466723Y-70003094D01*
X189466723Y-70003094D02*
X189276247Y-70050713D01*
X189276247Y-70050713D02*
X189133390Y-70050713D01*
X189133390Y-70050713D02*
X188942914Y-70003094D01*
X188942914Y-70003094D02*
X188847676Y-69955475D01*
X188847676Y-69955475D02*
X188752438Y-69860237D01*
X188752438Y-69860237D02*
X188704819Y-69717380D01*
X188704819Y-69717380D02*
X188704819Y-69622142D01*
X188704819Y-69622142D02*
X188752438Y-69479285D01*
X188752438Y-69479285D02*
X188800057Y-69431666D01*
X188800057Y-69050713D02*
X188752438Y-69003094D01*
X188752438Y-69003094D02*
X188704819Y-68907856D01*
X188704819Y-68907856D02*
X188704819Y-68669761D01*
X188704819Y-68669761D02*
X188752438Y-68574523D01*
X188752438Y-68574523D02*
X188800057Y-68526904D01*
X188800057Y-68526904D02*
X188895295Y-68479285D01*
X188895295Y-68479285D02*
X188990533Y-68479285D01*
X188990533Y-68479285D02*
X189133390Y-68526904D01*
X189133390Y-68526904D02*
X189704819Y-69098332D01*
X189704819Y-69098332D02*
X189704819Y-68479285D01*
X189824580Y-90212743D02*
X189872200Y-90260362D01*
X189872200Y-90260362D02*
X189919819Y-90403219D01*
X189919819Y-90403219D02*
X189919819Y-90498457D01*
X189919819Y-90498457D02*
X189872200Y-90641314D01*
X189872200Y-90641314D02*
X189776961Y-90736552D01*
X189776961Y-90736552D02*
X189681723Y-90784171D01*
X189681723Y-90784171D02*
X189491247Y-90831790D01*
X189491247Y-90831790D02*
X189348390Y-90831790D01*
X189348390Y-90831790D02*
X189157914Y-90784171D01*
X189157914Y-90784171D02*
X189062676Y-90736552D01*
X189062676Y-90736552D02*
X188967438Y-90641314D01*
X188967438Y-90641314D02*
X188919819Y-90498457D01*
X188919819Y-90498457D02*
X188919819Y-90403219D01*
X188919819Y-90403219D02*
X188967438Y-90260362D01*
X188967438Y-90260362D02*
X189015057Y-90212743D01*
X188919819Y-89307981D02*
X188919819Y-89784171D01*
X188919819Y-89784171D02*
X189396009Y-89831790D01*
X189396009Y-89831790D02*
X189348390Y-89784171D01*
X189348390Y-89784171D02*
X189300771Y-89688933D01*
X189300771Y-89688933D02*
X189300771Y-89450838D01*
X189300771Y-89450838D02*
X189348390Y-89355600D01*
X189348390Y-89355600D02*
X189396009Y-89307981D01*
X189396009Y-89307981D02*
X189491247Y-89260362D01*
X189491247Y-89260362D02*
X189729342Y-89260362D01*
X189729342Y-89260362D02*
X189824580Y-89307981D01*
X189824580Y-89307981D02*
X189872200Y-89355600D01*
X189872200Y-89355600D02*
X189919819Y-89450838D01*
X189919819Y-89450838D02*
X189919819Y-89688933D01*
X189919819Y-89688933D02*
X189872200Y-89784171D01*
X189872200Y-89784171D02*
X189824580Y-89831790D01*
X192109580Y-69416666D02*
X192157200Y-69464285D01*
X192157200Y-69464285D02*
X192204819Y-69607142D01*
X192204819Y-69607142D02*
X192204819Y-69702380D01*
X192204819Y-69702380D02*
X192157200Y-69845237D01*
X192157200Y-69845237D02*
X192061961Y-69940475D01*
X192061961Y-69940475D02*
X191966723Y-69988094D01*
X191966723Y-69988094D02*
X191776247Y-70035713D01*
X191776247Y-70035713D02*
X191633390Y-70035713D01*
X191633390Y-70035713D02*
X191442914Y-69988094D01*
X191442914Y-69988094D02*
X191347676Y-69940475D01*
X191347676Y-69940475D02*
X191252438Y-69845237D01*
X191252438Y-69845237D02*
X191204819Y-69702380D01*
X191204819Y-69702380D02*
X191204819Y-69607142D01*
X191204819Y-69607142D02*
X191252438Y-69464285D01*
X191252438Y-69464285D02*
X191300057Y-69416666D01*
X191204819Y-69083332D02*
X191204819Y-68464285D01*
X191204819Y-68464285D02*
X191585771Y-68797618D01*
X191585771Y-68797618D02*
X191585771Y-68654761D01*
X191585771Y-68654761D02*
X191633390Y-68559523D01*
X191633390Y-68559523D02*
X191681009Y-68511904D01*
X191681009Y-68511904D02*
X191776247Y-68464285D01*
X191776247Y-68464285D02*
X192014342Y-68464285D01*
X192014342Y-68464285D02*
X192109580Y-68511904D01*
X192109580Y-68511904D02*
X192157200Y-68559523D01*
X192157200Y-68559523D02*
X192204819Y-68654761D01*
X192204819Y-68654761D02*
X192204819Y-68940475D01*
X192204819Y-68940475D02*
X192157200Y-69035713D01*
X192157200Y-69035713D02*
X192109580Y-69083332D01*
X209439761Y-111305424D02*
X209344523Y-111257805D01*
X209344523Y-111257805D02*
X209249285Y-111162567D01*
X209249285Y-111162567D02*
X209106428Y-111019709D01*
X209106428Y-111019709D02*
X209011190Y-110972090D01*
X209011190Y-110972090D02*
X208915952Y-110972090D01*
X208963571Y-111210186D02*
X208868333Y-111162567D01*
X208868333Y-111162567D02*
X208773095Y-111067328D01*
X208773095Y-111067328D02*
X208725476Y-110876852D01*
X208725476Y-110876852D02*
X208725476Y-110543519D01*
X208725476Y-110543519D02*
X208773095Y-110353043D01*
X208773095Y-110353043D02*
X208868333Y-110257805D01*
X208868333Y-110257805D02*
X208963571Y-110210186D01*
X208963571Y-110210186D02*
X209154047Y-110210186D01*
X209154047Y-110210186D02*
X209249285Y-110257805D01*
X209249285Y-110257805D02*
X209344523Y-110353043D01*
X209344523Y-110353043D02*
X209392142Y-110543519D01*
X209392142Y-110543519D02*
X209392142Y-110876852D01*
X209392142Y-110876852D02*
X209344523Y-111067328D01*
X209344523Y-111067328D02*
X209249285Y-111162567D01*
X209249285Y-111162567D02*
X209154047Y-111210186D01*
X209154047Y-111210186D02*
X208963571Y-111210186D01*
X210249285Y-110210186D02*
X210058809Y-110210186D01*
X210058809Y-110210186D02*
X209963571Y-110257805D01*
X209963571Y-110257805D02*
X209915952Y-110305424D01*
X209915952Y-110305424D02*
X209820714Y-110448281D01*
X209820714Y-110448281D02*
X209773095Y-110638757D01*
X209773095Y-110638757D02*
X209773095Y-111019709D01*
X209773095Y-111019709D02*
X209820714Y-111114947D01*
X209820714Y-111114947D02*
X209868333Y-111162567D01*
X209868333Y-111162567D02*
X209963571Y-111210186D01*
X209963571Y-111210186D02*
X210154047Y-111210186D01*
X210154047Y-111210186D02*
X210249285Y-111162567D01*
X210249285Y-111162567D02*
X210296904Y-111114947D01*
X210296904Y-111114947D02*
X210344523Y-111019709D01*
X210344523Y-111019709D02*
X210344523Y-110781614D01*
X210344523Y-110781614D02*
X210296904Y-110686376D01*
X210296904Y-110686376D02*
X210249285Y-110638757D01*
X210249285Y-110638757D02*
X210154047Y-110591138D01*
X210154047Y-110591138D02*
X209963571Y-110591138D01*
X209963571Y-110591138D02*
X209868333Y-110638757D01*
X209868333Y-110638757D02*
X209820714Y-110686376D01*
X209820714Y-110686376D02*
X209773095Y-110781614D01*
X201033333Y-60834819D02*
X200700000Y-60358628D01*
X200461905Y-60834819D02*
X200461905Y-59834819D01*
X200461905Y-59834819D02*
X200842857Y-59834819D01*
X200842857Y-59834819D02*
X200938095Y-59882438D01*
X200938095Y-59882438D02*
X200985714Y-59930057D01*
X200985714Y-59930057D02*
X201033333Y-60025295D01*
X201033333Y-60025295D02*
X201033333Y-60168152D01*
X201033333Y-60168152D02*
X200985714Y-60263390D01*
X200985714Y-60263390D02*
X200938095Y-60311009D01*
X200938095Y-60311009D02*
X200842857Y-60358628D01*
X200842857Y-60358628D02*
X200461905Y-60358628D01*
X201985714Y-60834819D02*
X201414286Y-60834819D01*
X201700000Y-60834819D02*
X201700000Y-59834819D01*
X201700000Y-59834819D02*
X201604762Y-59977676D01*
X201604762Y-59977676D02*
X201509524Y-60072914D01*
X201509524Y-60072914D02*
X201414286Y-60120533D01*
X226074819Y-49563333D02*
X226789104Y-49563333D01*
X226789104Y-49563333D02*
X226931961Y-49610952D01*
X226931961Y-49610952D02*
X227027200Y-49706190D01*
X227027200Y-49706190D02*
X227074819Y-49849047D01*
X227074819Y-49849047D02*
X227074819Y-49944285D01*
X226074819Y-49182380D02*
X226074819Y-48563333D01*
X226074819Y-48563333D02*
X226455771Y-48896666D01*
X226455771Y-48896666D02*
X226455771Y-48753809D01*
X226455771Y-48753809D02*
X226503390Y-48658571D01*
X226503390Y-48658571D02*
X226551009Y-48610952D01*
X226551009Y-48610952D02*
X226646247Y-48563333D01*
X226646247Y-48563333D02*
X226884342Y-48563333D01*
X226884342Y-48563333D02*
X226979580Y-48610952D01*
X226979580Y-48610952D02*
X227027200Y-48658571D01*
X227027200Y-48658571D02*
X227074819Y-48753809D01*
X227074819Y-48753809D02*
X227074819Y-49039523D01*
X227074819Y-49039523D02*
X227027200Y-49134761D01*
X227027200Y-49134761D02*
X226979580Y-49182380D01*
X228574819Y-89083333D02*
X229289104Y-89083333D01*
X229289104Y-89083333D02*
X229431961Y-89130952D01*
X229431961Y-89130952D02*
X229527200Y-89226190D01*
X229527200Y-89226190D02*
X229574819Y-89369047D01*
X229574819Y-89369047D02*
X229574819Y-89464285D01*
X228574819Y-88130952D02*
X228574819Y-88607142D01*
X228574819Y-88607142D02*
X229051009Y-88654761D01*
X229051009Y-88654761D02*
X229003390Y-88607142D01*
X229003390Y-88607142D02*
X228955771Y-88511904D01*
X228955771Y-88511904D02*
X228955771Y-88273809D01*
X228955771Y-88273809D02*
X229003390Y-88178571D01*
X229003390Y-88178571D02*
X229051009Y-88130952D01*
X229051009Y-88130952D02*
X229146247Y-88083333D01*
X229146247Y-88083333D02*
X229384342Y-88083333D01*
X229384342Y-88083333D02*
X229479580Y-88130952D01*
X229479580Y-88130952D02*
X229527200Y-88178571D01*
X229527200Y-88178571D02*
X229574819Y-88273809D01*
X229574819Y-88273809D02*
X229574819Y-88511904D01*
X229574819Y-88511904D02*
X229527200Y-88607142D01*
X229527200Y-88607142D02*
X229479580Y-88654761D01*
X188109580Y-50976107D02*
X188157200Y-51023726D01*
X188157200Y-51023726D02*
X188204819Y-51166583D01*
X188204819Y-51166583D02*
X188204819Y-51261821D01*
X188204819Y-51261821D02*
X188157200Y-51404678D01*
X188157200Y-51404678D02*
X188061961Y-51499916D01*
X188061961Y-51499916D02*
X187966723Y-51547535D01*
X187966723Y-51547535D02*
X187776247Y-51595154D01*
X187776247Y-51595154D02*
X187633390Y-51595154D01*
X187633390Y-51595154D02*
X187442914Y-51547535D01*
X187442914Y-51547535D02*
X187347676Y-51499916D01*
X187347676Y-51499916D02*
X187252438Y-51404678D01*
X187252438Y-51404678D02*
X187204819Y-51261821D01*
X187204819Y-51261821D02*
X187204819Y-51166583D01*
X187204819Y-51166583D02*
X187252438Y-51023726D01*
X187252438Y-51023726D02*
X187300057Y-50976107D01*
X188204819Y-50023726D02*
X188204819Y-50595154D01*
X188204819Y-50309440D02*
X187204819Y-50309440D01*
X187204819Y-50309440D02*
X187347676Y-50404678D01*
X187347676Y-50404678D02*
X187442914Y-50499916D01*
X187442914Y-50499916D02*
X187490533Y-50595154D01*
X187204819Y-49690392D02*
X187204819Y-49071345D01*
X187204819Y-49071345D02*
X187585771Y-49404678D01*
X187585771Y-49404678D02*
X187585771Y-49261821D01*
X187585771Y-49261821D02*
X187633390Y-49166583D01*
X187633390Y-49166583D02*
X187681009Y-49118964D01*
X187681009Y-49118964D02*
X187776247Y-49071345D01*
X187776247Y-49071345D02*
X188014342Y-49071345D01*
X188014342Y-49071345D02*
X188109580Y-49118964D01*
X188109580Y-49118964D02*
X188157200Y-49166583D01*
X188157200Y-49166583D02*
X188204819Y-49261821D01*
X188204819Y-49261821D02*
X188204819Y-49547535D01*
X188204819Y-49547535D02*
X188157200Y-49642773D01*
X188157200Y-49642773D02*
X188109580Y-49690392D01*
X167052666Y-86350819D02*
X167052666Y-87065104D01*
X167052666Y-87065104D02*
X167005047Y-87207961D01*
X167005047Y-87207961D02*
X166909809Y-87303200D01*
X166909809Y-87303200D02*
X166766952Y-87350819D01*
X166766952Y-87350819D02*
X166671714Y-87350819D01*
X167957428Y-86684152D02*
X167957428Y-87350819D01*
X167719333Y-86303200D02*
X167481238Y-87017485D01*
X167481238Y-87017485D02*
X168100285Y-87017485D01*
X201109580Y-50976107D02*
X201157200Y-51023726D01*
X201157200Y-51023726D02*
X201204819Y-51166583D01*
X201204819Y-51166583D02*
X201204819Y-51261821D01*
X201204819Y-51261821D02*
X201157200Y-51404678D01*
X201157200Y-51404678D02*
X201061961Y-51499916D01*
X201061961Y-51499916D02*
X200966723Y-51547535D01*
X200966723Y-51547535D02*
X200776247Y-51595154D01*
X200776247Y-51595154D02*
X200633390Y-51595154D01*
X200633390Y-51595154D02*
X200442914Y-51547535D01*
X200442914Y-51547535D02*
X200347676Y-51499916D01*
X200347676Y-51499916D02*
X200252438Y-51404678D01*
X200252438Y-51404678D02*
X200204819Y-51261821D01*
X200204819Y-51261821D02*
X200204819Y-51166583D01*
X200204819Y-51166583D02*
X200252438Y-51023726D01*
X200252438Y-51023726D02*
X200300057Y-50976107D01*
X201204819Y-50023726D02*
X201204819Y-50595154D01*
X201204819Y-50309440D02*
X200204819Y-50309440D01*
X200204819Y-50309440D02*
X200347676Y-50404678D01*
X200347676Y-50404678D02*
X200442914Y-50499916D01*
X200442914Y-50499916D02*
X200490533Y-50595154D01*
X200300057Y-49642773D02*
X200252438Y-49595154D01*
X200252438Y-49595154D02*
X200204819Y-49499916D01*
X200204819Y-49499916D02*
X200204819Y-49261821D01*
X200204819Y-49261821D02*
X200252438Y-49166583D01*
X200252438Y-49166583D02*
X200300057Y-49118964D01*
X200300057Y-49118964D02*
X200395295Y-49071345D01*
X200395295Y-49071345D02*
X200490533Y-49071345D01*
X200490533Y-49071345D02*
X200633390Y-49118964D01*
X200633390Y-49118964D02*
X201204819Y-49690392D01*
X201204819Y-49690392D02*
X201204819Y-49071345D01*
X208904761Y-58620057D02*
X208809523Y-58572438D01*
X208809523Y-58572438D02*
X208714285Y-58477200D01*
X208714285Y-58477200D02*
X208571428Y-58334342D01*
X208571428Y-58334342D02*
X208476190Y-58286723D01*
X208476190Y-58286723D02*
X208380952Y-58286723D01*
X208428571Y-58524819D02*
X208333333Y-58477200D01*
X208333333Y-58477200D02*
X208238095Y-58381961D01*
X208238095Y-58381961D02*
X208190476Y-58191485D01*
X208190476Y-58191485D02*
X208190476Y-57858152D01*
X208190476Y-57858152D02*
X208238095Y-57667676D01*
X208238095Y-57667676D02*
X208333333Y-57572438D01*
X208333333Y-57572438D02*
X208428571Y-57524819D01*
X208428571Y-57524819D02*
X208619047Y-57524819D01*
X208619047Y-57524819D02*
X208714285Y-57572438D01*
X208714285Y-57572438D02*
X208809523Y-57667676D01*
X208809523Y-57667676D02*
X208857142Y-57858152D01*
X208857142Y-57858152D02*
X208857142Y-58191485D01*
X208857142Y-58191485D02*
X208809523Y-58381961D01*
X208809523Y-58381961D02*
X208714285Y-58477200D01*
X208714285Y-58477200D02*
X208619047Y-58524819D01*
X208619047Y-58524819D02*
X208428571Y-58524819D01*
X209238095Y-57620057D02*
X209285714Y-57572438D01*
X209285714Y-57572438D02*
X209380952Y-57524819D01*
X209380952Y-57524819D02*
X209619047Y-57524819D01*
X209619047Y-57524819D02*
X209714285Y-57572438D01*
X209714285Y-57572438D02*
X209761904Y-57620057D01*
X209761904Y-57620057D02*
X209809523Y-57715295D01*
X209809523Y-57715295D02*
X209809523Y-57810533D01*
X209809523Y-57810533D02*
X209761904Y-57953390D01*
X209761904Y-57953390D02*
X209190476Y-58524819D01*
X209190476Y-58524819D02*
X209809523Y-58524819D01*
X167052666Y-64125819D02*
X167052666Y-64840104D01*
X167052666Y-64840104D02*
X167005047Y-64982961D01*
X167005047Y-64982961D02*
X166909809Y-65078200D01*
X166909809Y-65078200D02*
X166766952Y-65125819D01*
X166766952Y-65125819D02*
X166671714Y-65125819D01*
X167576476Y-65125819D02*
X167766952Y-65125819D01*
X167766952Y-65125819D02*
X167862190Y-65078200D01*
X167862190Y-65078200D02*
X167909809Y-65030580D01*
X167909809Y-65030580D02*
X168005047Y-64887723D01*
X168005047Y-64887723D02*
X168052666Y-64697247D01*
X168052666Y-64697247D02*
X168052666Y-64316295D01*
X168052666Y-64316295D02*
X168005047Y-64221057D01*
X168005047Y-64221057D02*
X167957428Y-64173438D01*
X167957428Y-64173438D02*
X167862190Y-64125819D01*
X167862190Y-64125819D02*
X167671714Y-64125819D01*
X167671714Y-64125819D02*
X167576476Y-64173438D01*
X167576476Y-64173438D02*
X167528857Y-64221057D01*
X167528857Y-64221057D02*
X167481238Y-64316295D01*
X167481238Y-64316295D02*
X167481238Y-64554390D01*
X167481238Y-64554390D02*
X167528857Y-64649628D01*
X167528857Y-64649628D02*
X167576476Y-64697247D01*
X167576476Y-64697247D02*
X167671714Y-64744866D01*
X167671714Y-64744866D02*
X167862190Y-64744866D01*
X167862190Y-64744866D02*
X167957428Y-64697247D01*
X167957428Y-64697247D02*
X168005047Y-64649628D01*
X168005047Y-64649628D02*
X168052666Y-64554390D01*
X209119761Y-79401134D02*
X209024523Y-79353515D01*
X209024523Y-79353515D02*
X208929285Y-79258277D01*
X208929285Y-79258277D02*
X208786428Y-79115419D01*
X208786428Y-79115419D02*
X208691190Y-79067800D01*
X208691190Y-79067800D02*
X208595952Y-79067800D01*
X208643571Y-79305896D02*
X208548333Y-79258277D01*
X208548333Y-79258277D02*
X208453095Y-79163038D01*
X208453095Y-79163038D02*
X208405476Y-78972562D01*
X208405476Y-78972562D02*
X208405476Y-78639229D01*
X208405476Y-78639229D02*
X208453095Y-78448753D01*
X208453095Y-78448753D02*
X208548333Y-78353515D01*
X208548333Y-78353515D02*
X208643571Y-78305896D01*
X208643571Y-78305896D02*
X208834047Y-78305896D01*
X208834047Y-78305896D02*
X208929285Y-78353515D01*
X208929285Y-78353515D02*
X209024523Y-78448753D01*
X209024523Y-78448753D02*
X209072142Y-78639229D01*
X209072142Y-78639229D02*
X209072142Y-78972562D01*
X209072142Y-78972562D02*
X209024523Y-79163038D01*
X209024523Y-79163038D02*
X208929285Y-79258277D01*
X208929285Y-79258277D02*
X208834047Y-79305896D01*
X208834047Y-79305896D02*
X208643571Y-79305896D01*
X209405476Y-78305896D02*
X210024523Y-78305896D01*
X210024523Y-78305896D02*
X209691190Y-78686848D01*
X209691190Y-78686848D02*
X209834047Y-78686848D01*
X209834047Y-78686848D02*
X209929285Y-78734467D01*
X209929285Y-78734467D02*
X209976904Y-78782086D01*
X209976904Y-78782086D02*
X210024523Y-78877324D01*
X210024523Y-78877324D02*
X210024523Y-79115419D01*
X210024523Y-79115419D02*
X209976904Y-79210657D01*
X209976904Y-79210657D02*
X209929285Y-79258277D01*
X209929285Y-79258277D02*
X209834047Y-79305896D01*
X209834047Y-79305896D02*
X209548333Y-79305896D01*
X209548333Y-79305896D02*
X209453095Y-79258277D01*
X209453095Y-79258277D02*
X209405476Y-79210657D01*
X173642580Y-48648857D02*
X173690200Y-48696476D01*
X173690200Y-48696476D02*
X173737819Y-48839333D01*
X173737819Y-48839333D02*
X173737819Y-48934571D01*
X173737819Y-48934571D02*
X173690200Y-49077428D01*
X173690200Y-49077428D02*
X173594961Y-49172666D01*
X173594961Y-49172666D02*
X173499723Y-49220285D01*
X173499723Y-49220285D02*
X173309247Y-49267904D01*
X173309247Y-49267904D02*
X173166390Y-49267904D01*
X173166390Y-49267904D02*
X172975914Y-49220285D01*
X172975914Y-49220285D02*
X172880676Y-49172666D01*
X172880676Y-49172666D02*
X172785438Y-49077428D01*
X172785438Y-49077428D02*
X172737819Y-48934571D01*
X172737819Y-48934571D02*
X172737819Y-48839333D01*
X172737819Y-48839333D02*
X172785438Y-48696476D01*
X172785438Y-48696476D02*
X172833057Y-48648857D01*
X173737819Y-47696476D02*
X173737819Y-48267904D01*
X173737819Y-47982190D02*
X172737819Y-47982190D01*
X172737819Y-47982190D02*
X172880676Y-48077428D01*
X172880676Y-48077428D02*
X172975914Y-48172666D01*
X172975914Y-48172666D02*
X173023533Y-48267904D01*
X172737819Y-47363142D02*
X172737819Y-46696476D01*
X172737819Y-46696476D02*
X173737819Y-47125047D01*
X163257580Y-48678508D02*
X163305200Y-48726127D01*
X163305200Y-48726127D02*
X163352819Y-48868984D01*
X163352819Y-48868984D02*
X163352819Y-48964222D01*
X163352819Y-48964222D02*
X163305200Y-49107079D01*
X163305200Y-49107079D02*
X163209961Y-49202317D01*
X163209961Y-49202317D02*
X163114723Y-49249936D01*
X163114723Y-49249936D02*
X162924247Y-49297555D01*
X162924247Y-49297555D02*
X162781390Y-49297555D01*
X162781390Y-49297555D02*
X162590914Y-49249936D01*
X162590914Y-49249936D02*
X162495676Y-49202317D01*
X162495676Y-49202317D02*
X162400438Y-49107079D01*
X162400438Y-49107079D02*
X162352819Y-48964222D01*
X162352819Y-48964222D02*
X162352819Y-48868984D01*
X162352819Y-48868984D02*
X162400438Y-48726127D01*
X162400438Y-48726127D02*
X162448057Y-48678508D01*
X163352819Y-47726127D02*
X163352819Y-48297555D01*
X163352819Y-48011841D02*
X162352819Y-48011841D01*
X162352819Y-48011841D02*
X162495676Y-48107079D01*
X162495676Y-48107079D02*
X162590914Y-48202317D01*
X162590914Y-48202317D02*
X162638533Y-48297555D01*
X162781390Y-47154698D02*
X162733771Y-47249936D01*
X162733771Y-47249936D02*
X162686152Y-47297555D01*
X162686152Y-47297555D02*
X162590914Y-47345174D01*
X162590914Y-47345174D02*
X162543295Y-47345174D01*
X162543295Y-47345174D02*
X162448057Y-47297555D01*
X162448057Y-47297555D02*
X162400438Y-47249936D01*
X162400438Y-47249936D02*
X162352819Y-47154698D01*
X162352819Y-47154698D02*
X162352819Y-46964222D01*
X162352819Y-46964222D02*
X162400438Y-46868984D01*
X162400438Y-46868984D02*
X162448057Y-46821365D01*
X162448057Y-46821365D02*
X162543295Y-46773746D01*
X162543295Y-46773746D02*
X162590914Y-46773746D01*
X162590914Y-46773746D02*
X162686152Y-46821365D01*
X162686152Y-46821365D02*
X162733771Y-46868984D01*
X162733771Y-46868984D02*
X162781390Y-46964222D01*
X162781390Y-46964222D02*
X162781390Y-47154698D01*
X162781390Y-47154698D02*
X162829009Y-47249936D01*
X162829009Y-47249936D02*
X162876628Y-47297555D01*
X162876628Y-47297555D02*
X162971866Y-47345174D01*
X162971866Y-47345174D02*
X163162342Y-47345174D01*
X163162342Y-47345174D02*
X163257580Y-47297555D01*
X163257580Y-47297555D02*
X163305200Y-47249936D01*
X163305200Y-47249936D02*
X163352819Y-47154698D01*
X163352819Y-47154698D02*
X163352819Y-46964222D01*
X163352819Y-46964222D02*
X163305200Y-46868984D01*
X163305200Y-46868984D02*
X163257580Y-46821365D01*
X163257580Y-46821365D02*
X163162342Y-46773746D01*
X163162342Y-46773746D02*
X162971866Y-46773746D01*
X162971866Y-46773746D02*
X162876628Y-46821365D01*
X162876628Y-46821365D02*
X162829009Y-46868984D01*
X162829009Y-46868984D02*
X162781390Y-46964222D01*
X201408333Y-113480186D02*
X201075000Y-113003995D01*
X200836905Y-113480186D02*
X200836905Y-112480186D01*
X200836905Y-112480186D02*
X201217857Y-112480186D01*
X201217857Y-112480186D02*
X201313095Y-112527805D01*
X201313095Y-112527805D02*
X201360714Y-112575424D01*
X201360714Y-112575424D02*
X201408333Y-112670662D01*
X201408333Y-112670662D02*
X201408333Y-112813519D01*
X201408333Y-112813519D02*
X201360714Y-112908757D01*
X201360714Y-112908757D02*
X201313095Y-112956376D01*
X201313095Y-112956376D02*
X201217857Y-113003995D01*
X201217857Y-113003995D02*
X200836905Y-113003995D01*
X202265476Y-112480186D02*
X202075000Y-112480186D01*
X202075000Y-112480186D02*
X201979762Y-112527805D01*
X201979762Y-112527805D02*
X201932143Y-112575424D01*
X201932143Y-112575424D02*
X201836905Y-112718281D01*
X201836905Y-112718281D02*
X201789286Y-112908757D01*
X201789286Y-112908757D02*
X201789286Y-113289709D01*
X201789286Y-113289709D02*
X201836905Y-113384947D01*
X201836905Y-113384947D02*
X201884524Y-113432567D01*
X201884524Y-113432567D02*
X201979762Y-113480186D01*
X201979762Y-113480186D02*
X202170238Y-113480186D01*
X202170238Y-113480186D02*
X202265476Y-113432567D01*
X202265476Y-113432567D02*
X202313095Y-113384947D01*
X202313095Y-113384947D02*
X202360714Y-113289709D01*
X202360714Y-113289709D02*
X202360714Y-113051614D01*
X202360714Y-113051614D02*
X202313095Y-112956376D01*
X202313095Y-112956376D02*
X202265476Y-112908757D01*
X202265476Y-112908757D02*
X202170238Y-112861138D01*
X202170238Y-112861138D02*
X201979762Y-112861138D01*
X201979762Y-112861138D02*
X201884524Y-112908757D01*
X201884524Y-112908757D02*
X201836905Y-112956376D01*
X201836905Y-112956376D02*
X201789286Y-113051614D01*
X182128095Y-78244819D02*
X182128095Y-79054342D01*
X182128095Y-79054342D02*
X182175714Y-79149580D01*
X182175714Y-79149580D02*
X182223333Y-79197200D01*
X182223333Y-79197200D02*
X182318571Y-79244819D01*
X182318571Y-79244819D02*
X182509047Y-79244819D01*
X182509047Y-79244819D02*
X182604285Y-79197200D01*
X182604285Y-79197200D02*
X182651904Y-79149580D01*
X182651904Y-79149580D02*
X182699523Y-79054342D01*
X182699523Y-79054342D02*
X182699523Y-78244819D01*
X183699523Y-79244819D02*
X183128095Y-79244819D01*
X183413809Y-79244819D02*
X183413809Y-78244819D01*
X183413809Y-78244819D02*
X183318571Y-78387676D01*
X183318571Y-78387676D02*
X183223333Y-78482914D01*
X183223333Y-78482914D02*
X183128095Y-78530533D01*
X210227080Y-47122857D02*
X210274700Y-47170476D01*
X210274700Y-47170476D02*
X210322319Y-47313333D01*
X210322319Y-47313333D02*
X210322319Y-47408571D01*
X210322319Y-47408571D02*
X210274700Y-47551428D01*
X210274700Y-47551428D02*
X210179461Y-47646666D01*
X210179461Y-47646666D02*
X210084223Y-47694285D01*
X210084223Y-47694285D02*
X209893747Y-47741904D01*
X209893747Y-47741904D02*
X209750890Y-47741904D01*
X209750890Y-47741904D02*
X209560414Y-47694285D01*
X209560414Y-47694285D02*
X209465176Y-47646666D01*
X209465176Y-47646666D02*
X209369938Y-47551428D01*
X209369938Y-47551428D02*
X209322319Y-47408571D01*
X209322319Y-47408571D02*
X209322319Y-47313333D01*
X209322319Y-47313333D02*
X209369938Y-47170476D01*
X209369938Y-47170476D02*
X209417557Y-47122857D01*
X210322319Y-46170476D02*
X210322319Y-46741904D01*
X210322319Y-46456190D02*
X209322319Y-46456190D01*
X209322319Y-46456190D02*
X209465176Y-46551428D01*
X209465176Y-46551428D02*
X209560414Y-46646666D01*
X209560414Y-46646666D02*
X209608033Y-46741904D01*
X210322319Y-45218095D02*
X210322319Y-45789523D01*
X210322319Y-45503809D02*
X209322319Y-45503809D01*
X209322319Y-45503809D02*
X209465176Y-45599047D01*
X209465176Y-45599047D02*
X209560414Y-45694285D01*
X209560414Y-45694285D02*
X209608033Y-45789523D01*
X159210476Y-50861819D02*
X159210476Y-51576104D01*
X159210476Y-51576104D02*
X159162857Y-51718961D01*
X159162857Y-51718961D02*
X159067619Y-51814200D01*
X159067619Y-51814200D02*
X158924762Y-51861819D01*
X158924762Y-51861819D02*
X158829524Y-51861819D01*
X160210476Y-51861819D02*
X159639048Y-51861819D01*
X159924762Y-51861819D02*
X159924762Y-50861819D01*
X159924762Y-50861819D02*
X159829524Y-51004676D01*
X159829524Y-51004676D02*
X159734286Y-51099914D01*
X159734286Y-51099914D02*
X159639048Y-51147533D01*
X160829524Y-50861819D02*
X160924762Y-50861819D01*
X160924762Y-50861819D02*
X161020000Y-50909438D01*
X161020000Y-50909438D02*
X161067619Y-50957057D01*
X161067619Y-50957057D02*
X161115238Y-51052295D01*
X161115238Y-51052295D02*
X161162857Y-51242771D01*
X161162857Y-51242771D02*
X161162857Y-51480866D01*
X161162857Y-51480866D02*
X161115238Y-51671342D01*
X161115238Y-51671342D02*
X161067619Y-51766580D01*
X161067619Y-51766580D02*
X161020000Y-51814200D01*
X161020000Y-51814200D02*
X160924762Y-51861819D01*
X160924762Y-51861819D02*
X160829524Y-51861819D01*
X160829524Y-51861819D02*
X160734286Y-51814200D01*
X160734286Y-51814200D02*
X160686667Y-51766580D01*
X160686667Y-51766580D02*
X160639048Y-51671342D01*
X160639048Y-51671342D02*
X160591429Y-51480866D01*
X160591429Y-51480866D02*
X160591429Y-51242771D01*
X160591429Y-51242771D02*
X160639048Y-51052295D01*
X160639048Y-51052295D02*
X160686667Y-50957057D01*
X160686667Y-50957057D02*
X160734286Y-50909438D01*
X160734286Y-50909438D02*
X160829524Y-50861819D01*
X176859580Y-80167857D02*
X176907200Y-80215476D01*
X176907200Y-80215476D02*
X176954819Y-80358333D01*
X176954819Y-80358333D02*
X176954819Y-80453571D01*
X176954819Y-80453571D02*
X176907200Y-80596428D01*
X176907200Y-80596428D02*
X176811961Y-80691666D01*
X176811961Y-80691666D02*
X176716723Y-80739285D01*
X176716723Y-80739285D02*
X176526247Y-80786904D01*
X176526247Y-80786904D02*
X176383390Y-80786904D01*
X176383390Y-80786904D02*
X176192914Y-80739285D01*
X176192914Y-80739285D02*
X176097676Y-80691666D01*
X176097676Y-80691666D02*
X176002438Y-80596428D01*
X176002438Y-80596428D02*
X175954819Y-80453571D01*
X175954819Y-80453571D02*
X175954819Y-80358333D01*
X175954819Y-80358333D02*
X176002438Y-80215476D01*
X176002438Y-80215476D02*
X176050057Y-80167857D01*
X176954819Y-79215476D02*
X176954819Y-79786904D01*
X176954819Y-79501190D02*
X175954819Y-79501190D01*
X175954819Y-79501190D02*
X176097676Y-79596428D01*
X176097676Y-79596428D02*
X176192914Y-79691666D01*
X176192914Y-79691666D02*
X176240533Y-79786904D01*
X175954819Y-78310714D02*
X175954819Y-78786904D01*
X175954819Y-78786904D02*
X176431009Y-78834523D01*
X176431009Y-78834523D02*
X176383390Y-78786904D01*
X176383390Y-78786904D02*
X176335771Y-78691666D01*
X176335771Y-78691666D02*
X176335771Y-78453571D01*
X176335771Y-78453571D02*
X176383390Y-78358333D01*
X176383390Y-78358333D02*
X176431009Y-78310714D01*
X176431009Y-78310714D02*
X176526247Y-78263095D01*
X176526247Y-78263095D02*
X176764342Y-78263095D01*
X176764342Y-78263095D02*
X176859580Y-78310714D01*
X176859580Y-78310714D02*
X176907200Y-78358333D01*
X176907200Y-78358333D02*
X176954819Y-78453571D01*
X176954819Y-78453571D02*
X176954819Y-78691666D01*
X176954819Y-78691666D02*
X176907200Y-78786904D01*
X176907200Y-78786904D02*
X176859580Y-78834523D01*
X201408333Y-102480186D02*
X201075000Y-102003995D01*
X200836905Y-102480186D02*
X200836905Y-101480186D01*
X200836905Y-101480186D02*
X201217857Y-101480186D01*
X201217857Y-101480186D02*
X201313095Y-101527805D01*
X201313095Y-101527805D02*
X201360714Y-101575424D01*
X201360714Y-101575424D02*
X201408333Y-101670662D01*
X201408333Y-101670662D02*
X201408333Y-101813519D01*
X201408333Y-101813519D02*
X201360714Y-101908757D01*
X201360714Y-101908757D02*
X201313095Y-101956376D01*
X201313095Y-101956376D02*
X201217857Y-102003995D01*
X201217857Y-102003995D02*
X200836905Y-102003995D01*
X202313095Y-101480186D02*
X201836905Y-101480186D01*
X201836905Y-101480186D02*
X201789286Y-101956376D01*
X201789286Y-101956376D02*
X201836905Y-101908757D01*
X201836905Y-101908757D02*
X201932143Y-101861138D01*
X201932143Y-101861138D02*
X202170238Y-101861138D01*
X202170238Y-101861138D02*
X202265476Y-101908757D01*
X202265476Y-101908757D02*
X202313095Y-101956376D01*
X202313095Y-101956376D02*
X202360714Y-102051614D01*
X202360714Y-102051614D02*
X202360714Y-102289709D01*
X202360714Y-102289709D02*
X202313095Y-102384947D01*
X202313095Y-102384947D02*
X202265476Y-102432567D01*
X202265476Y-102432567D02*
X202170238Y-102480186D01*
X202170238Y-102480186D02*
X201932143Y-102480186D01*
X201932143Y-102480186D02*
X201836905Y-102432567D01*
X201836905Y-102432567D02*
X201789286Y-102384947D01*
X192174580Y-85907743D02*
X192222200Y-85955362D01*
X192222200Y-85955362D02*
X192269819Y-86098219D01*
X192269819Y-86098219D02*
X192269819Y-86193457D01*
X192269819Y-86193457D02*
X192222200Y-86336314D01*
X192222200Y-86336314D02*
X192126961Y-86431552D01*
X192126961Y-86431552D02*
X192031723Y-86479171D01*
X192031723Y-86479171D02*
X191841247Y-86526790D01*
X191841247Y-86526790D02*
X191698390Y-86526790D01*
X191698390Y-86526790D02*
X191507914Y-86479171D01*
X191507914Y-86479171D02*
X191412676Y-86431552D01*
X191412676Y-86431552D02*
X191317438Y-86336314D01*
X191317438Y-86336314D02*
X191269819Y-86193457D01*
X191269819Y-86193457D02*
X191269819Y-86098219D01*
X191269819Y-86098219D02*
X191317438Y-85955362D01*
X191317438Y-85955362D02*
X191365057Y-85907743D01*
X191603152Y-85050600D02*
X192269819Y-85050600D01*
X191222200Y-85288695D02*
X191936485Y-85526790D01*
X191936485Y-85526790D02*
X191936485Y-84907743D01*
X189984580Y-110910666D02*
X190032200Y-110958285D01*
X190032200Y-110958285D02*
X190079819Y-111101142D01*
X190079819Y-111101142D02*
X190079819Y-111196380D01*
X190079819Y-111196380D02*
X190032200Y-111339237D01*
X190032200Y-111339237D02*
X189936961Y-111434475D01*
X189936961Y-111434475D02*
X189841723Y-111482094D01*
X189841723Y-111482094D02*
X189651247Y-111529713D01*
X189651247Y-111529713D02*
X189508390Y-111529713D01*
X189508390Y-111529713D02*
X189317914Y-111482094D01*
X189317914Y-111482094D02*
X189222676Y-111434475D01*
X189222676Y-111434475D02*
X189127438Y-111339237D01*
X189127438Y-111339237D02*
X189079819Y-111196380D01*
X189079819Y-111196380D02*
X189079819Y-111101142D01*
X189079819Y-111101142D02*
X189127438Y-110958285D01*
X189127438Y-110958285D02*
X189175057Y-110910666D01*
X189508390Y-110339237D02*
X189460771Y-110434475D01*
X189460771Y-110434475D02*
X189413152Y-110482094D01*
X189413152Y-110482094D02*
X189317914Y-110529713D01*
X189317914Y-110529713D02*
X189270295Y-110529713D01*
X189270295Y-110529713D02*
X189175057Y-110482094D01*
X189175057Y-110482094D02*
X189127438Y-110434475D01*
X189127438Y-110434475D02*
X189079819Y-110339237D01*
X189079819Y-110339237D02*
X189079819Y-110148761D01*
X189079819Y-110148761D02*
X189127438Y-110053523D01*
X189127438Y-110053523D02*
X189175057Y-110005904D01*
X189175057Y-110005904D02*
X189270295Y-109958285D01*
X189270295Y-109958285D02*
X189317914Y-109958285D01*
X189317914Y-109958285D02*
X189413152Y-110005904D01*
X189413152Y-110005904D02*
X189460771Y-110053523D01*
X189460771Y-110053523D02*
X189508390Y-110148761D01*
X189508390Y-110148761D02*
X189508390Y-110339237D01*
X189508390Y-110339237D02*
X189556009Y-110434475D01*
X189556009Y-110434475D02*
X189603628Y-110482094D01*
X189603628Y-110482094D02*
X189698866Y-110529713D01*
X189698866Y-110529713D02*
X189889342Y-110529713D01*
X189889342Y-110529713D02*
X189984580Y-110482094D01*
X189984580Y-110482094D02*
X190032200Y-110434475D01*
X190032200Y-110434475D02*
X190079819Y-110339237D01*
X190079819Y-110339237D02*
X190079819Y-110148761D01*
X190079819Y-110148761D02*
X190032200Y-110053523D01*
X190032200Y-110053523D02*
X189984580Y-110005904D01*
X189984580Y-110005904D02*
X189889342Y-109958285D01*
X189889342Y-109958285D02*
X189698866Y-109958285D01*
X189698866Y-109958285D02*
X189603628Y-110005904D01*
X189603628Y-110005904D02*
X189556009Y-110053523D01*
X189556009Y-110053523D02*
X189508390Y-110148761D01*
X182343095Y-99025896D02*
X182343095Y-99835419D01*
X182343095Y-99835419D02*
X182390714Y-99930657D01*
X182390714Y-99930657D02*
X182438333Y-99978277D01*
X182438333Y-99978277D02*
X182533571Y-100025896D01*
X182533571Y-100025896D02*
X182724047Y-100025896D01*
X182724047Y-100025896D02*
X182819285Y-99978277D01*
X182819285Y-99978277D02*
X182866904Y-99930657D01*
X182866904Y-99930657D02*
X182914523Y-99835419D01*
X182914523Y-99835419D02*
X182914523Y-99025896D01*
X183343095Y-99121134D02*
X183390714Y-99073515D01*
X183390714Y-99073515D02*
X183485952Y-99025896D01*
X183485952Y-99025896D02*
X183724047Y-99025896D01*
X183724047Y-99025896D02*
X183819285Y-99073515D01*
X183819285Y-99073515D02*
X183866904Y-99121134D01*
X183866904Y-99121134D02*
X183914523Y-99216372D01*
X183914523Y-99216372D02*
X183914523Y-99311610D01*
X183914523Y-99311610D02*
X183866904Y-99454467D01*
X183866904Y-99454467D02*
X183295476Y-100025896D01*
X183295476Y-100025896D02*
X183914523Y-100025896D01*
X199299819Y-109883461D02*
X198299819Y-109883461D01*
X198299819Y-109883461D02*
X198299819Y-109645366D01*
X198299819Y-109645366D02*
X198347438Y-109502509D01*
X198347438Y-109502509D02*
X198442676Y-109407271D01*
X198442676Y-109407271D02*
X198537914Y-109359652D01*
X198537914Y-109359652D02*
X198728390Y-109312033D01*
X198728390Y-109312033D02*
X198871247Y-109312033D01*
X198871247Y-109312033D02*
X199061723Y-109359652D01*
X199061723Y-109359652D02*
X199156961Y-109407271D01*
X199156961Y-109407271D02*
X199252200Y-109502509D01*
X199252200Y-109502509D02*
X199299819Y-109645366D01*
X199299819Y-109645366D02*
X199299819Y-109883461D01*
X198299819Y-108978699D02*
X198299819Y-108359652D01*
X198299819Y-108359652D02*
X198680771Y-108692985D01*
X198680771Y-108692985D02*
X198680771Y-108550128D01*
X198680771Y-108550128D02*
X198728390Y-108454890D01*
X198728390Y-108454890D02*
X198776009Y-108407271D01*
X198776009Y-108407271D02*
X198871247Y-108359652D01*
X198871247Y-108359652D02*
X199109342Y-108359652D01*
X199109342Y-108359652D02*
X199204580Y-108407271D01*
X199204580Y-108407271D02*
X199252200Y-108454890D01*
X199252200Y-108454890D02*
X199299819Y-108550128D01*
X199299819Y-108550128D02*
X199299819Y-108835842D01*
X199299819Y-108835842D02*
X199252200Y-108931080D01*
X199252200Y-108931080D02*
X199204580Y-108978699D01*
X198929819Y-104327271D02*
X197929819Y-104327271D01*
X198929819Y-103755843D02*
X198358390Y-104184414D01*
X197929819Y-103755843D02*
X198501247Y-104327271D01*
X209279761Y-100265424D02*
X209184523Y-100217805D01*
X209184523Y-100217805D02*
X209089285Y-100122567D01*
X209089285Y-100122567D02*
X208946428Y-99979709D01*
X208946428Y-99979709D02*
X208851190Y-99932090D01*
X208851190Y-99932090D02*
X208755952Y-99932090D01*
X208803571Y-100170186D02*
X208708333Y-100122567D01*
X208708333Y-100122567D02*
X208613095Y-100027328D01*
X208613095Y-100027328D02*
X208565476Y-99836852D01*
X208565476Y-99836852D02*
X208565476Y-99503519D01*
X208565476Y-99503519D02*
X208613095Y-99313043D01*
X208613095Y-99313043D02*
X208708333Y-99217805D01*
X208708333Y-99217805D02*
X208803571Y-99170186D01*
X208803571Y-99170186D02*
X208994047Y-99170186D01*
X208994047Y-99170186D02*
X209089285Y-99217805D01*
X209089285Y-99217805D02*
X209184523Y-99313043D01*
X209184523Y-99313043D02*
X209232142Y-99503519D01*
X209232142Y-99503519D02*
X209232142Y-99836852D01*
X209232142Y-99836852D02*
X209184523Y-100027328D01*
X209184523Y-100027328D02*
X209089285Y-100122567D01*
X209089285Y-100122567D02*
X208994047Y-100170186D01*
X208994047Y-100170186D02*
X208803571Y-100170186D01*
X210136904Y-99170186D02*
X209660714Y-99170186D01*
X209660714Y-99170186D02*
X209613095Y-99646376D01*
X209613095Y-99646376D02*
X209660714Y-99598757D01*
X209660714Y-99598757D02*
X209755952Y-99551138D01*
X209755952Y-99551138D02*
X209994047Y-99551138D01*
X209994047Y-99551138D02*
X210089285Y-99598757D01*
X210089285Y-99598757D02*
X210136904Y-99646376D01*
X210136904Y-99646376D02*
X210184523Y-99741614D01*
X210184523Y-99741614D02*
X210184523Y-99979709D01*
X210184523Y-99979709D02*
X210136904Y-100074947D01*
X210136904Y-100074947D02*
X210089285Y-100122567D01*
X210089285Y-100122567D02*
X209994047Y-100170186D01*
X209994047Y-100170186D02*
X209755952Y-100170186D01*
X209755952Y-100170186D02*
X209660714Y-100122567D01*
X209660714Y-100122567D02*
X209613095Y-100074947D01*
X201248333Y-81615896D02*
X200915000Y-81139705D01*
X200676905Y-81615896D02*
X200676905Y-80615896D01*
X200676905Y-80615896D02*
X201057857Y-80615896D01*
X201057857Y-80615896D02*
X201153095Y-80663515D01*
X201153095Y-80663515D02*
X201200714Y-80711134D01*
X201200714Y-80711134D02*
X201248333Y-80806372D01*
X201248333Y-80806372D02*
X201248333Y-80949229D01*
X201248333Y-80949229D02*
X201200714Y-81044467D01*
X201200714Y-81044467D02*
X201153095Y-81092086D01*
X201153095Y-81092086D02*
X201057857Y-81139705D01*
X201057857Y-81139705D02*
X200676905Y-81139705D01*
X201581667Y-80615896D02*
X202200714Y-80615896D01*
X202200714Y-80615896D02*
X201867381Y-80996848D01*
X201867381Y-80996848D02*
X202010238Y-80996848D01*
X202010238Y-80996848D02*
X202105476Y-81044467D01*
X202105476Y-81044467D02*
X202153095Y-81092086D01*
X202153095Y-81092086D02*
X202200714Y-81187324D01*
X202200714Y-81187324D02*
X202200714Y-81425419D01*
X202200714Y-81425419D02*
X202153095Y-81520657D01*
X202153095Y-81520657D02*
X202105476Y-81568277D01*
X202105476Y-81568277D02*
X202010238Y-81615896D01*
X202010238Y-81615896D02*
X201724524Y-81615896D01*
X201724524Y-81615896D02*
X201629286Y-81568277D01*
X201629286Y-81568277D02*
X201581667Y-81520657D01*
%TO.C,R2*%
D11*
X200472936Y-72300000D02*
X201927064Y-72300000D01*
X200472936Y-74120000D02*
X201927064Y-74120000D01*
%TO.C,Q1*%
X204050000Y-69950000D02*
X214270000Y-69950000D01*
X204050000Y-71330000D02*
X214270000Y-71330000D01*
X204050000Y-74570000D02*
X204050000Y-69950000D01*
X207310000Y-69950000D02*
X207310000Y-71330000D01*
X211010000Y-69950000D02*
X211010000Y-71330000D01*
X214270000Y-69950000D02*
X214270000Y-74570000D01*
X214270000Y-74570000D02*
X204050000Y-74570000D01*
%TO.C,C9*%
X191215000Y-113659115D02*
X191215000Y-115081619D01*
X193035000Y-113659115D02*
X193035000Y-115081619D01*
%TO.C,C1*%
X188840000Y-64248748D02*
X188840000Y-65671252D01*
X190660000Y-64248748D02*
X190660000Y-65671252D01*
%TO.C,U3*%
X180615000Y-101535367D02*
X180615000Y-119435367D01*
X180615000Y-119435367D02*
X182265000Y-119435367D01*
X184265000Y-119435367D02*
X185915000Y-119435367D01*
X185915000Y-101535367D02*
X180615000Y-101535367D01*
X185915000Y-119435367D02*
X185915000Y-101535367D01*
X182265000Y-119435367D02*
G75*
G02*
X184265000Y-119435367I1000000J0D01*
G01*
%TO.C,D2*%
X196215000Y-84541077D02*
X196215000Y-85561077D01*
X196215000Y-92021077D02*
X196215000Y-91001077D01*
X197685000Y-86341077D02*
X194745000Y-86341077D01*
X197685000Y-86461077D02*
X194745000Y-86461077D01*
X197685000Y-86581077D02*
X194745000Y-86581077D01*
X194745000Y-85561077D02*
X197685000Y-85561077D01*
X197685000Y-91001077D01*
X194745000Y-91001077D01*
X194745000Y-85561077D01*
%TO.C,C16*%
X176240000Y-103584420D02*
X176240000Y-103865580D01*
X177260000Y-103584420D02*
X177260000Y-103865580D01*
%TO.C,C10*%
X212957500Y-51486252D02*
X212957500Y-50063748D01*
X214777500Y-51486252D02*
X214777500Y-50063748D01*
%TO.C,C14*%
X176240000Y-62859420D02*
X176240000Y-63140580D01*
X177260000Y-62859420D02*
X177260000Y-63140580D01*
%TO.C,C6*%
X191055000Y-92794825D02*
X191055000Y-94217329D01*
X192875000Y-92794825D02*
X192875000Y-94217329D01*
%TO.C,C7*%
X189215000Y-105894115D02*
X189215000Y-107316619D01*
X191035000Y-105894115D02*
X191035000Y-107316619D01*
%TO.C,Q4*%
X204265000Y-90731077D02*
X214485000Y-90731077D01*
X204265000Y-92111077D02*
X214485000Y-92111077D01*
X204265000Y-95351077D02*
X204265000Y-90731077D01*
X207525000Y-90731077D02*
X207525000Y-92111077D01*
X211225000Y-90731077D02*
X211225000Y-92111077D01*
X214485000Y-90731077D02*
X214485000Y-95351077D01*
X214485000Y-95351077D02*
X204265000Y-95351077D01*
%TO.C,R4*%
X200687936Y-93081077D02*
X202142064Y-93081077D01*
X200687936Y-94901077D02*
X202142064Y-94901077D01*
%TO.C,J8*%
X166006000Y-107327000D02*
X167386000Y-107327000D01*
X166006000Y-108707000D02*
X166006000Y-107327000D01*
X166006000Y-109977000D02*
X166006000Y-112627000D01*
X166006000Y-109977000D02*
X168766000Y-109977000D01*
X166006000Y-112627000D02*
X168766000Y-112627000D01*
X168766000Y-109977000D02*
X168766000Y-112627000D01*
%TO.C,D1*%
X196000000Y-63760000D02*
X196000000Y-64780000D01*
X196000000Y-71240000D02*
X196000000Y-70220000D01*
X197470000Y-65560000D02*
X194530000Y-65560000D01*
X197470000Y-65680000D02*
X194530000Y-65680000D01*
X197470000Y-65800000D02*
X194530000Y-65800000D01*
X194530000Y-64780000D02*
X197470000Y-64780000D01*
X197470000Y-70220000D01*
X194530000Y-70220000D01*
X194530000Y-64780000D01*
%TO.C,C2*%
X188290000Y-72013748D02*
X188290000Y-73436252D01*
X190110000Y-72013748D02*
X190110000Y-73436252D01*
%TO.C,C5*%
X188505000Y-92794825D02*
X188505000Y-94217329D01*
X190325000Y-92794825D02*
X190325000Y-94217329D01*
%TO.C,C3*%
X190840000Y-72013748D02*
X190840000Y-73436252D01*
X192660000Y-72013748D02*
X192660000Y-73436252D01*
%TO.C,Q6*%
X204425000Y-111595367D02*
X214645000Y-111595367D01*
X204425000Y-112975367D02*
X214645000Y-112975367D01*
X204425000Y-116215367D02*
X204425000Y-111595367D01*
X207685000Y-111595367D02*
X207685000Y-112975367D01*
X211385000Y-111595367D02*
X211385000Y-112975367D01*
X214645000Y-111595367D02*
X214645000Y-116215367D01*
X214645000Y-116215367D02*
X204425000Y-116215367D01*
%TO.C,R1*%
X200472936Y-61300000D02*
X201927064Y-61300000D01*
X200472936Y-63120000D02*
X201927064Y-63120000D01*
%TO.C,J3*%
X218880000Y-46340000D02*
X225620000Y-46340000D01*
X218880000Y-47660000D02*
X218880000Y-46340000D01*
X218880000Y-52120000D02*
X218880000Y-48260000D01*
X219400000Y-46340000D02*
X219400000Y-52120000D01*
X224500000Y-46340000D02*
X224500000Y-52120000D01*
X225620000Y-46340000D02*
X225620000Y-52120000D01*
X225620000Y-52120000D02*
X218880000Y-52120000D01*
X218880000Y-47960000D02*
X218270000Y-48400000D01*
X218270000Y-47520000D01*
X218880000Y-47960000D01*
G36*
X218880000Y-47960000D02*
G01*
X218270000Y-48400000D01*
X218270000Y-47520000D01*
X218880000Y-47960000D01*
G37*
%TO.C,J5*%
X221380000Y-84590000D02*
X228120000Y-84590000D01*
X221380000Y-85910000D02*
X221380000Y-84590000D01*
X221380000Y-92910000D02*
X221380000Y-86510000D01*
X221900000Y-84590000D02*
X221900000Y-92910000D01*
X227000000Y-84590000D02*
X227000000Y-92910000D01*
X228120000Y-84590000D02*
X228120000Y-92910000D01*
X228120000Y-92910000D02*
X221380000Y-92910000D01*
X221380000Y-86210000D02*
X220770000Y-86650000D01*
X220770000Y-85770000D01*
X221380000Y-86210000D01*
G36*
X221380000Y-86210000D02*
G01*
X220770000Y-86650000D01*
X220770000Y-85770000D01*
X221380000Y-86210000D01*
G37*
%TO.C,C13*%
D12*
X187115000Y-57470650D02*
X188385000Y-57470650D01*
X187750000Y-58105650D02*
X187750000Y-56835650D01*
X194125400Y-50333250D02*
G75*
G02*
X181374600Y-50333250I-6375400J0D01*
G01*
X181374600Y-50333250D02*
G75*
G02*
X194125400Y-50333250I6375400J0D01*
G01*
%TO.C,J4*%
D11*
X166006000Y-87896000D02*
X167386000Y-87896000D01*
X166006000Y-89276000D02*
X166006000Y-87896000D01*
X166006000Y-90546000D02*
X166006000Y-93196000D01*
X166006000Y-90546000D02*
X168766000Y-90546000D01*
X166006000Y-93196000D02*
X168766000Y-93196000D01*
X168766000Y-90546000D02*
X168766000Y-93196000D01*
%TO.C,C12*%
D12*
X200115000Y-57470650D02*
X201385000Y-57470650D01*
X200750000Y-58105650D02*
X200750000Y-56835650D01*
X207125400Y-50333250D02*
G75*
G02*
X194374600Y-50333250I-6375400J0D01*
G01*
X194374600Y-50333250D02*
G75*
G02*
X207125400Y-50333250I6375400J0D01*
G01*
%TO.C,Q2*%
D11*
X203890000Y-58910000D02*
X214110000Y-58910000D01*
X203890000Y-60290000D02*
X214110000Y-60290000D01*
X203890000Y-63530000D02*
X203890000Y-58910000D01*
X207150000Y-58910000D02*
X207150000Y-60290000D01*
X210850000Y-58910000D02*
X210850000Y-60290000D01*
X214110000Y-58910000D02*
X214110000Y-63530000D01*
X214110000Y-63530000D02*
X203890000Y-63530000D01*
%TO.C,J9*%
X166006000Y-65671000D02*
X167386000Y-65671000D01*
X166006000Y-67051000D02*
X166006000Y-65671000D01*
X166006000Y-68321000D02*
X166006000Y-70971000D01*
X166006000Y-68321000D02*
X168766000Y-68321000D01*
X166006000Y-70971000D02*
X168766000Y-70971000D01*
X168766000Y-68321000D02*
X168766000Y-70971000D01*
%TO.C,Q3*%
X204105000Y-79691077D02*
X214325000Y-79691077D01*
X204105000Y-81071077D02*
X214325000Y-81071077D01*
X204105000Y-84311077D02*
X204105000Y-79691077D01*
X207365000Y-79691077D02*
X207365000Y-81071077D01*
X211065000Y-79691077D02*
X211065000Y-81071077D01*
X214325000Y-79691077D02*
X214325000Y-84311077D01*
X214325000Y-84311077D02*
X204105000Y-84311077D01*
%TO.C,C17*%
X174223000Y-48717252D02*
X174223000Y-47294748D01*
X176043000Y-48717252D02*
X176043000Y-47294748D01*
%TO.C,C18*%
X164068000Y-47995651D02*
X172228000Y-47995651D01*
X164068000Y-48035651D02*
X172228000Y-48035651D01*
X164069000Y-47955651D02*
X172227000Y-47955651D01*
X164070000Y-47915651D02*
X172226000Y-47915651D01*
X164071000Y-47875651D02*
X172225000Y-47875651D01*
X164073000Y-47835651D02*
X172223000Y-47835651D01*
X164075000Y-47795651D02*
X172221000Y-47795651D01*
X164078000Y-47755651D02*
X172218000Y-47755651D01*
X164080000Y-47715651D02*
X172216000Y-47715651D01*
X164084000Y-47675651D02*
X172212000Y-47675651D01*
X164087000Y-47635651D02*
X172209000Y-47635651D01*
X164092000Y-47595651D02*
X172204000Y-47595651D01*
X164096000Y-47555651D02*
X172200000Y-47555651D01*
X164101000Y-47515651D02*
X172195000Y-47515651D01*
X164106000Y-47475651D02*
X172190000Y-47475651D01*
X164112000Y-47435651D02*
X172184000Y-47435651D01*
X164118000Y-47395651D02*
X172178000Y-47395651D01*
X164125000Y-47355651D02*
X172171000Y-47355651D01*
X164131000Y-47315651D02*
X167108000Y-47315651D01*
X164139000Y-47275651D02*
X167108000Y-47275651D01*
X164146000Y-47235651D02*
X167108000Y-47235651D01*
X164155000Y-47195651D02*
X167108000Y-47195651D01*
X164163000Y-47155651D02*
X167108000Y-47155651D01*
X164172000Y-47115651D02*
X167108000Y-47115651D01*
X164181000Y-47075651D02*
X167108000Y-47075651D01*
X164191000Y-47035651D02*
X167108000Y-47035651D01*
X164201000Y-46995651D02*
X167108000Y-46995651D01*
X164212000Y-46955651D02*
X167108000Y-46955651D01*
X164223000Y-46915651D02*
X167108000Y-46915651D01*
X164235000Y-46875651D02*
X167108000Y-46875651D01*
X164247000Y-46835651D02*
X167108000Y-46835651D01*
X164259000Y-46795651D02*
X167108000Y-46795651D01*
X164272000Y-46755651D02*
X167108000Y-46755651D01*
X164285000Y-46715651D02*
X167108000Y-46715651D01*
X164299000Y-46675651D02*
X167108000Y-46675651D01*
X164313000Y-46635651D02*
X167108000Y-46635651D01*
X164328000Y-46595651D02*
X167108000Y-46595651D01*
X164343000Y-46555651D02*
X167108000Y-46555651D01*
X164359000Y-46515651D02*
X167108000Y-46515651D01*
X164375000Y-46475651D02*
X167108000Y-46475651D01*
X164391000Y-46435651D02*
X167108000Y-46435651D01*
X164408000Y-46395651D02*
X167108000Y-46395651D01*
X164426000Y-46355651D02*
X167108000Y-46355651D01*
X164444000Y-46315651D02*
X167108000Y-46315651D01*
X164463000Y-46275651D02*
X167108000Y-46275651D01*
X164482000Y-46235651D02*
X167108000Y-46235651D01*
X164502000Y-46195651D02*
X167108000Y-46195651D01*
X164522000Y-46155651D02*
X167108000Y-46155651D01*
X164543000Y-46115651D02*
X167108000Y-46115651D01*
X164564000Y-46075651D02*
X167108000Y-46075651D01*
X164586000Y-46035651D02*
X167108000Y-46035651D01*
X164609000Y-45995651D02*
X167108000Y-45995651D01*
X164632000Y-45955651D02*
X167108000Y-45955651D01*
X164655000Y-45915651D02*
X167108000Y-45915651D01*
X164680000Y-45875651D02*
X167108000Y-45875651D01*
X164705000Y-45835651D02*
X167108000Y-45835651D01*
X164730000Y-45795651D02*
X167108000Y-45795651D01*
X164756000Y-45755651D02*
X167108000Y-45755651D01*
X164783000Y-45715651D02*
X167108000Y-45715651D01*
X164811000Y-45675651D02*
X167108000Y-45675651D01*
X164839000Y-45635651D02*
X167108000Y-45635651D01*
X164868000Y-45595651D02*
X167108000Y-45595651D01*
X164898000Y-45555651D02*
X167108000Y-45555651D01*
X164929000Y-45515651D02*
X167108000Y-45515651D01*
X164960000Y-45475651D02*
X167108000Y-45475651D01*
X164992000Y-45435651D02*
X167108000Y-45435651D01*
X165025000Y-45395651D02*
X167108000Y-45395651D01*
X165059000Y-45355651D02*
X167108000Y-45355651D01*
X165093000Y-45315651D02*
X167108000Y-45315651D01*
X165129000Y-45275651D02*
X167108000Y-45275651D01*
X165166000Y-45235651D02*
X171130000Y-45235651D01*
X165203000Y-45195651D02*
X171093000Y-45195651D01*
X165242000Y-45155651D02*
X171054000Y-45155651D01*
X165281000Y-45115651D02*
X171015000Y-45115651D01*
X165322000Y-45075651D02*
X170974000Y-45075651D01*
X165364000Y-45035651D02*
X170932000Y-45035651D01*
X165407000Y-44995651D02*
X170889000Y-44995651D01*
X165433000Y-52045349D02*
X166233000Y-52045349D01*
X165452000Y-44955651D02*
X170844000Y-44955651D01*
X165497000Y-44915651D02*
X170799000Y-44915651D01*
X165544000Y-44875651D02*
X170752000Y-44875651D01*
X165593000Y-44835651D02*
X170703000Y-44835651D01*
X165643000Y-44795651D02*
X170653000Y-44795651D01*
X165695000Y-44755651D02*
X170601000Y-44755651D01*
X165748000Y-44715651D02*
X170548000Y-44715651D01*
X165804000Y-44675651D02*
X170492000Y-44675651D01*
X165833000Y-52445349D02*
X165833000Y-51645349D01*
X165861000Y-44635651D02*
X170435000Y-44635651D01*
X165921000Y-44595651D02*
X170375000Y-44595651D01*
X165983000Y-44555651D02*
X170313000Y-44555651D01*
X166047000Y-44515651D02*
X170249000Y-44515651D01*
X166114000Y-44475651D02*
X170182000Y-44475651D01*
X166184000Y-44435651D02*
X170112000Y-44435651D01*
X166258000Y-44395651D02*
X170038000Y-44395651D01*
X166335000Y-44355651D02*
X169961000Y-44355651D01*
X166417000Y-44315651D02*
X169879000Y-44315651D01*
X166504000Y-44275651D02*
X169792000Y-44275651D01*
X166596000Y-44235651D02*
X169700000Y-44235651D01*
X166695000Y-44195651D02*
X169601000Y-44195651D01*
X166802000Y-44155651D02*
X169494000Y-44155651D01*
X166920000Y-44115651D02*
X169376000Y-44115651D01*
X167051000Y-44075651D02*
X169245000Y-44075651D01*
X167201000Y-44035651D02*
X169095000Y-44035651D01*
X167380000Y-43995651D02*
X168916000Y-43995651D01*
X167615000Y-43955651D02*
X168681000Y-43955651D01*
X169188000Y-45275651D02*
X171167000Y-45275651D01*
X169188000Y-45315651D02*
X171203000Y-45315651D01*
X169188000Y-45355651D02*
X171237000Y-45355651D01*
X169188000Y-45395651D02*
X171271000Y-45395651D01*
X169188000Y-45435651D02*
X171304000Y-45435651D01*
X169188000Y-45475651D02*
X171336000Y-45475651D01*
X169188000Y-45515651D02*
X171367000Y-45515651D01*
X169188000Y-45555651D02*
X171398000Y-45555651D01*
X169188000Y-45595651D02*
X171428000Y-45595651D01*
X169188000Y-45635651D02*
X171457000Y-45635651D01*
X169188000Y-45675651D02*
X171485000Y-45675651D01*
X169188000Y-45715651D02*
X171513000Y-45715651D01*
X169188000Y-45755651D02*
X171540000Y-45755651D01*
X169188000Y-45795651D02*
X171566000Y-45795651D01*
X169188000Y-45835651D02*
X171591000Y-45835651D01*
X169188000Y-45875651D02*
X171616000Y-45875651D01*
X169188000Y-45915651D02*
X171641000Y-45915651D01*
X169188000Y-45955651D02*
X171664000Y-45955651D01*
X169188000Y-45995651D02*
X171687000Y-45995651D01*
X169188000Y-46035651D02*
X171710000Y-46035651D01*
X169188000Y-46075651D02*
X171732000Y-46075651D01*
X169188000Y-46115651D02*
X171753000Y-46115651D01*
X169188000Y-46155651D02*
X171774000Y-46155651D01*
X169188000Y-46195651D02*
X171794000Y-46195651D01*
X169188000Y-46235651D02*
X171814000Y-46235651D01*
X169188000Y-46275651D02*
X171833000Y-46275651D01*
X169188000Y-46315651D02*
X171852000Y-46315651D01*
X169188000Y-46355651D02*
X171870000Y-46355651D01*
X169188000Y-46395651D02*
X171888000Y-46395651D01*
X169188000Y-46435651D02*
X171905000Y-46435651D01*
X169188000Y-46475651D02*
X171921000Y-46475651D01*
X169188000Y-46515651D02*
X171937000Y-46515651D01*
X169188000Y-46555651D02*
X171953000Y-46555651D01*
X169188000Y-46595651D02*
X171968000Y-46595651D01*
X169188000Y-46635651D02*
X171983000Y-46635651D01*
X169188000Y-46675651D02*
X171997000Y-46675651D01*
X169188000Y-46715651D02*
X172011000Y-46715651D01*
X169188000Y-46755651D02*
X172024000Y-46755651D01*
X169188000Y-46795651D02*
X172037000Y-46795651D01*
X169188000Y-46835651D02*
X172049000Y-46835651D01*
X169188000Y-46875651D02*
X172061000Y-46875651D01*
X169188000Y-46915651D02*
X172073000Y-46915651D01*
X169188000Y-46955651D02*
X172084000Y-46955651D01*
X169188000Y-46995651D02*
X172095000Y-46995651D01*
X169188000Y-47035651D02*
X172105000Y-47035651D01*
X169188000Y-47075651D02*
X172115000Y-47075651D01*
X169188000Y-47115651D02*
X172124000Y-47115651D01*
X169188000Y-47155651D02*
X172133000Y-47155651D01*
X169188000Y-47195651D02*
X172141000Y-47195651D01*
X169188000Y-47235651D02*
X172150000Y-47235651D01*
X169188000Y-47275651D02*
X172157000Y-47275651D01*
X169188000Y-47315651D02*
X172165000Y-47315651D01*
X172268000Y-48035651D02*
G75*
G02*
X164028000Y-48035651I-4120000J0D01*
G01*
X164028000Y-48035651D02*
G75*
G02*
X172268000Y-48035651I4120000J0D01*
G01*
%TO.C,R6*%
X200847936Y-113945367D02*
X202302064Y-113945367D01*
X200847936Y-115765367D02*
X202302064Y-115765367D01*
%TO.C,U1*%
X180240000Y-59890000D02*
X180240000Y-77790000D01*
X180240000Y-77790000D02*
X181890000Y-77790000D01*
X183890000Y-77790000D02*
X185540000Y-77790000D01*
X185540000Y-59890000D02*
X180240000Y-59890000D01*
X185540000Y-77790000D02*
X185540000Y-59890000D01*
X181890000Y-77790000D02*
G75*
G02*
X183890000Y-77790000I1000000J0D01*
G01*
%TO.C,C11*%
X208957500Y-51441252D02*
X208957500Y-50018748D01*
X210777500Y-51441252D02*
X210777500Y-50018748D01*
%TO.C,J10*%
X158640000Y-47757000D02*
X158640000Y-45107000D01*
X161400000Y-45107000D02*
X158640000Y-45107000D01*
X161400000Y-47757000D02*
X158640000Y-47757000D01*
X161400000Y-47757000D02*
X161400000Y-45107000D01*
X161400000Y-49027000D02*
X161400000Y-50407000D01*
X161400000Y-50407000D02*
X160020000Y-50407000D01*
%TO.C,C15*%
X175990000Y-82384420D02*
X175990000Y-82665580D01*
X177010000Y-82384420D02*
X177010000Y-82665580D01*
%TO.C,R5*%
X200847936Y-102945367D02*
X202302064Y-102945367D01*
X200847936Y-104765367D02*
X202302064Y-104765367D01*
%TO.C,C4*%
X189055000Y-85029825D02*
X189055000Y-86452329D01*
X190875000Y-85029825D02*
X190875000Y-86452329D01*
%TO.C,C8*%
X188665000Y-113659115D02*
X188665000Y-115081619D01*
X190485000Y-113659115D02*
X190485000Y-115081619D01*
%TO.C,U2*%
X180455000Y-80671077D02*
X180455000Y-98571077D01*
X180455000Y-98571077D02*
X182105000Y-98571077D01*
X184105000Y-98571077D02*
X185755000Y-98571077D01*
X185755000Y-80671077D02*
X180455000Y-80671077D01*
X185755000Y-98571077D02*
X185755000Y-80671077D01*
X182105000Y-98571077D02*
G75*
G02*
X184105000Y-98571077I1000000J0D01*
G01*
%TO.C,D3*%
X196375000Y-105405367D02*
X196375000Y-106425367D01*
X196375000Y-112885367D02*
X196375000Y-111865367D01*
X197845000Y-107205367D02*
X194905000Y-107205367D01*
X197845000Y-107325367D02*
X194905000Y-107325367D01*
X197845000Y-107445367D02*
X194905000Y-107445367D01*
X194905000Y-106425367D02*
X197845000Y-106425367D01*
X197845000Y-111865367D01*
X194905000Y-111865367D01*
X194905000Y-106425367D01*
%TO.C,Q5*%
X204265000Y-100555367D02*
X214485000Y-100555367D01*
X204265000Y-101935367D02*
X214485000Y-101935367D01*
X204265000Y-105175367D02*
X204265000Y-100555367D01*
X207525000Y-100555367D02*
X207525000Y-101935367D01*
X211225000Y-100555367D02*
X211225000Y-101935367D01*
X214485000Y-100555367D02*
X214485000Y-105175367D01*
X214485000Y-105175367D02*
X204265000Y-105175367D01*
%TO.C,R3*%
X200687936Y-82081077D02*
X202142064Y-82081077D01*
X200687936Y-83901077D02*
X202142064Y-83901077D01*
%TD*%
M02*
