%TF.GenerationSoftware,KiCad,Pcbnew,10.0.3*%
%TF.CreationDate,2026-07-12T19:23:39-04:00*%
%TF.ProjectId,PWM_6_step_SVPWM_IR2110,50574d5f-365f-4737-9465-705f53565057,rev?*%
%TF.SameCoordinates,Original*%
%TF.FileFunction,Paste,Top*%
%TF.FilePolarity,Positive*%
%FSLAX46Y46*%
G04 Gerber Fmt 4.6, Leading zero omitted, Abs format (unit mm)*
G04 Created by KiCad (PCBNEW 10.0.3) date 2026-07-12 19:23:39*
%MOMM*%
%LPD*%
G01*
G04 APERTURE LIST*
G04 Aperture macros list*
%AMRoundRect*
0 Rectangle with rounded corners*
0 $1 Rounding radius*
0 $2 $3 $4 $5 $6 $7 $8 $9 X,Y pos of 4 corners*
0 Add a 4 corners polygon primitive as box body*
4,1,4,$2,$3,$4,$5,$6,$7,$8,$9,$2,$3,0*
0 Add four circle primitives for the rounded corners*
1,1,$1+$1,$2,$3*
1,1,$1+$1,$4,$5*
1,1,$1+$1,$6,$7*
1,1,$1+$1,$8,$9*
0 Add four rect primitives between the rounded corners*
20,1,$1+$1,$2,$3,$4,$5,0*
20,1,$1+$1,$4,$5,$6,$7,0*
20,1,$1+$1,$6,$7,$8,$9,0*
20,1,$1+$1,$8,$9,$2,$3,0*%
G04 Aperture macros list end*
%ADD10RoundRect,0.250000X-0.312500X-0.625000X0.312500X-0.625000X0.312500X0.625000X-0.312500X0.625000X0*%
%ADD11RoundRect,0.250000X-0.650000X0.325000X-0.650000X-0.325000X0.650000X-0.325000X0.650000X0.325000X0*%
%ADD12RoundRect,0.225000X-0.250000X0.225000X-0.250000X-0.225000X0.250000X-0.225000X0.250000X0.225000X0*%
%ADD13RoundRect,0.250000X0.650000X-0.325000X0.650000X0.325000X-0.650000X0.325000X-0.650000X-0.325000X0*%
G04 APERTURE END LIST*
D10*
%TO.C,R2*%
X199737500Y-73210000D03*
X202662500Y-73210000D03*
%TD*%
D11*
%TO.C,C9*%
X192125000Y-112895367D03*
X192125000Y-115845367D03*
%TD*%
%TO.C,C1*%
X189750000Y-63485000D03*
X189750000Y-66435000D03*
%TD*%
D12*
%TO.C,C16*%
X176750000Y-102950000D03*
X176750000Y-104500000D03*
%TD*%
D13*
%TO.C,C10*%
X213867500Y-52250000D03*
X213867500Y-49300000D03*
%TD*%
D12*
%TO.C,C14*%
X176750000Y-62225000D03*
X176750000Y-63775000D03*
%TD*%
D11*
%TO.C,C6*%
X191965000Y-92031077D03*
X191965000Y-94981077D03*
%TD*%
%TO.C,C7*%
X190125000Y-105130367D03*
X190125000Y-108080367D03*
%TD*%
D10*
%TO.C,R4*%
X199952500Y-93991077D03*
X202877500Y-93991077D03*
%TD*%
D11*
%TO.C,C2*%
X189200000Y-71250000D03*
X189200000Y-74200000D03*
%TD*%
%TO.C,C5*%
X189415000Y-92031077D03*
X189415000Y-94981077D03*
%TD*%
%TO.C,C3*%
X191750000Y-71250000D03*
X191750000Y-74200000D03*
%TD*%
D10*
%TO.C,R1*%
X199737500Y-62210000D03*
X202662500Y-62210000D03*
%TD*%
D13*
%TO.C,C17*%
X175133000Y-49481000D03*
X175133000Y-46531000D03*
%TD*%
D10*
%TO.C,R6*%
X200112500Y-114855367D03*
X203037500Y-114855367D03*
%TD*%
D13*
%TO.C,C11*%
X209867500Y-52205000D03*
X209867500Y-49255000D03*
%TD*%
D12*
%TO.C,C15*%
X176500000Y-81750000D03*
X176500000Y-83300000D03*
%TD*%
D10*
%TO.C,R5*%
X200112500Y-103855367D03*
X203037500Y-103855367D03*
%TD*%
D11*
%TO.C,C4*%
X189965000Y-84266077D03*
X189965000Y-87216077D03*
%TD*%
%TO.C,C8*%
X189575000Y-112895367D03*
X189575000Y-115845367D03*
%TD*%
D10*
%TO.C,R3*%
X199952500Y-82991077D03*
X202877500Y-82991077D03*
%TD*%
M02*
