%TF.GenerationSoftware,KiCad,Pcbnew,10.0.4*%
%TF.CreationDate,2026-07-09T16:51:33-04:00*%
%TF.ProjectId,PWM_6_step_SWPWM_DIRTY,50574d5f-365f-4737-9465-705f53575057,rev?*%
%TF.SameCoordinates,Original*%
%TF.FileFunction,Copper,L2,Bot*%
%TF.FilePolarity,Positive*%
%FSLAX46Y46*%
G04 Gerber Fmt 4.6, Leading zero omitted, Abs format (unit mm)*
G04 Created by KiCad (PCBNEW 10.0.4) date 2026-07-09 16:51:33*
%MOMM*%
%LPD*%
G01*
G04 APERTURE LIST*
G04 Aperture macros list*
%AMRoundRect*
0 Rectangle with rounded corners*
0 $1 Rounding radius*
0 $2 $3 $4 $5 $6 $7 $8 $9 X,Y pos of 4 corners*
0 Add a 4 corners polygon primitive as box body*
4,1,4,$2,$3,$4,$5,$6,$7,$8,$9,$2,$3,0*
0 Add four circle primitives for the rounded corners*
1,1,$1+$1,$2,$3*
1,1,$1+$1,$4,$5*
1,1,$1+$1,$6,$7*
1,1,$1+$1,$8,$9*
0 Add four rect primitives between the rounded corners*
20,1,$1+$1,$2,$3,$4,$5,0*
20,1,$1+$1,$4,$5,$6,$7,0*
20,1,$1+$1,$6,$7,$8,$9,0*
20,1,$1+$1,$8,$9,$2,$3,0*%
G04 Aperture macros list end*
%TA.AperFunction,EtchedComponent*%
%ADD10C,0.000000*%
%TD*%
%TA.AperFunction,ComponentPad*%
%ADD11R,1.905000X2.000000*%
%TD*%
%TA.AperFunction,ComponentPad*%
%ADD12O,1.905000X2.000000*%
%TD*%
%TA.AperFunction,ComponentPad*%
%ADD13R,1.700000X1.700000*%
%TD*%
%TA.AperFunction,ComponentPad*%
%ADD14C,1.700000*%
%TD*%
%TA.AperFunction,ComponentPad*%
%ADD15RoundRect,0.250000X0.550000X0.550000X-0.550000X0.550000X-0.550000X-0.550000X0.550000X-0.550000X0*%
%TD*%
%TA.AperFunction,ComponentPad*%
%ADD16C,1.600000*%
%TD*%
%TA.AperFunction,ComponentPad*%
%ADD17RoundRect,0.249999X-0.850001X0.850001X-0.850001X-0.850001X0.850001X-0.850001X0.850001X0.850001X0*%
%TD*%
%TA.AperFunction,ComponentPad*%
%ADD18C,2.200000*%
%TD*%
%TA.AperFunction,ComponentPad*%
%ADD19RoundRect,0.250001X-0.799999X0.799999X-0.799999X-0.799999X0.799999X-0.799999X0.799999X0.799999X0*%
%TD*%
%TA.AperFunction,ComponentPad*%
%ADD20C,2.100000*%
%TD*%
%TA.AperFunction,ComponentPad*%
%ADD21R,1.524000X1.524000*%
%TD*%
%TA.AperFunction,ComponentPad*%
%ADD22C,1.524000*%
%TD*%
%TA.AperFunction,SMDPad,CuDef*%
%ADD23C,2.000000*%
%TD*%
%TA.AperFunction,ViaPad*%
%ADD24C,0.800000*%
%TD*%
%TA.AperFunction,Conductor*%
%ADD25C,0.500000*%
%TD*%
G04 APERTURE END LIST*
D10*
%TA.AperFunction,EtchedComponent*%
%TO.C,NT1*%
G36*
X186500000Y-45750000D02*
G01*
X179500000Y-45750000D01*
X179500000Y-43750000D01*
X186500000Y-43750000D01*
X186500000Y-45750000D01*
G37*
%TD.AperFunction*%
%TD*%
D11*
%TO.P,Q1,1,G_1*%
%TO.N,Net-(Q1-G)*%
X206620000Y-73210000D03*
D12*
%TO.P,Q1,2,D_2*%
%TO.N,/PHASE_A*%
X209160000Y-73210000D03*
%TO.P,Q1,3,S_3*%
%TO.N,GNDPWR*%
X211700000Y-73210000D03*
%TD*%
D13*
%TO.P,J1,1,Pin_1_1*%
%TO.N,unconnected-(J1-Pin_1-Pad1)*%
X146010000Y-70760000D03*
D14*
%TO.P,J1,2,Pin_2_2*%
%TO.N,GNDD*%
X146010000Y-73300000D03*
%TO.P,J1,3,Pin_3_3*%
%TO.N,unconnected-(J1-Pin_3-Pad3)*%
X146010000Y-75840000D03*
%TO.P,J1,4,Pin_4_4*%
%TO.N,+5V*%
X146010000Y-78380000D03*
%TO.P,J1,5,Pin_5_5*%
%TO.N,unconnected-(J1-Pin_5-Pad5)*%
X146010000Y-80920000D03*
%TO.P,J1,6,Pin_6_6*%
%TO.N,/MCU/PA7*%
X146010000Y-83460000D03*
%TO.P,J1,7,Pin_7_7*%
%TO.N,/MCU/PA6*%
X146010000Y-86000000D03*
%TO.P,J1,8,Pin_8_8*%
%TO.N,/MCU/PA5*%
X146010000Y-88540000D03*
%TO.P,J1,9,Pin_9_9*%
%TO.N,/MCU/PA4*%
X146010000Y-91080000D03*
%TO.P,J1,10,Pin_10_10*%
%TO.N,unconnected-(J1-Pin_10-Pad10)*%
X146010000Y-93620000D03*
%TO.P,J1,11,Pin_11_11*%
%TO.N,unconnected-(J1-Pin_11-Pad11)*%
X146010000Y-96160000D03*
%TO.P,J1,12,Pin_12_12*%
%TO.N,/MCU/PA0*%
X146010000Y-98700000D03*
%TO.P,J1,13,Pin_13_13*%
%TO.N,unconnected-(J1-Pin_13-Pad13)*%
X146010000Y-101240000D03*
%TO.P,J1,14,Pin_14_14*%
%TO.N,+3.3V*%
X146010000Y-103780000D03*
%TO.P,J1,15,Pin_15_15*%
%TO.N,unconnected-(J1-Pin_15-Pad15)*%
X146010000Y-106320000D03*
%TD*%
D15*
%TO.P,U3,1,LO_1*%
%TO.N,Net-(U3-LO)*%
X187075000Y-118105367D03*
D16*
%TO.P,U3,2,COM_2*%
%TO.N,GNDPWR*%
X187075000Y-115565367D03*
%TO.P,U3,3,VCC_3*%
%TO.N,+12V*%
X187075000Y-113025367D03*
%TO.P,U3,4,NC_4*%
%TO.N,unconnected-(U3-NC-Pad4)*%
X187075000Y-110485367D03*
%TO.P,U3,5,VS_5*%
%TO.N,/PHASE_C*%
X187075000Y-107945367D03*
%TO.P,U3,6,VB_6*%
%TO.N,Net-(D3-K)*%
X187075000Y-105405367D03*
%TO.P,U3,7,HO_7*%
%TO.N,Net-(U3-HO)*%
X187075000Y-102865367D03*
%TO.P,U3,8,NC_8*%
%TO.N,unconnected-(U3-NC-Pad8)*%
X179455000Y-102865367D03*
%TO.P,U3,9,VDD_9*%
%TO.N,+3.3V*%
X179455000Y-105405367D03*
%TO.P,U3,10,HIN_10*%
%TO.N,/MCU/PA10*%
X179455000Y-107945367D03*
%TO.P,U3,11,SD_11*%
%TO.N,/Gate_Driver_C/SD*%
X179455000Y-110485367D03*
%TO.P,U3,12,LIN_12*%
%TO.N,/MCU/PF0*%
X179455000Y-113025367D03*
%TO.P,U3,13,VSS_13*%
%TO.N,GNDD*%
X179455000Y-115565367D03*
%TO.P,U3,14,NC_14*%
%TO.N,unconnected-(U3-NC-Pad14)*%
X179455000Y-118105367D03*
%TD*%
D17*
%TO.P,D2,1,K_1*%
%TO.N,Net-(D2-K)*%
X196215000Y-83201077D03*
D18*
%TO.P,D2,2,A_2*%
%TO.N,+12V*%
X196215000Y-93361077D03*
%TD*%
D11*
%TO.P,Q4,1,G_1*%
%TO.N,Net-(Q4-G)*%
X206835000Y-93991077D03*
D12*
%TO.P,Q4,2,D_2*%
%TO.N,/PHASE_B*%
X209375000Y-93991077D03*
%TO.P,Q4,3,S_3*%
%TO.N,GNDPWR*%
X211915000Y-93991077D03*
%TD*%
D17*
%TO.P,D1,1,K_1*%
%TO.N,Net-(D1-K)*%
X196000000Y-62420000D03*
D18*
%TO.P,D1,2,A_2*%
%TO.N,+12V*%
X196000000Y-72580000D03*
%TD*%
D11*
%TO.P,Q6,1,G_1*%
%TO.N,Net-(Q6-G)*%
X206995000Y-114855367D03*
D12*
%TO.P,Q6,2,D_2*%
%TO.N,/PHASE_C*%
X209535000Y-114855367D03*
%TO.P,Q6,3,S_3*%
%TO.N,GNDPWR*%
X212075000Y-114855367D03*
%TD*%
D19*
%TO.P,J3,1,Pin_1_1*%
%TO.N,GNDPWR*%
X222250000Y-47960000D03*
D20*
%TO.P,J3,2,Pin_2_2*%
%TO.N,+12V*%
X222250000Y-50500000D03*
%TD*%
D19*
%TO.P,J5,1,Pin_1_1*%
%TO.N,/PHASE_A*%
X224750000Y-86210000D03*
D20*
%TO.P,J5,2,Pin_2_2*%
%TO.N,/PHASE_B*%
X224750000Y-88750000D03*
%TO.P,J5,3,Pin_3_3*%
%TO.N,/PHASE_C*%
X224750000Y-91290000D03*
%TD*%
D21*
%TO.P,C13,1*%
%TO.N,+12V*%
X187750000Y-53089150D03*
D22*
%TO.P,C13,2*%
%TO.N,GNDPWR*%
X187750000Y-47577350D03*
%TD*%
D21*
%TO.P,C12,1*%
%TO.N,+12V*%
X200750000Y-53089150D03*
D22*
%TO.P,C12,2*%
%TO.N,GNDPWR*%
X200750000Y-47577350D03*
%TD*%
D11*
%TO.P,Q2,1,G_1*%
%TO.N,Net-(Q2-G)*%
X206460000Y-62170000D03*
D12*
%TO.P,Q2,2,D_2*%
%TO.N,+12V*%
X209000000Y-62170000D03*
%TO.P,Q2,3,S_3*%
%TO.N,/PHASE_A*%
X211540000Y-62170000D03*
%TD*%
D11*
%TO.P,Q3,1,G_1*%
%TO.N,Net-(Q3-G)*%
X206675000Y-82951077D03*
D12*
%TO.P,Q3,2,D_2*%
%TO.N,+12V*%
X209215000Y-82951077D03*
%TO.P,Q3,3,S_3*%
%TO.N,/PHASE_B*%
X211755000Y-82951077D03*
%TD*%
D15*
%TO.P,U1,1,LO_1*%
%TO.N,Net-(U1-LO)*%
X186700000Y-76460000D03*
D16*
%TO.P,U1,2,COM_2*%
%TO.N,GNDPWR*%
X186700000Y-73920000D03*
%TO.P,U1,3,VCC_3*%
%TO.N,+12V*%
X186700000Y-71380000D03*
%TO.P,U1,4,NC_4*%
%TO.N,unconnected-(U1-NC-Pad4)*%
X186700000Y-68840000D03*
%TO.P,U1,5,VS_5*%
%TO.N,/PHASE_A*%
X186700000Y-66300000D03*
%TO.P,U1,6,VB_6*%
%TO.N,Net-(D1-K)*%
X186700000Y-63760000D03*
%TO.P,U1,7,HO_7*%
%TO.N,Net-(U1-HO)*%
X186700000Y-61220000D03*
%TO.P,U1,8,NC_8*%
%TO.N,unconnected-(U1-NC-Pad8)*%
X179080000Y-61220000D03*
%TO.P,U1,9,VDD_9*%
%TO.N,+3.3V*%
X179080000Y-63760000D03*
%TO.P,U1,10,HIN_10*%
%TO.N,/MCU/PA8*%
X179080000Y-66300000D03*
%TO.P,U1,11,SD_11*%
%TO.N,/Gate_Driver_A/SD*%
X179080000Y-68840000D03*
%TO.P,U1,12,LIN_12*%
%TO.N,/MCU/PA7*%
X179080000Y-71380000D03*
%TO.P,U1,13,VSS_13*%
%TO.N,GNDD*%
X179080000Y-73920000D03*
%TO.P,U1,14,NC_14*%
%TO.N,unconnected-(U1-NC-Pad14)*%
X179080000Y-76460000D03*
%TD*%
D13*
%TO.P,J4,1,Pin_1_1*%
%TO.N,GNDD*%
X133380000Y-93910000D03*
D14*
%TO.P,J4,2,Pin_2_2*%
%TO.N,/MCU/PA4*%
X133380000Y-91370000D03*
%TO.P,J4,3,Pin_3_3*%
%TO.N,/MCU/PA5*%
X133380000Y-88830000D03*
%TO.P,J4,4,Pin_4_4*%
%TO.N,/MCU/PB5*%
X133380000Y-86290000D03*
%TO.P,J4,5,Pin_5_5*%
%TO.N,/MCU/PB4*%
X133380000Y-83750000D03*
%TO.P,J4,6,Pin_6_6*%
%TO.N,+5V*%
X133380000Y-81210000D03*
%TD*%
D15*
%TO.P,U2,1,LO_1*%
%TO.N,Net-(U2-LO)*%
X186915000Y-97241077D03*
D16*
%TO.P,U2,2,COM_2*%
%TO.N,GNDPWR*%
X186915000Y-94701077D03*
%TO.P,U2,3,VCC_3*%
%TO.N,+12V*%
X186915000Y-92161077D03*
%TO.P,U2,4,NC_4*%
%TO.N,unconnected-(U2-NC-Pad4)*%
X186915000Y-89621077D03*
%TO.P,U2,5,VS_5*%
%TO.N,/PHASE_B*%
X186915000Y-87081077D03*
%TO.P,U2,6,VB_6*%
%TO.N,Net-(D2-K)*%
X186915000Y-84541077D03*
%TO.P,U2,7,HO_7*%
%TO.N,Net-(U2-HO)*%
X186915000Y-82001077D03*
%TO.P,U2,8,NC_8*%
%TO.N,unconnected-(U2-NC-Pad8)*%
X179295000Y-82001077D03*
%TO.P,U2,9,VDD_9*%
%TO.N,+3.3V*%
X179295000Y-84541077D03*
%TO.P,U2,10,HIN_10*%
%TO.N,/MCU/PA9*%
X179295000Y-87081077D03*
%TO.P,U2,11,SD_11*%
%TO.N,/Gate_Driver_B/SD*%
X179295000Y-89621077D03*
%TO.P,U2,12,LIN_12*%
%TO.N,/MCU/PB0*%
X179295000Y-92161077D03*
%TO.P,U2,13,VSS_13*%
%TO.N,GNDD*%
X179295000Y-94701077D03*
%TO.P,U2,14,NC_14*%
%TO.N,unconnected-(U2-NC-Pad14)*%
X179295000Y-97241077D03*
%TD*%
D17*
%TO.P,D3,1,K_1*%
%TO.N,Net-(D3-K)*%
X196375000Y-104065367D03*
D18*
%TO.P,D3,2,A_2*%
%TO.N,+12V*%
X196375000Y-114225367D03*
%TD*%
D11*
%TO.P,Q5,1,G_1*%
%TO.N,Net-(Q5-G)*%
X206835000Y-103815367D03*
D12*
%TO.P,Q5,2,D_2*%
%TO.N,+12V*%
X209375000Y-103815367D03*
%TO.P,Q5,3,S_3*%
%TO.N,/PHASE_C*%
X211915000Y-103815367D03*
%TD*%
D13*
%TO.P,J2,1,Pin_1_1*%
%TO.N,/MCU/PA9*%
X161250000Y-70760000D03*
D14*
%TO.P,J2,2,Pin_2_2*%
%TO.N,/MCU/PA10*%
X161250000Y-73300000D03*
%TO.P,J2,3,Pin_3_3*%
%TO.N,unconnected-(J2-Pin_3-Pad3)*%
X161250000Y-75840000D03*
%TO.P,J2,4,Pin_4_4*%
%TO.N,GNDD*%
X161250000Y-78380000D03*
%TO.P,J2,5,Pin_5_5*%
%TO.N,unconnected-(J2-Pin_5-Pad5)*%
X161250000Y-80920000D03*
%TO.P,J2,6,Pin_6_6*%
%TO.N,/MCU/PB0*%
X161250000Y-83460000D03*
%TO.P,J2,7,Pin_7_7*%
%TO.N,unconnected-(J2-Pin_7-Pad7)*%
X161250000Y-86000000D03*
%TO.P,J2,8,Pin_8_8*%
%TO.N,unconnected-(J2-Pin_8-Pad8)*%
X161250000Y-88540000D03*
%TO.P,J2,9,Pin_9_9*%
%TO.N,unconnected-(J2-Pin_9-Pad9)*%
X161250000Y-91080000D03*
%TO.P,J2,10,Pin_10_10*%
%TO.N,/MCU/PF0*%
X161250000Y-93620000D03*
%TO.P,J2,11,Pin_11_11*%
%TO.N,unconnected-(J2-Pin_11-Pad11)*%
X161250000Y-96160000D03*
%TO.P,J2,12,Pin_12_12*%
%TO.N,/MCU/PA8*%
X161250000Y-98700000D03*
%TO.P,J2,13,Pin_13_13*%
%TO.N,unconnected-(J2-Pin_13-Pad13)*%
X161250000Y-101240000D03*
%TO.P,J2,14,Pin_14_14*%
%TO.N,/MCU/PB4*%
X161250000Y-103780000D03*
%TO.P,J2,15,Pin_15_15*%
%TO.N,/MCU/PB5*%
X161250000Y-106320000D03*
%TD*%
D23*
%TO.P,NT1,1,1_1*%
%TO.N,GNDD*%
X179500000Y-44750000D03*
%TO.P,NT1,2,2_2*%
%TO.N,GNDPWR*%
X186500000Y-44750000D03*
%TD*%
D24*
%TO.N,GNDPWR*%
X210632500Y-46750000D03*
X209382500Y-46750000D03*
X213132500Y-45750000D03*
X193875000Y-115895367D03*
X210632500Y-45750000D03*
X209382500Y-45750000D03*
X213132500Y-46750000D03*
X193250000Y-95031077D03*
X214382500Y-45750000D03*
X208132500Y-45750000D03*
X211882500Y-45750000D03*
X208132500Y-46750000D03*
X214382500Y-46750000D03*
X193250000Y-74250000D03*
X211882500Y-46750000D03*
%TO.N,GNDD*%
X176750000Y-101599633D03*
X175500000Y-62090000D03*
X176500000Y-80750000D03*
%TO.N,/MCU/PA7*%
X173000000Y-70750000D03*
X168250000Y-70750000D03*
%TD*%
%TO.N,/MCU/PA7*%
D25*
X173000000Y-70750000D02*
X168250000Y-70750000D01*
%TO.N,/MCU/PF0*%
X163750000Y-97500000D02*
X163750000Y-96120000D01*
X163750000Y-96120000D02*
X161250000Y-93620000D01*
X177905000Y-111475367D02*
X177725367Y-111475367D01*
X179455000Y-113025367D02*
X177905000Y-111475367D01*
X177725367Y-111475367D02*
X163750000Y-97500000D01*
%TO.N,/MCU/PB5*%
X142250000Y-95160000D02*
X133380000Y-86290000D01*
X155820000Y-111750000D02*
X145085786Y-111750000D01*
X145085786Y-111750000D02*
X142250000Y-108914214D01*
X142250000Y-108914214D02*
X142250000Y-95160000D01*
X161250000Y-106320000D02*
X155820000Y-111750000D01*
%TO.N,/MCU/PB4*%
X133380000Y-83750000D02*
X143250000Y-93620000D01*
X154280000Y-110750000D02*
X161250000Y-103780000D01*
X145500000Y-110750000D02*
X154280000Y-110750000D01*
X143250000Y-93620000D02*
X143250000Y-108500000D01*
X143250000Y-108500000D02*
X145500000Y-110750000D01*
%TO.N,/MCU/PA9*%
X179295000Y-87081077D02*
X177581077Y-87081077D01*
X177581077Y-87081077D02*
X161250000Y-70750000D01*
%TO.N,/MCU/PB0*%
X169911077Y-92161077D02*
X161250000Y-83500000D01*
X179295000Y-92161077D02*
X169911077Y-92161077D01*
%TD*%
%TA.AperFunction,Conductor*%
%TO.N,GNDD*%
G36*
X180016177Y-41520185D02*
G01*
X180036819Y-41536819D01*
X180963681Y-42463681D01*
X180997166Y-42525004D01*
X181000000Y-42551362D01*
X181000000Y-102680021D01*
X180980315Y-102747060D01*
X180927511Y-102792815D01*
X180858353Y-102802759D01*
X180794797Y-102773734D01*
X180757023Y-102714956D01*
X180753527Y-102699419D01*
X180731280Y-102558958D01*
X180667632Y-102363072D01*
X180623369Y-102276203D01*
X180574129Y-102179564D01*
X180558661Y-102158275D01*
X180453073Y-102012943D01*
X180453069Y-102012938D01*
X180307428Y-101867297D01*
X180307423Y-101867293D01*
X180140806Y-101746240D01*
X180140805Y-101746239D01*
X180140803Y-101746238D01*
X180083496Y-101717038D01*
X179957294Y-101652734D01*
X179761408Y-101589086D01*
X179585794Y-101561272D01*
X179557981Y-101556867D01*
X179352019Y-101556867D01*
X179327550Y-101560742D01*
X179148591Y-101589086D01*
X178952705Y-101652734D01*
X178769193Y-101746240D01*
X178602576Y-101867293D01*
X178602571Y-101867297D01*
X178456930Y-102012938D01*
X178456926Y-102012943D01*
X178335873Y-102179560D01*
X178242367Y-102363072D01*
X178178719Y-102558958D01*
X178146500Y-102762386D01*
X178146500Y-102968347D01*
X178178719Y-103171775D01*
X178242367Y-103367661D01*
X178335873Y-103551173D01*
X178456926Y-103717790D01*
X178456930Y-103717795D01*
X178602571Y-103863436D01*
X178602576Y-103863440D01*
X178769195Y-103984495D01*
X178848459Y-104024883D01*
X178899254Y-104072857D01*
X178916049Y-104140678D01*
X178893511Y-104206813D01*
X178848459Y-104245851D01*
X178769195Y-104286238D01*
X178602576Y-104407293D01*
X178602571Y-104407297D01*
X178456930Y-104552938D01*
X178456926Y-104552943D01*
X178335873Y-104719560D01*
X178242367Y-104903072D01*
X178178719Y-105098958D01*
X178146500Y-105302386D01*
X178146500Y-105508347D01*
X178178719Y-105711775D01*
X178242367Y-105907661D01*
X178335873Y-106091173D01*
X178456926Y-106257790D01*
X178456930Y-106257795D01*
X178602571Y-106403436D01*
X178602576Y-106403440D01*
X178769195Y-106524495D01*
X178848459Y-106564883D01*
X178899254Y-106612857D01*
X178916049Y-106680678D01*
X178893511Y-106746813D01*
X178848459Y-106785851D01*
X178769195Y-106826238D01*
X178602576Y-106947293D01*
X178602571Y-106947297D01*
X178456930Y-107092938D01*
X178456926Y-107092943D01*
X178335873Y-107259560D01*
X178242367Y-107443072D01*
X178178719Y-107638958D01*
X178146500Y-107842386D01*
X178146500Y-108048347D01*
X178178719Y-108251775D01*
X178242367Y-108447661D01*
X178335873Y-108631173D01*
X178456926Y-108797790D01*
X178456930Y-108797795D01*
X178602571Y-108943436D01*
X178602576Y-108943440D01*
X178769195Y-109064495D01*
X178848459Y-109104883D01*
X178899254Y-109152857D01*
X178916049Y-109220678D01*
X178893511Y-109286813D01*
X178848459Y-109325851D01*
X178769195Y-109366238D01*
X178602576Y-109487293D01*
X178602571Y-109487297D01*
X178456930Y-109632938D01*
X178456926Y-109632943D01*
X178335873Y-109799560D01*
X178242367Y-109983072D01*
X178178719Y-110178958D01*
X178146500Y-110382386D01*
X178146500Y-110524457D01*
X178126815Y-110591496D01*
X178074011Y-110637251D01*
X178004853Y-110647195D01*
X177941297Y-110618170D01*
X177934819Y-110612138D01*
X164544819Y-97222138D01*
X164532385Y-97199368D01*
X164519706Y-97184735D01*
X164517824Y-97176084D01*
X164513523Y-97169392D01*
X164512631Y-97163191D01*
X164511334Y-97160815D01*
X164508500Y-97134457D01*
X164508500Y-96045291D01*
X164508499Y-96045289D01*
X164505148Y-96028443D01*
X164479351Y-95898754D01*
X164477738Y-95894861D01*
X164475458Y-95889356D01*
X164475455Y-95889349D01*
X164422177Y-95760723D01*
X164422176Y-95760722D01*
X164422174Y-95760716D01*
X164339166Y-95636485D01*
X164339164Y-95636482D01*
X164339163Y-95636481D01*
X163384255Y-94681574D01*
X162628714Y-93926033D01*
X162595229Y-93864710D01*
X162593922Y-93818954D01*
X162608500Y-93726914D01*
X162608500Y-93513084D01*
X162592173Y-93410000D01*
X162575049Y-93301884D01*
X162528671Y-93159145D01*
X162508973Y-93098519D01*
X162508972Y-93098516D01*
X162434637Y-92952627D01*
X162411894Y-92907991D01*
X162286206Y-92734996D01*
X162135004Y-92583794D01*
X161962009Y-92458106D01*
X161962005Y-92458103D01*
X161958132Y-92455730D01*
X161911254Y-92403920D01*
X161899829Y-92334991D01*
X161927483Y-92270827D01*
X161958132Y-92244270D01*
X161962005Y-92241896D01*
X161962004Y-92241896D01*
X161962009Y-92241894D01*
X162135004Y-92116206D01*
X162286206Y-91965004D01*
X162411894Y-91792009D01*
X162508972Y-91601483D01*
X162575049Y-91398116D01*
X162608500Y-91186916D01*
X162608500Y-90973084D01*
X162575049Y-90761884D01*
X162508972Y-90558517D01*
X162508972Y-90558516D01*
X162411893Y-90367990D01*
X162387048Y-90333794D01*
X162286206Y-90194996D01*
X162135004Y-90043794D01*
X161962009Y-89918106D01*
X161962005Y-89918103D01*
X161958132Y-89915730D01*
X161911254Y-89863920D01*
X161899829Y-89794991D01*
X161927483Y-89730827D01*
X161958132Y-89704270D01*
X161962005Y-89701896D01*
X161962004Y-89701896D01*
X161962009Y-89701894D01*
X162135004Y-89576206D01*
X162286206Y-89425004D01*
X162411894Y-89252009D01*
X162508972Y-89061483D01*
X162575049Y-88858116D01*
X162608500Y-88646916D01*
X162608500Y-88433084D01*
X162575049Y-88221884D01*
X162508972Y-88018517D01*
X162508972Y-88018516D01*
X162411893Y-87827990D01*
X162399134Y-87810429D01*
X162286206Y-87654996D01*
X162135004Y-87503794D01*
X161962009Y-87378106D01*
X161962005Y-87378103D01*
X161958132Y-87375730D01*
X161911254Y-87323920D01*
X161899829Y-87254991D01*
X161927483Y-87190827D01*
X161958132Y-87164270D01*
X161962005Y-87161896D01*
X161962004Y-87161896D01*
X161962009Y-87161894D01*
X162135004Y-87036206D01*
X162286206Y-86885004D01*
X162411894Y-86712009D01*
X162508972Y-86521483D01*
X162575049Y-86318116D01*
X162594457Y-86195574D01*
X162624386Y-86132441D01*
X162683697Y-86095509D01*
X162753560Y-86096507D01*
X162804611Y-86127292D01*
X169321912Y-92644593D01*
X169380128Y-92702809D01*
X169427562Y-92750243D01*
X169551786Y-92833247D01*
X169551799Y-92833254D01*
X169689826Y-92890426D01*
X169689831Y-92890428D01*
X169689835Y-92890428D01*
X169689836Y-92890429D01*
X169836368Y-92919577D01*
X169836371Y-92919577D01*
X169836372Y-92919577D01*
X169985782Y-92919577D01*
X178165507Y-92919577D01*
X178232546Y-92939262D01*
X178265825Y-92970692D01*
X178296929Y-93013503D01*
X178296934Y-93013509D01*
X178442571Y-93159146D01*
X178442576Y-93159150D01*
X178582366Y-93260712D01*
X178609197Y-93280206D01*
X178697819Y-93325361D01*
X178748615Y-93373336D01*
X178765410Y-93441157D01*
X178742873Y-93507291D01*
X178697820Y-93546330D01*
X178613648Y-93589218D01*
X178613645Y-93589220D01*
X178569077Y-93621600D01*
X178569077Y-93621601D01*
X179248554Y-94301077D01*
X179242339Y-94301077D01*
X179140606Y-94328336D01*
X179049394Y-94380997D01*
X178974920Y-94455471D01*
X178922259Y-94546683D01*
X178895000Y-94648416D01*
X178895000Y-94654630D01*
X178215524Y-93975154D01*
X178215523Y-93975154D01*
X178183143Y-94019721D01*
X178090244Y-94202045D01*
X178027009Y-94396659D01*
X177995000Y-94598759D01*
X177995000Y-94803394D01*
X178027009Y-95005494D01*
X178090244Y-95200108D01*
X178183141Y-95382427D01*
X178183147Y-95382436D01*
X178215523Y-95426998D01*
X178215524Y-95426999D01*
X178895000Y-94747523D01*
X178895000Y-94753738D01*
X178922259Y-94855471D01*
X178974920Y-94946683D01*
X179049394Y-95021157D01*
X179140606Y-95073818D01*
X179242339Y-95101077D01*
X179248553Y-95101077D01*
X178569076Y-95780551D01*
X178613652Y-95812938D01*
X178697818Y-95855822D01*
X178748614Y-95903796D01*
X178765410Y-95971617D01*
X178742873Y-96037752D01*
X178697820Y-96076791D01*
X178609195Y-96121948D01*
X178442576Y-96243003D01*
X178442571Y-96243007D01*
X178296930Y-96388648D01*
X178296926Y-96388653D01*
X178175873Y-96555270D01*
X178082367Y-96738782D01*
X178018719Y-96934668D01*
X177986500Y-97138096D01*
X177986500Y-97344057D01*
X178018719Y-97547485D01*
X178082367Y-97743371D01*
X178175873Y-97926883D01*
X178296926Y-98093500D01*
X178296930Y-98093505D01*
X178442571Y-98239146D01*
X178442576Y-98239150D01*
X178587908Y-98344738D01*
X178609197Y-98360206D01*
X178726128Y-98419786D01*
X178792705Y-98453709D01*
X178792707Y-98453709D01*
X178792710Y-98453711D01*
X178897707Y-98487826D01*
X178988591Y-98517357D01*
X179090305Y-98533467D01*
X179192019Y-98549577D01*
X179192020Y-98549577D01*
X179397980Y-98549577D01*
X179397981Y-98549577D01*
X179601408Y-98517357D01*
X179797290Y-98453711D01*
X179980803Y-98360206D01*
X180147430Y-98239145D01*
X180293068Y-98093507D01*
X180414129Y-97926880D01*
X180507634Y-97743367D01*
X180571280Y-97547485D01*
X180603500Y-97344058D01*
X180603500Y-97138096D01*
X180571280Y-96934669D01*
X180507634Y-96738787D01*
X180507632Y-96738784D01*
X180507632Y-96738782D01*
X180473709Y-96672205D01*
X180414129Y-96555274D01*
X180363467Y-96485543D01*
X180293073Y-96388653D01*
X180293069Y-96388648D01*
X180147428Y-96243007D01*
X180147423Y-96243003D01*
X179980806Y-96121950D01*
X179980805Y-96121949D01*
X179980803Y-96121948D01*
X179892180Y-96076792D01*
X179841384Y-96028817D01*
X179824589Y-95960996D01*
X179847127Y-95894861D01*
X179892181Y-95855822D01*
X179976346Y-95812938D01*
X179976347Y-95812938D01*
X180020921Y-95780551D01*
X179341447Y-95101077D01*
X179347661Y-95101077D01*
X179449394Y-95073818D01*
X179540606Y-95021157D01*
X179615080Y-94946683D01*
X179667741Y-94855471D01*
X179695000Y-94753738D01*
X179695000Y-94747524D01*
X180374474Y-95426998D01*
X180406859Y-95382426D01*
X180499755Y-95200108D01*
X180562990Y-95005494D01*
X180595000Y-94803394D01*
X180595000Y-94598759D01*
X180562990Y-94396659D01*
X180499755Y-94202045D01*
X180406859Y-94019727D01*
X180374474Y-93975154D01*
X180374474Y-93975153D01*
X179695000Y-94654628D01*
X179695000Y-94648416D01*
X179667741Y-94546683D01*
X179615080Y-94455471D01*
X179540606Y-94380997D01*
X179449394Y-94328336D01*
X179347661Y-94301077D01*
X179341446Y-94301077D01*
X180020922Y-93621601D01*
X180020921Y-93621600D01*
X179976359Y-93589224D01*
X179976350Y-93589218D01*
X179892180Y-93546331D01*
X179841384Y-93498356D01*
X179824589Y-93430535D01*
X179847127Y-93364400D01*
X179892179Y-93325361D01*
X179980803Y-93280206D01*
X180147430Y-93159145D01*
X180293068Y-93013507D01*
X180414129Y-92846880D01*
X180507634Y-92663367D01*
X180571280Y-92467485D01*
X180603500Y-92264058D01*
X180603500Y-92058096D01*
X180571280Y-91854669D01*
X180507634Y-91658787D01*
X180507632Y-91658784D01*
X180507632Y-91658782D01*
X180473709Y-91592205D01*
X180414129Y-91475274D01*
X180361312Y-91402577D01*
X180293073Y-91308653D01*
X180293069Y-91308648D01*
X180147428Y-91163007D01*
X180147423Y-91163003D01*
X179980806Y-91041950D01*
X179980805Y-91041949D01*
X179980803Y-91041948D01*
X179901540Y-91001561D01*
X179850745Y-90953587D01*
X179833950Y-90885766D01*
X179856487Y-90819631D01*
X179901541Y-90780592D01*
X179980803Y-90740206D01*
X180147430Y-90619145D01*
X180293068Y-90473507D01*
X180414129Y-90306880D01*
X180507634Y-90123367D01*
X180571280Y-89927485D01*
X180603500Y-89724058D01*
X180603500Y-89518096D01*
X180571280Y-89314669D01*
X180507634Y-89118787D01*
X180507632Y-89118784D01*
X180507632Y-89118782D01*
X180473709Y-89052205D01*
X180414129Y-88935274D01*
X180381946Y-88890978D01*
X180293073Y-88768653D01*
X180293069Y-88768648D01*
X180147428Y-88623007D01*
X180147423Y-88623003D01*
X179980806Y-88501950D01*
X179980805Y-88501949D01*
X179980803Y-88501948D01*
X179901540Y-88461561D01*
X179850745Y-88413587D01*
X179833950Y-88345766D01*
X179856487Y-88279631D01*
X179901541Y-88240592D01*
X179980803Y-88200206D01*
X180147430Y-88079145D01*
X180293068Y-87933507D01*
X180414129Y-87766880D01*
X180507634Y-87583367D01*
X180571280Y-87387485D01*
X180603500Y-87184058D01*
X180603500Y-86978096D01*
X180571280Y-86774669D01*
X180507634Y-86578787D01*
X180507632Y-86578784D01*
X180507632Y-86578782D01*
X180461862Y-86488955D01*
X180414129Y-86395274D01*
X180361312Y-86322577D01*
X180293073Y-86228653D01*
X180293069Y-86228648D01*
X180147428Y-86083007D01*
X180147423Y-86083003D01*
X179980806Y-85961950D01*
X179980805Y-85961949D01*
X179980803Y-85961948D01*
X179901540Y-85921561D01*
X179850745Y-85873587D01*
X179833950Y-85805766D01*
X179856487Y-85739631D01*
X179901541Y-85700592D01*
X179980803Y-85660206D01*
X180147430Y-85539145D01*
X180293068Y-85393507D01*
X180414129Y-85226880D01*
X180507634Y-85043367D01*
X180571280Y-84847485D01*
X180603500Y-84644058D01*
X180603500Y-84438096D01*
X180571280Y-84234669D01*
X180507634Y-84038787D01*
X180507632Y-84038784D01*
X180507632Y-84038782D01*
X180473709Y-83972205D01*
X180414129Y-83855274D01*
X180374379Y-83800563D01*
X180293073Y-83688653D01*
X180293069Y-83688648D01*
X180147428Y-83543007D01*
X180147423Y-83543003D01*
X179980806Y-83421950D01*
X179980805Y-83421949D01*
X179980803Y-83421948D01*
X179901540Y-83381561D01*
X179850745Y-83333587D01*
X179833950Y-83265766D01*
X179856487Y-83199631D01*
X179901541Y-83160592D01*
X179980803Y-83120206D01*
X180147430Y-82999145D01*
X180293068Y-82853507D01*
X180414129Y-82686880D01*
X180507634Y-82503367D01*
X180571280Y-82307485D01*
X180603500Y-82104058D01*
X180603500Y-81898096D01*
X180571280Y-81694669D01*
X180507634Y-81498787D01*
X180507632Y-81498784D01*
X180507632Y-81498782D01*
X180473709Y-81432205D01*
X180414129Y-81315274D01*
X180398661Y-81293985D01*
X180293073Y-81148653D01*
X180293069Y-81148648D01*
X180147428Y-81003007D01*
X180147423Y-81003003D01*
X179980806Y-80881950D01*
X179980805Y-80881949D01*
X179980803Y-80881948D01*
X179923496Y-80852748D01*
X179797294Y-80788444D01*
X179601408Y-80724796D01*
X179425794Y-80696982D01*
X179397981Y-80692577D01*
X179192019Y-80692577D01*
X179167550Y-80696452D01*
X178988591Y-80724796D01*
X178792705Y-80788444D01*
X178609193Y-80881950D01*
X178442576Y-81003003D01*
X178442571Y-81003007D01*
X178296930Y-81148648D01*
X178296926Y-81148653D01*
X178175873Y-81315270D01*
X178082367Y-81498782D01*
X178018719Y-81694668D01*
X177986500Y-81898096D01*
X177986500Y-82104057D01*
X178018719Y-82307485D01*
X178082367Y-82503371D01*
X178175873Y-82686883D01*
X178296926Y-82853500D01*
X178296930Y-82853505D01*
X178442571Y-82999146D01*
X178442576Y-82999150D01*
X178609195Y-83120205D01*
X178688459Y-83160593D01*
X178739254Y-83208567D01*
X178756049Y-83276388D01*
X178733511Y-83342523D01*
X178688459Y-83381561D01*
X178609195Y-83421948D01*
X178442576Y-83543003D01*
X178442571Y-83543007D01*
X178296930Y-83688648D01*
X178296926Y-83688653D01*
X178175873Y-83855270D01*
X178082367Y-84038782D01*
X178018719Y-84234668D01*
X177986500Y-84438096D01*
X177986500Y-84644057D01*
X178018719Y-84847485D01*
X178082367Y-85043371D01*
X178175873Y-85226883D01*
X178296926Y-85393500D01*
X178296930Y-85393505D01*
X178442571Y-85539146D01*
X178442576Y-85539150D01*
X178609195Y-85660205D01*
X178688459Y-85700593D01*
X178739254Y-85748567D01*
X178756049Y-85816388D01*
X178733511Y-85882523D01*
X178688459Y-85921561D01*
X178609195Y-85961948D01*
X178442576Y-86083003D01*
X178442571Y-86083007D01*
X178296934Y-86228644D01*
X178296929Y-86228650D01*
X178265825Y-86271462D01*
X178261493Y-86274802D01*
X178259220Y-86279780D01*
X178234117Y-86295912D01*
X178210495Y-86314128D01*
X178203823Y-86315380D01*
X178200442Y-86317554D01*
X178165507Y-86322577D01*
X177946620Y-86322577D01*
X177879581Y-86302892D01*
X177858939Y-86286258D01*
X162644819Y-71072138D01*
X162611334Y-71010815D01*
X162608500Y-70984457D01*
X162608500Y-70660516D01*
X167341500Y-70660516D01*
X167341500Y-70839483D01*
X167376411Y-71014992D01*
X167376413Y-71015000D01*
X167444896Y-71180332D01*
X167444901Y-71180342D01*
X167544321Y-71329134D01*
X167544324Y-71329138D01*
X167670861Y-71455675D01*
X167670865Y-71455678D01*
X167819657Y-71555098D01*
X167819661Y-71555100D01*
X167819664Y-71555102D01*
X167985000Y-71623587D01*
X168160516Y-71658499D01*
X168160520Y-71658500D01*
X168160521Y-71658500D01*
X168339480Y-71658500D01*
X168339481Y-71658499D01*
X168515000Y-71623587D01*
X168680336Y-71555102D01*
X168718805Y-71529397D01*
X168785482Y-71508520D01*
X168787696Y-71508500D01*
X172462304Y-71508500D01*
X172529343Y-71528185D01*
X172531153Y-71529370D01*
X172569664Y-71555102D01*
X172735000Y-71623587D01*
X172910516Y-71658499D01*
X172910520Y-71658500D01*
X172910521Y-71658500D01*
X173089480Y-71658500D01*
X173089481Y-71658499D01*
X173265000Y-71623587D01*
X173430336Y-71555102D01*
X173579135Y-71455678D01*
X173705678Y-71329135D01*
X173805102Y-71180336D01*
X173873587Y-71015000D01*
X173908500Y-70839479D01*
X173908500Y-70660521D01*
X173873587Y-70485000D01*
X173805102Y-70319664D01*
X173805100Y-70319661D01*
X173805098Y-70319657D01*
X173705678Y-70170865D01*
X173705675Y-70170861D01*
X173579138Y-70044324D01*
X173579134Y-70044321D01*
X173430342Y-69944901D01*
X173430332Y-69944896D01*
X173265000Y-69876413D01*
X173264992Y-69876411D01*
X173089483Y-69841500D01*
X173089479Y-69841500D01*
X172910521Y-69841500D01*
X172910516Y-69841500D01*
X172735007Y-69876411D01*
X172734999Y-69876413D01*
X172569667Y-69944896D01*
X172569663Y-69944898D01*
X172548901Y-69958770D01*
X172531194Y-69970602D01*
X172464518Y-69991480D01*
X172462304Y-69991500D01*
X168787696Y-69991500D01*
X168720657Y-69971815D01*
X168718846Y-69970629D01*
X168680336Y-69944898D01*
X168680332Y-69944896D01*
X168515000Y-69876413D01*
X168514992Y-69876411D01*
X168339483Y-69841500D01*
X168339479Y-69841500D01*
X168160521Y-69841500D01*
X168160516Y-69841500D01*
X167985007Y-69876411D01*
X167984999Y-69876413D01*
X167819667Y-69944896D01*
X167819657Y-69944901D01*
X167670865Y-70044321D01*
X167670861Y-70044324D01*
X167544324Y-70170861D01*
X167544321Y-70170865D01*
X167444901Y-70319657D01*
X167444896Y-70319667D01*
X167376413Y-70484999D01*
X167376411Y-70485007D01*
X167341500Y-70660516D01*
X162608500Y-70660516D01*
X162608500Y-69861362D01*
X162608499Y-69861345D01*
X162605157Y-69830270D01*
X162601989Y-69800799D01*
X162550889Y-69663796D01*
X162463261Y-69546739D01*
X162346204Y-69459111D01*
X162209203Y-69408011D01*
X162148654Y-69401500D01*
X162148638Y-69401500D01*
X160351362Y-69401500D01*
X160351345Y-69401500D01*
X160290797Y-69408011D01*
X160290795Y-69408011D01*
X160153795Y-69459111D01*
X160036739Y-69546739D01*
X159949111Y-69663795D01*
X159898011Y-69800795D01*
X159898011Y-69800797D01*
X159891500Y-69861345D01*
X159891500Y-71658654D01*
X159898011Y-71719202D01*
X159898011Y-71719204D01*
X159949111Y-71856204D01*
X160036739Y-71973261D01*
X160153796Y-72060889D01*
X160274626Y-72105956D01*
X160330557Y-72147827D01*
X160354974Y-72213291D01*
X160340122Y-72281564D01*
X160318972Y-72309818D01*
X160213793Y-72414997D01*
X160088106Y-72587990D01*
X159991027Y-72778516D01*
X159991026Y-72778519D01*
X159924951Y-72981882D01*
X159891500Y-73193084D01*
X159891500Y-73406915D01*
X159924951Y-73618117D01*
X159991026Y-73821480D01*
X159991027Y-73821483D01*
X160068057Y-73972661D01*
X160088106Y-74012009D01*
X160213794Y-74185004D01*
X160364996Y-74336206D01*
X160528257Y-74454822D01*
X160537991Y-74461894D01*
X160541873Y-74464273D01*
X160588748Y-74516086D01*
X160600169Y-74585016D01*
X160572512Y-74649178D01*
X160541873Y-74675727D01*
X160537991Y-74678105D01*
X160364993Y-74803796D01*
X160213796Y-74954993D01*
X160088106Y-75127990D01*
X159991027Y-75318516D01*
X159991026Y-75318519D01*
X159924951Y-75521882D01*
X159891500Y-75733084D01*
X159891500Y-75946915D01*
X159924951Y-76158117D01*
X159991026Y-76361480D01*
X159991027Y-76361483D01*
X160088106Y-76552009D01*
X160213794Y-76725004D01*
X160364996Y-76876206D01*
X160537991Y-77001894D01*
X160542680Y-77004283D01*
X160593478Y-77052254D01*
X160610276Y-77120074D01*
X160587742Y-77186210D01*
X160546205Y-77222209D01*
X160546590Y-77222838D01*
X160542804Y-77225157D01*
X160542702Y-77225246D01*
X160542449Y-77225374D01*
X160542440Y-77225380D01*
X160488282Y-77264727D01*
X160488282Y-77264728D01*
X161120591Y-77897037D01*
X161057007Y-77914075D01*
X160942993Y-77979901D01*
X160849901Y-78072993D01*
X160784075Y-78187007D01*
X160767037Y-78250591D01*
X160134728Y-77618282D01*
X160134727Y-77618282D01*
X160095380Y-77672439D01*
X159998904Y-77861782D01*
X159933242Y-78063869D01*
X159933242Y-78063872D01*
X159900000Y-78273753D01*
X159900000Y-78486246D01*
X159933242Y-78696127D01*
X159933242Y-78696130D01*
X159998904Y-78898217D01*
X160095375Y-79087550D01*
X160134728Y-79141716D01*
X160767037Y-78509408D01*
X160784075Y-78572993D01*
X160849901Y-78687007D01*
X160942993Y-78780099D01*
X161057007Y-78845925D01*
X161120590Y-78862962D01*
X160488282Y-79495269D01*
X160488282Y-79495270D01*
X160542449Y-79534624D01*
X160542682Y-79534743D01*
X160542755Y-79534812D01*
X160546604Y-79537171D01*
X160546108Y-79537979D01*
X160593479Y-79582716D01*
X160610275Y-79650537D01*
X160587739Y-79716672D01*
X160542693Y-79755709D01*
X160537994Y-79758103D01*
X160364993Y-79883796D01*
X160213796Y-80034993D01*
X160088106Y-80207990D01*
X159991027Y-80398516D01*
X159991026Y-80398519D01*
X159924951Y-80601882D01*
X159891500Y-80813084D01*
X159891500Y-81026915D01*
X159924951Y-81238117D01*
X159991026Y-81441480D01*
X159991027Y-81441483D01*
X160035170Y-81528117D01*
X160088106Y-81632009D01*
X160213794Y-81805004D01*
X160364996Y-81956206D01*
X160537991Y-82081894D01*
X160541873Y-82084273D01*
X160588748Y-82136086D01*
X160600169Y-82205016D01*
X160572512Y-82269178D01*
X160541873Y-82295727D01*
X160537991Y-82298105D01*
X160364993Y-82423796D01*
X160213796Y-82574993D01*
X160088106Y-82747990D01*
X159991027Y-82938516D01*
X159991026Y-82938519D01*
X159924951Y-83141882D01*
X159891500Y-83353084D01*
X159891500Y-83566915D01*
X159924951Y-83778117D01*
X159991026Y-83981480D01*
X159991027Y-83981483D01*
X160035170Y-84068117D01*
X160088106Y-84172009D01*
X160213794Y-84345004D01*
X160364996Y-84496206D01*
X160537991Y-84621894D01*
X160541873Y-84624273D01*
X160588748Y-84676086D01*
X160600169Y-84745016D01*
X160572512Y-84809178D01*
X160541873Y-84835727D01*
X160537991Y-84838105D01*
X160364993Y-84963796D01*
X160213796Y-85114993D01*
X160088106Y-85287990D01*
X159991027Y-85478516D01*
X159991026Y-85478519D01*
X159924951Y-85681882D01*
X159891500Y-85893084D01*
X159891500Y-86106915D01*
X159924951Y-86318117D01*
X159991026Y-86521480D01*
X159991027Y-86521483D01*
X160035170Y-86608117D01*
X160088106Y-86712009D01*
X160213794Y-86885004D01*
X160364996Y-87036206D01*
X160537991Y-87161894D01*
X160541873Y-87164273D01*
X160588748Y-87216086D01*
X160600169Y-87285016D01*
X160572512Y-87349178D01*
X160541873Y-87375727D01*
X160537991Y-87378105D01*
X160364993Y-87503796D01*
X160213796Y-87654993D01*
X160088106Y-87827990D01*
X159991027Y-88018516D01*
X159991026Y-88018519D01*
X159924951Y-88221882D01*
X159891500Y-88433084D01*
X159891500Y-88646915D01*
X159924951Y-88858117D01*
X159991026Y-89061480D01*
X159991027Y-89061483D01*
X160035170Y-89148117D01*
X160088106Y-89252009D01*
X160213794Y-89425004D01*
X160364996Y-89576206D01*
X160537991Y-89701894D01*
X160541873Y-89704273D01*
X160588748Y-89756086D01*
X160600169Y-89825016D01*
X160572512Y-89889178D01*
X160541873Y-89915727D01*
X160537991Y-89918105D01*
X160364993Y-90043796D01*
X160213796Y-90194993D01*
X160088106Y-90367990D01*
X159991027Y-90558516D01*
X159991026Y-90558519D01*
X159924951Y-90761882D01*
X159891500Y-90973084D01*
X159891500Y-91186915D01*
X159924951Y-91398117D01*
X159991026Y-91601480D01*
X159991027Y-91601483D01*
X160035170Y-91688117D01*
X160088106Y-91792009D01*
X160213794Y-91965004D01*
X160364996Y-92116206D01*
X160537991Y-92241894D01*
X160541873Y-92244273D01*
X160588748Y-92296086D01*
X160600169Y-92365016D01*
X160572512Y-92429178D01*
X160541873Y-92455727D01*
X160537991Y-92458105D01*
X160364993Y-92583796D01*
X160213796Y-92734993D01*
X160088106Y-92907990D01*
X159991027Y-93098516D01*
X159991026Y-93098519D01*
X159924951Y-93301882D01*
X159891500Y-93513084D01*
X159891500Y-93726915D01*
X159924951Y-93938117D01*
X159991026Y-94141480D01*
X159991027Y-94141483D01*
X160086481Y-94328819D01*
X160088106Y-94332009D01*
X160213794Y-94505004D01*
X160364996Y-94656206D01*
X160499238Y-94753738D01*
X160537991Y-94781894D01*
X160541873Y-94784273D01*
X160588748Y-94836086D01*
X160600169Y-94905016D01*
X160572512Y-94969178D01*
X160541873Y-94995727D01*
X160537991Y-94998105D01*
X160364993Y-95123796D01*
X160213796Y-95274993D01*
X160088106Y-95447990D01*
X159991027Y-95638516D01*
X159991026Y-95638519D01*
X159924951Y-95841882D01*
X159906085Y-95960996D01*
X159891500Y-96053084D01*
X159891500Y-96266916D01*
X159900073Y-96321045D01*
X159924951Y-96478117D01*
X159991026Y-96681480D01*
X159991027Y-96681483D01*
X160088106Y-96872009D01*
X160213794Y-97045004D01*
X160364996Y-97196206D01*
X160537991Y-97321894D01*
X160541873Y-97324273D01*
X160588748Y-97376086D01*
X160600169Y-97445016D01*
X160572512Y-97509178D01*
X160541873Y-97535727D01*
X160537991Y-97538105D01*
X160364993Y-97663796D01*
X160213796Y-97814993D01*
X160088106Y-97987990D01*
X159991027Y-98178516D01*
X159991026Y-98178519D01*
X159924951Y-98381882D01*
X159891500Y-98593084D01*
X159891500Y-98806915D01*
X159924951Y-99018117D01*
X159991026Y-99221480D01*
X159991027Y-99221483D01*
X160088106Y-99412009D01*
X160213794Y-99585004D01*
X160364996Y-99736206D01*
X160537991Y-99861894D01*
X160541873Y-99864273D01*
X160588748Y-99916086D01*
X160600169Y-99985016D01*
X160572512Y-100049178D01*
X160541873Y-100075727D01*
X160537991Y-100078105D01*
X160364993Y-100203796D01*
X160213796Y-100354993D01*
X160088106Y-100527990D01*
X159991027Y-100718516D01*
X159991026Y-100718519D01*
X159924951Y-100921882D01*
X159891500Y-101133084D01*
X159891500Y-101346915D01*
X159924951Y-101558117D01*
X159991026Y-101761480D01*
X159991027Y-101761483D01*
X160044941Y-101867293D01*
X160088106Y-101952009D01*
X160213794Y-102125004D01*
X160364996Y-102276206D01*
X160484557Y-102363072D01*
X160537991Y-102401894D01*
X160541873Y-102404273D01*
X160588748Y-102456086D01*
X160600169Y-102525016D01*
X160572512Y-102589178D01*
X160541873Y-102615727D01*
X160537991Y-102618105D01*
X160364993Y-102743796D01*
X160213796Y-102894993D01*
X160088106Y-103067990D01*
X159991027Y-103258516D01*
X159991026Y-103258519D01*
X159924951Y-103461882D01*
X159891500Y-103673084D01*
X159891500Y-103886920D01*
X159906077Y-103978952D01*
X159897123Y-104048246D01*
X159871285Y-104086032D01*
X154002138Y-109955181D01*
X153940815Y-109988666D01*
X153914457Y-109991500D01*
X145865543Y-109991500D01*
X145798504Y-109971815D01*
X145777862Y-109955181D01*
X144044819Y-108222138D01*
X144011334Y-108160815D01*
X144008500Y-108134457D01*
X144008500Y-93545291D01*
X143979352Y-93398759D01*
X143979351Y-93398758D01*
X143979351Y-93398754D01*
X143949145Y-93325831D01*
X143948950Y-93325361D01*
X143922177Y-93260723D01*
X143922176Y-93260722D01*
X143922174Y-93260716D01*
X143839166Y-93136485D01*
X143839164Y-93136482D01*
X143839163Y-93136481D01*
X134758714Y-84056033D01*
X134725229Y-83994710D01*
X134723922Y-83948954D01*
X134738500Y-83856914D01*
X134738500Y-83643084D01*
X134726436Y-83566915D01*
X134705049Y-83431884D01*
X134654526Y-83276388D01*
X134638973Y-83228519D01*
X134638972Y-83228516D01*
X134541893Y-83037990D01*
X134513674Y-82999150D01*
X134416206Y-82864996D01*
X134265004Y-82713794D01*
X134092009Y-82588106D01*
X134092005Y-82588103D01*
X134088132Y-82585730D01*
X134041254Y-82533920D01*
X134029829Y-82464991D01*
X134057483Y-82400827D01*
X134088132Y-82374270D01*
X134092005Y-82371896D01*
X134092004Y-82371896D01*
X134092009Y-82371894D01*
X134265004Y-82246206D01*
X134416206Y-82095004D01*
X134541894Y-81922009D01*
X134638972Y-81731483D01*
X134705049Y-81528116D01*
X134738500Y-81316916D01*
X134738500Y-81103084D01*
X134705049Y-80891884D01*
X134638972Y-80688517D01*
X134638972Y-80688516D01*
X134541893Y-80497990D01*
X134469623Y-80398519D01*
X134416206Y-80324996D01*
X134265004Y-80173794D01*
X134092009Y-80048106D01*
X134066279Y-80034996D01*
X133901483Y-79951027D01*
X133901480Y-79951026D01*
X133698117Y-79884951D01*
X133592516Y-79868225D01*
X133486916Y-79851500D01*
X133273084Y-79851500D01*
X133202684Y-79862650D01*
X133061882Y-79884951D01*
X132858519Y-79951026D01*
X132858516Y-79951027D01*
X132667990Y-80048106D01*
X132494993Y-80173796D01*
X132343796Y-80324993D01*
X132218106Y-80497990D01*
X132121027Y-80688516D01*
X132121026Y-80688519D01*
X132054951Y-80891882D01*
X132021500Y-81103084D01*
X132021500Y-81316915D01*
X132054951Y-81528117D01*
X132121026Y-81731480D01*
X132121027Y-81731483D01*
X132205922Y-81898096D01*
X132218106Y-81922009D01*
X132343794Y-82095004D01*
X132494996Y-82246206D01*
X132667991Y-82371894D01*
X132671873Y-82374273D01*
X132718748Y-82426086D01*
X132730169Y-82495016D01*
X132702512Y-82559178D01*
X132671873Y-82585727D01*
X132667991Y-82588105D01*
X132494993Y-82713796D01*
X132343796Y-82864993D01*
X132218106Y-83037990D01*
X132121027Y-83228516D01*
X132121026Y-83228519D01*
X132054951Y-83431882D01*
X132021500Y-83643084D01*
X132021500Y-83856915D01*
X132054951Y-84068117D01*
X132121026Y-84271480D01*
X132121027Y-84271483D01*
X132205922Y-84438096D01*
X132218106Y-84462009D01*
X132343794Y-84635004D01*
X132494996Y-84786206D01*
X132667991Y-84911894D01*
X132671873Y-84914273D01*
X132718748Y-84966086D01*
X132730169Y-85035016D01*
X132702512Y-85099178D01*
X132671873Y-85125727D01*
X132667991Y-85128105D01*
X132494993Y-85253796D01*
X132343796Y-85404993D01*
X132218106Y-85577990D01*
X132121027Y-85768516D01*
X132121026Y-85768519D01*
X132054951Y-85971882D01*
X132021500Y-86183084D01*
X132021500Y-86396915D01*
X132054951Y-86608117D01*
X132121026Y-86811480D01*
X132121027Y-86811483D01*
X132205922Y-86978096D01*
X132218106Y-87002009D01*
X132343794Y-87175004D01*
X132494996Y-87326206D01*
X132667991Y-87451894D01*
X132671873Y-87454273D01*
X132718748Y-87506086D01*
X132730169Y-87575016D01*
X132702512Y-87639178D01*
X132671873Y-87665727D01*
X132667991Y-87668105D01*
X132494993Y-87793796D01*
X132343796Y-87944993D01*
X132218106Y-88117990D01*
X132121027Y-88308516D01*
X132121026Y-88308519D01*
X132054951Y-88511882D01*
X132021500Y-88723084D01*
X132021500Y-88936915D01*
X132054951Y-89148117D01*
X132121026Y-89351480D01*
X132121027Y-89351483D01*
X132205922Y-89518096D01*
X132218106Y-89542009D01*
X132343794Y-89715004D01*
X132494996Y-89866206D01*
X132667991Y-89991894D01*
X132671873Y-89994273D01*
X132718748Y-90046086D01*
X132730169Y-90115016D01*
X132702512Y-90179178D01*
X132671873Y-90205727D01*
X132667991Y-90208105D01*
X132494993Y-90333796D01*
X132343796Y-90484993D01*
X132218106Y-90657990D01*
X132121027Y-90848516D01*
X132121026Y-90848519D01*
X132054951Y-91051882D01*
X132021500Y-91263084D01*
X132021500Y-91476915D01*
X132054951Y-91688117D01*
X132121026Y-91891480D01*
X132121027Y-91891483D01*
X132205922Y-92058096D01*
X132218106Y-92082009D01*
X132343794Y-92255004D01*
X132343796Y-92255006D01*
X132455578Y-92366788D01*
X132489063Y-92428111D01*
X132484079Y-92497803D01*
X132442207Y-92553736D01*
X132411230Y-92570651D01*
X132287913Y-92616645D01*
X132287906Y-92616649D01*
X132172812Y-92702809D01*
X132172809Y-92702812D01*
X132086649Y-92817906D01*
X132086645Y-92817913D01*
X132036403Y-92952620D01*
X132036401Y-92952627D01*
X132030000Y-93012155D01*
X132030000Y-93660000D01*
X132946988Y-93660000D01*
X132914075Y-93717007D01*
X132880000Y-93844174D01*
X132880000Y-93975826D01*
X132914075Y-94102993D01*
X132946988Y-94160000D01*
X132030000Y-94160000D01*
X132030000Y-94807844D01*
X132036401Y-94867372D01*
X132036403Y-94867379D01*
X132086645Y-95002086D01*
X132086649Y-95002093D01*
X132172809Y-95117187D01*
X132172812Y-95117190D01*
X132287906Y-95203350D01*
X132287913Y-95203354D01*
X132422620Y-95253596D01*
X132422627Y-95253598D01*
X132482155Y-95259999D01*
X132482172Y-95260000D01*
X133130000Y-95260000D01*
X133130000Y-94343012D01*
X133187007Y-94375925D01*
X133314174Y-94410000D01*
X133445826Y-94410000D01*
X133572993Y-94375925D01*
X133630000Y-94343012D01*
X133630000Y-95260000D01*
X134277828Y-95260000D01*
X134277844Y-95259999D01*
X134337372Y-95253598D01*
X134337379Y-95253596D01*
X134472086Y-95203354D01*
X134472093Y-95203350D01*
X134587187Y-95117190D01*
X134587190Y-95117187D01*
X134673350Y-95002093D01*
X134673354Y-95002086D01*
X134723596Y-94867379D01*
X134723598Y-94867372D01*
X134729999Y-94807844D01*
X134730000Y-94807827D01*
X134730000Y-94160000D01*
X133813012Y-94160000D01*
X133845925Y-94102993D01*
X133880000Y-93975826D01*
X133880000Y-93844174D01*
X133845925Y-93717007D01*
X133813012Y-93660000D01*
X134730000Y-93660000D01*
X134730000Y-93012172D01*
X134729999Y-93012155D01*
X134723598Y-92952627D01*
X134723596Y-92952620D01*
X134673354Y-92817913D01*
X134673350Y-92817906D01*
X134587190Y-92702812D01*
X134587187Y-92702809D01*
X134472093Y-92616649D01*
X134472086Y-92616645D01*
X134348769Y-92570651D01*
X134292835Y-92528780D01*
X134268418Y-92463315D01*
X134283270Y-92395042D01*
X134304415Y-92366794D01*
X134416206Y-92255004D01*
X134541894Y-92082009D01*
X134638972Y-91891483D01*
X134705049Y-91688116D01*
X134738500Y-91476916D01*
X134738500Y-91263084D01*
X134705049Y-91051884D01*
X134654526Y-90896388D01*
X134638973Y-90848519D01*
X134638972Y-90848516D01*
X134541893Y-90657990D01*
X134513674Y-90619150D01*
X134416206Y-90484996D01*
X134265004Y-90333794D01*
X134092009Y-90208106D01*
X134092005Y-90208103D01*
X134088132Y-90205730D01*
X134041254Y-90153920D01*
X134029829Y-90084991D01*
X134057483Y-90020827D01*
X134088132Y-89994270D01*
X134092005Y-89991896D01*
X134092004Y-89991896D01*
X134092009Y-89991894D01*
X134265004Y-89866206D01*
X134416206Y-89715004D01*
X134541894Y-89542009D01*
X134638972Y-89351483D01*
X134705049Y-89148116D01*
X134729927Y-88991042D01*
X134759855Y-88927910D01*
X134819166Y-88890978D01*
X134889029Y-88891976D01*
X134940080Y-88922761D01*
X141455181Y-95437862D01*
X141488666Y-95499185D01*
X141491500Y-95525543D01*
X141491500Y-108988923D01*
X141520647Y-109135453D01*
X141520649Y-109135461D01*
X141577825Y-109273496D01*
X141660835Y-109397731D01*
X144602267Y-112339163D01*
X144602271Y-112339166D01*
X144726494Y-112422170D01*
X144726507Y-112422177D01*
X144809323Y-112456480D01*
X144864539Y-112479351D01*
X144897039Y-112485815D01*
X144937756Y-112493915D01*
X144937783Y-112493919D01*
X144937810Y-112493925D01*
X145011080Y-112508500D01*
X155894706Y-112508500D01*
X155967976Y-112493925D01*
X155967977Y-112493925D01*
X155986419Y-112490256D01*
X156041247Y-112479351D01*
X156179284Y-112422174D01*
X156303515Y-112339166D01*
X160943968Y-107698711D01*
X161005289Y-107665228D01*
X161051039Y-107663921D01*
X161143084Y-107678500D01*
X161143086Y-107678500D01*
X161356915Y-107678500D01*
X161356916Y-107678500D01*
X161568116Y-107645049D01*
X161771483Y-107578972D01*
X161962009Y-107481894D01*
X162135004Y-107356206D01*
X162286206Y-107205004D01*
X162411894Y-107032009D01*
X162508972Y-106841483D01*
X162575049Y-106638116D01*
X162608500Y-106426916D01*
X162608500Y-106213084D01*
X162575049Y-106001884D01*
X162508972Y-105798517D01*
X162508972Y-105798516D01*
X162411893Y-105607990D01*
X162387793Y-105574819D01*
X162286206Y-105434996D01*
X162135004Y-105283794D01*
X161962009Y-105158106D01*
X161962005Y-105158103D01*
X161958132Y-105155730D01*
X161911254Y-105103920D01*
X161899829Y-105034991D01*
X161927483Y-104970827D01*
X161958132Y-104944270D01*
X161962005Y-104941896D01*
X161962004Y-104941896D01*
X161962009Y-104941894D01*
X162135004Y-104816206D01*
X162286206Y-104665004D01*
X162411894Y-104492009D01*
X162508972Y-104301483D01*
X162575049Y-104098116D01*
X162608500Y-103886916D01*
X162608500Y-103673084D01*
X162575049Y-103461884D01*
X162508972Y-103258517D01*
X162508972Y-103258516D01*
X162411893Y-103067990D01*
X162387793Y-103034819D01*
X162286206Y-102894996D01*
X162135004Y-102743794D01*
X161962009Y-102618106D01*
X161962005Y-102618103D01*
X161958132Y-102615730D01*
X161911254Y-102563920D01*
X161899829Y-102494991D01*
X161927483Y-102430827D01*
X161958132Y-102404270D01*
X161962005Y-102401896D01*
X161962004Y-102401896D01*
X161962009Y-102401894D01*
X162135004Y-102276206D01*
X162286206Y-102125004D01*
X162411894Y-101952009D01*
X162508972Y-101761483D01*
X162575049Y-101558116D01*
X162608500Y-101346916D01*
X162608500Y-101133084D01*
X162575049Y-100921884D01*
X162508972Y-100718517D01*
X162508972Y-100718516D01*
X162411893Y-100527990D01*
X162286206Y-100354996D01*
X162135004Y-100203794D01*
X161962009Y-100078106D01*
X161962005Y-100078103D01*
X161958132Y-100075730D01*
X161911254Y-100023920D01*
X161899829Y-99954991D01*
X161927483Y-99890827D01*
X161958132Y-99864270D01*
X161962005Y-99861896D01*
X161962004Y-99861896D01*
X161962009Y-99861894D01*
X162135004Y-99736206D01*
X162286206Y-99585004D01*
X162411894Y-99412009D01*
X162508972Y-99221483D01*
X162575049Y-99018116D01*
X162608500Y-98806916D01*
X162608500Y-98593084D01*
X162575049Y-98381884D01*
X162508972Y-98178517D01*
X162508972Y-98178516D01*
X162411893Y-97987990D01*
X162408642Y-97983515D01*
X162286206Y-97814996D01*
X162135004Y-97663794D01*
X161962009Y-97538106D01*
X161962005Y-97538103D01*
X161958132Y-97535730D01*
X161911254Y-97483920D01*
X161899829Y-97414991D01*
X161927483Y-97350827D01*
X161958132Y-97324270D01*
X161962005Y-97321896D01*
X161962004Y-97321896D01*
X161962009Y-97321894D01*
X162135004Y-97196206D01*
X162286206Y-97045004D01*
X162411894Y-96872009D01*
X162508972Y-96681483D01*
X162575049Y-96478116D01*
X162599927Y-96321042D01*
X162605318Y-96309669D01*
X162606217Y-96297108D01*
X162620003Y-96278692D01*
X162629855Y-96257910D01*
X162640543Y-96251254D01*
X162648089Y-96241175D01*
X162669638Y-96233137D01*
X162689166Y-96220978D01*
X162701756Y-96221157D01*
X162713553Y-96216758D01*
X162736029Y-96221647D01*
X162759029Y-96221976D01*
X162771155Y-96229288D01*
X162781826Y-96231610D01*
X162810080Y-96252761D01*
X162955181Y-96397862D01*
X162988666Y-96459185D01*
X162991500Y-96485543D01*
X162991500Y-97574709D01*
X163020647Y-97721239D01*
X163020649Y-97721247D01*
X163077825Y-97859282D01*
X163160835Y-97983517D01*
X163160836Y-97983518D01*
X170173405Y-104996086D01*
X177136201Y-111958882D01*
X177136202Y-111958883D01*
X177204612Y-112027293D01*
X177241852Y-112064533D01*
X177366076Y-112147537D01*
X177366089Y-112147544D01*
X177427397Y-112172938D01*
X177504121Y-112204718D01*
X177539068Y-112211669D01*
X177600977Y-112244053D01*
X177602557Y-112245605D01*
X178119986Y-112763034D01*
X178153471Y-112824357D01*
X178154779Y-112870112D01*
X178146500Y-112922386D01*
X178146500Y-113128347D01*
X178178719Y-113331775D01*
X178242367Y-113527661D01*
X178335873Y-113711173D01*
X178456926Y-113877790D01*
X178456930Y-113877795D01*
X178602571Y-114023436D01*
X178602576Y-114023440D01*
X178747908Y-114129028D01*
X178769197Y-114144496D01*
X178857819Y-114189651D01*
X178908615Y-114237626D01*
X178925410Y-114305447D01*
X178902873Y-114371581D01*
X178857820Y-114410620D01*
X178773648Y-114453508D01*
X178773645Y-114453510D01*
X178729077Y-114485890D01*
X178729077Y-114485891D01*
X179408554Y-115165367D01*
X179402339Y-115165367D01*
X179300606Y-115192626D01*
X179209394Y-115245287D01*
X179134920Y-115319761D01*
X179082259Y-115410973D01*
X179055000Y-115512706D01*
X179055000Y-115518920D01*
X178375524Y-114839444D01*
X178375523Y-114839444D01*
X178343143Y-114884011D01*
X178250244Y-115066335D01*
X178187009Y-115260949D01*
X178155000Y-115463049D01*
X178155000Y-115667684D01*
X178187009Y-115869784D01*
X178250244Y-116064398D01*
X178343141Y-116246717D01*
X178343147Y-116246726D01*
X178375523Y-116291288D01*
X178375524Y-116291289D01*
X179055000Y-115611813D01*
X179055000Y-115618028D01*
X179082259Y-115719761D01*
X179134920Y-115810973D01*
X179209394Y-115885447D01*
X179300606Y-115938108D01*
X179402339Y-115965367D01*
X179408553Y-115965367D01*
X178729076Y-116644841D01*
X178773652Y-116677228D01*
X178857818Y-116720112D01*
X178908614Y-116768086D01*
X178925410Y-116835907D01*
X178902873Y-116902042D01*
X178857820Y-116941081D01*
X178769195Y-116986238D01*
X178602576Y-117107293D01*
X178602571Y-117107297D01*
X178456930Y-117252938D01*
X178456926Y-117252943D01*
X178335873Y-117419560D01*
X178242367Y-117603072D01*
X178178719Y-117798958D01*
X178146500Y-118002386D01*
X178146500Y-118208347D01*
X178178719Y-118411775D01*
X178242367Y-118607661D01*
X178335873Y-118791173D01*
X178456926Y-118957790D01*
X178456930Y-118957795D01*
X178602571Y-119103436D01*
X178602576Y-119103440D01*
X178747908Y-119209028D01*
X178769197Y-119224496D01*
X178886128Y-119284076D01*
X178952705Y-119317999D01*
X178952707Y-119317999D01*
X178952710Y-119318001D01*
X179057707Y-119352116D01*
X179148591Y-119381647D01*
X179250305Y-119397757D01*
X179352019Y-119413867D01*
X179352020Y-119413867D01*
X179557980Y-119413867D01*
X179557981Y-119413867D01*
X179761408Y-119381647D01*
X179957290Y-119318001D01*
X180140803Y-119224496D01*
X180307430Y-119103435D01*
X180453068Y-118957797D01*
X180574129Y-118791170D01*
X180667634Y-118607657D01*
X180731280Y-118411775D01*
X180753527Y-118271313D01*
X180783456Y-118208179D01*
X180842768Y-118171248D01*
X180912630Y-118172246D01*
X180970863Y-118210856D01*
X180998977Y-118274819D01*
X181000000Y-118290712D01*
X181000000Y-122698638D01*
X180980315Y-122765677D01*
X180963681Y-122786319D01*
X180036819Y-123713181D01*
X179975496Y-123746666D01*
X179949138Y-123749500D01*
X130746168Y-123749500D01*
X130679129Y-123729815D01*
X130633374Y-123677011D01*
X130622169Y-123625868D01*
X130597934Y-115458551D01*
X130534582Y-94109006D01*
X130503661Y-83688647D01*
X130462630Y-69861345D01*
X144651500Y-69861345D01*
X144651500Y-71658654D01*
X144658011Y-71719202D01*
X144658011Y-71719204D01*
X144709111Y-71856204D01*
X144796739Y-71973261D01*
X144913796Y-72060889D01*
X145050799Y-72111989D01*
X145078050Y-72114918D01*
X145111345Y-72118499D01*
X145111362Y-72118500D01*
X145130692Y-72118500D01*
X145197731Y-72138185D01*
X145218373Y-72154819D01*
X145880591Y-72817037D01*
X145817007Y-72834075D01*
X145702993Y-72899901D01*
X145609901Y-72992993D01*
X145544075Y-73107007D01*
X145527037Y-73170591D01*
X144894728Y-72538282D01*
X144894727Y-72538282D01*
X144855380Y-72592439D01*
X144758904Y-72781782D01*
X144693242Y-72983869D01*
X144693242Y-72983872D01*
X144660000Y-73193753D01*
X144660000Y-73406246D01*
X144693242Y-73616127D01*
X144693242Y-73616130D01*
X144758904Y-73818217D01*
X144855375Y-74007550D01*
X144894728Y-74061716D01*
X145527037Y-73429408D01*
X145544075Y-73492993D01*
X145609901Y-73607007D01*
X145702993Y-73700099D01*
X145817007Y-73765925D01*
X145880590Y-73782962D01*
X145248282Y-74415269D01*
X145248282Y-74415270D01*
X145302449Y-74454624D01*
X145302682Y-74454743D01*
X145302755Y-74454812D01*
X145306604Y-74457171D01*
X145306108Y-74457979D01*
X145353479Y-74502716D01*
X145370275Y-74570537D01*
X145347739Y-74636672D01*
X145302693Y-74675709D01*
X145297994Y-74678103D01*
X145124993Y-74803796D01*
X144973796Y-74954993D01*
X144848106Y-75127990D01*
X144751027Y-75318516D01*
X144751026Y-75318519D01*
X144684951Y-75521882D01*
X144651500Y-75733084D01*
X144651500Y-75946915D01*
X144684951Y-76158117D01*
X144751026Y-76361480D01*
X144751027Y-76361483D01*
X144848106Y-76552009D01*
X144973794Y-76725004D01*
X145124996Y-76876206D01*
X145297988Y-77001892D01*
X145297991Y-77001894D01*
X145301873Y-77004273D01*
X145348748Y-77056086D01*
X145360169Y-77125016D01*
X145332512Y-77189178D01*
X145301873Y-77215727D01*
X145297991Y-77218105D01*
X145124993Y-77343796D01*
X144973796Y-77494993D01*
X144848106Y-77667990D01*
X144751027Y-77858516D01*
X144751026Y-77858519D01*
X144684951Y-78061882D01*
X144651500Y-78273084D01*
X144651500Y-78486915D01*
X144684951Y-78698117D01*
X144751026Y-78901480D01*
X144751027Y-78901483D01*
X144845834Y-79087550D01*
X144848106Y-79092009D01*
X144973794Y-79265004D01*
X145124996Y-79416206D01*
X145288257Y-79534822D01*
X145297991Y-79541894D01*
X145301873Y-79544273D01*
X145348748Y-79596086D01*
X145360169Y-79665016D01*
X145332512Y-79729178D01*
X145301873Y-79755727D01*
X145297991Y-79758105D01*
X145124993Y-79883796D01*
X144973796Y-80034993D01*
X144848106Y-80207990D01*
X144751027Y-80398516D01*
X144751026Y-80398519D01*
X144684951Y-80601882D01*
X144651500Y-80813084D01*
X144651500Y-81026915D01*
X144684951Y-81238117D01*
X144751026Y-81441480D01*
X144751027Y-81441483D01*
X144795170Y-81528117D01*
X144848106Y-81632009D01*
X144973794Y-81805004D01*
X145124996Y-81956206D01*
X145297991Y-82081894D01*
X145301873Y-82084273D01*
X145348748Y-82136086D01*
X145360169Y-82205016D01*
X145332512Y-82269178D01*
X145301873Y-82295727D01*
X145297991Y-82298105D01*
X145124993Y-82423796D01*
X144973796Y-82574993D01*
X144848106Y-82747990D01*
X144751027Y-82938516D01*
X144751026Y-82938519D01*
X144684951Y-83141882D01*
X144651500Y-83353084D01*
X144651500Y-83566915D01*
X144684951Y-83778117D01*
X144751026Y-83981480D01*
X144751027Y-83981483D01*
X144795170Y-84068117D01*
X144848106Y-84172009D01*
X144973794Y-84345004D01*
X145124996Y-84496206D01*
X145297991Y-84621894D01*
X145301873Y-84624273D01*
X145348748Y-84676086D01*
X145360169Y-84745016D01*
X145332512Y-84809178D01*
X145301873Y-84835727D01*
X145297991Y-84838105D01*
X145124993Y-84963796D01*
X144973796Y-85114993D01*
X144848106Y-85287990D01*
X144751027Y-85478516D01*
X144751026Y-85478519D01*
X144684951Y-85681882D01*
X144651500Y-85893084D01*
X144651500Y-86106915D01*
X144684951Y-86318117D01*
X144751026Y-86521480D01*
X144751027Y-86521483D01*
X144795170Y-86608117D01*
X144848106Y-86712009D01*
X144973794Y-86885004D01*
X145124996Y-87036206D01*
X145297991Y-87161894D01*
X145301873Y-87164273D01*
X145348748Y-87216086D01*
X145360169Y-87285016D01*
X145332512Y-87349178D01*
X145301873Y-87375727D01*
X145297991Y-87378105D01*
X145124993Y-87503796D01*
X144973796Y-87654993D01*
X144848106Y-87827990D01*
X144751027Y-88018516D01*
X144751026Y-88018519D01*
X144684951Y-88221882D01*
X144651500Y-88433084D01*
X144651500Y-88646915D01*
X144684951Y-88858117D01*
X144751026Y-89061480D01*
X144751027Y-89061483D01*
X144795170Y-89148117D01*
X144848106Y-89252009D01*
X144973794Y-89425004D01*
X145124996Y-89576206D01*
X145297991Y-89701894D01*
X145301873Y-89704273D01*
X145348748Y-89756086D01*
X145360169Y-89825016D01*
X145332512Y-89889178D01*
X145301873Y-89915727D01*
X145297991Y-89918105D01*
X145124993Y-90043796D01*
X144973796Y-90194993D01*
X144848106Y-90367990D01*
X144751027Y-90558516D01*
X144751026Y-90558519D01*
X144684951Y-90761882D01*
X144651500Y-90973084D01*
X144651500Y-91186915D01*
X144684951Y-91398117D01*
X144751026Y-91601480D01*
X144751027Y-91601483D01*
X144795170Y-91688117D01*
X144848106Y-91792009D01*
X144973794Y-91965004D01*
X145124996Y-92116206D01*
X145297991Y-92241894D01*
X145301873Y-92244273D01*
X145348748Y-92296086D01*
X145360169Y-92365016D01*
X145332512Y-92429178D01*
X145301873Y-92455727D01*
X145297991Y-92458105D01*
X145124993Y-92583796D01*
X144973796Y-92734993D01*
X144848106Y-92907990D01*
X144751027Y-93098516D01*
X144751026Y-93098519D01*
X144684951Y-93301882D01*
X144651500Y-93513084D01*
X144651500Y-93726915D01*
X144684951Y-93938117D01*
X144751026Y-94141480D01*
X144751027Y-94141483D01*
X144846481Y-94328819D01*
X144848106Y-94332009D01*
X144973794Y-94505004D01*
X145124996Y-94656206D01*
X145259238Y-94753738D01*
X145297991Y-94781894D01*
X145301873Y-94784273D01*
X145348748Y-94836086D01*
X145360169Y-94905016D01*
X145332512Y-94969178D01*
X145301873Y-94995727D01*
X145297991Y-94998105D01*
X145124993Y-95123796D01*
X144973796Y-95274993D01*
X144848106Y-95447990D01*
X144751027Y-95638516D01*
X144751026Y-95638519D01*
X144684951Y-95841882D01*
X144666085Y-95960996D01*
X144651500Y-96053084D01*
X144651500Y-96266916D01*
X144660073Y-96321045D01*
X144684951Y-96478117D01*
X144751026Y-96681480D01*
X144751027Y-96681483D01*
X144848106Y-96872009D01*
X144973794Y-97045004D01*
X145124996Y-97196206D01*
X145297991Y-97321894D01*
X145301873Y-97324273D01*
X145348748Y-97376086D01*
X145360169Y-97445016D01*
X145332512Y-97509178D01*
X145301873Y-97535727D01*
X145297991Y-97538105D01*
X145124993Y-97663796D01*
X144973796Y-97814993D01*
X144848106Y-97987990D01*
X144751027Y-98178516D01*
X144751026Y-98178519D01*
X144684951Y-98381882D01*
X144651500Y-98593084D01*
X144651500Y-98806915D01*
X144684951Y-99018117D01*
X144751026Y-99221480D01*
X144751027Y-99221483D01*
X144848106Y-99412009D01*
X144973794Y-99585004D01*
X145124996Y-99736206D01*
X145297991Y-99861894D01*
X145301873Y-99864273D01*
X145348748Y-99916086D01*
X145360169Y-99985016D01*
X145332512Y-100049178D01*
X145301873Y-100075727D01*
X145297991Y-100078105D01*
X145124993Y-100203796D01*
X144973796Y-100354993D01*
X144848106Y-100527990D01*
X144751027Y-100718516D01*
X144751026Y-100718519D01*
X144684951Y-100921882D01*
X144651500Y-101133084D01*
X144651500Y-101346915D01*
X144684951Y-101558117D01*
X144751026Y-101761480D01*
X144751027Y-101761483D01*
X144804941Y-101867293D01*
X144848106Y-101952009D01*
X144973794Y-102125004D01*
X145124996Y-102276206D01*
X145244557Y-102363072D01*
X145297991Y-102401894D01*
X145301873Y-102404273D01*
X145348748Y-102456086D01*
X145360169Y-102525016D01*
X145332512Y-102589178D01*
X145301873Y-102615727D01*
X145297991Y-102618105D01*
X145124993Y-102743796D01*
X144973796Y-102894993D01*
X144848106Y-103067990D01*
X144751027Y-103258516D01*
X144751026Y-103258519D01*
X144684951Y-103461882D01*
X144651500Y-103673084D01*
X144651500Y-103886915D01*
X144684951Y-104098117D01*
X144751026Y-104301480D01*
X144751027Y-104301483D01*
X144804941Y-104407293D01*
X144848106Y-104492009D01*
X144973794Y-104665004D01*
X145124996Y-104816206D01*
X145244557Y-104903072D01*
X145297991Y-104941894D01*
X145301873Y-104944273D01*
X145348748Y-104996086D01*
X145360169Y-105065016D01*
X145332512Y-105129178D01*
X145301873Y-105155727D01*
X145297991Y-105158105D01*
X145124993Y-105283796D01*
X144973796Y-105434993D01*
X144848106Y-105607990D01*
X144751027Y-105798516D01*
X144751026Y-105798519D01*
X144684951Y-106001882D01*
X144651500Y-106213084D01*
X144651500Y-106426915D01*
X144684951Y-106638117D01*
X144751026Y-106841480D01*
X144751027Y-106841483D01*
X144804941Y-106947293D01*
X144848106Y-107032009D01*
X144973794Y-107205004D01*
X145124996Y-107356206D01*
X145297991Y-107481894D01*
X145391438Y-107529507D01*
X145488516Y-107578972D01*
X145488519Y-107578973D01*
X145590200Y-107612010D01*
X145691884Y-107645049D01*
X145903084Y-107678500D01*
X145903085Y-107678500D01*
X146116915Y-107678500D01*
X146116916Y-107678500D01*
X146328116Y-107645049D01*
X146531483Y-107578972D01*
X146722009Y-107481894D01*
X146895004Y-107356206D01*
X147046206Y-107205004D01*
X147171894Y-107032009D01*
X147268972Y-106841483D01*
X147335049Y-106638116D01*
X147368500Y-106426916D01*
X147368500Y-106213084D01*
X147335049Y-106001884D01*
X147268972Y-105798517D01*
X147268972Y-105798516D01*
X147171893Y-105607990D01*
X147147793Y-105574819D01*
X147046206Y-105434996D01*
X146895004Y-105283794D01*
X146722009Y-105158106D01*
X146722005Y-105158103D01*
X146718132Y-105155730D01*
X146671254Y-105103920D01*
X146659829Y-105034991D01*
X146687483Y-104970827D01*
X146718132Y-104944270D01*
X146722005Y-104941896D01*
X146722004Y-104941896D01*
X146722009Y-104941894D01*
X146895004Y-104816206D01*
X147046206Y-104665004D01*
X147171894Y-104492009D01*
X147268972Y-104301483D01*
X147335049Y-104098116D01*
X147368500Y-103886916D01*
X147368500Y-103673084D01*
X147335049Y-103461884D01*
X147268972Y-103258517D01*
X147268972Y-103258516D01*
X147171893Y-103067990D01*
X147147793Y-103034819D01*
X147046206Y-102894996D01*
X146895004Y-102743794D01*
X146722009Y-102618106D01*
X146722005Y-102618103D01*
X146718132Y-102615730D01*
X146671254Y-102563920D01*
X146659829Y-102494991D01*
X146687483Y-102430827D01*
X146718132Y-102404270D01*
X146722005Y-102401896D01*
X146722004Y-102401896D01*
X146722009Y-102401894D01*
X146895004Y-102276206D01*
X147046206Y-102125004D01*
X147171894Y-101952009D01*
X147268972Y-101761483D01*
X147335049Y-101558116D01*
X147368500Y-101346916D01*
X147368500Y-101133084D01*
X147335049Y-100921884D01*
X147268972Y-100718517D01*
X147268972Y-100718516D01*
X147171893Y-100527990D01*
X147046206Y-100354996D01*
X146895004Y-100203794D01*
X146722009Y-100078106D01*
X146722005Y-100078103D01*
X146718132Y-100075730D01*
X146671254Y-100023920D01*
X146659829Y-99954991D01*
X146687483Y-99890827D01*
X146718132Y-99864270D01*
X146722005Y-99861896D01*
X146722004Y-99861896D01*
X146722009Y-99861894D01*
X146895004Y-99736206D01*
X147046206Y-99585004D01*
X147171894Y-99412009D01*
X147268972Y-99221483D01*
X147335049Y-99018116D01*
X147368500Y-98806916D01*
X147368500Y-98593084D01*
X147335049Y-98381884D01*
X147268972Y-98178517D01*
X147268972Y-98178516D01*
X147171893Y-97987990D01*
X147168642Y-97983515D01*
X147046206Y-97814996D01*
X146895004Y-97663794D01*
X146722009Y-97538106D01*
X146722005Y-97538103D01*
X146718132Y-97535730D01*
X146671254Y-97483920D01*
X146659829Y-97414991D01*
X146687483Y-97350827D01*
X146718132Y-97324270D01*
X146722005Y-97321896D01*
X146722004Y-97321896D01*
X146722009Y-97321894D01*
X146895004Y-97196206D01*
X147046206Y-97045004D01*
X147171894Y-96872009D01*
X147268972Y-96681483D01*
X147335049Y-96478116D01*
X147368500Y-96266916D01*
X147368500Y-96053084D01*
X147335049Y-95841884D01*
X147268972Y-95638517D01*
X147268972Y-95638516D01*
X147211409Y-95525543D01*
X147171894Y-95447991D01*
X147046206Y-95274996D01*
X146895004Y-95123794D01*
X146722009Y-94998106D01*
X146722005Y-94998103D01*
X146718132Y-94995730D01*
X146671254Y-94943920D01*
X146659829Y-94874991D01*
X146687483Y-94810827D01*
X146718132Y-94784270D01*
X146722005Y-94781896D01*
X146722004Y-94781896D01*
X146722009Y-94781894D01*
X146895004Y-94656206D01*
X147046206Y-94505004D01*
X147171894Y-94332009D01*
X147268972Y-94141483D01*
X147335049Y-93938116D01*
X147368500Y-93726916D01*
X147368500Y-93513084D01*
X147335049Y-93301884D01*
X147288671Y-93159145D01*
X147268973Y-93098519D01*
X147268972Y-93098516D01*
X147194637Y-92952627D01*
X147171894Y-92907991D01*
X147046206Y-92734996D01*
X146895004Y-92583794D01*
X146722009Y-92458106D01*
X146722005Y-92458103D01*
X146718132Y-92455730D01*
X146671254Y-92403920D01*
X146659829Y-92334991D01*
X146687483Y-92270827D01*
X146718132Y-92244270D01*
X146722005Y-92241896D01*
X146722004Y-92241896D01*
X146722009Y-92241894D01*
X146895004Y-92116206D01*
X147046206Y-91965004D01*
X147171894Y-91792009D01*
X147268972Y-91601483D01*
X147335049Y-91398116D01*
X147368500Y-91186916D01*
X147368500Y-90973084D01*
X147335049Y-90761884D01*
X147268972Y-90558517D01*
X147268972Y-90558516D01*
X147171893Y-90367990D01*
X147147048Y-90333794D01*
X147046206Y-90194996D01*
X146895004Y-90043794D01*
X146722009Y-89918106D01*
X146722005Y-89918103D01*
X146718132Y-89915730D01*
X146671254Y-89863920D01*
X146659829Y-89794991D01*
X146687483Y-89730827D01*
X146718132Y-89704270D01*
X146722005Y-89701896D01*
X146722004Y-89701896D01*
X146722009Y-89701894D01*
X146895004Y-89576206D01*
X147046206Y-89425004D01*
X147171894Y-89252009D01*
X147268972Y-89061483D01*
X147335049Y-88858116D01*
X147368500Y-88646916D01*
X147368500Y-88433084D01*
X147335049Y-88221884D01*
X147268972Y-88018517D01*
X147268972Y-88018516D01*
X147171893Y-87827990D01*
X147159134Y-87810429D01*
X147046206Y-87654996D01*
X146895004Y-87503794D01*
X146722009Y-87378106D01*
X146722005Y-87378103D01*
X146718132Y-87375730D01*
X146671254Y-87323920D01*
X146659829Y-87254991D01*
X146687483Y-87190827D01*
X146718132Y-87164270D01*
X146722005Y-87161896D01*
X146722004Y-87161896D01*
X146722009Y-87161894D01*
X146895004Y-87036206D01*
X147046206Y-86885004D01*
X147171894Y-86712009D01*
X147268972Y-86521483D01*
X147335049Y-86318116D01*
X147368500Y-86106916D01*
X147368500Y-85893084D01*
X147335049Y-85681884D01*
X147268972Y-85478517D01*
X147268972Y-85478516D01*
X147171893Y-85287990D01*
X147147048Y-85253794D01*
X147046206Y-85114996D01*
X146895004Y-84963794D01*
X146722009Y-84838106D01*
X146722005Y-84838103D01*
X146718132Y-84835730D01*
X146671254Y-84783920D01*
X146659829Y-84714991D01*
X146687483Y-84650827D01*
X146718132Y-84624270D01*
X146722005Y-84621896D01*
X146722004Y-84621896D01*
X146722009Y-84621894D01*
X146895004Y-84496206D01*
X147046206Y-84345004D01*
X147171894Y-84172009D01*
X147268972Y-83981483D01*
X147335049Y-83778116D01*
X147368500Y-83566916D01*
X147368500Y-83353084D01*
X147335049Y-83141884D01*
X147268972Y-82938517D01*
X147268972Y-82938516D01*
X147171893Y-82747990D01*
X147147048Y-82713794D01*
X147046206Y-82574996D01*
X146895004Y-82423794D01*
X146722009Y-82298106D01*
X146722005Y-82298103D01*
X146718132Y-82295730D01*
X146671254Y-82243920D01*
X146659829Y-82174991D01*
X146687483Y-82110827D01*
X146718132Y-82084270D01*
X146722005Y-82081896D01*
X146722004Y-82081896D01*
X146722009Y-82081894D01*
X146895004Y-81956206D01*
X147046206Y-81805004D01*
X147171894Y-81632009D01*
X147268972Y-81441483D01*
X147335049Y-81238116D01*
X147368500Y-81026916D01*
X147368500Y-80813084D01*
X147335049Y-80601884D01*
X147268972Y-80398517D01*
X147268972Y-80398516D01*
X147171893Y-80207990D01*
X147147048Y-80173794D01*
X147046206Y-80034996D01*
X146895004Y-79883794D01*
X146722009Y-79758106D01*
X146722005Y-79758103D01*
X146718132Y-79755730D01*
X146671254Y-79703920D01*
X146659829Y-79634991D01*
X146687483Y-79570827D01*
X146718132Y-79544270D01*
X146722005Y-79541896D01*
X146722004Y-79541896D01*
X146722009Y-79541894D01*
X146895004Y-79416206D01*
X147046206Y-79265004D01*
X147171894Y-79092009D01*
X147268972Y-78901483D01*
X147335049Y-78698116D01*
X147368500Y-78486916D01*
X147368500Y-78273084D01*
X147335049Y-78061884D01*
X147268972Y-77858517D01*
X147268972Y-77858516D01*
X147206689Y-77736280D01*
X147171894Y-77667991D01*
X147046206Y-77494996D01*
X146895004Y-77343794D01*
X146732011Y-77225373D01*
X146722005Y-77218103D01*
X146718132Y-77215730D01*
X146671254Y-77163920D01*
X146659829Y-77094991D01*
X146687483Y-77030827D01*
X146718132Y-77004270D01*
X146722005Y-77001896D01*
X146722004Y-77001896D01*
X146722009Y-77001894D01*
X146895004Y-76876206D01*
X147046206Y-76725004D01*
X147171894Y-76552009D01*
X147268972Y-76361483D01*
X147335049Y-76158116D01*
X147368500Y-75946916D01*
X147368500Y-75733084D01*
X147335049Y-75521884D01*
X147268972Y-75318517D01*
X147268972Y-75318516D01*
X147200289Y-75183720D01*
X147171894Y-75127991D01*
X147046206Y-74954996D01*
X146895004Y-74803794D01*
X146722009Y-74678106D01*
X146722010Y-74678106D01*
X146722008Y-74678105D01*
X146717311Y-74675712D01*
X146666517Y-74627735D01*
X146649724Y-74559914D01*
X146672264Y-74493780D01*
X146713790Y-74457801D01*
X146713402Y-74457168D01*
X146717229Y-74454822D01*
X146717327Y-74454738D01*
X146717556Y-74454621D01*
X146771716Y-74415270D01*
X146771717Y-74415270D01*
X146139408Y-73782962D01*
X146202993Y-73765925D01*
X146317007Y-73700099D01*
X146410099Y-73607007D01*
X146475925Y-73492993D01*
X146492962Y-73429408D01*
X147125270Y-74061717D01*
X147125270Y-74061716D01*
X147164622Y-74007554D01*
X147261095Y-73818217D01*
X147326757Y-73616130D01*
X147326757Y-73616127D01*
X147360000Y-73406246D01*
X147360000Y-73193753D01*
X147326757Y-72983872D01*
X147326757Y-72983869D01*
X147261095Y-72781782D01*
X147164624Y-72592449D01*
X147125270Y-72538282D01*
X147125269Y-72538282D01*
X146492962Y-73170590D01*
X146475925Y-73107007D01*
X146410099Y-72992993D01*
X146317007Y-72899901D01*
X146202993Y-72834075D01*
X146139409Y-72817037D01*
X146801626Y-72154819D01*
X146862949Y-72121334D01*
X146889307Y-72118500D01*
X146908638Y-72118500D01*
X146908654Y-72118499D01*
X146935692Y-72115591D01*
X146969201Y-72111989D01*
X147106204Y-72060889D01*
X147223261Y-71973261D01*
X147310889Y-71856204D01*
X147361989Y-71719201D01*
X147365591Y-71685692D01*
X147368499Y-71658654D01*
X147368500Y-71658637D01*
X147368500Y-69861362D01*
X147368499Y-69861345D01*
X147365157Y-69830270D01*
X147361989Y-69800799D01*
X147310889Y-69663796D01*
X147223261Y-69546739D01*
X147106204Y-69459111D01*
X146969203Y-69408011D01*
X146908654Y-69401500D01*
X146908638Y-69401500D01*
X145111362Y-69401500D01*
X145111345Y-69401500D01*
X145050797Y-69408011D01*
X145050795Y-69408011D01*
X144913795Y-69459111D01*
X144796739Y-69546739D01*
X144709111Y-69663795D01*
X144658011Y-69800795D01*
X144658011Y-69800797D01*
X144651500Y-69861345D01*
X130462630Y-69861345D01*
X130436682Y-61117019D01*
X177771500Y-61117019D01*
X177771500Y-61322980D01*
X177803719Y-61526408D01*
X177867367Y-61722294D01*
X177960873Y-61905806D01*
X178081926Y-62072423D01*
X178081930Y-62072428D01*
X178227571Y-62218069D01*
X178227576Y-62218073D01*
X178394195Y-62339128D01*
X178473459Y-62379516D01*
X178524254Y-62427490D01*
X178541049Y-62495311D01*
X178518511Y-62561446D01*
X178473459Y-62600484D01*
X178394195Y-62640871D01*
X178227576Y-62761926D01*
X178227571Y-62761930D01*
X178081930Y-62907571D01*
X178081926Y-62907576D01*
X177960873Y-63074193D01*
X177867367Y-63257705D01*
X177803719Y-63453591D01*
X177771500Y-63657019D01*
X177771500Y-63862980D01*
X177803719Y-64066408D01*
X177867367Y-64262294D01*
X177960873Y-64445806D01*
X178081926Y-64612423D01*
X178081930Y-64612428D01*
X178227571Y-64758069D01*
X178227576Y-64758073D01*
X178394195Y-64879128D01*
X178473459Y-64919516D01*
X178524254Y-64967490D01*
X178541049Y-65035311D01*
X178518511Y-65101446D01*
X178473459Y-65140484D01*
X178394195Y-65180871D01*
X178227576Y-65301926D01*
X178227571Y-65301930D01*
X178081930Y-65447571D01*
X178081926Y-65447576D01*
X177960873Y-65614193D01*
X177867367Y-65797705D01*
X177803719Y-65993591D01*
X177771500Y-66197019D01*
X177771500Y-66402980D01*
X177803719Y-66606408D01*
X177867367Y-66802294D01*
X177960873Y-66985806D01*
X178081926Y-67152423D01*
X178081930Y-67152428D01*
X178227571Y-67298069D01*
X178227576Y-67298073D01*
X178394195Y-67419128D01*
X178473459Y-67459516D01*
X178524254Y-67507490D01*
X178541049Y-67575311D01*
X178518511Y-67641446D01*
X178473459Y-67680484D01*
X178394195Y-67720871D01*
X178227576Y-67841926D01*
X178227571Y-67841930D01*
X178081930Y-67987571D01*
X178081926Y-67987576D01*
X177960873Y-68154193D01*
X177867367Y-68337705D01*
X177803719Y-68533591D01*
X177771500Y-68737019D01*
X177771500Y-68942980D01*
X177803719Y-69146408D01*
X177867367Y-69342294D01*
X177960873Y-69525806D01*
X178081926Y-69692423D01*
X178081930Y-69692428D01*
X178227571Y-69838069D01*
X178227576Y-69838073D01*
X178394195Y-69959128D01*
X178473459Y-69999516D01*
X178524254Y-70047490D01*
X178541049Y-70115311D01*
X178518511Y-70181446D01*
X178473459Y-70220484D01*
X178394195Y-70260871D01*
X178227576Y-70381926D01*
X178227571Y-70381930D01*
X178081930Y-70527571D01*
X178081926Y-70527576D01*
X177960873Y-70694193D01*
X177867367Y-70877705D01*
X177803719Y-71073591D01*
X177771500Y-71277019D01*
X177771500Y-71482980D01*
X177803719Y-71686408D01*
X177867367Y-71882294D01*
X177913718Y-71973261D01*
X177958367Y-72060889D01*
X177960873Y-72065806D01*
X178081926Y-72232423D01*
X178081930Y-72232428D01*
X178227571Y-72378069D01*
X178227576Y-72378073D01*
X178372908Y-72483661D01*
X178394197Y-72499129D01*
X178482819Y-72544284D01*
X178533615Y-72592259D01*
X178550410Y-72660080D01*
X178527873Y-72726214D01*
X178482820Y-72765253D01*
X178398648Y-72808141D01*
X178398645Y-72808143D01*
X178354077Y-72840523D01*
X178354077Y-72840524D01*
X179033554Y-73520000D01*
X179027339Y-73520000D01*
X178925606Y-73547259D01*
X178834394Y-73599920D01*
X178759920Y-73674394D01*
X178707259Y-73765606D01*
X178680000Y-73867339D01*
X178680000Y-73873553D01*
X178000524Y-73194077D01*
X178000523Y-73194077D01*
X177968143Y-73238644D01*
X177875244Y-73420968D01*
X177812009Y-73615582D01*
X177780000Y-73817682D01*
X177780000Y-74022317D01*
X177812009Y-74224417D01*
X177875244Y-74419031D01*
X177968141Y-74601350D01*
X177968147Y-74601359D01*
X178000523Y-74645921D01*
X178000524Y-74645922D01*
X178680000Y-73966446D01*
X178680000Y-73972661D01*
X178707259Y-74074394D01*
X178759920Y-74165606D01*
X178834394Y-74240080D01*
X178925606Y-74292741D01*
X179027339Y-74320000D01*
X179033553Y-74320000D01*
X178354076Y-74999474D01*
X178398652Y-75031861D01*
X178482818Y-75074745D01*
X178533614Y-75122719D01*
X178550410Y-75190540D01*
X178527873Y-75256675D01*
X178482820Y-75295714D01*
X178394195Y-75340871D01*
X178227576Y-75461926D01*
X178227571Y-75461930D01*
X178081930Y-75607571D01*
X178081926Y-75607576D01*
X177960873Y-75774193D01*
X177867367Y-75957705D01*
X177803719Y-76153591D01*
X177771500Y-76357019D01*
X177771500Y-76562980D01*
X177803719Y-76766408D01*
X177867367Y-76962294D01*
X177931671Y-77088496D01*
X177950279Y-77125016D01*
X177960873Y-77145806D01*
X178081926Y-77312423D01*
X178081930Y-77312428D01*
X178227571Y-77458069D01*
X178227576Y-77458073D01*
X178278393Y-77494993D01*
X178394197Y-77579129D01*
X178471039Y-77618282D01*
X178577705Y-77672632D01*
X178577707Y-77672632D01*
X178577710Y-77672634D01*
X178682707Y-77706749D01*
X178773591Y-77736280D01*
X178875305Y-77752390D01*
X178977019Y-77768500D01*
X178977020Y-77768500D01*
X179182980Y-77768500D01*
X179182981Y-77768500D01*
X179386408Y-77736280D01*
X179582290Y-77672634D01*
X179765803Y-77579129D01*
X179932430Y-77458068D01*
X180078068Y-77312430D01*
X180199129Y-77145803D01*
X180292634Y-76962290D01*
X180356280Y-76766408D01*
X180388500Y-76562981D01*
X180388500Y-76357019D01*
X180356280Y-76153592D01*
X180292634Y-75957710D01*
X180292632Y-75957707D01*
X180292632Y-75957705D01*
X180258709Y-75891128D01*
X180199129Y-75774197D01*
X180169259Y-75733084D01*
X180078073Y-75607576D01*
X180078069Y-75607571D01*
X179932428Y-75461930D01*
X179932423Y-75461926D01*
X179765806Y-75340873D01*
X179765805Y-75340872D01*
X179765803Y-75340871D01*
X179677180Y-75295715D01*
X179626384Y-75247740D01*
X179609589Y-75179919D01*
X179632127Y-75113784D01*
X179677181Y-75074745D01*
X179761346Y-75031861D01*
X179761347Y-75031861D01*
X179805921Y-74999474D01*
X179126447Y-74320000D01*
X179132661Y-74320000D01*
X179234394Y-74292741D01*
X179325606Y-74240080D01*
X179400080Y-74165606D01*
X179452741Y-74074394D01*
X179480000Y-73972661D01*
X179480000Y-73966448D01*
X180159474Y-74645922D01*
X180159474Y-74645921D01*
X180191859Y-74601349D01*
X180284755Y-74419031D01*
X180347990Y-74224417D01*
X180380000Y-74022317D01*
X180380000Y-73817682D01*
X180347990Y-73615582D01*
X180284755Y-73420968D01*
X180191859Y-73238650D01*
X180159474Y-73194077D01*
X180159474Y-73194076D01*
X179480000Y-73873551D01*
X179480000Y-73867339D01*
X179452741Y-73765606D01*
X179400080Y-73674394D01*
X179325606Y-73599920D01*
X179234394Y-73547259D01*
X179132661Y-73520000D01*
X179126446Y-73520000D01*
X179805922Y-72840524D01*
X179805921Y-72840523D01*
X179761359Y-72808147D01*
X179761350Y-72808141D01*
X179677180Y-72765254D01*
X179626384Y-72717279D01*
X179609589Y-72649458D01*
X179632127Y-72583323D01*
X179677179Y-72544284D01*
X179765803Y-72499129D01*
X179932430Y-72378068D01*
X180078068Y-72232430D01*
X180199129Y-72065803D01*
X180292634Y-71882290D01*
X180356280Y-71686408D01*
X180388500Y-71482981D01*
X180388500Y-71277019D01*
X180356280Y-71073592D01*
X180335882Y-71010815D01*
X180292632Y-70877705D01*
X180258709Y-70811128D01*
X180199129Y-70694197D01*
X180174658Y-70660516D01*
X180078073Y-70527576D01*
X180078069Y-70527571D01*
X179932428Y-70381930D01*
X179932423Y-70381926D01*
X179765806Y-70260873D01*
X179765805Y-70260872D01*
X179765803Y-70260871D01*
X179686540Y-70220484D01*
X179635745Y-70172510D01*
X179618950Y-70104689D01*
X179641487Y-70038554D01*
X179686541Y-69999515D01*
X179765803Y-69959129D01*
X179932430Y-69838068D01*
X180078068Y-69692430D01*
X180199129Y-69525803D01*
X180292634Y-69342290D01*
X180356280Y-69146408D01*
X180388500Y-68942981D01*
X180388500Y-68737019D01*
X180356280Y-68533592D01*
X180292634Y-68337710D01*
X180292632Y-68337707D01*
X180292632Y-68337705D01*
X180258709Y-68271128D01*
X180199129Y-68154197D01*
X180183661Y-68132908D01*
X180078073Y-67987576D01*
X180078069Y-67987571D01*
X179932428Y-67841930D01*
X179932423Y-67841926D01*
X179765806Y-67720873D01*
X179765805Y-67720872D01*
X179765803Y-67720871D01*
X179686540Y-67680484D01*
X179635745Y-67632510D01*
X179618950Y-67564689D01*
X179641487Y-67498554D01*
X179686541Y-67459515D01*
X179765803Y-67419129D01*
X179932430Y-67298068D01*
X180078068Y-67152430D01*
X180199129Y-66985803D01*
X180292634Y-66802290D01*
X180356280Y-66606408D01*
X180388500Y-66402981D01*
X180388500Y-66197019D01*
X180356280Y-65993592D01*
X180292634Y-65797710D01*
X180292632Y-65797707D01*
X180292632Y-65797705D01*
X180258709Y-65731128D01*
X180199129Y-65614197D01*
X180183661Y-65592908D01*
X180078073Y-65447576D01*
X180078069Y-65447571D01*
X179932428Y-65301930D01*
X179932423Y-65301926D01*
X179765806Y-65180873D01*
X179765805Y-65180872D01*
X179765803Y-65180871D01*
X179686540Y-65140484D01*
X179635745Y-65092510D01*
X179618950Y-65024689D01*
X179641487Y-64958554D01*
X179686541Y-64919515D01*
X179765803Y-64879129D01*
X179932430Y-64758068D01*
X180078068Y-64612430D01*
X180199129Y-64445803D01*
X180292634Y-64262290D01*
X180356280Y-64066408D01*
X180388500Y-63862981D01*
X180388500Y-63657019D01*
X180356280Y-63453592D01*
X180292634Y-63257710D01*
X180292632Y-63257707D01*
X180292632Y-63257705D01*
X180258709Y-63191128D01*
X180199129Y-63074197D01*
X180183661Y-63052908D01*
X180078073Y-62907576D01*
X180078069Y-62907571D01*
X179932428Y-62761930D01*
X179932423Y-62761926D01*
X179765806Y-62640873D01*
X179765805Y-62640872D01*
X179765803Y-62640871D01*
X179686540Y-62600484D01*
X179635745Y-62552510D01*
X179618950Y-62484689D01*
X179641487Y-62418554D01*
X179686541Y-62379515D01*
X179765803Y-62339129D01*
X179932430Y-62218068D01*
X180078068Y-62072430D01*
X180199129Y-61905803D01*
X180292634Y-61722290D01*
X180356280Y-61526408D01*
X180388500Y-61322981D01*
X180388500Y-61117019D01*
X180356280Y-60913592D01*
X180292634Y-60717710D01*
X180292632Y-60717707D01*
X180292632Y-60717705D01*
X180258709Y-60651128D01*
X180199129Y-60534197D01*
X180183661Y-60512908D01*
X180078073Y-60367576D01*
X180078069Y-60367571D01*
X179932428Y-60221930D01*
X179932423Y-60221926D01*
X179765806Y-60100873D01*
X179765805Y-60100872D01*
X179765803Y-60100871D01*
X179708496Y-60071671D01*
X179582294Y-60007367D01*
X179386408Y-59943719D01*
X179210794Y-59915905D01*
X179182981Y-59911500D01*
X178977019Y-59911500D01*
X178952550Y-59915375D01*
X178773591Y-59943719D01*
X178577705Y-60007367D01*
X178394193Y-60100873D01*
X178227576Y-60221926D01*
X178227571Y-60221930D01*
X178081930Y-60367571D01*
X178081926Y-60367576D01*
X177960873Y-60534193D01*
X177867367Y-60717705D01*
X177803719Y-60913591D01*
X177771500Y-61117019D01*
X130436682Y-61117019D01*
X130378842Y-41624867D01*
X130398327Y-41557770D01*
X130450995Y-41511859D01*
X130502841Y-41500500D01*
X179949138Y-41500500D01*
X180016177Y-41520185D01*
G37*
%TD.AperFunction*%
%TA.AperFunction,Conductor*%
G36*
X180912630Y-115577916D02*
G01*
X180970863Y-115616526D01*
X180998977Y-115680490D01*
X181000000Y-115696382D01*
X181000000Y-117920021D01*
X180980315Y-117987060D01*
X180927511Y-118032815D01*
X180858353Y-118042759D01*
X180794797Y-118013734D01*
X180757023Y-117954956D01*
X180753527Y-117939419D01*
X180731280Y-117798958D01*
X180667632Y-117603072D01*
X180633709Y-117536495D01*
X180574129Y-117419564D01*
X180558661Y-117398275D01*
X180453073Y-117252943D01*
X180453069Y-117252938D01*
X180307428Y-117107297D01*
X180307423Y-117107293D01*
X180140806Y-116986240D01*
X180140805Y-116986239D01*
X180140803Y-116986238D01*
X180052180Y-116941082D01*
X180001384Y-116893107D01*
X179984589Y-116825286D01*
X180007127Y-116759151D01*
X180052181Y-116720112D01*
X180136346Y-116677228D01*
X180136347Y-116677228D01*
X180180921Y-116644841D01*
X179501447Y-115965367D01*
X179507661Y-115965367D01*
X179609394Y-115938108D01*
X179700606Y-115885447D01*
X179775080Y-115810973D01*
X179827741Y-115719761D01*
X179855000Y-115618028D01*
X179855000Y-115611814D01*
X180534474Y-116291288D01*
X180566859Y-116246716D01*
X180659755Y-116064398D01*
X180722990Y-115869784D01*
X180753527Y-115676984D01*
X180783456Y-115613849D01*
X180842768Y-115576918D01*
X180912630Y-115577916D01*
G37*
%TD.AperFunction*%
%TA.AperFunction,Conductor*%
G36*
X180912630Y-113092246D02*
G01*
X180970863Y-113130856D01*
X180998977Y-113194819D01*
X181000000Y-113210712D01*
X181000000Y-115434351D01*
X180980315Y-115501390D01*
X180927511Y-115547145D01*
X180858353Y-115557089D01*
X180794797Y-115528064D01*
X180757023Y-115469286D01*
X180753527Y-115453749D01*
X180722990Y-115260949D01*
X180659755Y-115066335D01*
X180566859Y-114884017D01*
X180534474Y-114839444D01*
X180534474Y-114839443D01*
X179855000Y-115518918D01*
X179855000Y-115512706D01*
X179827741Y-115410973D01*
X179775080Y-115319761D01*
X179700606Y-115245287D01*
X179609394Y-115192626D01*
X179507661Y-115165367D01*
X179501446Y-115165367D01*
X180180922Y-114485891D01*
X180180921Y-114485890D01*
X180136359Y-114453514D01*
X180136350Y-114453508D01*
X180052180Y-114410621D01*
X180001384Y-114362646D01*
X179984589Y-114294825D01*
X180007127Y-114228690D01*
X180052179Y-114189651D01*
X180140803Y-114144496D01*
X180307430Y-114023435D01*
X180453068Y-113877797D01*
X180574129Y-113711170D01*
X180667634Y-113527657D01*
X180731280Y-113331775D01*
X180753527Y-113191313D01*
X180783456Y-113128179D01*
X180842768Y-113091248D01*
X180912630Y-113092246D01*
G37*
%TD.AperFunction*%
%TA.AperFunction,Conductor*%
G36*
X162760397Y-73353344D02*
G01*
X162811448Y-73384129D01*
X176991912Y-87564593D01*
X177066497Y-87639178D01*
X177097562Y-87670243D01*
X177221786Y-87753247D01*
X177221799Y-87753254D01*
X177359826Y-87810426D01*
X177359831Y-87810428D01*
X177359835Y-87810428D01*
X177359836Y-87810429D01*
X177506368Y-87839577D01*
X177506371Y-87839577D01*
X177506372Y-87839577D01*
X177655782Y-87839577D01*
X178165507Y-87839577D01*
X178232546Y-87859262D01*
X178265825Y-87890692D01*
X178296929Y-87933503D01*
X178296934Y-87933509D01*
X178442571Y-88079146D01*
X178442576Y-88079150D01*
X178609195Y-88200205D01*
X178688459Y-88240593D01*
X178739254Y-88288567D01*
X178756049Y-88356388D01*
X178733511Y-88422523D01*
X178688459Y-88461561D01*
X178609195Y-88501948D01*
X178442576Y-88623003D01*
X178442571Y-88623007D01*
X178296930Y-88768648D01*
X178296926Y-88768653D01*
X178175873Y-88935270D01*
X178082367Y-89118782D01*
X178018719Y-89314668D01*
X177986500Y-89518096D01*
X177986500Y-89724057D01*
X178018719Y-89927485D01*
X178082367Y-90123371D01*
X178175873Y-90306883D01*
X178296926Y-90473500D01*
X178296930Y-90473505D01*
X178442571Y-90619146D01*
X178442576Y-90619150D01*
X178609195Y-90740205D01*
X178688459Y-90780593D01*
X178739254Y-90828567D01*
X178756049Y-90896388D01*
X178733511Y-90962523D01*
X178688459Y-91001561D01*
X178609195Y-91041948D01*
X178442576Y-91163003D01*
X178442571Y-91163007D01*
X178296934Y-91308644D01*
X178296929Y-91308650D01*
X178265825Y-91351462D01*
X178210495Y-91394128D01*
X178165507Y-91402577D01*
X170276620Y-91402577D01*
X170209581Y-91382892D01*
X170188939Y-91366258D01*
X162623244Y-83800563D01*
X162589759Y-83739240D01*
X162588452Y-83693489D01*
X162608500Y-83566916D01*
X162608500Y-83353084D01*
X162575049Y-83141884D01*
X162508972Y-82938517D01*
X162508972Y-82938516D01*
X162411893Y-82747990D01*
X162387048Y-82713794D01*
X162286206Y-82574996D01*
X162135004Y-82423794D01*
X161962009Y-82298106D01*
X161962005Y-82298103D01*
X161958132Y-82295730D01*
X161911254Y-82243920D01*
X161899829Y-82174991D01*
X161927483Y-82110827D01*
X161958132Y-82084270D01*
X161962005Y-82081896D01*
X161962004Y-82081896D01*
X161962009Y-82081894D01*
X162135004Y-81956206D01*
X162286206Y-81805004D01*
X162411894Y-81632009D01*
X162508972Y-81441483D01*
X162575049Y-81238116D01*
X162608500Y-81026916D01*
X162608500Y-80813084D01*
X162575049Y-80601884D01*
X162508972Y-80398517D01*
X162508972Y-80398516D01*
X162411893Y-80207990D01*
X162387048Y-80173794D01*
X162286206Y-80034996D01*
X162135004Y-79883794D01*
X161962009Y-79758106D01*
X161962010Y-79758106D01*
X161962008Y-79758105D01*
X161957311Y-79755712D01*
X161906517Y-79707735D01*
X161889724Y-79639914D01*
X161912264Y-79573780D01*
X161953790Y-79537801D01*
X161953402Y-79537168D01*
X161957229Y-79534822D01*
X161957327Y-79534738D01*
X161957556Y-79534621D01*
X162011716Y-79495270D01*
X162011717Y-79495270D01*
X161379408Y-78862962D01*
X161442993Y-78845925D01*
X161557007Y-78780099D01*
X161650099Y-78687007D01*
X161715925Y-78572993D01*
X161732962Y-78509409D01*
X162365270Y-79141717D01*
X162365270Y-79141716D01*
X162404622Y-79087554D01*
X162501095Y-78898217D01*
X162566757Y-78696130D01*
X162566757Y-78696127D01*
X162600000Y-78486246D01*
X162600000Y-78273753D01*
X162566757Y-78063872D01*
X162566757Y-78063869D01*
X162501095Y-77861782D01*
X162404624Y-77672449D01*
X162365270Y-77618282D01*
X162365269Y-77618282D01*
X161732962Y-78250590D01*
X161715925Y-78187007D01*
X161650099Y-78072993D01*
X161557007Y-77979901D01*
X161442993Y-77914075D01*
X161379409Y-77897037D01*
X162011716Y-77264728D01*
X161957547Y-77225373D01*
X161957545Y-77225371D01*
X161957308Y-77225251D01*
X161957234Y-77225181D01*
X161953396Y-77222829D01*
X161953890Y-77222022D01*
X161906515Y-77177274D01*
X161889724Y-77109451D01*
X161912266Y-77043318D01*
X161957319Y-77004283D01*
X161962009Y-77001894D01*
X162135004Y-76876206D01*
X162286206Y-76725004D01*
X162411894Y-76552009D01*
X162508972Y-76361483D01*
X162575049Y-76158116D01*
X162608500Y-75946916D01*
X162608500Y-75733084D01*
X162575049Y-75521884D01*
X162508972Y-75318517D01*
X162508972Y-75318516D01*
X162440289Y-75183720D01*
X162411894Y-75127991D01*
X162286206Y-74954996D01*
X162135004Y-74803794D01*
X161962009Y-74678106D01*
X161962005Y-74678103D01*
X161958132Y-74675730D01*
X161911254Y-74623920D01*
X161899829Y-74554991D01*
X161927483Y-74490827D01*
X161958132Y-74464270D01*
X161962005Y-74461896D01*
X161962004Y-74461896D01*
X161962009Y-74461894D01*
X162135004Y-74336206D01*
X162286206Y-74185004D01*
X162411894Y-74012009D01*
X162508972Y-73821483D01*
X162575049Y-73618116D01*
X162601294Y-73452411D01*
X162631223Y-73389277D01*
X162690535Y-73352346D01*
X162760397Y-73353344D01*
G37*
%TD.AperFunction*%
%TD*%
%TA.AperFunction,Conductor*%
%TO.N,GNDPWR*%
G36*
X232942539Y-41520185D02*
G01*
X232988294Y-41572989D01*
X232999500Y-41624500D01*
X232999500Y-123625500D01*
X232979815Y-123692539D01*
X232927011Y-123738294D01*
X232875500Y-123749500D01*
X186047781Y-123749500D01*
X185980742Y-123729815D01*
X185960230Y-123713311D01*
X185872158Y-123625500D01*
X185030359Y-122786195D01*
X184996784Y-122724924D01*
X184993912Y-122698762D01*
X184934754Y-102762386D01*
X185766500Y-102762386D01*
X185766500Y-102968347D01*
X185798719Y-103171775D01*
X185862367Y-103367661D01*
X185955873Y-103551173D01*
X186076926Y-103717790D01*
X186076930Y-103717795D01*
X186222571Y-103863436D01*
X186222576Y-103863440D01*
X186389195Y-103984495D01*
X186468459Y-104024883D01*
X186519254Y-104072857D01*
X186536049Y-104140678D01*
X186513511Y-104206813D01*
X186468459Y-104245851D01*
X186389195Y-104286238D01*
X186222576Y-104407293D01*
X186222571Y-104407297D01*
X186076930Y-104552938D01*
X186076926Y-104552943D01*
X185955873Y-104719560D01*
X185862367Y-104903072D01*
X185798719Y-105098958D01*
X185772222Y-105266256D01*
X185766500Y-105302386D01*
X185766500Y-105508348D01*
X185770905Y-105536161D01*
X185798719Y-105711775D01*
X185862367Y-105907661D01*
X185955873Y-106091173D01*
X186076926Y-106257790D01*
X186076930Y-106257795D01*
X186222571Y-106403436D01*
X186222576Y-106403440D01*
X186389195Y-106524495D01*
X186468459Y-106564883D01*
X186519254Y-106612857D01*
X186536049Y-106680678D01*
X186513511Y-106746813D01*
X186468459Y-106785851D01*
X186389195Y-106826238D01*
X186222576Y-106947293D01*
X186222571Y-106947297D01*
X186076930Y-107092938D01*
X186076926Y-107092943D01*
X185955873Y-107259560D01*
X185862367Y-107443072D01*
X185798719Y-107638958D01*
X185766500Y-107842386D01*
X185766500Y-108048347D01*
X185798719Y-108251775D01*
X185862367Y-108447661D01*
X185955873Y-108631173D01*
X186076926Y-108797790D01*
X186076930Y-108797795D01*
X186222571Y-108943436D01*
X186222576Y-108943440D01*
X186389195Y-109064495D01*
X186468459Y-109104883D01*
X186519254Y-109152857D01*
X186536049Y-109220678D01*
X186513511Y-109286813D01*
X186468459Y-109325851D01*
X186389195Y-109366238D01*
X186222576Y-109487293D01*
X186222571Y-109487297D01*
X186076930Y-109632938D01*
X186076926Y-109632943D01*
X185955873Y-109799560D01*
X185862367Y-109983072D01*
X185798719Y-110178958D01*
X185766500Y-110382386D01*
X185766500Y-110588347D01*
X185798719Y-110791775D01*
X185862367Y-110987661D01*
X185955873Y-111171173D01*
X186076926Y-111337790D01*
X186076930Y-111337795D01*
X186222571Y-111483436D01*
X186222576Y-111483440D01*
X186389195Y-111604495D01*
X186468459Y-111644883D01*
X186519254Y-111692857D01*
X186536049Y-111760678D01*
X186513511Y-111826813D01*
X186468459Y-111865851D01*
X186389195Y-111906238D01*
X186222576Y-112027293D01*
X186222571Y-112027297D01*
X186076930Y-112172938D01*
X186076926Y-112172943D01*
X185955873Y-112339560D01*
X185862367Y-112523072D01*
X185798719Y-112718958D01*
X185766500Y-112922386D01*
X185766500Y-113128347D01*
X185798719Y-113331775D01*
X185862367Y-113527661D01*
X185913619Y-113628247D01*
X185950161Y-113699964D01*
X185955873Y-113711173D01*
X186076926Y-113877790D01*
X186076930Y-113877795D01*
X186222571Y-114023436D01*
X186222576Y-114023440D01*
X186254440Y-114046590D01*
X186389197Y-114144496D01*
X186477819Y-114189651D01*
X186528615Y-114237626D01*
X186545410Y-114305447D01*
X186522873Y-114371581D01*
X186477820Y-114410620D01*
X186393648Y-114453508D01*
X186393645Y-114453510D01*
X186349077Y-114485890D01*
X186349077Y-114485891D01*
X187028554Y-115165367D01*
X187022339Y-115165367D01*
X186920606Y-115192626D01*
X186829394Y-115245287D01*
X186754920Y-115319761D01*
X186702259Y-115410973D01*
X186675000Y-115512706D01*
X186675000Y-115518920D01*
X185995524Y-114839444D01*
X185995523Y-114839444D01*
X185963143Y-114884011D01*
X185870244Y-115066335D01*
X185807009Y-115260949D01*
X185775000Y-115463049D01*
X185775000Y-115667684D01*
X185807009Y-115869784D01*
X185870244Y-116064398D01*
X185963141Y-116246717D01*
X185963147Y-116246726D01*
X185995523Y-116291288D01*
X185995524Y-116291289D01*
X186675000Y-115611813D01*
X186675000Y-115618028D01*
X186702259Y-115719761D01*
X186754920Y-115810973D01*
X186829394Y-115885447D01*
X186920606Y-115938108D01*
X187022339Y-115965367D01*
X187028553Y-115965367D01*
X186349076Y-116644841D01*
X186350826Y-116667073D01*
X186356733Y-116674732D01*
X186362714Y-116744345D01*
X186330110Y-116806141D01*
X186280188Y-116837430D01*
X186202262Y-116863252D01*
X186202259Y-116863253D01*
X186051346Y-116956338D01*
X185925971Y-117081713D01*
X185832886Y-117232626D01*
X185832884Y-117232631D01*
X185777113Y-117400939D01*
X185766500Y-117504814D01*
X185766500Y-118705904D01*
X185766501Y-118705920D01*
X185777113Y-118809793D01*
X185832885Y-118978105D01*
X185925970Y-119129019D01*
X186051348Y-119254397D01*
X186202262Y-119347482D01*
X186370574Y-119403254D01*
X186474455Y-119413867D01*
X187675544Y-119413866D01*
X187779426Y-119403254D01*
X187947738Y-119347482D01*
X188098652Y-119254397D01*
X188224030Y-119129019D01*
X188317115Y-118978105D01*
X188372887Y-118809793D01*
X188383500Y-118705912D01*
X188383499Y-117504823D01*
X188372887Y-117400941D01*
X188317115Y-117232629D01*
X188224030Y-117081715D01*
X188098652Y-116956337D01*
X187947738Y-116863252D01*
X187869811Y-116837430D01*
X187812366Y-116797657D01*
X187785543Y-116733142D01*
X187797858Y-116664366D01*
X187799541Y-116662377D01*
X187800921Y-116644841D01*
X187121447Y-115965367D01*
X187127661Y-115965367D01*
X187229394Y-115938108D01*
X187320606Y-115885447D01*
X187395080Y-115810973D01*
X187447741Y-115719761D01*
X187475000Y-115618028D01*
X187475000Y-115611815D01*
X188154474Y-116291289D01*
X188154474Y-116291288D01*
X188186859Y-116246716D01*
X188279755Y-116064398D01*
X188342990Y-115869784D01*
X188375000Y-115667684D01*
X188375000Y-115463049D01*
X188342990Y-115260949D01*
X188279755Y-115066335D01*
X188186859Y-114884017D01*
X188154474Y-114839444D01*
X188154474Y-114839443D01*
X187475000Y-115518918D01*
X187475000Y-115512706D01*
X187447741Y-115410973D01*
X187395080Y-115319761D01*
X187320606Y-115245287D01*
X187229394Y-115192626D01*
X187127661Y-115165367D01*
X187121446Y-115165367D01*
X187800922Y-114485891D01*
X187800921Y-114485890D01*
X187756359Y-114453514D01*
X187756350Y-114453508D01*
X187672180Y-114410621D01*
X187621384Y-114362646D01*
X187604589Y-114294825D01*
X187627127Y-114228690D01*
X187672179Y-114189651D01*
X187760803Y-114144496D01*
X187823741Y-114098769D01*
X194766500Y-114098769D01*
X194766500Y-114351964D01*
X194784522Y-114465749D01*
X194806106Y-114602025D01*
X194884344Y-114842817D01*
X194999287Y-115068405D01*
X195148105Y-115273235D01*
X195327132Y-115452262D01*
X195531962Y-115601080D01*
X195757550Y-115716023D01*
X195998342Y-115794261D01*
X196127176Y-115814666D01*
X196248403Y-115833867D01*
X196248408Y-115833867D01*
X196501597Y-115833867D01*
X196612108Y-115816363D01*
X196751658Y-115794261D01*
X196992450Y-115716023D01*
X197218038Y-115601080D01*
X197422868Y-115452262D01*
X197601895Y-115273235D01*
X197750713Y-115068405D01*
X197865656Y-114842817D01*
X197943894Y-114602025D01*
X197965996Y-114462475D01*
X197983500Y-114351964D01*
X197983500Y-114098769D01*
X197945941Y-113861633D01*
X197943894Y-113848709D01*
X197930248Y-113806712D01*
X205534000Y-113806712D01*
X205534000Y-115904021D01*
X205540511Y-115964569D01*
X205540511Y-115964571D01*
X205577746Y-116064398D01*
X205591611Y-116101571D01*
X205679239Y-116218628D01*
X205796296Y-116306256D01*
X205933299Y-116357356D01*
X205960550Y-116360285D01*
X205993845Y-116363866D01*
X205993862Y-116363867D01*
X207996138Y-116363867D01*
X207996154Y-116363866D01*
X208023192Y-116360958D01*
X208056701Y-116357356D01*
X208193704Y-116306256D01*
X208310761Y-116218628D01*
X208398389Y-116101571D01*
X208405507Y-116082486D01*
X208447377Y-116026554D01*
X208512842Y-116002137D01*
X208581115Y-116016989D01*
X208594566Y-116025498D01*
X208769269Y-116152427D01*
X208866078Y-116201753D01*
X208974166Y-116256827D01*
X208974168Y-116256827D01*
X208974171Y-116256829D01*
X209080224Y-116291288D01*
X209192881Y-116327893D01*
X209420012Y-116363867D01*
X209420017Y-116363867D01*
X209649988Y-116363867D01*
X209877118Y-116327893D01*
X209943712Y-116306255D01*
X210095829Y-116256829D01*
X210300731Y-116152427D01*
X210486778Y-116017256D01*
X210649389Y-115854645D01*
X210709937Y-115771307D01*
X210765264Y-115728643D01*
X210834877Y-115722664D01*
X210896672Y-115755269D01*
X210910571Y-115771308D01*
X210967097Y-115849108D01*
X210967097Y-115849109D01*
X211128757Y-116010769D01*
X211313723Y-116145155D01*
X211517429Y-116248949D01*
X211734871Y-116319601D01*
X211825000Y-116333876D01*
X211825000Y-115346114D01*
X211862708Y-115367885D01*
X212002591Y-115405367D01*
X212147409Y-115405367D01*
X212287292Y-115367885D01*
X212325000Y-115346114D01*
X212325000Y-116333875D01*
X212415128Y-116319601D01*
X212632570Y-116248949D01*
X212836276Y-116145155D01*
X213021242Y-116010769D01*
X213182902Y-115849109D01*
X213317288Y-115664143D01*
X213421082Y-115460437D01*
X213491734Y-115242995D01*
X213513532Y-115105367D01*
X212565748Y-115105367D01*
X212587518Y-115067659D01*
X212625000Y-114927776D01*
X212625000Y-114782958D01*
X212587518Y-114643075D01*
X212565748Y-114605367D01*
X213513532Y-114605367D01*
X213491734Y-114467738D01*
X213421082Y-114250296D01*
X213317288Y-114046590D01*
X213182902Y-113861624D01*
X213021242Y-113699964D01*
X212836276Y-113565578D01*
X212632568Y-113461784D01*
X212415124Y-113391132D01*
X212325000Y-113376857D01*
X212325000Y-114364619D01*
X212287292Y-114342849D01*
X212147409Y-114305367D01*
X212002591Y-114305367D01*
X211862708Y-114342849D01*
X211825000Y-114364619D01*
X211825000Y-113376857D01*
X211824999Y-113376857D01*
X211734875Y-113391132D01*
X211517431Y-113461784D01*
X211313723Y-113565578D01*
X211128757Y-113699964D01*
X210967097Y-113861624D01*
X210967090Y-113861633D01*
X210910570Y-113939425D01*
X210855240Y-113982091D01*
X210785627Y-113988069D01*
X210723832Y-113955463D01*
X210709935Y-113939424D01*
X210665155Y-113877790D01*
X210649389Y-113856089D01*
X210486778Y-113693478D01*
X210300731Y-113558307D01*
X210095833Y-113453906D01*
X209877118Y-113382840D01*
X209649988Y-113346867D01*
X209649983Y-113346867D01*
X209420017Y-113346867D01*
X209420012Y-113346867D01*
X209192881Y-113382840D01*
X208974166Y-113453906D01*
X208769265Y-113558309D01*
X208594573Y-113685230D01*
X208528767Y-113708710D01*
X208460713Y-113692884D01*
X208412018Y-113642779D01*
X208405507Y-113628247D01*
X208398389Y-113609163D01*
X208310761Y-113492106D01*
X208193704Y-113404478D01*
X208056703Y-113353378D01*
X207996154Y-113346867D01*
X207996138Y-113346867D01*
X205993862Y-113346867D01*
X205993845Y-113346867D01*
X205933297Y-113353378D01*
X205933295Y-113353378D01*
X205796295Y-113404478D01*
X205679239Y-113492106D01*
X205591611Y-113609162D01*
X205540511Y-113746162D01*
X205540511Y-113746164D01*
X205534000Y-113806712D01*
X197930248Y-113806712D01*
X197865656Y-113607917D01*
X197750713Y-113382329D01*
X197601895Y-113177499D01*
X197422868Y-112998472D01*
X197218038Y-112849654D01*
X196992450Y-112734711D01*
X196751658Y-112656473D01*
X196501597Y-112616867D01*
X196501592Y-112616867D01*
X196248408Y-112616867D01*
X196248403Y-112616867D01*
X195998341Y-112656473D01*
X195757547Y-112734712D01*
X195531961Y-112849654D01*
X195431855Y-112922386D01*
X195327132Y-112998472D01*
X195327130Y-112998474D01*
X195327129Y-112998474D01*
X195148107Y-113177496D01*
X195148107Y-113177497D01*
X195148105Y-113177499D01*
X195084193Y-113265465D01*
X194999287Y-113382328D01*
X194884345Y-113607914D01*
X194806106Y-113848708D01*
X194766500Y-114098769D01*
X187823741Y-114098769D01*
X187927430Y-114023435D01*
X188073068Y-113877797D01*
X188194129Y-113711170D01*
X188287634Y-113527657D01*
X188351280Y-113331775D01*
X188383500Y-113128348D01*
X188383500Y-112922386D01*
X188351280Y-112718959D01*
X188287634Y-112523077D01*
X188287632Y-112523074D01*
X188287632Y-112523072D01*
X188253709Y-112456495D01*
X188194129Y-112339564D01*
X188178661Y-112318275D01*
X188073073Y-112172943D01*
X188073069Y-112172938D01*
X187927428Y-112027297D01*
X187927423Y-112027293D01*
X187760806Y-111906240D01*
X187760805Y-111906239D01*
X187760803Y-111906238D01*
X187681540Y-111865851D01*
X187630745Y-111817877D01*
X187613950Y-111750056D01*
X187636487Y-111683921D01*
X187681541Y-111644882D01*
X187760803Y-111604496D01*
X187927430Y-111483435D01*
X188073068Y-111337797D01*
X188194129Y-111171170D01*
X188287634Y-110987657D01*
X188351280Y-110791775D01*
X188383500Y-110588348D01*
X188383500Y-110382386D01*
X188351280Y-110178959D01*
X188287634Y-109983077D01*
X188287632Y-109983074D01*
X188287632Y-109983072D01*
X188253709Y-109916495D01*
X188194129Y-109799564D01*
X188178661Y-109778275D01*
X188073073Y-109632943D01*
X188073069Y-109632938D01*
X187927428Y-109487297D01*
X187927423Y-109487293D01*
X187760806Y-109366240D01*
X187760805Y-109366239D01*
X187760803Y-109366238D01*
X187681540Y-109325851D01*
X187630745Y-109277877D01*
X187613950Y-109210056D01*
X187636487Y-109143921D01*
X187681541Y-109104882D01*
X187760803Y-109064496D01*
X187927430Y-108943435D01*
X188073068Y-108797797D01*
X188194129Y-108631170D01*
X188287634Y-108447657D01*
X188351280Y-108251775D01*
X188383500Y-108048348D01*
X188383500Y-107842386D01*
X188351280Y-107638959D01*
X188287634Y-107443077D01*
X188287632Y-107443074D01*
X188287632Y-107443072D01*
X188253709Y-107376495D01*
X188194129Y-107259564D01*
X188178661Y-107238275D01*
X188073073Y-107092943D01*
X188073069Y-107092938D01*
X187927428Y-106947297D01*
X187927423Y-106947293D01*
X187760806Y-106826240D01*
X187760805Y-106826239D01*
X187760803Y-106826238D01*
X187681540Y-106785851D01*
X187630745Y-106737877D01*
X187613950Y-106670056D01*
X187636487Y-106603921D01*
X187681541Y-106564882D01*
X187760803Y-106524496D01*
X187927430Y-106403435D01*
X188073068Y-106257797D01*
X188194129Y-106091170D01*
X188287634Y-105907657D01*
X188351280Y-105711775D01*
X188383500Y-105508348D01*
X188383500Y-105302386D01*
X188373319Y-105238106D01*
X188351280Y-105098958D01*
X188287632Y-104903072D01*
X188242575Y-104814645D01*
X188194129Y-104719564D01*
X188128039Y-104628598D01*
X188073073Y-104552943D01*
X188073069Y-104552938D01*
X187927428Y-104407297D01*
X187927423Y-104407293D01*
X187760806Y-104286240D01*
X187760805Y-104286239D01*
X187760803Y-104286238D01*
X187681540Y-104245851D01*
X187630745Y-104197877D01*
X187613950Y-104130056D01*
X187636487Y-104063921D01*
X187681541Y-104024882D01*
X187760803Y-103984496D01*
X187927430Y-103863435D01*
X188073068Y-103717797D01*
X188194129Y-103551170D01*
X188287634Y-103367657D01*
X188351280Y-103171775D01*
X188352383Y-103164813D01*
X194766500Y-103164813D01*
X194766500Y-104965920D01*
X194777113Y-105069795D01*
X194832884Y-105238103D01*
X194832889Y-105238114D01*
X194925967Y-105389015D01*
X194925970Y-105389019D01*
X195051347Y-105514396D01*
X195051351Y-105514399D01*
X195202252Y-105607477D01*
X195202255Y-105607478D01*
X195202261Y-105607482D01*
X195370573Y-105663254D01*
X195474454Y-105673867D01*
X195474459Y-105673867D01*
X197275541Y-105673867D01*
X197275546Y-105673867D01*
X197379427Y-105663254D01*
X197547739Y-105607482D01*
X197698652Y-105514397D01*
X197824030Y-105389019D01*
X197917115Y-105238106D01*
X197972887Y-105069794D01*
X197983500Y-104965913D01*
X197983500Y-103164821D01*
X197972887Y-103060940D01*
X197917115Y-102892628D01*
X197839448Y-102766712D01*
X205374000Y-102766712D01*
X205374000Y-104864021D01*
X205380511Y-104924569D01*
X205380511Y-104924571D01*
X205424493Y-105042488D01*
X205431611Y-105061571D01*
X205519239Y-105178628D01*
X205636296Y-105266256D01*
X205773299Y-105317356D01*
X205800550Y-105320285D01*
X205833845Y-105323866D01*
X205833862Y-105323867D01*
X207836138Y-105323867D01*
X207836154Y-105323866D01*
X207863192Y-105320958D01*
X207896701Y-105317356D01*
X208033704Y-105266256D01*
X208150761Y-105178628D01*
X208238389Y-105061571D01*
X208245507Y-105042486D01*
X208287377Y-104986554D01*
X208352842Y-104962137D01*
X208421115Y-104976989D01*
X208434566Y-104985498D01*
X208609269Y-105112427D01*
X208706078Y-105161753D01*
X208814166Y-105216827D01*
X208814168Y-105216827D01*
X208814171Y-105216829D01*
X208931404Y-105254920D01*
X209032881Y-105287893D01*
X209260012Y-105323867D01*
X209260017Y-105323867D01*
X209489988Y-105323867D01*
X209717118Y-105287893D01*
X209783712Y-105266255D01*
X209935829Y-105216829D01*
X210140731Y-105112427D01*
X210326778Y-104977256D01*
X210489389Y-104814645D01*
X210544683Y-104738539D01*
X210600012Y-104695875D01*
X210669625Y-104689896D01*
X210731420Y-104722502D01*
X210745314Y-104738536D01*
X210800611Y-104814645D01*
X210963222Y-104977256D01*
X211149269Y-105112427D01*
X211246078Y-105161753D01*
X211354166Y-105216827D01*
X211354168Y-105216827D01*
X211354171Y-105216829D01*
X211471404Y-105254920D01*
X211572881Y-105287893D01*
X211800012Y-105323867D01*
X211800017Y-105323867D01*
X212029988Y-105323867D01*
X212257118Y-105287893D01*
X212323712Y-105266255D01*
X212475829Y-105216829D01*
X212680731Y-105112427D01*
X212866778Y-104977256D01*
X213029389Y-104814645D01*
X213164560Y-104628598D01*
X213268962Y-104423696D01*
X213340026Y-104204985D01*
X213341152Y-104197877D01*
X213376000Y-103977855D01*
X213376000Y-103652878D01*
X213340026Y-103425748D01*
X213268960Y-103207033D01*
X213164559Y-103002135D01*
X213029389Y-102816089D01*
X212866778Y-102653478D01*
X212680731Y-102518307D01*
X212475833Y-102413906D01*
X212257118Y-102342840D01*
X212029988Y-102306867D01*
X212029983Y-102306867D01*
X211800017Y-102306867D01*
X211800012Y-102306867D01*
X211572881Y-102342840D01*
X211354166Y-102413906D01*
X211149268Y-102518307D01*
X210963219Y-102653480D01*
X210800612Y-102816087D01*
X210745318Y-102892193D01*
X210689987Y-102934858D01*
X210620374Y-102940837D01*
X210558579Y-102908231D01*
X210544682Y-102892193D01*
X210528259Y-102869589D01*
X210489389Y-102816089D01*
X210326778Y-102653478D01*
X210140731Y-102518307D01*
X209935833Y-102413906D01*
X209717118Y-102342840D01*
X209489988Y-102306867D01*
X209489983Y-102306867D01*
X209260017Y-102306867D01*
X209260012Y-102306867D01*
X209032881Y-102342840D01*
X208814166Y-102413906D01*
X208609265Y-102518309D01*
X208434573Y-102645230D01*
X208368767Y-102668710D01*
X208300713Y-102652884D01*
X208252018Y-102602779D01*
X208245507Y-102588247D01*
X208238389Y-102569163D01*
X208150761Y-102452106D01*
X208033704Y-102364478D01*
X207975694Y-102342841D01*
X207896703Y-102313378D01*
X207836154Y-102306867D01*
X207836138Y-102306867D01*
X205833862Y-102306867D01*
X205833845Y-102306867D01*
X205773297Y-102313378D01*
X205773295Y-102313378D01*
X205636295Y-102364478D01*
X205519239Y-102452106D01*
X205431611Y-102569162D01*
X205380511Y-102706162D01*
X205380511Y-102706164D01*
X205374000Y-102766712D01*
X197839448Y-102766712D01*
X197824030Y-102741715D01*
X197698652Y-102616337D01*
X197698648Y-102616334D01*
X197547747Y-102523256D01*
X197547741Y-102523253D01*
X197547739Y-102523252D01*
X197532816Y-102518307D01*
X197379428Y-102467480D01*
X197275553Y-102456867D01*
X197275546Y-102456867D01*
X195474454Y-102456867D01*
X195474446Y-102456867D01*
X195370571Y-102467480D01*
X195202263Y-102523251D01*
X195202252Y-102523256D01*
X195051351Y-102616334D01*
X195051347Y-102616337D01*
X194925970Y-102741714D01*
X194925967Y-102741718D01*
X194832889Y-102892619D01*
X194832884Y-102892630D01*
X194777113Y-103060938D01*
X194766500Y-103164813D01*
X188352383Y-103164813D01*
X188383500Y-102968348D01*
X188383500Y-102762386D01*
X188366251Y-102653480D01*
X188351280Y-102558958D01*
X188287632Y-102363072D01*
X188253709Y-102296495D01*
X188194129Y-102179564D01*
X188178661Y-102158275D01*
X188073073Y-102012943D01*
X188073069Y-102012938D01*
X187927428Y-101867297D01*
X187927423Y-101867293D01*
X187760806Y-101746240D01*
X187760805Y-101746239D01*
X187760803Y-101746238D01*
X187703496Y-101717038D01*
X187577294Y-101652734D01*
X187381408Y-101589086D01*
X187205794Y-101561272D01*
X187177981Y-101556867D01*
X186972019Y-101556867D01*
X186947550Y-101560742D01*
X186768591Y-101589086D01*
X186572705Y-101652734D01*
X186389193Y-101746240D01*
X186222576Y-101867293D01*
X186222571Y-101867297D01*
X186076930Y-102012938D01*
X186076926Y-102012943D01*
X185955873Y-102179560D01*
X185862367Y-102363072D01*
X185798719Y-102558958D01*
X185766500Y-102762386D01*
X184934754Y-102762386D01*
X184872842Y-81898096D01*
X185606500Y-81898096D01*
X185606500Y-82104057D01*
X185638719Y-82307485D01*
X185702367Y-82503371D01*
X185795873Y-82686883D01*
X185916926Y-82853500D01*
X185916930Y-82853505D01*
X186062571Y-82999146D01*
X186062576Y-82999150D01*
X186229195Y-83120205D01*
X186308459Y-83160593D01*
X186359254Y-83208567D01*
X186376049Y-83276388D01*
X186353511Y-83342523D01*
X186308459Y-83381561D01*
X186229195Y-83421948D01*
X186062576Y-83543003D01*
X186062571Y-83543007D01*
X185916930Y-83688648D01*
X185916926Y-83688653D01*
X185795873Y-83855270D01*
X185702367Y-84038782D01*
X185638719Y-84234668D01*
X185612222Y-84401966D01*
X185606500Y-84438096D01*
X185606500Y-84644058D01*
X185607679Y-84651500D01*
X185638719Y-84847485D01*
X185702367Y-85043371D01*
X185766671Y-85169573D01*
X185795870Y-85226879D01*
X185795873Y-85226883D01*
X185916926Y-85393500D01*
X185916930Y-85393505D01*
X186062571Y-85539146D01*
X186062576Y-85539150D01*
X186229195Y-85660205D01*
X186308459Y-85700593D01*
X186359254Y-85748567D01*
X186376049Y-85816388D01*
X186353511Y-85882523D01*
X186308459Y-85921561D01*
X186229195Y-85961948D01*
X186062576Y-86083003D01*
X186062571Y-86083007D01*
X185916930Y-86228648D01*
X185916926Y-86228653D01*
X185795873Y-86395270D01*
X185702367Y-86578782D01*
X185638719Y-86774668D01*
X185606500Y-86978096D01*
X185606500Y-87184057D01*
X185638719Y-87387485D01*
X185702367Y-87583371D01*
X185756373Y-87689362D01*
X185779477Y-87734706D01*
X185795873Y-87766883D01*
X185916926Y-87933500D01*
X185916930Y-87933505D01*
X186062571Y-88079146D01*
X186062576Y-88079150D01*
X186229195Y-88200205D01*
X186308459Y-88240593D01*
X186359254Y-88288567D01*
X186376049Y-88356388D01*
X186353511Y-88422523D01*
X186308459Y-88461561D01*
X186229195Y-88501948D01*
X186062576Y-88623003D01*
X186062571Y-88623007D01*
X185916930Y-88768648D01*
X185916926Y-88768653D01*
X185795873Y-88935270D01*
X185702367Y-89118782D01*
X185638719Y-89314668D01*
X185606500Y-89518096D01*
X185606500Y-89724057D01*
X185638719Y-89927485D01*
X185702367Y-90123371D01*
X185766671Y-90249573D01*
X185779477Y-90274706D01*
X185795873Y-90306883D01*
X185916926Y-90473500D01*
X185916930Y-90473505D01*
X186062571Y-90619146D01*
X186062576Y-90619150D01*
X186229195Y-90740205D01*
X186308459Y-90780593D01*
X186359254Y-90828567D01*
X186376049Y-90896388D01*
X186353511Y-90962523D01*
X186308459Y-91001561D01*
X186229195Y-91041948D01*
X186062576Y-91163003D01*
X186062571Y-91163007D01*
X185916930Y-91308648D01*
X185916926Y-91308653D01*
X185795873Y-91475270D01*
X185702367Y-91658782D01*
X185638719Y-91854668D01*
X185606500Y-92058096D01*
X185606500Y-92264057D01*
X185638719Y-92467485D01*
X185702367Y-92663371D01*
X185753619Y-92763957D01*
X185790161Y-92835674D01*
X185795873Y-92846883D01*
X185916926Y-93013500D01*
X185916930Y-93013505D01*
X186062571Y-93159146D01*
X186062576Y-93159150D01*
X186094440Y-93182300D01*
X186229197Y-93280206D01*
X186317819Y-93325361D01*
X186368615Y-93373336D01*
X186385410Y-93441157D01*
X186362873Y-93507291D01*
X186317820Y-93546330D01*
X186233648Y-93589218D01*
X186233645Y-93589220D01*
X186189077Y-93621600D01*
X186189077Y-93621601D01*
X186868554Y-94301077D01*
X186862339Y-94301077D01*
X186760606Y-94328336D01*
X186669394Y-94380997D01*
X186594920Y-94455471D01*
X186542259Y-94546683D01*
X186515000Y-94648416D01*
X186515000Y-94654630D01*
X185835524Y-93975154D01*
X185835523Y-93975154D01*
X185803143Y-94019721D01*
X185710244Y-94202045D01*
X185647009Y-94396659D01*
X185615000Y-94598759D01*
X185615000Y-94803394D01*
X185647009Y-95005494D01*
X185710244Y-95200108D01*
X185803141Y-95382427D01*
X185803147Y-95382436D01*
X185835523Y-95426998D01*
X185835524Y-95426999D01*
X186515000Y-94747523D01*
X186515000Y-94753738D01*
X186542259Y-94855471D01*
X186594920Y-94946683D01*
X186669394Y-95021157D01*
X186760606Y-95073818D01*
X186862339Y-95101077D01*
X186868553Y-95101077D01*
X186189076Y-95780551D01*
X186190826Y-95802783D01*
X186196733Y-95810442D01*
X186202714Y-95880055D01*
X186170110Y-95941851D01*
X186120188Y-95973140D01*
X186042262Y-95998962D01*
X186042259Y-95998963D01*
X185891346Y-96092048D01*
X185765971Y-96217423D01*
X185672886Y-96368336D01*
X185672884Y-96368341D01*
X185617113Y-96536649D01*
X185606500Y-96640524D01*
X185606500Y-97841614D01*
X185606501Y-97841630D01*
X185617113Y-97945503D01*
X185672885Y-98113815D01*
X185765970Y-98264729D01*
X185891348Y-98390107D01*
X186042262Y-98483192D01*
X186210574Y-98538964D01*
X186314455Y-98549577D01*
X187515544Y-98549576D01*
X187619426Y-98538964D01*
X187787738Y-98483192D01*
X187938652Y-98390107D01*
X188064030Y-98264729D01*
X188157115Y-98113815D01*
X188212887Y-97945503D01*
X188223500Y-97841622D01*
X188223499Y-96640533D01*
X188212887Y-96536651D01*
X188157115Y-96368339D01*
X188064030Y-96217425D01*
X187938652Y-96092047D01*
X187787738Y-95998962D01*
X187709811Y-95973140D01*
X187652366Y-95933367D01*
X187625543Y-95868852D01*
X187637858Y-95800076D01*
X187639541Y-95798087D01*
X187640921Y-95780551D01*
X186961447Y-95101077D01*
X186967661Y-95101077D01*
X187069394Y-95073818D01*
X187160606Y-95021157D01*
X187235080Y-94946683D01*
X187287741Y-94855471D01*
X187315000Y-94753738D01*
X187315000Y-94747525D01*
X187994474Y-95426999D01*
X187994474Y-95426998D01*
X188026859Y-95382426D01*
X188119755Y-95200108D01*
X188182990Y-95005494D01*
X188215000Y-94803394D01*
X188215000Y-94598759D01*
X188182990Y-94396659D01*
X188119755Y-94202045D01*
X188026859Y-94019727D01*
X187994474Y-93975154D01*
X187994474Y-93975153D01*
X187315000Y-94654628D01*
X187315000Y-94648416D01*
X187287741Y-94546683D01*
X187235080Y-94455471D01*
X187160606Y-94380997D01*
X187069394Y-94328336D01*
X186967661Y-94301077D01*
X186961446Y-94301077D01*
X187640922Y-93621601D01*
X187640921Y-93621600D01*
X187596359Y-93589224D01*
X187596350Y-93589218D01*
X187512180Y-93546331D01*
X187461384Y-93498356D01*
X187444589Y-93430535D01*
X187467127Y-93364400D01*
X187512179Y-93325361D01*
X187600803Y-93280206D01*
X187663741Y-93234479D01*
X194606500Y-93234479D01*
X194606500Y-93487674D01*
X194624522Y-93601459D01*
X194646106Y-93737735D01*
X194724344Y-93978527D01*
X194839287Y-94204115D01*
X194988105Y-94408945D01*
X195167132Y-94587972D01*
X195371962Y-94736790D01*
X195597550Y-94851733D01*
X195838342Y-94929971D01*
X195967176Y-94950376D01*
X196088403Y-94969577D01*
X196088408Y-94969577D01*
X196341597Y-94969577D01*
X196452108Y-94952073D01*
X196591658Y-94929971D01*
X196832450Y-94851733D01*
X197058038Y-94736790D01*
X197262868Y-94587972D01*
X197441895Y-94408945D01*
X197590713Y-94204115D01*
X197705656Y-93978527D01*
X197783894Y-93737735D01*
X197805996Y-93598185D01*
X197823500Y-93487674D01*
X197823500Y-93234479D01*
X197785941Y-92997343D01*
X197783894Y-92984419D01*
X197770248Y-92942422D01*
X205374000Y-92942422D01*
X205374000Y-95039731D01*
X205380511Y-95100279D01*
X205380511Y-95100281D01*
X205417746Y-95200108D01*
X205431611Y-95237281D01*
X205519239Y-95354338D01*
X205636296Y-95441966D01*
X205773299Y-95493066D01*
X205800550Y-95495995D01*
X205833845Y-95499576D01*
X205833862Y-95499577D01*
X207836138Y-95499577D01*
X207836154Y-95499576D01*
X207863192Y-95496668D01*
X207896701Y-95493066D01*
X208033704Y-95441966D01*
X208150761Y-95354338D01*
X208238389Y-95237281D01*
X208245507Y-95218196D01*
X208287377Y-95162264D01*
X208352842Y-95137847D01*
X208421115Y-95152699D01*
X208434566Y-95161208D01*
X208609269Y-95288137D01*
X208706078Y-95337463D01*
X208814166Y-95392537D01*
X208814168Y-95392537D01*
X208814171Y-95392539D01*
X208920224Y-95426998D01*
X209032881Y-95463603D01*
X209260012Y-95499577D01*
X209260017Y-95499577D01*
X209489988Y-95499577D01*
X209717118Y-95463603D01*
X209783712Y-95441965D01*
X209935829Y-95392539D01*
X210140731Y-95288137D01*
X210326778Y-95152966D01*
X210489389Y-94990355D01*
X210549937Y-94907017D01*
X210605264Y-94864353D01*
X210674877Y-94858374D01*
X210736672Y-94890979D01*
X210750571Y-94907018D01*
X210807097Y-94984818D01*
X210807097Y-94984819D01*
X210968757Y-95146479D01*
X211153723Y-95280865D01*
X211357429Y-95384659D01*
X211574871Y-95455311D01*
X211665000Y-95469586D01*
X211665000Y-94481824D01*
X211702708Y-94503595D01*
X211842591Y-94541077D01*
X211987409Y-94541077D01*
X212127292Y-94503595D01*
X212165000Y-94481824D01*
X212165000Y-95469585D01*
X212255128Y-95455311D01*
X212472570Y-95384659D01*
X212676276Y-95280865D01*
X212861242Y-95146479D01*
X213022902Y-94984819D01*
X213157288Y-94799853D01*
X213261082Y-94596147D01*
X213331734Y-94378705D01*
X213353532Y-94241077D01*
X212405748Y-94241077D01*
X212427518Y-94203369D01*
X212465000Y-94063486D01*
X212465000Y-93918668D01*
X212427518Y-93778785D01*
X212405748Y-93741077D01*
X213353532Y-93741077D01*
X213331734Y-93603448D01*
X213261082Y-93386006D01*
X213157288Y-93182300D01*
X213022902Y-92997334D01*
X212861242Y-92835674D01*
X212676276Y-92701288D01*
X212472568Y-92597494D01*
X212255124Y-92526842D01*
X212165000Y-92512567D01*
X212165000Y-93500329D01*
X212127292Y-93478559D01*
X211987409Y-93441077D01*
X211842591Y-93441077D01*
X211702708Y-93478559D01*
X211665000Y-93500329D01*
X211665000Y-92512567D01*
X211664999Y-92512567D01*
X211574875Y-92526842D01*
X211357431Y-92597494D01*
X211153723Y-92701288D01*
X210968757Y-92835674D01*
X210807097Y-92997334D01*
X210807090Y-92997343D01*
X210750570Y-93075135D01*
X210695240Y-93117801D01*
X210625627Y-93123779D01*
X210563832Y-93091173D01*
X210549935Y-93075134D01*
X210505155Y-93013500D01*
X210489389Y-92991799D01*
X210326778Y-92829188D01*
X210140731Y-92694017D01*
X209935833Y-92589616D01*
X209717118Y-92518550D01*
X209489988Y-92482577D01*
X209489983Y-92482577D01*
X209260017Y-92482577D01*
X209260012Y-92482577D01*
X209032881Y-92518550D01*
X208814166Y-92589616D01*
X208609265Y-92694019D01*
X208434573Y-92820940D01*
X208368767Y-92844420D01*
X208300713Y-92828594D01*
X208252018Y-92778489D01*
X208245507Y-92763957D01*
X208238389Y-92744873D01*
X208150761Y-92627816D01*
X208033704Y-92540188D01*
X207896703Y-92489088D01*
X207836154Y-92482577D01*
X207836138Y-92482577D01*
X205833862Y-92482577D01*
X205833845Y-92482577D01*
X205773297Y-92489088D01*
X205773295Y-92489088D01*
X205636295Y-92540188D01*
X205519239Y-92627816D01*
X205431611Y-92744872D01*
X205380511Y-92881872D01*
X205380511Y-92881874D01*
X205374000Y-92942422D01*
X197770248Y-92942422D01*
X197705656Y-92743627D01*
X197590713Y-92518039D01*
X197441895Y-92313209D01*
X197262868Y-92134182D01*
X197058038Y-91985364D01*
X196832450Y-91870421D01*
X196591658Y-91792183D01*
X196341597Y-91752577D01*
X196341592Y-91752577D01*
X196088408Y-91752577D01*
X196088403Y-91752577D01*
X195838341Y-91792183D01*
X195597547Y-91870422D01*
X195371961Y-91985364D01*
X195271855Y-92058096D01*
X195167132Y-92134182D01*
X195167130Y-92134184D01*
X195167129Y-92134184D01*
X194988107Y-92313206D01*
X194988107Y-92313207D01*
X194988105Y-92313209D01*
X194924193Y-92401175D01*
X194839287Y-92518038D01*
X194724345Y-92743624D01*
X194646106Y-92984418D01*
X194606500Y-93234479D01*
X187663741Y-93234479D01*
X187767430Y-93159145D01*
X187913068Y-93013507D01*
X188034129Y-92846880D01*
X188127634Y-92663367D01*
X188191280Y-92467485D01*
X188223500Y-92264058D01*
X188223500Y-92058096D01*
X188191280Y-91854669D01*
X188127634Y-91658787D01*
X188127632Y-91658784D01*
X188127632Y-91658782D01*
X188093709Y-91592205D01*
X188034129Y-91475274D01*
X187988635Y-91412656D01*
X187913073Y-91308653D01*
X187913069Y-91308648D01*
X187767428Y-91163007D01*
X187767423Y-91163003D01*
X187600806Y-91041950D01*
X187600805Y-91041949D01*
X187600803Y-91041948D01*
X187521540Y-91001561D01*
X187470745Y-90953587D01*
X187453950Y-90885766D01*
X187476487Y-90819631D01*
X187521541Y-90780592D01*
X187600803Y-90740206D01*
X187767430Y-90619145D01*
X187913068Y-90473507D01*
X188034129Y-90306880D01*
X188127634Y-90123367D01*
X188191280Y-89927485D01*
X188223500Y-89724058D01*
X188223500Y-89518096D01*
X188191280Y-89314669D01*
X188127634Y-89118787D01*
X188127632Y-89118784D01*
X188127632Y-89118782D01*
X188093709Y-89052205D01*
X188034129Y-88935274D01*
X187988635Y-88872656D01*
X187913073Y-88768653D01*
X187913069Y-88768648D01*
X187767428Y-88623007D01*
X187767423Y-88623003D01*
X187600806Y-88501950D01*
X187600805Y-88501949D01*
X187600803Y-88501948D01*
X187521540Y-88461561D01*
X187470745Y-88413587D01*
X187453950Y-88345766D01*
X187476487Y-88279631D01*
X187521541Y-88240592D01*
X187600803Y-88200206D01*
X187767430Y-88079145D01*
X187913068Y-87933507D01*
X188034129Y-87766880D01*
X188127634Y-87583367D01*
X188191280Y-87387485D01*
X188223500Y-87184058D01*
X188223500Y-86978096D01*
X188191280Y-86774669D01*
X188127634Y-86578787D01*
X188127632Y-86578784D01*
X188127632Y-86578782D01*
X188093709Y-86512205D01*
X188034129Y-86395274D01*
X188018661Y-86373985D01*
X187913073Y-86228653D01*
X187913069Y-86228648D01*
X187767428Y-86083007D01*
X187767423Y-86083003D01*
X187600806Y-85961950D01*
X187600805Y-85961949D01*
X187600803Y-85961948D01*
X187521540Y-85921561D01*
X187470745Y-85873587D01*
X187453950Y-85805766D01*
X187476487Y-85739631D01*
X187521541Y-85700592D01*
X187600803Y-85660206D01*
X187767430Y-85539145D01*
X187913068Y-85393507D01*
X187937813Y-85359448D01*
X223191500Y-85359448D01*
X223191500Y-87060551D01*
X223202113Y-87164428D01*
X223257883Y-87332735D01*
X223257884Y-87332738D01*
X223350967Y-87483647D01*
X223350970Y-87483651D01*
X223476349Y-87609030D01*
X223484185Y-87613863D01*
X223530909Y-87665809D01*
X223542133Y-87734771D01*
X223519407Y-87792288D01*
X223417051Y-87933167D01*
X223305683Y-88151741D01*
X223229875Y-88385053D01*
X223192187Y-88623003D01*
X223191500Y-88627343D01*
X223191500Y-88872657D01*
X223229876Y-89114950D01*
X223305682Y-89348256D01*
X223417051Y-89566832D01*
X223561243Y-89765294D01*
X223561245Y-89765296D01*
X223728268Y-89932319D01*
X223761753Y-89993642D01*
X223756769Y-90063334D01*
X223728268Y-90107681D01*
X223561245Y-90274703D01*
X223561245Y-90274704D01*
X223561243Y-90274706D01*
X223537867Y-90306880D01*
X223417051Y-90473167D01*
X223305683Y-90691741D01*
X223229875Y-90925053D01*
X223192187Y-91163003D01*
X223191500Y-91167343D01*
X223191500Y-91412657D01*
X223229876Y-91654950D01*
X223305682Y-91888256D01*
X223417051Y-92106832D01*
X223561243Y-92305294D01*
X223734706Y-92478757D01*
X223933168Y-92622949D01*
X224151744Y-92734318D01*
X224385050Y-92810124D01*
X224627343Y-92848500D01*
X224627344Y-92848500D01*
X224872656Y-92848500D01*
X224872657Y-92848500D01*
X225114950Y-92810124D01*
X225348256Y-92734318D01*
X225566832Y-92622949D01*
X225765294Y-92478757D01*
X225938757Y-92305294D01*
X226082949Y-92106832D01*
X226194318Y-91888256D01*
X226270124Y-91654950D01*
X226308500Y-91412657D01*
X226308500Y-91167343D01*
X226270124Y-90925050D01*
X226194318Y-90691744D01*
X226082949Y-90473168D01*
X225938757Y-90274706D01*
X225771732Y-90107681D01*
X225738247Y-90046358D01*
X225743231Y-89976666D01*
X225771732Y-89932319D01*
X225776566Y-89927485D01*
X225938757Y-89765294D01*
X226082949Y-89566832D01*
X226194318Y-89348256D01*
X226270124Y-89114950D01*
X226308500Y-88872657D01*
X226308500Y-88627343D01*
X226270124Y-88385050D01*
X226194318Y-88151744D01*
X226082949Y-87933168D01*
X225980590Y-87792285D01*
X225957112Y-87726482D01*
X225972937Y-87658428D01*
X226015816Y-87613862D01*
X226023651Y-87609030D01*
X226149030Y-87483651D01*
X226242115Y-87332738D01*
X226297887Y-87164425D01*
X226308500Y-87060544D01*
X226308500Y-85359456D01*
X226297887Y-85255575D01*
X226288379Y-85226880D01*
X226242116Y-85087264D01*
X226242115Y-85087261D01*
X226149032Y-84936352D01*
X226149029Y-84936348D01*
X226023651Y-84810970D01*
X226023647Y-84810967D01*
X225872738Y-84717884D01*
X225872735Y-84717883D01*
X225704428Y-84662113D01*
X225600551Y-84651500D01*
X225600544Y-84651500D01*
X223899456Y-84651500D01*
X223899448Y-84651500D01*
X223795571Y-84662113D01*
X223627264Y-84717883D01*
X223627261Y-84717884D01*
X223476352Y-84810967D01*
X223476348Y-84810970D01*
X223350970Y-84936348D01*
X223350967Y-84936352D01*
X223257884Y-85087261D01*
X223257883Y-85087264D01*
X223202113Y-85255571D01*
X223191500Y-85359448D01*
X187937813Y-85359448D01*
X188034129Y-85226880D01*
X188127634Y-85043367D01*
X188191280Y-84847485D01*
X188223500Y-84644058D01*
X188223500Y-84438096D01*
X188213319Y-84373816D01*
X188191280Y-84234668D01*
X188127632Y-84038782D01*
X188082575Y-83950355D01*
X188034129Y-83855274D01*
X187968039Y-83764308D01*
X187913073Y-83688653D01*
X187913069Y-83688648D01*
X187767428Y-83543007D01*
X187767423Y-83543003D01*
X187600806Y-83421950D01*
X187600805Y-83421949D01*
X187600803Y-83421948D01*
X187521540Y-83381561D01*
X187470745Y-83333587D01*
X187453950Y-83265766D01*
X187476487Y-83199631D01*
X187521541Y-83160592D01*
X187600803Y-83120206D01*
X187767430Y-82999145D01*
X187913068Y-82853507D01*
X188034129Y-82686880D01*
X188127634Y-82503367D01*
X188191280Y-82307485D01*
X188192383Y-82300523D01*
X194606500Y-82300523D01*
X194606500Y-84101630D01*
X194617113Y-84205505D01*
X194672884Y-84373813D01*
X194672889Y-84373824D01*
X194765967Y-84524725D01*
X194765970Y-84524729D01*
X194891347Y-84650106D01*
X194891351Y-84650109D01*
X195042252Y-84743187D01*
X195042255Y-84743188D01*
X195042261Y-84743192D01*
X195210573Y-84798964D01*
X195314454Y-84809577D01*
X195314459Y-84809577D01*
X197115541Y-84809577D01*
X197115546Y-84809577D01*
X197219427Y-84798964D01*
X197387739Y-84743192D01*
X197538652Y-84650107D01*
X197664030Y-84524729D01*
X197757115Y-84373816D01*
X197812887Y-84205504D01*
X197823500Y-84101623D01*
X197823500Y-82300531D01*
X197812887Y-82196650D01*
X197757115Y-82028338D01*
X197679448Y-81902422D01*
X205214000Y-81902422D01*
X205214000Y-83999731D01*
X205220511Y-84060279D01*
X205220511Y-84060281D01*
X205264493Y-84178198D01*
X205271611Y-84197281D01*
X205359239Y-84314338D01*
X205476296Y-84401966D01*
X205613299Y-84453066D01*
X205640550Y-84455995D01*
X205673845Y-84459576D01*
X205673862Y-84459577D01*
X207676138Y-84459577D01*
X207676154Y-84459576D01*
X207703192Y-84456668D01*
X207736701Y-84453066D01*
X207873704Y-84401966D01*
X207990761Y-84314338D01*
X208078389Y-84197281D01*
X208085507Y-84178196D01*
X208127377Y-84122264D01*
X208192842Y-84097847D01*
X208261115Y-84112699D01*
X208274566Y-84121208D01*
X208449269Y-84248137D01*
X208546078Y-84297463D01*
X208654166Y-84352537D01*
X208654168Y-84352537D01*
X208654171Y-84352539D01*
X208771404Y-84390630D01*
X208872881Y-84423603D01*
X209100012Y-84459577D01*
X209100017Y-84459577D01*
X209329988Y-84459577D01*
X209557118Y-84423603D01*
X209623712Y-84401965D01*
X209775829Y-84352539D01*
X209980731Y-84248137D01*
X210166778Y-84112966D01*
X210329389Y-83950355D01*
X210384683Y-83874249D01*
X210440012Y-83831585D01*
X210509625Y-83825606D01*
X210571420Y-83858212D01*
X210585314Y-83874246D01*
X210640611Y-83950355D01*
X210803222Y-84112966D01*
X210989269Y-84248137D01*
X211086078Y-84297463D01*
X211194166Y-84352537D01*
X211194168Y-84352537D01*
X211194171Y-84352539D01*
X211311404Y-84390630D01*
X211412881Y-84423603D01*
X211640012Y-84459577D01*
X211640017Y-84459577D01*
X211869988Y-84459577D01*
X212097118Y-84423603D01*
X212163712Y-84401965D01*
X212315829Y-84352539D01*
X212520731Y-84248137D01*
X212706778Y-84112966D01*
X212869389Y-83950355D01*
X213004560Y-83764308D01*
X213108962Y-83559406D01*
X213180026Y-83340695D01*
X213181152Y-83333587D01*
X213216000Y-83113565D01*
X213216000Y-82788588D01*
X213180026Y-82561458D01*
X213108960Y-82342743D01*
X213004559Y-82137845D01*
X212869389Y-81951799D01*
X212706778Y-81789188D01*
X212520731Y-81654017D01*
X212315833Y-81549616D01*
X212097118Y-81478550D01*
X211869988Y-81442577D01*
X211869983Y-81442577D01*
X211640017Y-81442577D01*
X211640012Y-81442577D01*
X211412881Y-81478550D01*
X211194166Y-81549616D01*
X210989268Y-81654017D01*
X210803219Y-81789190D01*
X210640612Y-81951797D01*
X210585318Y-82027903D01*
X210529987Y-82070568D01*
X210460374Y-82076547D01*
X210398579Y-82043941D01*
X210384682Y-82027903D01*
X210368259Y-82005299D01*
X210329389Y-81951799D01*
X210166778Y-81789188D01*
X209980731Y-81654017D01*
X209775833Y-81549616D01*
X209557118Y-81478550D01*
X209329988Y-81442577D01*
X209329983Y-81442577D01*
X209100017Y-81442577D01*
X209100012Y-81442577D01*
X208872881Y-81478550D01*
X208654166Y-81549616D01*
X208449265Y-81654019D01*
X208274573Y-81780940D01*
X208208767Y-81804420D01*
X208140713Y-81788594D01*
X208092018Y-81738489D01*
X208085507Y-81723957D01*
X208078389Y-81704873D01*
X207990761Y-81587816D01*
X207873704Y-81500188D01*
X207815694Y-81478551D01*
X207736703Y-81449088D01*
X207676154Y-81442577D01*
X207676138Y-81442577D01*
X205673862Y-81442577D01*
X205673845Y-81442577D01*
X205613297Y-81449088D01*
X205613295Y-81449088D01*
X205476295Y-81500188D01*
X205359239Y-81587816D01*
X205271611Y-81704872D01*
X205220511Y-81841872D01*
X205220511Y-81841874D01*
X205214000Y-81902422D01*
X197679448Y-81902422D01*
X197664030Y-81877425D01*
X197538652Y-81752047D01*
X197538648Y-81752044D01*
X197387747Y-81658966D01*
X197387741Y-81658963D01*
X197387739Y-81658962D01*
X197372816Y-81654017D01*
X197219428Y-81603190D01*
X197115553Y-81592577D01*
X197115546Y-81592577D01*
X195314454Y-81592577D01*
X195314446Y-81592577D01*
X195210571Y-81603190D01*
X195042263Y-81658961D01*
X195042252Y-81658966D01*
X194891351Y-81752044D01*
X194891347Y-81752047D01*
X194765970Y-81877424D01*
X194765967Y-81877428D01*
X194672889Y-82028329D01*
X194672884Y-82028340D01*
X194617113Y-82196648D01*
X194606500Y-82300523D01*
X188192383Y-82300523D01*
X188223500Y-82104058D01*
X188223500Y-81898096D01*
X188206251Y-81789190D01*
X188191280Y-81694668D01*
X188127632Y-81498782D01*
X188093709Y-81432205D01*
X188034129Y-81315274D01*
X188018661Y-81293985D01*
X187913073Y-81148653D01*
X187913069Y-81148648D01*
X187767428Y-81003007D01*
X187767423Y-81003003D01*
X187600806Y-80881950D01*
X187600805Y-80881949D01*
X187600803Y-80881948D01*
X187543496Y-80852748D01*
X187417294Y-80788444D01*
X187221408Y-80724796D01*
X187045794Y-80696982D01*
X187017981Y-80692577D01*
X186812019Y-80692577D01*
X186787550Y-80696452D01*
X186608591Y-80724796D01*
X186412705Y-80788444D01*
X186229193Y-80881950D01*
X186062576Y-81003003D01*
X186062571Y-81003007D01*
X185916930Y-81148648D01*
X185916926Y-81148653D01*
X185795873Y-81315270D01*
X185702367Y-81498782D01*
X185638719Y-81694668D01*
X185606500Y-81898096D01*
X184872842Y-81898096D01*
X184811177Y-61117019D01*
X185391500Y-61117019D01*
X185391500Y-61322980D01*
X185423719Y-61526408D01*
X185487367Y-61722294D01*
X185580873Y-61905806D01*
X185701926Y-62072423D01*
X185701930Y-62072428D01*
X185847571Y-62218069D01*
X185847576Y-62218073D01*
X186014195Y-62339128D01*
X186093459Y-62379516D01*
X186144254Y-62427490D01*
X186161049Y-62495311D01*
X186138511Y-62561446D01*
X186093459Y-62600484D01*
X186014195Y-62640871D01*
X185847576Y-62761926D01*
X185847571Y-62761930D01*
X185701930Y-62907571D01*
X185701926Y-62907576D01*
X185580873Y-63074193D01*
X185487367Y-63257705D01*
X185423719Y-63453591D01*
X185397222Y-63620889D01*
X185391500Y-63657019D01*
X185391500Y-63862981D01*
X185395905Y-63890794D01*
X185423719Y-64066408D01*
X185487367Y-64262294D01*
X185580873Y-64445806D01*
X185701926Y-64612423D01*
X185701930Y-64612428D01*
X185847571Y-64758069D01*
X185847576Y-64758073D01*
X186014195Y-64879128D01*
X186093459Y-64919516D01*
X186144254Y-64967490D01*
X186161049Y-65035311D01*
X186138511Y-65101446D01*
X186093459Y-65140484D01*
X186014195Y-65180871D01*
X185847576Y-65301926D01*
X185847571Y-65301930D01*
X185701930Y-65447571D01*
X185701926Y-65447576D01*
X185580873Y-65614193D01*
X185487367Y-65797705D01*
X185423719Y-65993591D01*
X185391500Y-66197019D01*
X185391500Y-66402980D01*
X185423719Y-66606408D01*
X185487367Y-66802294D01*
X185580873Y-66985806D01*
X185701926Y-67152423D01*
X185701930Y-67152428D01*
X185847571Y-67298069D01*
X185847576Y-67298073D01*
X186014195Y-67419128D01*
X186093459Y-67459516D01*
X186144254Y-67507490D01*
X186161049Y-67575311D01*
X186138511Y-67641446D01*
X186093459Y-67680484D01*
X186014195Y-67720871D01*
X185847576Y-67841926D01*
X185847571Y-67841930D01*
X185701930Y-67987571D01*
X185701926Y-67987576D01*
X185580873Y-68154193D01*
X185487367Y-68337705D01*
X185423719Y-68533591D01*
X185391500Y-68737019D01*
X185391500Y-68942980D01*
X185423719Y-69146408D01*
X185487367Y-69342294D01*
X185580873Y-69525806D01*
X185701926Y-69692423D01*
X185701930Y-69692428D01*
X185847571Y-69838069D01*
X185847576Y-69838073D01*
X186014195Y-69959128D01*
X186093459Y-69999516D01*
X186144254Y-70047490D01*
X186161049Y-70115311D01*
X186138511Y-70181446D01*
X186093459Y-70220484D01*
X186014195Y-70260871D01*
X185847576Y-70381926D01*
X185847571Y-70381930D01*
X185701930Y-70527571D01*
X185701926Y-70527576D01*
X185580873Y-70694193D01*
X185487367Y-70877705D01*
X185423719Y-71073591D01*
X185391500Y-71277019D01*
X185391500Y-71482980D01*
X185423719Y-71686408D01*
X185487367Y-71882294D01*
X185538619Y-71982880D01*
X185575161Y-72054597D01*
X185580873Y-72065806D01*
X185701926Y-72232423D01*
X185701930Y-72232428D01*
X185847571Y-72378069D01*
X185847576Y-72378073D01*
X185879440Y-72401223D01*
X186014197Y-72499129D01*
X186102819Y-72544284D01*
X186153615Y-72592259D01*
X186170410Y-72660080D01*
X186147873Y-72726214D01*
X186102820Y-72765253D01*
X186018648Y-72808141D01*
X186018645Y-72808143D01*
X185974077Y-72840523D01*
X185974077Y-72840524D01*
X186653554Y-73520000D01*
X186647339Y-73520000D01*
X186545606Y-73547259D01*
X186454394Y-73599920D01*
X186379920Y-73674394D01*
X186327259Y-73765606D01*
X186300000Y-73867339D01*
X186300000Y-73873553D01*
X185620524Y-73194077D01*
X185620523Y-73194077D01*
X185588143Y-73238644D01*
X185495244Y-73420968D01*
X185432009Y-73615582D01*
X185400000Y-73817682D01*
X185400000Y-74022317D01*
X185432009Y-74224417D01*
X185495244Y-74419031D01*
X185588141Y-74601350D01*
X185588147Y-74601359D01*
X185620523Y-74645921D01*
X185620524Y-74645922D01*
X186300000Y-73966446D01*
X186300000Y-73972661D01*
X186327259Y-74074394D01*
X186379920Y-74165606D01*
X186454394Y-74240080D01*
X186545606Y-74292741D01*
X186647339Y-74320000D01*
X186653553Y-74320000D01*
X185974076Y-74999474D01*
X185975826Y-75021706D01*
X185981733Y-75029365D01*
X185987714Y-75098978D01*
X185955110Y-75160774D01*
X185905188Y-75192063D01*
X185827262Y-75217885D01*
X185827259Y-75217886D01*
X185676346Y-75310971D01*
X185550971Y-75436346D01*
X185457886Y-75587259D01*
X185457884Y-75587264D01*
X185402113Y-75755572D01*
X185391500Y-75859447D01*
X185391500Y-77060537D01*
X185391501Y-77060553D01*
X185402113Y-77164426D01*
X185457885Y-77332738D01*
X185550970Y-77483652D01*
X185676348Y-77609030D01*
X185827262Y-77702115D01*
X185995574Y-77757887D01*
X186099455Y-77768500D01*
X187300544Y-77768499D01*
X187404426Y-77757887D01*
X187572738Y-77702115D01*
X187723652Y-77609030D01*
X187849030Y-77483652D01*
X187942115Y-77332738D01*
X187997887Y-77164426D01*
X188008500Y-77060545D01*
X188008499Y-75859456D01*
X187997887Y-75755574D01*
X187942115Y-75587262D01*
X187849030Y-75436348D01*
X187723652Y-75310970D01*
X187572738Y-75217885D01*
X187494811Y-75192063D01*
X187437366Y-75152290D01*
X187410543Y-75087775D01*
X187422858Y-75018999D01*
X187424541Y-75017010D01*
X187425921Y-74999474D01*
X186746447Y-74320000D01*
X186752661Y-74320000D01*
X186854394Y-74292741D01*
X186945606Y-74240080D01*
X187020080Y-74165606D01*
X187072741Y-74074394D01*
X187100000Y-73972661D01*
X187100000Y-73966448D01*
X187779474Y-74645922D01*
X187779474Y-74645921D01*
X187811859Y-74601349D01*
X187904755Y-74419031D01*
X187967990Y-74224417D01*
X188000000Y-74022317D01*
X188000000Y-73817682D01*
X187967990Y-73615582D01*
X187904755Y-73420968D01*
X187811859Y-73238650D01*
X187779474Y-73194077D01*
X187779474Y-73194076D01*
X187100000Y-73873551D01*
X187100000Y-73867339D01*
X187072741Y-73765606D01*
X187020080Y-73674394D01*
X186945606Y-73599920D01*
X186854394Y-73547259D01*
X186752661Y-73520000D01*
X186746446Y-73520000D01*
X187425922Y-72840524D01*
X187425921Y-72840523D01*
X187381359Y-72808147D01*
X187381350Y-72808141D01*
X187297180Y-72765254D01*
X187246384Y-72717279D01*
X187229589Y-72649458D01*
X187252127Y-72583323D01*
X187297179Y-72544284D01*
X187385803Y-72499129D01*
X187448741Y-72453402D01*
X194391500Y-72453402D01*
X194391500Y-72706597D01*
X194409522Y-72820382D01*
X194431106Y-72956658D01*
X194509344Y-73197450D01*
X194624287Y-73423038D01*
X194773105Y-73627868D01*
X194952132Y-73806895D01*
X195156962Y-73955713D01*
X195382550Y-74070656D01*
X195623342Y-74148894D01*
X195752176Y-74169299D01*
X195873403Y-74188500D01*
X195873408Y-74188500D01*
X196126597Y-74188500D01*
X196237108Y-74170996D01*
X196376658Y-74148894D01*
X196617450Y-74070656D01*
X196843038Y-73955713D01*
X197047868Y-73806895D01*
X197226895Y-73627868D01*
X197375713Y-73423038D01*
X197490656Y-73197450D01*
X197568894Y-72956658D01*
X197590996Y-72817108D01*
X197608500Y-72706597D01*
X197608500Y-72453402D01*
X197570941Y-72216266D01*
X197568894Y-72203342D01*
X197555248Y-72161345D01*
X205159000Y-72161345D01*
X205159000Y-74258654D01*
X205165511Y-74319202D01*
X205165511Y-74319204D01*
X205202746Y-74419031D01*
X205216611Y-74456204D01*
X205304239Y-74573261D01*
X205421296Y-74660889D01*
X205558299Y-74711989D01*
X205585550Y-74714918D01*
X205618845Y-74718499D01*
X205618862Y-74718500D01*
X207621138Y-74718500D01*
X207621154Y-74718499D01*
X207648192Y-74715591D01*
X207681701Y-74711989D01*
X207818704Y-74660889D01*
X207935761Y-74573261D01*
X208023389Y-74456204D01*
X208030507Y-74437119D01*
X208072377Y-74381187D01*
X208137842Y-74356770D01*
X208206115Y-74371622D01*
X208219566Y-74380131D01*
X208394269Y-74507060D01*
X208491078Y-74556386D01*
X208599166Y-74611460D01*
X208599168Y-74611460D01*
X208599171Y-74611462D01*
X208705224Y-74645921D01*
X208817881Y-74682526D01*
X209045012Y-74718500D01*
X209045017Y-74718500D01*
X209274988Y-74718500D01*
X209502118Y-74682526D01*
X209568712Y-74660888D01*
X209720829Y-74611462D01*
X209925731Y-74507060D01*
X210111778Y-74371889D01*
X210274389Y-74209278D01*
X210334937Y-74125940D01*
X210390264Y-74083276D01*
X210459877Y-74077297D01*
X210521672Y-74109902D01*
X210535571Y-74125941D01*
X210592097Y-74203741D01*
X210592097Y-74203742D01*
X210753757Y-74365402D01*
X210938723Y-74499788D01*
X211142429Y-74603582D01*
X211359871Y-74674234D01*
X211450000Y-74688509D01*
X211450000Y-73700747D01*
X211487708Y-73722518D01*
X211627591Y-73760000D01*
X211772409Y-73760000D01*
X211912292Y-73722518D01*
X211950000Y-73700747D01*
X211950000Y-74688508D01*
X212040128Y-74674234D01*
X212257570Y-74603582D01*
X212461276Y-74499788D01*
X212646242Y-74365402D01*
X212807902Y-74203742D01*
X212942288Y-74018776D01*
X213046082Y-73815070D01*
X213116734Y-73597628D01*
X213138532Y-73460000D01*
X212190748Y-73460000D01*
X212212518Y-73422292D01*
X212250000Y-73282409D01*
X212250000Y-73137591D01*
X212212518Y-72997708D01*
X212190748Y-72960000D01*
X213138532Y-72960000D01*
X213116734Y-72822371D01*
X213046082Y-72604929D01*
X212942288Y-72401223D01*
X212807902Y-72216257D01*
X212646242Y-72054597D01*
X212461276Y-71920211D01*
X212257568Y-71816417D01*
X212040124Y-71745765D01*
X211950000Y-71731490D01*
X211950000Y-72719252D01*
X211912292Y-72697482D01*
X211772409Y-72660000D01*
X211627591Y-72660000D01*
X211487708Y-72697482D01*
X211450000Y-72719252D01*
X211450000Y-71731490D01*
X211449999Y-71731490D01*
X211359875Y-71745765D01*
X211142431Y-71816417D01*
X210938723Y-71920211D01*
X210753757Y-72054597D01*
X210592097Y-72216257D01*
X210592090Y-72216266D01*
X210535570Y-72294058D01*
X210480240Y-72336724D01*
X210410627Y-72342702D01*
X210348832Y-72310096D01*
X210334935Y-72294057D01*
X210290155Y-72232423D01*
X210274389Y-72210722D01*
X210111778Y-72048111D01*
X209925731Y-71912940D01*
X209720833Y-71808539D01*
X209502118Y-71737473D01*
X209274988Y-71701500D01*
X209274983Y-71701500D01*
X209045017Y-71701500D01*
X209045012Y-71701500D01*
X208817881Y-71737473D01*
X208599166Y-71808539D01*
X208394265Y-71912942D01*
X208219573Y-72039863D01*
X208153767Y-72063343D01*
X208085713Y-72047517D01*
X208037018Y-71997412D01*
X208030507Y-71982880D01*
X208023389Y-71963796D01*
X207935761Y-71846739D01*
X207818704Y-71759111D01*
X207681703Y-71708011D01*
X207621154Y-71701500D01*
X207621138Y-71701500D01*
X205618862Y-71701500D01*
X205618845Y-71701500D01*
X205558297Y-71708011D01*
X205558295Y-71708011D01*
X205421295Y-71759111D01*
X205304239Y-71846739D01*
X205216611Y-71963795D01*
X205165511Y-72100795D01*
X205165511Y-72100797D01*
X205159000Y-72161345D01*
X197555248Y-72161345D01*
X197490656Y-71962550D01*
X197375713Y-71736962D01*
X197226895Y-71532132D01*
X197047868Y-71353105D01*
X196843038Y-71204287D01*
X196617450Y-71089344D01*
X196376658Y-71011106D01*
X196126597Y-70971500D01*
X196126592Y-70971500D01*
X195873408Y-70971500D01*
X195873403Y-70971500D01*
X195623341Y-71011106D01*
X195382547Y-71089345D01*
X195156961Y-71204287D01*
X195056855Y-71277019D01*
X194952132Y-71353105D01*
X194952130Y-71353107D01*
X194952129Y-71353107D01*
X194773107Y-71532129D01*
X194773107Y-71532130D01*
X194773105Y-71532132D01*
X194709193Y-71620098D01*
X194624287Y-71736961D01*
X194509345Y-71962547D01*
X194431106Y-72203341D01*
X194391500Y-72453402D01*
X187448741Y-72453402D01*
X187552430Y-72378068D01*
X187698068Y-72232430D01*
X187819129Y-72065803D01*
X187912634Y-71882290D01*
X187976280Y-71686408D01*
X188008500Y-71482981D01*
X188008500Y-71277019D01*
X187976280Y-71073592D01*
X187912634Y-70877710D01*
X187912632Y-70877707D01*
X187912632Y-70877705D01*
X187878709Y-70811128D01*
X187819129Y-70694197D01*
X187803661Y-70672908D01*
X187698073Y-70527576D01*
X187698069Y-70527571D01*
X187552428Y-70381930D01*
X187552423Y-70381926D01*
X187385806Y-70260873D01*
X187385805Y-70260872D01*
X187385803Y-70260871D01*
X187306540Y-70220484D01*
X187255745Y-70172510D01*
X187238950Y-70104689D01*
X187261487Y-70038554D01*
X187306541Y-69999515D01*
X187385803Y-69959129D01*
X187552430Y-69838068D01*
X187698068Y-69692430D01*
X187819129Y-69525803D01*
X187912634Y-69342290D01*
X187976280Y-69146408D01*
X188008500Y-68942981D01*
X188008500Y-68737019D01*
X187976280Y-68533592D01*
X187912634Y-68337710D01*
X187912632Y-68337707D01*
X187912632Y-68337705D01*
X187878709Y-68271128D01*
X187819129Y-68154197D01*
X187803661Y-68132908D01*
X187698073Y-67987576D01*
X187698069Y-67987571D01*
X187552428Y-67841930D01*
X187552423Y-67841926D01*
X187385806Y-67720873D01*
X187385805Y-67720872D01*
X187385803Y-67720871D01*
X187306540Y-67680484D01*
X187255745Y-67632510D01*
X187238950Y-67564689D01*
X187261487Y-67498554D01*
X187306541Y-67459515D01*
X187385803Y-67419129D01*
X187552430Y-67298068D01*
X187698068Y-67152430D01*
X187819129Y-66985803D01*
X187912634Y-66802290D01*
X187976280Y-66606408D01*
X188008500Y-66402981D01*
X188008500Y-66197019D01*
X187976280Y-65993592D01*
X187912634Y-65797710D01*
X187912632Y-65797707D01*
X187912632Y-65797705D01*
X187878709Y-65731128D01*
X187819129Y-65614197D01*
X187803661Y-65592908D01*
X187698073Y-65447576D01*
X187698069Y-65447571D01*
X187552428Y-65301930D01*
X187552423Y-65301926D01*
X187385806Y-65180873D01*
X187385805Y-65180872D01*
X187385803Y-65180871D01*
X187306540Y-65140484D01*
X187255745Y-65092510D01*
X187238950Y-65024689D01*
X187261487Y-64958554D01*
X187306541Y-64919515D01*
X187385803Y-64879129D01*
X187552430Y-64758068D01*
X187698068Y-64612430D01*
X187819129Y-64445803D01*
X187912634Y-64262290D01*
X187976280Y-64066408D01*
X188008500Y-63862981D01*
X188008500Y-63657019D01*
X187998319Y-63592739D01*
X187976280Y-63453591D01*
X187912632Y-63257705D01*
X187867575Y-63169278D01*
X187819129Y-63074197D01*
X187753039Y-62983231D01*
X187698073Y-62907576D01*
X187698069Y-62907571D01*
X187552428Y-62761930D01*
X187552423Y-62761926D01*
X187385806Y-62640873D01*
X187385805Y-62640872D01*
X187385803Y-62640871D01*
X187306540Y-62600484D01*
X187255745Y-62552510D01*
X187238950Y-62484689D01*
X187261487Y-62418554D01*
X187306541Y-62379515D01*
X187385803Y-62339129D01*
X187552430Y-62218068D01*
X187698068Y-62072430D01*
X187819129Y-61905803D01*
X187912634Y-61722290D01*
X187976280Y-61526408D01*
X187977383Y-61519446D01*
X194391500Y-61519446D01*
X194391500Y-63320553D01*
X194402113Y-63424428D01*
X194457884Y-63592736D01*
X194457889Y-63592747D01*
X194550967Y-63743648D01*
X194550970Y-63743652D01*
X194676347Y-63869029D01*
X194676351Y-63869032D01*
X194827252Y-63962110D01*
X194827255Y-63962111D01*
X194827261Y-63962115D01*
X194995573Y-64017887D01*
X195099454Y-64028500D01*
X195099459Y-64028500D01*
X196900541Y-64028500D01*
X196900546Y-64028500D01*
X197004427Y-64017887D01*
X197172739Y-63962115D01*
X197323652Y-63869030D01*
X197449030Y-63743652D01*
X197542115Y-63592739D01*
X197597887Y-63424427D01*
X197608500Y-63320546D01*
X197608500Y-61519454D01*
X197597887Y-61415573D01*
X197542115Y-61247261D01*
X197464448Y-61121345D01*
X204999000Y-61121345D01*
X204999000Y-63218654D01*
X205005511Y-63279202D01*
X205005511Y-63279204D01*
X205049493Y-63397121D01*
X205056611Y-63416204D01*
X205144239Y-63533261D01*
X205261296Y-63620889D01*
X205398299Y-63671989D01*
X205425550Y-63674918D01*
X205458845Y-63678499D01*
X205458862Y-63678500D01*
X207461138Y-63678500D01*
X207461154Y-63678499D01*
X207488192Y-63675591D01*
X207521701Y-63671989D01*
X207658704Y-63620889D01*
X207775761Y-63533261D01*
X207863389Y-63416204D01*
X207870507Y-63397119D01*
X207912377Y-63341187D01*
X207977842Y-63316770D01*
X208046115Y-63331622D01*
X208059566Y-63340131D01*
X208234269Y-63467060D01*
X208331078Y-63516386D01*
X208439166Y-63571460D01*
X208439168Y-63571460D01*
X208439171Y-63571462D01*
X208556404Y-63609553D01*
X208657881Y-63642526D01*
X208885012Y-63678500D01*
X208885017Y-63678500D01*
X209114988Y-63678500D01*
X209342118Y-63642526D01*
X209408712Y-63620888D01*
X209560829Y-63571462D01*
X209765731Y-63467060D01*
X209951778Y-63331889D01*
X210114389Y-63169278D01*
X210169683Y-63093172D01*
X210225012Y-63050508D01*
X210294625Y-63044529D01*
X210356420Y-63077135D01*
X210370314Y-63093169D01*
X210425611Y-63169278D01*
X210588222Y-63331889D01*
X210774269Y-63467060D01*
X210871078Y-63516386D01*
X210979166Y-63571460D01*
X210979168Y-63571460D01*
X210979171Y-63571462D01*
X211096404Y-63609553D01*
X211197881Y-63642526D01*
X211425012Y-63678500D01*
X211425017Y-63678500D01*
X211654988Y-63678500D01*
X211882118Y-63642526D01*
X211948712Y-63620888D01*
X212100829Y-63571462D01*
X212305731Y-63467060D01*
X212491778Y-63331889D01*
X212654389Y-63169278D01*
X212789560Y-62983231D01*
X212893962Y-62778329D01*
X212965026Y-62559618D01*
X212966152Y-62552510D01*
X213001000Y-62332488D01*
X213001000Y-62007511D01*
X212965026Y-61780381D01*
X212893960Y-61561666D01*
X212789559Y-61356768D01*
X212654389Y-61170722D01*
X212491778Y-61008111D01*
X212305731Y-60872940D01*
X212100833Y-60768539D01*
X211882118Y-60697473D01*
X211654988Y-60661500D01*
X211654983Y-60661500D01*
X211425017Y-60661500D01*
X211425012Y-60661500D01*
X211197881Y-60697473D01*
X210979166Y-60768539D01*
X210774268Y-60872940D01*
X210588219Y-61008113D01*
X210425612Y-61170720D01*
X210370318Y-61246826D01*
X210314987Y-61289491D01*
X210245374Y-61295470D01*
X210183579Y-61262864D01*
X210169682Y-61246826D01*
X210153259Y-61224222D01*
X210114389Y-61170722D01*
X209951778Y-61008111D01*
X209765731Y-60872940D01*
X209560833Y-60768539D01*
X209342118Y-60697473D01*
X209114988Y-60661500D01*
X209114983Y-60661500D01*
X208885017Y-60661500D01*
X208885012Y-60661500D01*
X208657881Y-60697473D01*
X208439166Y-60768539D01*
X208234265Y-60872942D01*
X208059573Y-60999863D01*
X207993767Y-61023343D01*
X207925713Y-61007517D01*
X207877018Y-60957412D01*
X207870507Y-60942880D01*
X207863389Y-60923796D01*
X207775761Y-60806739D01*
X207658704Y-60719111D01*
X207600694Y-60697474D01*
X207521703Y-60668011D01*
X207461154Y-60661500D01*
X207461138Y-60661500D01*
X205458862Y-60661500D01*
X205458845Y-60661500D01*
X205398297Y-60668011D01*
X205398295Y-60668011D01*
X205261295Y-60719111D01*
X205144239Y-60806739D01*
X205056611Y-60923795D01*
X205005511Y-61060795D01*
X205005511Y-61060797D01*
X204999000Y-61121345D01*
X197464448Y-61121345D01*
X197449030Y-61096348D01*
X197323652Y-60970970D01*
X197323648Y-60970967D01*
X197172747Y-60877889D01*
X197172741Y-60877886D01*
X197172739Y-60877885D01*
X197157816Y-60872940D01*
X197004428Y-60822113D01*
X196900553Y-60811500D01*
X196900546Y-60811500D01*
X195099454Y-60811500D01*
X195099446Y-60811500D01*
X194995571Y-60822113D01*
X194827263Y-60877884D01*
X194827252Y-60877889D01*
X194676351Y-60970967D01*
X194676347Y-60970970D01*
X194550970Y-61096347D01*
X194550967Y-61096351D01*
X194457889Y-61247252D01*
X194457884Y-61247263D01*
X194402113Y-61415571D01*
X194391500Y-61519446D01*
X187977383Y-61519446D01*
X188008500Y-61322981D01*
X188008500Y-61117019D01*
X187991251Y-61008113D01*
X187976280Y-60913591D01*
X187912632Y-60717705D01*
X187878709Y-60651128D01*
X187819129Y-60534197D01*
X187803661Y-60512908D01*
X187698073Y-60367576D01*
X187698069Y-60367571D01*
X187552428Y-60221930D01*
X187552423Y-60221926D01*
X187385806Y-60100873D01*
X187385805Y-60100872D01*
X187385803Y-60100871D01*
X187328496Y-60071671D01*
X187202294Y-60007367D01*
X187006408Y-59943719D01*
X186830794Y-59915905D01*
X186802981Y-59911500D01*
X186597019Y-59911500D01*
X186572550Y-59915375D01*
X186393591Y-59943719D01*
X186197705Y-60007367D01*
X186014193Y-60100873D01*
X185847576Y-60221926D01*
X185847571Y-60221930D01*
X185701930Y-60367571D01*
X185701926Y-60367576D01*
X185580873Y-60534193D01*
X185487367Y-60717705D01*
X185423719Y-60913591D01*
X185391500Y-61117019D01*
X184811177Y-61117019D01*
X184784950Y-52278495D01*
X186479500Y-52278495D01*
X186479500Y-53899804D01*
X186486011Y-53960352D01*
X186486011Y-53960354D01*
X186537111Y-54097354D01*
X186624739Y-54214411D01*
X186741796Y-54302039D01*
X186878799Y-54353139D01*
X186906050Y-54356068D01*
X186939345Y-54359649D01*
X186939362Y-54359650D01*
X188560638Y-54359650D01*
X188560654Y-54359649D01*
X188587692Y-54356741D01*
X188621201Y-54353139D01*
X188758204Y-54302039D01*
X188875261Y-54214411D01*
X188962889Y-54097354D01*
X189013989Y-53960351D01*
X189017591Y-53926842D01*
X189020499Y-53899804D01*
X189020500Y-53899787D01*
X189020500Y-52278512D01*
X189020499Y-52278495D01*
X199479500Y-52278495D01*
X199479500Y-53899804D01*
X199486011Y-53960352D01*
X199486011Y-53960354D01*
X199537111Y-54097354D01*
X199624739Y-54214411D01*
X199741796Y-54302039D01*
X199878799Y-54353139D01*
X199906050Y-54356068D01*
X199939345Y-54359649D01*
X199939362Y-54359650D01*
X201560638Y-54359650D01*
X201560654Y-54359649D01*
X201587692Y-54356741D01*
X201621201Y-54353139D01*
X201758204Y-54302039D01*
X201875261Y-54214411D01*
X201962889Y-54097354D01*
X202013989Y-53960351D01*
X202017591Y-53926842D01*
X202020499Y-53899804D01*
X202020500Y-53899787D01*
X202020500Y-52278512D01*
X202020499Y-52278495D01*
X202017157Y-52247420D01*
X202013989Y-52217949D01*
X201962889Y-52080946D01*
X201875261Y-51963889D01*
X201758204Y-51876261D01*
X201621203Y-51825161D01*
X201560654Y-51818650D01*
X201560638Y-51818650D01*
X199939362Y-51818650D01*
X199939345Y-51818650D01*
X199878797Y-51825161D01*
X199878795Y-51825161D01*
X199741795Y-51876261D01*
X199624739Y-51963889D01*
X199537111Y-52080945D01*
X199486011Y-52217945D01*
X199486011Y-52217947D01*
X199479500Y-52278495D01*
X189020499Y-52278495D01*
X189017157Y-52247420D01*
X189013989Y-52217949D01*
X188962889Y-52080946D01*
X188875261Y-51963889D01*
X188758204Y-51876261D01*
X188621203Y-51825161D01*
X188560654Y-51818650D01*
X188560638Y-51818650D01*
X186939362Y-51818650D01*
X186939345Y-51818650D01*
X186878797Y-51825161D01*
X186878795Y-51825161D01*
X186741795Y-51876261D01*
X186624739Y-51963889D01*
X186537111Y-52080945D01*
X186486011Y-52217945D01*
X186486011Y-52217947D01*
X186479500Y-52278495D01*
X184784950Y-52278495D01*
X184779309Y-50377343D01*
X220691500Y-50377343D01*
X220691500Y-50622657D01*
X220729876Y-50864950D01*
X220805682Y-51098256D01*
X220917051Y-51316832D01*
X221061243Y-51515294D01*
X221234706Y-51688757D01*
X221433168Y-51832949D01*
X221651744Y-51944318D01*
X221885050Y-52020124D01*
X222127343Y-52058500D01*
X222127344Y-52058500D01*
X222372656Y-52058500D01*
X222372657Y-52058500D01*
X222614950Y-52020124D01*
X222848256Y-51944318D01*
X223066832Y-51832949D01*
X223265294Y-51688757D01*
X223438757Y-51515294D01*
X223582949Y-51316832D01*
X223694318Y-51098256D01*
X223770124Y-50864950D01*
X223808500Y-50622657D01*
X223808500Y-50377343D01*
X223770124Y-50135050D01*
X223694318Y-49901744D01*
X223582949Y-49683168D01*
X223475579Y-49535388D01*
X223452101Y-49469585D01*
X223467926Y-49401531D01*
X223510809Y-49356962D01*
X223518346Y-49352313D01*
X223642315Y-49228344D01*
X223734356Y-49079123D01*
X223734358Y-49079118D01*
X223789505Y-48912696D01*
X223789506Y-48912689D01*
X223799999Y-48809985D01*
X223800000Y-48809972D01*
X223800000Y-48210000D01*
X222740748Y-48210000D01*
X222762518Y-48172292D01*
X222800000Y-48032409D01*
X222800000Y-47887591D01*
X222762518Y-47747708D01*
X222740748Y-47710000D01*
X223800000Y-47710000D01*
X223800000Y-47110027D01*
X223799999Y-47110014D01*
X223789506Y-47007310D01*
X223789505Y-47007303D01*
X223734358Y-46840881D01*
X223734356Y-46840876D01*
X223642315Y-46691655D01*
X223518344Y-46567684D01*
X223369123Y-46475643D01*
X223369118Y-46475641D01*
X223202696Y-46420494D01*
X223202689Y-46420493D01*
X223099985Y-46410000D01*
X222500000Y-46410000D01*
X222500000Y-47469252D01*
X222462292Y-47447482D01*
X222322409Y-47410000D01*
X222177591Y-47410000D01*
X222037708Y-47447482D01*
X222000000Y-47469252D01*
X222000000Y-46410000D01*
X221400014Y-46410000D01*
X221297310Y-46420493D01*
X221297303Y-46420494D01*
X221130881Y-46475641D01*
X221130876Y-46475643D01*
X220981655Y-46567684D01*
X220857684Y-46691655D01*
X220765643Y-46840876D01*
X220765641Y-46840881D01*
X220710494Y-47007303D01*
X220710493Y-47007310D01*
X220700000Y-47110014D01*
X220700000Y-47710000D01*
X221759252Y-47710000D01*
X221737482Y-47747708D01*
X221700000Y-47887591D01*
X221700000Y-48032409D01*
X221737482Y-48172292D01*
X221759252Y-48210000D01*
X220700000Y-48210000D01*
X220700000Y-48809985D01*
X220710493Y-48912689D01*
X220710494Y-48912696D01*
X220765641Y-49079118D01*
X220765643Y-49079123D01*
X220857684Y-49228344D01*
X220981656Y-49352316D01*
X220981660Y-49352319D01*
X220989198Y-49356969D01*
X221035922Y-49408918D01*
X221047142Y-49477880D01*
X221024417Y-49535392D01*
X220917051Y-49683167D01*
X220805683Y-49901741D01*
X220729875Y-50135053D01*
X220691500Y-50377343D01*
X184779309Y-50377343D01*
X184770706Y-47478028D01*
X186488000Y-47478028D01*
X186488000Y-47676671D01*
X186519075Y-47872870D01*
X186519075Y-47872873D01*
X186580457Y-48061787D01*
X186670641Y-48238782D01*
X186697730Y-48276065D01*
X186697731Y-48276066D01*
X187260504Y-47713292D01*
X187276619Y-47773431D01*
X187343498Y-47889270D01*
X187438080Y-47983852D01*
X187553919Y-48050731D01*
X187614057Y-48066844D01*
X187051283Y-48629618D01*
X187051283Y-48629619D01*
X187088567Y-48656708D01*
X187265562Y-48746892D01*
X187454477Y-48808274D01*
X187650679Y-48839350D01*
X187849321Y-48839350D01*
X188045520Y-48808274D01*
X188045523Y-48808274D01*
X188234437Y-48746892D01*
X188411425Y-48656712D01*
X188448716Y-48629618D01*
X187885942Y-48066844D01*
X187946081Y-48050731D01*
X188061920Y-47983852D01*
X188156502Y-47889270D01*
X188223381Y-47773431D01*
X188239495Y-47713292D01*
X188802268Y-48276065D01*
X188829362Y-48238775D01*
X188919542Y-48061787D01*
X188980924Y-47872873D01*
X188980924Y-47872870D01*
X189012000Y-47676671D01*
X189012000Y-47478028D01*
X199488000Y-47478028D01*
X199488000Y-47676671D01*
X199519075Y-47872870D01*
X199519075Y-47872873D01*
X199580457Y-48061787D01*
X199670641Y-48238782D01*
X199697730Y-48276065D01*
X199697731Y-48276066D01*
X200260504Y-47713292D01*
X200276619Y-47773431D01*
X200343498Y-47889270D01*
X200438080Y-47983852D01*
X200553919Y-48050731D01*
X200614057Y-48066844D01*
X200051283Y-48629618D01*
X200051283Y-48629619D01*
X200088567Y-48656708D01*
X200265562Y-48746892D01*
X200454477Y-48808274D01*
X200650679Y-48839350D01*
X200849321Y-48839350D01*
X201045520Y-48808274D01*
X201045523Y-48808274D01*
X201234437Y-48746892D01*
X201411425Y-48656712D01*
X201448716Y-48629618D01*
X200885942Y-48066844D01*
X200946081Y-48050731D01*
X201061920Y-47983852D01*
X201156502Y-47889270D01*
X201223381Y-47773431D01*
X201239495Y-47713292D01*
X201802268Y-48276065D01*
X201829362Y-48238775D01*
X201919542Y-48061787D01*
X201980924Y-47872873D01*
X201980924Y-47872870D01*
X202012000Y-47676671D01*
X202012000Y-47478028D01*
X201980924Y-47281829D01*
X201980924Y-47281826D01*
X201936526Y-47145183D01*
X201919542Y-47092912D01*
X201829358Y-46915917D01*
X201802268Y-46878633D01*
X201239494Y-47441407D01*
X201223381Y-47381269D01*
X201156502Y-47265430D01*
X201061920Y-47170848D01*
X200946081Y-47103969D01*
X200885942Y-47087854D01*
X201448716Y-46525081D01*
X201448715Y-46525080D01*
X201411432Y-46497991D01*
X201234437Y-46407807D01*
X201045522Y-46346425D01*
X200849321Y-46315350D01*
X200650679Y-46315350D01*
X200454479Y-46346425D01*
X200454476Y-46346425D01*
X200265562Y-46407807D01*
X200088564Y-46497993D01*
X200051283Y-46525079D01*
X200051282Y-46525080D01*
X200614058Y-47087854D01*
X200553919Y-47103969D01*
X200438080Y-47170848D01*
X200343498Y-47265430D01*
X200276619Y-47381269D01*
X200260504Y-47441407D01*
X199697730Y-46878632D01*
X199697729Y-46878633D01*
X199670643Y-46915914D01*
X199580457Y-47092912D01*
X199519075Y-47281826D01*
X199519075Y-47281829D01*
X199488000Y-47478028D01*
X189012000Y-47478028D01*
X188980924Y-47281829D01*
X188980924Y-47281826D01*
X188919542Y-47092912D01*
X188829358Y-46915917D01*
X188802268Y-46878633D01*
X188239494Y-47441407D01*
X188223381Y-47381269D01*
X188156502Y-47265430D01*
X188061920Y-47170848D01*
X187946081Y-47103969D01*
X187885942Y-47087854D01*
X188448716Y-46525081D01*
X188448715Y-46525080D01*
X188411432Y-46497991D01*
X188234437Y-46407807D01*
X188045522Y-46346425D01*
X187849321Y-46315350D01*
X187650679Y-46315350D01*
X187454479Y-46346425D01*
X187454476Y-46346425D01*
X187265562Y-46407807D01*
X187088564Y-46497993D01*
X187051283Y-46525079D01*
X187051282Y-46525080D01*
X187614058Y-47087854D01*
X187553919Y-47103969D01*
X187438080Y-47170848D01*
X187343498Y-47265430D01*
X187276619Y-47381269D01*
X187260504Y-47441407D01*
X186697730Y-46878632D01*
X186697729Y-46878633D01*
X186670643Y-46915914D01*
X186580457Y-47092912D01*
X186519075Y-47281826D01*
X186519075Y-47281829D01*
X186488000Y-47478028D01*
X184770706Y-47478028D01*
X184756087Y-42551458D01*
X184775572Y-42484363D01*
X184792270Y-42463547D01*
X185716124Y-41536948D01*
X185777396Y-41503373D01*
X185803934Y-41500500D01*
X232875500Y-41500500D01*
X232942539Y-41520185D01*
G37*
%TD.AperFunction*%
%TD*%
M02*
