M48
; DRILL file KiCad 10.0.4 date 2026-07-09T16:50:44
; FORMAT={-:-/ absolute / metric / decimal}
; #@! TF.CreationDate,2026-07-09T16:50:44-04:00
; #@! TF.GenerationSoftware,Kicad,Pcbnew,10.0.4
; #@! TF.FileFunction,Plated,1,2,PTH
FMAT,2
METRIC
; #@! TA.AperFunction,Plated,PTH,ViaDrill
T1C0.400
; #@! TA.AperFunction,Plated,PTH,ComponentDrill
T2C0.800
; #@! TA.AperFunction,Plated,PTH,ComponentDrill
T3C1.000
; #@! TA.AperFunction,Plated,PTH,ComponentDrill
T4C1.016
; #@! TA.AperFunction,Plated,PTH,ComponentDrill
T5C1.100
%
G90
G05
T1
X168.25Y-70.75
X173.0Y-70.75
X175.5Y-62.09
X176.5Y-80.75
X176.75Y-101.6
X193.25Y-74.25
X193.25Y-95.031
X193.875Y-115.895
X208.132Y-45.75
X208.132Y-46.75
X209.382Y-45.75
X209.382Y-46.75
X210.632Y-45.75
X210.632Y-46.75
X211.882Y-45.75
X211.882Y-46.75
X213.132Y-45.75
X213.132Y-46.75
X214.382Y-45.75
X214.382Y-46.75
T2
X179.08Y-61.22
X179.08Y-63.76
X179.08Y-66.3
X179.08Y-68.84
X179.08Y-71.38
X179.08Y-73.92
X179.08Y-76.46
X179.295Y-82.001
X179.295Y-84.541
X179.295Y-87.081
X179.295Y-89.621
X179.295Y-92.161
X179.295Y-94.701
X179.295Y-97.241
X179.455Y-102.865
X179.455Y-105.405
X179.455Y-107.945
X179.455Y-110.485
X179.455Y-113.025
X179.455Y-115.565
X179.455Y-118.105
X186.7Y-61.22
X186.7Y-63.76
X186.7Y-66.3
X186.7Y-68.84
X186.7Y-71.38
X186.7Y-73.92
X186.7Y-76.46
X186.915Y-82.001
X186.915Y-84.541
X186.915Y-87.081
X186.915Y-89.621
X186.915Y-92.161
X186.915Y-94.701
X186.915Y-97.241
X187.075Y-102.865
X187.075Y-105.405
X187.075Y-107.945
X187.075Y-110.485
X187.075Y-113.025
X187.075Y-115.565
X187.075Y-118.105
T3
X133.38Y-81.21
X133.38Y-83.75
X133.38Y-86.29
X133.38Y-88.83
X133.38Y-91.37
X133.38Y-93.91
X146.01Y-70.76
X146.01Y-73.3
X146.01Y-75.84
X146.01Y-78.38
X146.01Y-80.92
X146.01Y-83.46
X146.01Y-86.0
X146.01Y-88.54
X146.01Y-91.08
X146.01Y-93.62
X146.01Y-96.16
X146.01Y-98.7
X146.01Y-101.24
X146.01Y-103.78
X146.01Y-106.32
X161.25Y-70.76
X161.25Y-73.3
X161.25Y-75.84
X161.25Y-78.38
X161.25Y-80.92
X161.25Y-83.46
X161.25Y-86.0
X161.25Y-88.54
X161.25Y-91.08
X161.25Y-93.62
X161.25Y-96.16
X161.25Y-98.7
X161.25Y-101.24
X161.25Y-103.78
X161.25Y-106.32
T4
X187.75Y-47.577
X187.75Y-53.089
X200.75Y-47.577
X200.75Y-53.089
T5
X196.0Y-62.42
X196.0Y-72.58
X196.215Y-83.201
X196.215Y-93.361
X196.375Y-104.065
X196.375Y-114.225
X206.46Y-62.17
X206.62Y-73.21
X206.675Y-82.951
X206.835Y-93.991
X206.835Y-103.815
X206.995Y-114.855
X209.0Y-62.17
X209.16Y-73.21
X209.215Y-82.951
X209.375Y-93.991
X209.375Y-103.815
X209.535Y-114.855
X211.54Y-62.17
X211.7Y-73.21
X211.755Y-82.951
X211.915Y-93.991
X211.915Y-103.815
X212.075Y-114.855
X222.25Y-47.96
X222.25Y-50.5
X224.75Y-86.21
X224.75Y-88.75
X224.75Y-91.29
M30
