%TF.GenerationSoftware,KiCad,Pcbnew,10.0.4*%
%TF.CreationDate,2026-07-09T16:51:33-04:00*%
%TF.ProjectId,PWM_6_step_SWPWM_DIRTY,50574d5f-365f-4737-9465-705f53575057,rev?*%
%TF.SameCoordinates,Original*%
%TF.FileFunction,Soldermask,Top*%
%TF.FilePolarity,Negative*%
%FSLAX46Y46*%
G04 Gerber Fmt 4.6, Leading zero omitted, Abs format (unit mm)*
G04 Created by KiCad (PCBNEW 10.0.4) date 2026-07-09 16:51:33*
%MOMM*%
%LPD*%
G01*
G04 APERTURE LIST*
G04 Aperture macros list*
%AMRoundRect*
0 Rectangle with rounded corners*
0 $1 Rounding radius*
0 $2 $3 $4 $5 $6 $7 $8 $9 X,Y pos of 4 corners*
0 Add a 4 corners polygon primitive as box body*
4,1,4,$2,$3,$4,$5,$6,$7,$8,$9,$2,$3,0*
0 Add four circle primitives for the rounded corners*
1,1,$1+$1,$2,$3*
1,1,$1+$1,$4,$5*
1,1,$1+$1,$6,$7*
1,1,$1+$1,$8,$9*
0 Add four rect primitives between the rounded corners*
20,1,$1+$1,$2,$3,$4,$5,0*
20,1,$1+$1,$4,$5,$6,$7,0*
20,1,$1+$1,$6,$7,$8,$9,0*
20,1,$1+$1,$8,$9,$2,$3,0*%
G04 Aperture macros list end*
%ADD10RoundRect,0.250000X-0.312500X-0.625000X0.312500X-0.625000X0.312500X0.625000X-0.312500X0.625000X0*%
%ADD11R,1.905000X2.000000*%
%ADD12O,1.905000X2.000000*%
%ADD13R,1.700000X1.700000*%
%ADD14C,1.700000*%
%ADD15RoundRect,0.250000X-0.650000X0.325000X-0.650000X-0.325000X0.650000X-0.325000X0.650000X0.325000X0*%
%ADD16RoundRect,0.250000X0.550000X0.550000X-0.550000X0.550000X-0.550000X-0.550000X0.550000X-0.550000X0*%
%ADD17C,1.600000*%
%ADD18RoundRect,0.249999X-0.850001X0.850001X-0.850001X-0.850001X0.850001X-0.850001X0.850001X0.850001X0*%
%ADD19C,2.200000*%
%ADD20RoundRect,0.225000X-0.250000X0.225000X-0.250000X-0.225000X0.250000X-0.225000X0.250000X0.225000X0*%
%ADD21RoundRect,0.250000X0.650000X-0.325000X0.650000X0.325000X-0.650000X0.325000X-0.650000X-0.325000X0*%
%ADD22RoundRect,0.250001X-0.799999X0.799999X-0.799999X-0.799999X0.799999X-0.799999X0.799999X0.799999X0*%
%ADD23C,2.100000*%
%ADD24R,1.524000X1.524000*%
%ADD25C,1.524000*%
G04 APERTURE END LIST*
D10*
%TO.C,R2*%
X199737500Y-73210000D03*
X202662500Y-73210000D03*
%TD*%
D11*
%TO.C,Q1*%
X206620000Y-73210000D03*
D12*
X209160000Y-73210000D03*
X211700000Y-73210000D03*
%TD*%
D13*
%TO.C,J1*%
X146010000Y-70760000D03*
D14*
X146010000Y-73300000D03*
X146010000Y-75840000D03*
X146010000Y-78380000D03*
X146010000Y-80920000D03*
X146010000Y-83460000D03*
X146010000Y-86000000D03*
X146010000Y-88540000D03*
X146010000Y-91080000D03*
X146010000Y-93620000D03*
X146010000Y-96160000D03*
X146010000Y-98700000D03*
X146010000Y-101240000D03*
X146010000Y-103780000D03*
X146010000Y-106320000D03*
%TD*%
D15*
%TO.C,C9*%
X192125000Y-112895367D03*
X192125000Y-115845367D03*
%TD*%
%TO.C,C1*%
X189750000Y-63485000D03*
X189750000Y-66435000D03*
%TD*%
D16*
%TO.C,U3*%
X187075000Y-118105367D03*
D17*
X187075000Y-115565367D03*
X187075000Y-113025367D03*
X187075000Y-110485367D03*
X187075000Y-107945367D03*
X187075000Y-105405367D03*
X187075000Y-102865367D03*
X179455000Y-102865367D03*
X179455000Y-105405367D03*
X179455000Y-107945367D03*
X179455000Y-110485367D03*
X179455000Y-113025367D03*
X179455000Y-115565367D03*
X179455000Y-118105367D03*
%TD*%
D18*
%TO.C,D2*%
X196215000Y-83201077D03*
D19*
X196215000Y-93361077D03*
%TD*%
D20*
%TO.C,C16*%
X176750000Y-102950000D03*
X176750000Y-104500000D03*
%TD*%
D21*
%TO.C,C10*%
X213000000Y-51500000D03*
X213000000Y-48550000D03*
%TD*%
D20*
%TO.C,C14*%
X176750000Y-62225000D03*
X176750000Y-63775000D03*
%TD*%
D15*
%TO.C,C6*%
X191965000Y-92031077D03*
X191965000Y-94981077D03*
%TD*%
%TO.C,C7*%
X190125000Y-105130367D03*
X190125000Y-108080367D03*
%TD*%
D11*
%TO.C,Q4*%
X206835000Y-93991077D03*
D12*
X209375000Y-93991077D03*
X211915000Y-93991077D03*
%TD*%
D10*
%TO.C,R4*%
X199952500Y-93991077D03*
X202877500Y-93991077D03*
%TD*%
D18*
%TO.C,D1*%
X196000000Y-62420000D03*
D19*
X196000000Y-72580000D03*
%TD*%
D15*
%TO.C,C2*%
X189200000Y-71250000D03*
X189200000Y-74200000D03*
%TD*%
%TO.C,C5*%
X189415000Y-92031077D03*
X189415000Y-94981077D03*
%TD*%
%TO.C,C3*%
X191750000Y-71250000D03*
X191750000Y-74200000D03*
%TD*%
D11*
%TO.C,Q6*%
X206995000Y-114855367D03*
D12*
X209535000Y-114855367D03*
X212075000Y-114855367D03*
%TD*%
D10*
%TO.C,R1*%
X199737500Y-62210000D03*
X202662500Y-62210000D03*
%TD*%
D22*
%TO.C,J3*%
X222250000Y-47960000D03*
D23*
X222250000Y-50500000D03*
%TD*%
D22*
%TO.C,J5*%
X224750000Y-86210000D03*
D23*
X224750000Y-88750000D03*
X224750000Y-91290000D03*
%TD*%
D24*
%TO.C,C13*%
X187750000Y-53089150D03*
D25*
X187750000Y-47577350D03*
%TD*%
D24*
%TO.C,C12*%
X200750000Y-53089150D03*
D25*
X200750000Y-47577350D03*
%TD*%
D11*
%TO.C,Q2*%
X206460000Y-62170000D03*
D12*
X209000000Y-62170000D03*
X211540000Y-62170000D03*
%TD*%
D11*
%TO.C,Q3*%
X206675000Y-82951077D03*
D12*
X209215000Y-82951077D03*
X211755000Y-82951077D03*
%TD*%
D10*
%TO.C,R6*%
X200112500Y-114855367D03*
X203037500Y-114855367D03*
%TD*%
D16*
%TO.C,U1*%
X186700000Y-76460000D03*
D17*
X186700000Y-73920000D03*
X186700000Y-71380000D03*
X186700000Y-68840000D03*
X186700000Y-66300000D03*
X186700000Y-63760000D03*
X186700000Y-61220000D03*
X179080000Y-61220000D03*
X179080000Y-63760000D03*
X179080000Y-66300000D03*
X179080000Y-68840000D03*
X179080000Y-71380000D03*
X179080000Y-73920000D03*
X179080000Y-76460000D03*
%TD*%
D21*
%TO.C,C11*%
X209000000Y-51455000D03*
X209000000Y-48505000D03*
%TD*%
D20*
%TO.C,C15*%
X176500000Y-81750000D03*
X176500000Y-83300000D03*
%TD*%
D10*
%TO.C,R5*%
X200112500Y-103855367D03*
X203037500Y-103855367D03*
%TD*%
D15*
%TO.C,C4*%
X189965000Y-84266077D03*
X189965000Y-87216077D03*
%TD*%
D13*
%TO.C,J4*%
X133380000Y-93910000D03*
D14*
X133380000Y-91370000D03*
X133380000Y-88830000D03*
X133380000Y-86290000D03*
X133380000Y-83750000D03*
X133380000Y-81210000D03*
%TD*%
D15*
%TO.C,C8*%
X189575000Y-112895367D03*
X189575000Y-115845367D03*
%TD*%
D16*
%TO.C,U2*%
X186915000Y-97241077D03*
D17*
X186915000Y-94701077D03*
X186915000Y-92161077D03*
X186915000Y-89621077D03*
X186915000Y-87081077D03*
X186915000Y-84541077D03*
X186915000Y-82001077D03*
X179295000Y-82001077D03*
X179295000Y-84541077D03*
X179295000Y-87081077D03*
X179295000Y-89621077D03*
X179295000Y-92161077D03*
X179295000Y-94701077D03*
X179295000Y-97241077D03*
%TD*%
D18*
%TO.C,D3*%
X196375000Y-104065367D03*
D19*
X196375000Y-114225367D03*
%TD*%
D11*
%TO.C,Q5*%
X206835000Y-103815367D03*
D12*
X209375000Y-103815367D03*
X211915000Y-103815367D03*
%TD*%
D13*
%TO.C,J2*%
X161250000Y-70760000D03*
D14*
X161250000Y-73300000D03*
X161250000Y-75840000D03*
X161250000Y-78380000D03*
X161250000Y-80920000D03*
X161250000Y-83460000D03*
X161250000Y-86000000D03*
X161250000Y-88540000D03*
X161250000Y-91080000D03*
X161250000Y-93620000D03*
X161250000Y-96160000D03*
X161250000Y-98700000D03*
X161250000Y-101240000D03*
X161250000Y-103780000D03*
X161250000Y-106320000D03*
%TD*%
D10*
%TO.C,R3*%
X199952500Y-82991077D03*
X202877500Y-82991077D03*
%TD*%
M02*
