M48
; DRILL file KiCad 10.0.3 date 2026-07-12T19:20:27
; FORMAT={-:-/ absolute / metric / decimal}
; #@! TF.CreationDate,2026-07-12T19:20:27-04:00
; #@! TF.GenerationSoftware,Kicad,Pcbnew,10.0.3
; #@! TF.FileFunction,Plated,1,2,PTH
FMAT,2
METRIC
; #@! TA.AperFunction,Plated,PTH,ViaDrill
T1C0.400
; #@! TA.AperFunction,Plated,PTH,ComponentDrill
T2C0.800
; #@! TA.AperFunction,Plated,PTH,ComponentDrill
T3C1.000
; #@! TA.AperFunction,Plated,PTH,ComponentDrill
T4C1.016
; #@! TA.AperFunction,Plated,PTH,ComponentDrill
T5C1.100
%
G90
G05
T1
X146.685Y-87.757
X146.939Y-103.759
X147.066Y-71.12
X147.877Y-51.562
X148.59Y-105.156
X148.915Y-72.315
X149.098Y-88.805
X156.648Y-55.622
X157.75Y-86.17
X157.75Y-92.67
X157.787Y-102.23
X157.787Y-108.73
X157.8Y-69.68
X157.8Y-76.18
X160.401Y-104.14
X160.909Y-90.043
X161.036Y-73.533
X161.25Y-82.92
X161.287Y-98.98
X161.3Y-66.43
X186.436Y-55.642
T2
X143.66Y-57.912
X147.16Y-57.912
T3
X142.494Y-66.543
X142.494Y-69.083
X142.621Y-82.926
X142.621Y-85.466
X142.875Y-99.182
X142.875Y-101.722
X143.529Y-48.006
X146.07Y-48.006
T4
X164.592Y-49.981
X164.592Y-55.493
X177.927Y-49.987
X177.927Y-55.499
T5
X164.0Y-80.86
X164.0Y-88.48
X164.037Y-96.92
X164.037Y-104.54
X164.05Y-64.37
X164.05Y-71.99
X170.91Y-81.92
X170.92Y-89.87
X170.947Y-97.98
X170.957Y-105.93
X170.96Y-65.43
X170.97Y-73.38
X173.45Y-81.92
X173.46Y-89.87
X173.487Y-97.98
X173.498Y-105.93
X173.5Y-65.43
X173.51Y-73.38
X175.99Y-81.92
X176.0Y-89.87
X176.028Y-97.98
X176.037Y-105.93
X176.04Y-65.43
X176.05Y-73.38
X187.573Y-64.516
X187.573Y-67.056
X187.701Y-81.28
X187.701Y-83.82
X187.706Y-96.774
X187.706Y-99.314
X192.024Y-51.562
X192.024Y-54.102
M30
